# Blender 5.1.1
# www.blender.org
mtllib armario destruído.mtl
o Cube.002
v -18.719769 -22.953529 6.703230
v -18.719769 -22.953529 8.007444
v -20.004169 -23.180004 6.703230
v -20.004169 -23.180004 8.007444
v 19.812248 -16.159296 -8.295239
v 19.202431 -24.382494 -8.072147
v 19.812248 -16.159296 -6.991025
v 19.202431 -24.382494 -7.214117
v 18.527855 -16.385771 -8.295239
v 18.344398 -24.382494 -8.072147
v 18.527855 -16.385771 -6.991025
v 18.344398 -24.382494 -7.214117
v 19.812248 -16.159296 6.703230
v 19.202431 -24.382494 6.926322
v 19.812248 -16.159296 8.007444
v 19.202431 -24.382494 7.784353
v 18.527855 -16.385771 6.703230
v 18.344398 -24.382494 6.926322
v 18.527855 -16.385771 8.007444
v 18.344398 -24.382494 7.784353
v -18.719769 -22.953529 -8.295239
v -18.719769 -22.953529 -6.991025
v -20.004169 -23.180004 -8.295239
v -20.004169 -23.180004 -6.991025
v 19.699383 -15.519146 8.007444
v 18.414978 -15.745619 8.007444
v 19.699383 -15.519146 6.703230
v 18.414978 -15.745619 6.703230
v 18.527855 -16.385771 -8.295239
v 19.812248 -16.159296 -8.295239
v 18.414978 -15.745619 -8.295239
v 19.699383 -15.519146 -8.295239
v -20.004169 -23.180004 8.007444
v -20.004169 -23.180004 6.703230
v -20.117044 -22.539856 8.007444
v -20.117044 -22.539856 6.703230
v -20.117044 -22.539856 -8.295239
v -20.004169 -23.180004 -8.295239
v -6.630836 -20.161873 8.007444
v -6.630836 -20.161873 6.703230
v -18.719769 -22.953529 6.703230
v -18.719769 -22.953529 -8.295239
v -18.832645 -22.313379 -8.295239
v -18.832645 -22.313379 6.703230
v -18.832645 -22.313379 8.007444
v -18.719769 -22.953529 8.007444
v 19.699383 -15.519146 -7.005928
v 18.414978 -15.745619 -7.005928
v 18.527855 -16.385771 -7.005928
v 19.812248 -16.159296 -7.005928
v -20.117044 -22.539856 -7.005928
v -20.004169 -23.180004 -7.005928
v -18.832645 -22.313379 -7.005928
v -18.719769 -22.953529 -7.005928
v 13.244858 21.086279 8.007444
v 11.960457 20.859797 8.007444
v 13.244858 21.086279 6.703230
v 11.960457 20.859797 6.703230
v 11.960457 20.859797 -8.295239
v 13.244858 21.086279 -8.295239
v 13.244858 21.086279 -7.005928
v 11.960457 20.859797 -7.005928
v -26.571568 14.065569 8.007444
v -26.571568 14.065569 6.703230
v -26.571568 14.065569 -7.005928
v -25.287167 14.292044 -8.295239
v -26.571568 14.065569 -8.295239
v -25.287167 14.292044 6.703230
v -25.287167 14.292044 8.007444
v -25.287167 14.292044 -7.005928
v -13.085360 16.443552 6.703230
v -13.085360 16.443552 8.007444
v 6.227407 -17.894617 8.007444
v 6.227407 -17.894617 6.703230
v -0.227118 18.710806 6.703230
v -0.227118 18.710806 8.007444
v -25.174292 13.651892 6.703230
v -25.174292 13.651892 8.007444
v -26.458693 13.425421 6.703230
v -26.458693 13.425421 8.007444
v 13.357731 20.446131 -8.295239
v 13.357731 20.446131 -6.991025
v 12.073330 20.219648 -8.295239
v 12.073330 20.219648 -6.991025
v 12.715530 20.332891 6.703230
v 12.715530 20.332891 8.007444
v 12.073330 20.219648 6.703230
v 11.431129 20.106417 8.007444
v -25.174292 13.651892 -8.295239
v -25.174292 13.651892 -6.991025
v -26.458693 13.425421 -8.295239
v -26.458693 13.425421 -6.991025
v 13.244858 21.086279 8.007444
v 11.960457 20.859797 8.007444
v 13.244858 21.086279 6.703230
v 11.960457 20.859797 6.703230
v 11.431129 20.106417 -8.295239
v 12.715530 20.332891 -8.295239
v 11.960457 20.859797 -8.295239
v 13.244858 21.086279 -8.295239
v -25.816494 13.538660 8.007444
v -25.816494 13.538660 6.703230
v -26.571568 14.065569 8.007444
v -26.571568 14.065569 6.703230
v -26.571568 14.065569 -8.295239
v -25.816494 13.538660 -8.295239
v -13.085360 16.443552 8.007444
v -13.085360 16.443552 6.703230
v -25.174292 13.651892 6.703230
v -24.532093 13.765131 -8.295239
v -25.287167 14.292044 -8.295239
v -25.287167 14.292044 6.703230
v -25.287167 14.292044 8.007444
v -24.532093 13.765131 8.007444
v 13.244858 21.086279 -7.005928
v 11.960457 20.859797 -7.005928
v 12.073330 20.219648 -7.005928
v 12.715530 20.332891 -7.005928
v -26.571568 14.065569 -7.005928
v -25.816494 13.538660 -7.005928
v -25.287167 14.292044 -7.005928
v -25.174292 13.651892 -7.005928
v -0.227118 18.710806 8.007444
v -0.227118 18.710806 6.703230
v -6.630836 -20.161873 8.007444
v -6.630836 -20.161873 6.703230
v -18.832645 -22.313379 8.007444
v -25.287167 14.292044 8.007444
v -13.085360 16.443552 6.703230
v -13.085360 16.443552 8.007444
v -6.518085 -20.802046 8.007444
v -6.630836 -20.161873 8.007444
v -7.311007 -15.799887 8.007444
v -7.310881 -15.149859 8.007444
v 6.325920 -18.537302 8.007444
v -6.517961 -20.802025 8.007444
v -6.630836 -20.161873 8.007444
v 6.213171 -17.897125 8.007444
v 6.325920 -18.537302 8.659552
v -6.517961 -20.802025 8.659552
v -6.630836 -20.161873 8.659552
v 6.213171 -17.897125 8.659552
v -12.972121 15.801352 8.007444
v -0.128113 18.066095 8.007444
v -12.972121 15.801352 8.659552
v -0.128113 18.066095 8.659552
v -12.972121 15.801352 8.007444
v -0.128113 18.066095 8.007444
v -12.972121 15.801352 8.659552
v -0.128113 18.066095 8.659552
v 14.599148 21.291269 8.676169
v 13.186310 21.042147 8.676169
v 14.599148 21.291269 7.241534
v 13.828506 21.155386 7.241534
v -28.731873 14.321280 -8.143469
v -27.914518 13.794970 -7.838540
v 13.186310 21.042147 -9.256783
v 14.599148 21.291269 -9.256783
v 14.599148 21.291269 -7.838540
v 13.828506 21.155386 -7.838540
v -27.914518 13.794970 8.676169
v -27.914518 13.794970 7.241534
v -26.501678 14.044092 -9.256783
v -27.914518 13.794970 -9.256783
v 15.187126 22.065382 7.420474
v -26.501678 14.044092 8.676169
v -27.143879 13.930849 7.241534
v -27.143879 13.930849 -7.838540
v 15.187126 22.065382 -8.143469
v 13.728954 21.808268 8.901143
v 15.187126 22.065382 8.901143
v -28.731873 14.321280 7.420474
v -13.721889 16.297510 7.241534
v -13.721889 16.297510 8.676169
v 0.422182 18.791491 8.676169
v 0.422182 18.791491 7.241534
v 14.081116 20.473867 8.676169
v 13.310474 20.337984 8.676169
v 14.081116 20.473867 7.241534
v 14.599148 21.291269 8.676169
v 13.828506 21.155386 8.676169
v 14.599148 21.291269 7.241534
v -28.731873 14.321280 8.901143
v 13.310474 20.337984 -9.256783
v 14.081116 20.473867 -9.256783
v 13.828506 21.155386 -9.256783
v 14.599148 21.291269 -9.256783
v 14.599148 21.291269 -7.838540
v 13.828506 21.155386 -7.838540
v 13.828506 21.155386 7.241534
v 14.081116 20.473867 -7.838540
v -27.148153 13.204042 8.676169
v -27.148153 13.204042 7.241534
v -27.914518 13.794970 8.676169
v -27.914518 13.794970 7.241534
v -27.914518 13.794970 -9.256783
v -27.148153 13.204042 -9.256783
v -27.914518 13.794970 -7.838540
v -27.148153 13.204042 -7.838540
v -26.377514 13.339922 -9.256783
v -27.143879 13.930849 -9.256783
v -27.143879 13.930849 8.676169
v -26.377514 13.339922 8.676169
v -13.721889 16.297510 7.241534
v -13.721889 16.297510 8.676169
v 0.422182 18.791491 8.676169
v 0.534660 19.481752 8.901143
v -27.143879 13.930849 -7.838540
v -27.143879 13.930849 7.241534
v 0.422182 18.791491 7.241534
v 14.371151 21.921503 7.420474
v 15.487759 22.161699 -8.309683
v 13.728954 21.808268 -9.607218
v 15.187126 22.065382 -9.607218
v 14.371151 21.921503 -8.143469
v -27.273699 14.578390 -9.607218
v -28.731873 14.321280 -9.607218
v 14.004871 22.338552 9.023774
v -27.273699 14.578390 8.901143
v -27.915897 14.465155 7.420474
v -27.915897 14.465155 -8.143469
v 15.487759 22.600027 9.023774
v -29.197277 14.720850 7.518013
v -29.197277 14.720850 9.023774
v 14.647076 22.451788 -8.309683
v 14.371151 21.921503 -8.143469
v -27.915897 14.465155 -8.143469
v -28.356594 14.869089 -8.309683
v 14.371151 21.921503 7.420474
v -28.356594 14.869089 7.518013
v -14.063244 16.907751 7.420474
v -14.063244 16.907751 8.901143
v -28.356594 14.869089 -8.309683
v -27.915897 14.465155 7.420474
v 0.534660 19.481752 7.420474
v 15.487759 22.161699 7.518013
v 14.647076 22.451788 7.518013
v 14.004871 22.338552 -9.798237
v 15.487759 22.600027 -9.798237
v 14.647076 22.451788 -8.309683
v -29.197277 14.720850 -8.309683
v -27.714390 14.982321 -9.798237
v -29.197277 14.720850 -9.798237
v -27.714390 14.982321 9.023774
v 14.647076 22.451788 9.023774
v 14.647076 22.451788 7.518013
v -28.356594 14.869089 7.518013
v -28.356594 14.869089 9.023774
v -14.269184 17.353075 7.518013
v -14.269184 17.353075 9.023774
v 0.576097 19.970697 9.023774
v 0.576097 19.970697 7.518013
v 11.960457 20.859797 8.385985
v 18.414978 -15.745619 8.385985
v -0.227118 18.710806 8.385985
v 6.227407 -17.894617 8.385985
v -25.287167 14.292044 8.385985
v -18.832645 -22.313379 8.385985
v -13.085360 16.443552 8.385985
v -6.630836 -20.161873 8.385985
v 13.830368 21.826147 8.901143
v 13.304527 21.062994 8.676169
v -26.619900 14.023245 8.676169
v -27.375111 14.560511 8.901143
v -27.806641 14.966059 9.023774
v 14.097122 22.354818 9.023774
v -19.576654 -25.283375 7.951672
v -18.402105 -25.076269 6.759003
v -18.402105 -25.076269 7.951672
v -19.576654 -25.283375 6.759003
v -19.576654 -25.283375 -7.046798
v -18.402105 -25.076269 -8.239467
v -18.402105 -25.076269 -7.046798
v -19.576654 -25.283375 -8.239467
v -26.103687 -24.488329 6.926322
v -26.103687 -24.488329 7.784353
v -26.103687 -25.346357 6.926322
v -21.812382 -25.457903 6.814776
v -21.812382 -25.457903 7.895898
v -26.103687 -25.346357 7.784353
v -21.812384 -24.376781 6.814776
v -26.103687 -24.488329 -8.072147
v -26.103687 -24.488329 -7.214117
v -26.103687 -25.346357 -8.072147
v -21.812382 -25.457903 -8.183693
v -21.812382 -25.457903 -7.102571
v -26.103687 -25.346357 -7.214117
v -21.812384 -24.376781 -8.183693
v -19.666729 -25.513678 -8.239467
v -21.812384 -24.376781 -7.102571
v -19.666729 -25.513678 -7.046798
v -19.666731 -24.321009 -8.239467
v -19.666729 -25.513678 6.759003
v -21.812384 -24.376781 7.895898
v -19.666729 -25.513678 7.951672
v -19.666731 -24.321009 6.759003
v -19.666731 -24.321009 7.951672
v -19.666731 -24.321009 -7.046798
v -21.117786 -9.353694 8.385985
v -7.655159 -14.352644 8.385985
v -13.483456 -10.126517 8.385985
v -7.737527 -13.885511 8.659552
v 5.924944 -16.262505 8.659552
v -2.104015 -11.290623 8.659552
v -0.034119 -15.004258 8.659552
v -24.443613 15.559053 7.518013
v -4.898269 19.005423 7.518013
v -19.544237 16.422941 4.593322
v -15.081623 17.209826 5.523824
v -10.827900 17.959867 4.061606
v -5.206911 18.950998 5.163016
v -1.313992 19.637423 6.929072
vn -0.1736 0.9848 -0.0000
vn 0.0045 -0.0256 0.9997
vn -0.9800 -0.1992 -0.0000
vn 0.9890 0.1480 -0.0000
vn 0.0045 -0.0256 -0.9997
vn 0.0029 -0.0276 0.9996
vn -0.9997 0.0229 -0.0000
vn -0.0000 -1.0000 -0.0000
vn 0.9973 -0.0740 -0.0000
vn 0.0029 -0.0276 -0.9996
vn -0.0000 -0.0000 1.0000
vn -0.9848 -0.1736 -0.0000
vn -0.0000 -0.0000 -1.0000
vn 0.9848 0.1736 -0.0000
vn 0.1736 -0.9848 -0.0000
vn -0.1737 0.9848 -0.0000
vn 0.1737 -0.9848 -0.0000
vn 0.2437 -0.9698 -0.0000
vn 0.1497 -0.9887 -0.0000
vn -0.1975 0.9803 -0.0000
vn 0.1734 -0.9836 -0.0497
vn 0.1027 -0.9947 -0.0000
vn -0.1497 0.9887 -0.0000
vn 0.1563 -0.9877 -0.0000
vn 0.1910 -0.9816 -0.0000
vn -0.1735 0.9840 -0.0399
vn -0.1735 0.9842 -0.0346
vn -0.1733 0.9829 0.0617
vn 0.1727 -0.9797 0.1017
vn 0.1975 -0.9803 -0.0000
vn 0.1718 -0.9743 -0.1454
vn -0.1734 0.9836 0.0497
vn -0.1233 0.9924 -0.0000
vn -0.1910 0.9816 -0.0000
vn 0.1733 -0.9829 -0.0617
vn 0.2236 -0.9747 -0.0000
vn 0.1233 -0.9924 -0.0000
vn 0.1735 -0.9842 0.0346
vn -0.1563 0.9877 -0.0000
vn -0.2236 0.9747 -0.0000
vn 0.1735 -0.9840 0.0399
vn -0.0000 1.0000 -0.0000
vn 0.9848 0.1735 -0.0000
vn -0.5414 -0.8408 -0.0000
vn -0.7463 0.6029 -0.2820
vn 0.0814 -0.4617 -0.8833
vn -0.8727 -0.4882 -0.0000
vn 0.7963 -0.6049 -0.0000
vn 0.8160 -0.5780 -0.0000
vn 0.8447 -0.5353 -0.0000
vn -0.6106 -0.7919 -0.0000
vn 0.0560 -0.3176 0.9466
vn 0.0649 -0.3679 -0.9276
vn 0.7018 -0.7048 0.1035
vn 0.8871 -0.4616 -0.0000
vn -0.6514 -0.7587 -0.0000
vn 0.0350 -0.1984 0.9795
vn 0.3051 -0.9523 -0.0000
vn 0.0435 -0.2465 0.9682
vn 0.0574 -0.3257 -0.9437
vn 0.6757 0.7372 -0.0000
vn -0.5691 -0.8223 -0.0000
vn 0.0454 -0.2576 0.9652
vn -0.0728 0.4129 0.9079
vn 0.9870 -0.1608 -0.0000
vn 0.0728 -0.4129 -0.9079
vn 0.4950 0.8219 -0.2819
vn -0.8160 0.5780 -0.0000
vn 0.5691 0.8223 -0.0000
vn 0.0122 0.9944 -0.1047
vn 0.0122 0.9943 0.1059
vn 0.3262 0.9453 -0.0000
vn -0.8143 0.4887 -0.3132
vn 0.9964 -0.0844 -0.0000
vn -0.9076 -0.4197 -0.0000
vn -0.0574 0.3257 0.9437
vn 0.6890 -0.7169 -0.1064
vn 0.5980 0.7378 -0.3131
vn -0.6757 -0.7372 -0.0000
vn -0.8871 0.4616 -0.0000
vn -1.0000 -0.0000 -0.0000
vn -0.0260 -0.0000 -0.9997
vn -0.0260 -0.9997 -0.0000
vn -0.0260 0.9997 -0.0000
vn -0.0260 -0.0000 0.9997
vt 0.777080 0.544434
vt 0.777080 0.553008
vt 0.768507 0.553008
vt 0.768507 0.544434
vt 0.811742 0.502096
vt 0.811375 0.487997
vt 0.819949 0.487997
vt 0.819582 0.502096
vt 0.794594 0.502106
vt 0.794228 0.487997
vt 0.802801 0.487997
vt 0.802435 0.502106
vt 0.768873 0.502107
vt 0.768507 0.487997
vt 0.777080 0.487997
vt 0.776714 0.502107
vt 0.355431 0.811406
vt 0.355064 0.797314
vt 0.363638 0.797314
vt 0.363272 0.811406
vt 0.782705 0.797347
vt 0.782705 0.805921
vt 0.774131 0.805921
vt 0.774131 0.797347
vt 0.821416 0.544393
vt 0.828523 0.487997
vt 0.827056 0.544393
vt 0.091589 0.805695
vt 0.090122 0.749259
vt 0.098696 0.749259
vt 0.097229 0.805695
vt 0.666976 0.803362
vt 0.666976 0.797722
vt 0.672616 0.797722
vt 0.672616 0.803362
vt 0.778547 0.544434
vt 0.777080 0.487997
vt 0.785654 0.487997
vt 0.784187 0.544434
vt 0.838563 0.544365
vt 0.837096 0.487997
vt 0.845670 0.487997
vt 0.844204 0.544365
vt 0.256468 0.496729
vt 0.247894 0.496729
vt 0.247894 0.492465
vt 0.256468 0.492465
vt 0.249361 0.553125
vt 0.255002 0.553125
vt 0.804268 0.544433
vt 0.811375 0.487997
vt 0.809909 0.544433
vt 0.796919 0.802988
vt 0.796919 0.797347
vt 0.802559 0.797347
vt 0.802559 0.802988
vt 0.761400 0.553533
vt 0.759933 0.497097
vt 0.768507 0.497097
vt 0.767040 0.553533
vt 0.838661 0.853535
vt 0.837194 0.797167
vt 0.845768 0.797167
vt 0.844302 0.853535
vt 0.794228 0.544434
vt 0.794228 0.553008
vt 0.785654 0.553008
vt 0.785654 0.544434
vt 0.828889 0.502096
vt 0.836730 0.502096
vt 0.110137 0.773384
vt 0.109770 0.759275
vt 0.118344 0.759275
vt 0.117978 0.773384
vt 0.786021 0.502107
vt 0.785654 0.487997
vt 0.794228 0.487997
vt 0.793861 0.502107
vt 0.366493 0.811388
vt 0.366127 0.797296
vt 0.374700 0.797296
vt 0.374334 0.811387
vt 0.598894 0.244170
vt 0.590418 0.244170
vt 0.590418 0.000000
vt 0.598894 0.000000
vt 0.243634 0.257212
vt 0.247894 0.257212
vt 0.247894 0.265785
vt 0.243634 0.265785
vt 0.759933 0.492826
vt 0.768507 0.492826
vt 0.247894 0.248638
vt 0.256468 0.248638
vt 0.247894 0.000000
vt 0.247894 0.008574
vt 0.243634 0.008574
vt 0.243634 0.000000
vt 0.256370 0.553125
vt 0.256370 0.561699
vt 0.247894 0.561699
vt 0.247894 0.553125
vt 0.256370 0.810337
vt 0.346491 0.810337
vt 0.346491 0.818911
vt 0.256370 0.818911
vt 0.669811 0.492826
vt 0.669811 0.497097
vt 0.661335 0.497097
vt 0.661335 0.492826
vt 0.500296 0.248440
vt 0.491722 0.248440
vt 0.491722 0.244170
vt 0.500296 0.244170
vt 0.590418 0.248440
vt 0.598894 0.248440
vt 0.500296 0.000000
vt 0.355064 0.810337
vt 0.355064 0.818911
vt 0.779039 0.248092
vt 0.779039 0.243828
vt 0.787612 0.243828
vt 0.787612 0.248092
vt 0.423656 0.492465
vt 0.423656 0.496729
vt 0.346491 0.561699
vt 0.355064 0.561699
vt 0.355064 0.728887
vt 0.598894 -0.000000
vt 0.607467 -0.000000
vt 0.607467 0.248638
vt 0.598894 0.248638
vt 0.598894 0.167187
vt 0.090122 0.803127
vt 0.000000 0.803127
vt 0.000000 0.558956
vt 0.090122 0.558956
vt 0.247894 0.810337
vt 0.697588 -0.000000
vt 0.697588 0.248638
vt 0.491722 0.000000
vt 0.491722 0.248638
vt 0.247894 0.248638
vt 0.247894 -0.000000
vt 0.247894 0.818911
vt 0.346491 0.553125
vt 0.661335 0.248638
vt 0.669811 0.248638
vt 0.759933 0.248638
vt 0.768507 0.248638
vt 0.751457 0.797722
vt 0.661335 0.797722
vt 0.661335 0.553533
vt 0.751457 0.553533
vt 0.000000 0.265785
vt 0.000000 0.257212
vt 0.000000 0.008574
vt 0.000000 0.000000
vt 1.000000 0.553533
vt 1.000000 0.797167
vt 0.918645 0.797167
vt 0.918645 0.553533
vt 0.491722 0.000000
vt 0.779039 0.000000
vt 0.787612 0.000000
vt 0.401145 0.797314
vt 0.392572 0.797314
vt 0.392572 0.553125
vt 0.401145 0.553125
vt 0.416959 0.824988
vt 0.408385 0.824988
vt 0.408385 0.743538
vt 0.416959 0.743538
vt 0.377189 0.797296
vt 0.368615 0.797296
vt 0.368615 0.553125
vt 0.377189 0.553125
vt 0.108594 0.640312
vt 0.108594 0.558956
vt 0.111083 0.558956
vt 0.111083 0.640312
vt 0.100021 0.558956
vt 0.100021 0.640312
vt 0.785654 0.553008
vt 0.777080 0.553008
vt 0.791278 0.797347
vt 0.791278 0.805921
vt 0.782705 0.805921
vt 0.782705 0.797347
vt 0.802801 0.544434
vt 0.802801 0.553008
vt 0.794228 0.553008
vt 0.794228 0.544434
vt 0.438450 0.555924
vt 0.438450 0.560211
vt 0.429974 0.564498
vt 0.429974 0.555924
vt 0.438450 0.808849
vt 0.528570 0.808849
vt 0.528570 0.813136
vt 0.438450 0.813136
vt 0.537144 0.804562
vt 0.537144 0.813136
vt 0.528571 0.560211
vt 0.537144 0.564498
vt 0.429974 0.804562
vt 0.429974 0.813136
vt 0.528571 0.555924
vt 0.532113 0.822139
vt 0.432980 0.822139
vt 0.115816 0.279477
vt 0.107243 0.279477
vt 0.110783 0.270475
vt 0.120213 0.270475
vt 0.126067 0.540572
vt 0.134640 0.540572
vt 0.131101 0.549575
vt 0.121670 0.549575
vt 0.224761 0.540572
vt 0.233237 0.540572
vt 0.239557 0.549575
vt 0.230234 0.549575
vt 0.115816 0.288051
vt 0.120214 0.279907
vt 0.541544 0.822139
vt 0.423657 0.546922
vt 0.432980 0.546922
vt 0.532113 0.546922
vt 0.224762 0.274787
vt 0.134641 0.274787
vt 0.131101 0.265785
vt 0.230234 0.265785
vt 0.217263 0.562007
vt 0.127142 0.562007
vt 0.121670 0.549576
vt 0.220803 0.549575
vt 0.233237 0.274787
vt 0.239558 0.265785
vt 0.127142 0.810644
vt 0.217263 0.810644
vt 0.220802 0.823077
vt 0.121670 0.823077
vt 0.651941 0.801156
vt 0.651941 0.552518
vt 0.657413 0.540087
vt 0.657413 0.813588
vt 0.115816 0.369406
vt 0.120214 0.365111
vt 0.233237 0.283361
vt 0.239558 0.270930
vt 0.561820 0.552518
vt 0.561820 0.633873
vt 0.558280 0.629577
vt 0.558280 0.540087
vt 0.423657 0.552067
vt 0.008646 0.545262
vt 0.017122 0.545262
vt 0.011650 0.554266
vt 0.002327 0.554266
vt 0.541544 0.552067
vt 0.541544 0.816995
vt 0.126067 0.531998
vt 0.121670 0.544431
vt 0.017122 0.279477
vt 0.011650 0.270476
vt 0.553246 0.633873
vt 0.548849 0.629577
vt 0.233237 0.531999
vt 0.239557 0.544431
vt 0.561820 0.801156
vt 0.558280 0.813588
vt 0.423657 0.822139
vt 0.423657 0.816995
vt 0.126067 0.283361
vt 0.126067 0.364716
vt 0.121670 0.360420
vt 0.121670 0.270929
vt 0.217263 0.643362
vt 0.220802 0.639066
vt 0.115816 0.545262
vt 0.115816 0.536689
vt 0.120214 0.544834
vt 0.120214 0.554266
vt 0.115816 0.455238
vt 0.120214 0.459526
vt 0.126067 0.274787
vt 0.121670 0.265785
vt 0.217263 0.729194
vt 0.225836 0.729194
vt 0.230233 0.733482
vt 0.220802 0.733482
vt 0.225836 0.643362
vt 0.230233 0.639066
vt 0.126067 0.450548
vt 0.121670 0.454836
vt 0.008646 0.536689
vt 0.002327 0.544834
vt 0.008646 0.288051
vt 0.002326 0.279907
vt 0.561820 0.719705
vt 0.558280 0.723993
vt 0.107243 0.545262
vt 0.110783 0.554266
vt 0.553246 0.719705
vt 0.548849 0.723993
vt 0.008646 0.279477
vt 0.002326 0.270475
vt 0.537144 0.555924
vt 0.541544 0.546922
vt 0.363638 0.797314
vt 0.355064 0.797314
vt 0.355064 0.553125
vt 0.363638 0.553125
vt 0.244244 0.509974
vt 0.244244 0.265785
vt 0.246733 0.265785
vt 0.246733 0.509974
vt 0.239557 0.265785
vt 0.697588 0.248092
vt 0.697588 0.243828
vt 0.850029 0.882905
vt 0.845768 0.882904
vt 0.850029 0.797168
vt 0.541544 0.791097
vt 0.541544 0.786827
vt 0.545830 0.786827
vt 0.545830 0.791097
vt 0.751458 0.797347
vt 0.751457 0.793083
vt 0.837194 0.793083
vt 0.837194 0.797347
vt 0.246803 0.789462
vt 0.246803 0.793732
vt 0.242516 0.793732
vt 0.242516 0.789462
vt 0.242516 0.879469
vt 0.242516 0.793732
vt 0.246803 0.793732
vt 0.246803 0.879469
vt 0.242516 0.747597
vt 0.242516 0.549575
vt 0.246803 0.549575
vt 0.545830 0.546922
vt 0.545830 0.775923
vt 0.422571 0.553125
vt 0.422571 0.638863
vt 0.418284 0.638863
vt 0.418284 0.553125
vt 0.009622 0.558956
vt 0.000000 0.558956
vt 0.548849 0.544373
vt 0.547389 0.539986
vt 0.557122 0.535699
vt 0.384898 0.569803
vt 0.384898 0.834731
vt 0.380394 0.839119
vt 0.380394 0.565416
vt 0.766592 0.797347
vt 0.766592 0.806778
vt 0.762197 0.808257
vt 0.762197 0.798524
vt 0.111936 0.265785
vt 0.121670 0.265785
vt 0.107721 0.642129
vt 0.107721 0.741263
vt 0.103224 0.743268
vt 0.103224 0.640953
vt 0.111936 0.558956
vt 0.548849 0.809301
vt 0.242516 0.825570
vt 0.242516 0.830714
vt 0.237825 0.835001
vt 0.237825 0.829857
vt 0.239557 0.544431
vt 0.244244 0.540144
vt 0.244244 0.545289
vt 0.239557 0.549575
vt 0.104874 0.744361
vt 0.104874 0.753792
vt 0.100021 0.753792
vt 0.100021 0.744361
vt 0.244244 0.270072
vt 0.244244 0.275216
vt 0.239558 0.270930
vt 0.239558 0.265785
vt 0.100021 0.852926
vt 0.104874 0.852926
vt 0.104874 0.862249
vt 0.100021 0.862249
vt 0.423508 0.851890
vt 0.423508 0.861321
vt 0.418646 0.861321
vt 0.418646 0.851890
vt 0.423508 0.752756
vt 0.418646 0.752756
vt 0.418646 0.743433
vt 0.423508 0.743433
vt 0.242516 0.560642
vt 0.237825 0.556355
vt 0.237825 0.551211
vt 0.242516 0.555498
vt 0.009622 0.265785
vt 0.759049 0.797347
vt 0.759049 0.806778
vt 0.754621 0.811469
vt 0.754621 0.801735
vt 0.121670 0.558956
vt 0.377189 0.841511
vt 0.377189 0.563024
vt 0.544753 0.791903
vt 0.544753 0.801637
vt 0.541543 0.800996
vt 0.541543 0.791097
vt 0.100021 0.744361
vt 0.100021 0.640312
vt 0.108088 0.755239
vt 0.108088 0.857554
vt 0.104874 0.858195
vt 0.104874 0.754146
vt 0.411539 0.649554
vt 0.411539 0.742025
vt 0.408385 0.741200
vt 0.408385 0.647163
vt 0.544753 0.903952
vt 0.541543 0.905045
vt 0.751457 0.814025
vt 0.751457 0.804127
vt 0.108088 0.867288
vt 0.104874 0.868094
vt 0.388091 0.555517
vt 0.388091 0.837794
vt 0.384898 0.840186
vt 0.384898 0.553125
vt 0.856373 0.807711
vt 0.856232 0.910026
vt 0.853202 0.911115
vt 0.853345 0.807066
vt 0.384898 0.844162
vt 0.380394 0.848853
vt 0.118796 0.562054
vt 0.118796 0.661188
vt 0.114290 0.662364
vt 0.114290 0.560049
vt 0.415947 0.653943
vt 0.415947 0.743538
vt 0.384898 0.560372
vt 0.380394 0.555682
vt 0.408385 0.559905
vt 0.408385 0.833407
vt 0.404186 0.837795
vt 0.404186 0.555517
vt 0.400164 0.804561
vt 0.400164 0.813992
vt 0.395736 0.809604
vt 0.395736 0.799871
vt 0.774131 0.799632
vt 0.774131 0.809063
vt 0.769738 0.807887
vt 0.769738 0.798153
vt -0.000000 0.265785
vt 0.392572 0.559905
vt 0.392572 0.833406
vt 0.557122 0.817976
vt 0.547389 0.813689
vt 0.423508 0.647163
vt 0.423508 0.736653
vt 0.419100 0.741041
vt 0.419100 0.648679
vt 0.659436 0.535699
vt 0.659436 0.817976
vt 0.433555 0.248638
vt 0.433555 0.254250
vt 0.423656 0.258536
vt 0.423656 0.248638
vt 0.537603 0.254250
vt 0.537603 0.248638
vt 0.547388 0.248638
vt 0.547388 0.258536
vt 0.537603 0.541311
vt 0.547388 0.537024
vt 0.547388 0.546922
vt 0.537603 0.546922
vt 0.423656 0.537024
vt 0.433555 0.541311
vt 0.433555 0.546922
vt 0.423656 0.546922
vt 0.547389 0.248638
vt 0.557287 0.248638
vt 0.557287 0.379108
vt 0.557287 0.509579
vt 0.557287 0.535699
vt 0.547389 0.535699
vt 0.661335 0.248638
vt 0.661335 0.535699
vt 0.576513 0.476874
vt 0.570397 0.447085
vt 0.580009 0.418690
vt 0.572768 0.381169
vt 0.561159 0.355182
vt 0.850029 0.807712
vt 0.850179 0.797978
vt 0.853202 0.797167
vt 0.853052 0.807066
vt 0.108088 0.745616
vt 0.766592 0.807246
vt 0.766592 0.797347
vt 0.377189 0.851410
vt 0.415947 0.743433
vt 0.415947 0.649505
vt 0.759049 0.809063
vt 0.759049 0.799165
vt 0.377189 0.553125
vt 0.401146 0.840186
vt 0.401146 0.553125
vt 0.392572 0.807212
vt 0.392572 0.797314
vt 0.544753 0.913575
vt 0.541543 0.914830
vt 0.856230 0.797977
vt 0.853202 0.797167
vt 0.111083 0.663005
vt 0.111083 0.558956
vt 0.850177 0.910027
vt 0.853202 0.911115
vt 0.869063 0.243828
vt 0.869063 0.000000
vt 0.950418 0.000000
vt 0.950418 0.243828
vt 0.869063 0.157503
vt 0.820520 0.171192
vt 0.787612 0.205132
vt 0.097384 0.734334
vt 0.097384 0.652884
vt 0.099872 0.652884
vt 0.099872 0.734334
vt 0.366127 0.553125
vt 0.121285 0.558956
vt 0.121285 0.803127
vt 0.118796 0.803127
vt 0.118796 0.716681
vt 0.118796 0.558956
vt 0.547241 0.791097
vt 0.547241 0.872452
vt 0.544753 0.872452
vt 0.544753 0.791097
vt 0.110210 0.640312
vt 0.110210 0.721762
vt 0.107721 0.721762
vt 0.107721 0.640312
vt 0.366127 0.553125
vt 0.366127 0.758561
vt 0.366127 0.797314
vt 0.233398 0.834245
vt 0.233398 0.551967
vt 0.230233 0.836636
vt 0.230233 0.549575
vt 0.791278 0.802988
vt 0.791278 0.797347
vt 0.661335 0.803362
vt 0.661335 0.797722
vt 0.666976 0.797722
vt 0.666976 0.803362
vt 0.367593 0.853663
vt 0.366860 0.825479
vt 0.373967 0.825479
vt 0.373234 0.853663
vt 0.787121 0.544434
vt 0.786387 0.516216
vt 0.793494 0.516216
vt 0.792761 0.544434
vt 0.111237 0.815711
vt 0.110504 0.787493
vt 0.117611 0.787493
vt 0.116878 0.815711
vt 0.829989 0.544393
vt 0.829256 0.516195
vt 0.836363 0.516195
vt 0.835630 0.544393
vt 0.356531 0.853681
vt 0.355798 0.825498
vt 0.362905 0.825498
vt 0.362172 0.853681
vt 0.769973 0.544434
vt 0.769240 0.516216
vt 0.776347 0.516216
vt 0.775614 0.544434
vt 0.795694 0.544433
vt 0.794961 0.516215
vt 0.802068 0.516215
vt 0.801335 0.544433
vt 0.812842 0.544393
vt 0.812109 0.516195
vt 0.819216 0.516195
vt 0.818482 0.544393
vt 0.837194 0.751277
vt 0.797761 0.740930
vt 0.788600 0.767279
vt 0.751457 0.782195
vt 0.837194 0.553533
s 0
usemtl Material.011
f 1/1/1 3/2/1 4/3/1 2/4/1
f 269/5/2 2/6/2 4/7/2 267/8/2
f 267/9/3 4/10/3 3/11/3 270/12/3
f 268/13/4 1/14/4 2/15/4 269/16/4
f 270/17/5 3/18/5 1/19/5 268/20/5
f 5/21/1 9/22/1 11/23/1 7/24/1
f 8/25/6 7/7/6 11/26/6 12/27/6
f 12/28/7 11/29/7 9/30/7 10/31/7
f 10/32/8 6/33/8 8/34/8 12/35/8
f 6/36/9 5/37/9 7/38/9 8/39/9
f 10/40/10 9/41/10 5/42/10 6/43/10
f 19/44/11 15/45/11 25/46/11 26/47/11
f 16/48/6 15/45/6 19/44/6 20/49/6
f 20/50/7 19/11/7 17/51/7 18/52/7
f 18/53/8 14/54/8 16/55/8 20/56/8
f 14/57/9 13/58/9 15/59/9 16/60/9
f 18/61/10 17/62/10 13/63/10 14/64/10
f 21/65/1 23/66/1 24/67/1 22/68/1
f 273/69/2 22/26/2 24/41/2 271/70/2
f 271/71/3 24/72/3 23/73/3 274/74/3
f 272/75/4 21/76/4 22/77/4 273/78/4
f 274/79/5 23/80/5 21/81/5 272/82/5
f 37/83/12 51/84/12 65/85/12 67/86/12
f 43/87/13 42/88/13 38/89/13 37/90/13
f 15/59/14 13/58/14 27/91/14 25/92/14
f 26/47/11 25/46/11 55/93/11 56/94/11
f 30/95/13 29/96/13 31/97/13 32/98/13
f 50/99/15 49/100/15 29/101/15 30/102/15
f 54/103/15 41/104/15 34/105/15 52/106/15
f 47/107/14 50/108/14 30/109/14 32/110/14
f 34/111/12 33/112/12 35/113/12 36/114/12
f 52/115/12 51/84/12 37/83/12 38/116/12
f 51/84/12 36/114/12 64/117/12 65/85/12
f 41/104/15 46/118/15 33/119/15 34/105/15
f 46/120/11 45/121/11 35/122/11 33/123/11
f 19/44/11 26/47/11 132/124/11 131/125/11
f 17/126/15 19/127/15 131/128/15 46/118/15 41/104/15
f 26/129/1 28/130/1 44/131/1 45/132/1 132/133/1
f 48/134/12 28/135/12 58/136/12 62/137/12
f 49/100/15 17/126/15 41/104/15 54/103/15
f 31/97/13 29/96/13 42/88/13 43/87/13
f 29/101/15 49/100/15 54/103/15 42/138/15
f 28/130/1 48/139/1 53/140/1 44/131/1
f 53/141/11 48/142/11 62/143/11 70/144/11
f 34/111/12 36/114/12 51/84/12 52/115/12
f 27/91/14 13/58/14 50/108/14 47/107/14
f 42/138/15 54/103/15 52/106/15 38/145/15
f 13/146/15 17/126/15 49/100/15 50/99/15
f 47/107/14 32/110/14 60/147/14 61/148/14
f 25/92/14 27/91/14 57/149/14 55/150/14
f 44/151/14 53/152/14 70/153/14 68/154/14
f 43/87/13 37/90/13 67/155/13 66/156/13
f 32/98/13 31/97/13 59/157/13 60/158/13
f 31/97/13 43/87/13 66/156/13 59/157/13
f 58/159/13 28/160/13 74/161/13 75/162/13
f 36/114/12 35/113/12 63/163/12 64/117/12
f 35/122/11 45/121/11 69/164/11 63/165/11
f 27/91/14 47/107/14 61/148/14 57/149/14
f 39/166/14 40/167/14 71/168/14 72/169/14
f 45/170/15 44/171/15 40/172/15 39/173/15
f 74/174/12 73/175/12 76/176/12 75/177/12
f 73/178/15 26/179/15 254/180/15 256/181/15
f 28/182/15 26/179/15 73/178/15 74/183/15
f 77/68/1 79/184/1 80/185/1 78/1/1
f 81/186/16 83/187/16 84/188/16 82/189/16
f 89/190/1 91/191/1 92/192/1 90/193/1
f 118/194/17 117/195/17 97/196/17 98/197/17
f 122/198/15 109/199/15 102/200/15 120/201/15
f 109/199/15 114/202/15 101/203/15 102/200/15
f 87/204/15 88/205/15 114/202/15 109/199/15
f 117/195/15 87/204/15 109/199/15 122/198/15
f 97/196/15 117/195/15 122/198/15 110/206/15
f 110/206/15 122/198/15 120/201/15 106/207/15
f 85/208/17 87/204/17 117/195/17 118/194/17
f 120/201/18 102/200/18 193/209/18 199/210/18
f 55/211/19 57/212/19 153/213/19 151/214/19
f 103/215/20 104/216/20 195/217/20 194/218/20
f 119/219/20 105/220/20 196/221/20 198/222/20
f 56/223/21 55/211/21 151/214/21 152/224/21
f 102/200/18 101/203/18 192/225/18 193/209/18
f 118/194/22 98/197/22 185/226/22 191/227/22
f 85/208/22 118/194/22 191/227/22 179/228/22
f 115/229/23 95/230/23 182/231/23 188/232/23
f 96/233/24 116/234/24 189/235/24 190/236/24
f 100/237/23 115/229/23 188/232/23 187/238/23
f 121/239/25 112/240/25 209/241/25 208/242/25
f 70/243/26 62/244/26 160/245/26 168/246/26
f 76/247/21 56/223/21 152/224/21 175/248/21
f 99/249/27 100/237/27 187/238/27 186/250/27
f 58/251/28 75/252/28 176/253/28 154/254/28
f 98/197/29 97/196/29 184/255/29 185/226/29
f 67/256/30 65/257/30 156/258/30 164/259/30
f 114/202/31 88/205/31 178/260/31 203/261/31
f 113/262/32 103/215/32 194/218/32 202/263/32
f 57/212/19 61/264/19 159/265/19 153/213/19
f 75/252/33 76/266/33 175/267/33 176/253/33
f 105/220/27 111/268/27 201/269/27 196/221/27
f 68/270/34 70/243/34 168/246/34 167/271/34
f 110/206/29 106/207/29 197/272/29 200/273/29
f 94/274/32 123/275/32 206/276/32 181/277/32
f 124/278/35 96/233/35 190/236/35 210/279/35
f 63/280/21 69/281/21 166/282/21 161/283/21
f 69/281/21 72/284/21 174/285/21 166/282/21
f 95/230/23 93/286/23 180/287/23 182/231/23
f 108/288/36 107/289/36 205/290/36 204/291/36
f 123/292/37 124/278/37 210/279/37 206/293/37
f 93/286/32 94/274/32 181/277/32 180/287/32
f 101/203/31 114/202/31 203/261/31 192/225/31
f 107/294/32 113/262/32 202/263/32 205/295/32
f 66/296/38 67/256/38 164/259/38 163/297/38
f 112/240/35 108/288/35 204/291/35 209/241/35
f 59/298/38 66/296/38 163/297/38 157/299/38
f 71/300/28 68/270/28 167/271/28 173/301/28
f 65/257/30 64/302/30 162/303/30 156/258/30
f 111/268/27 99/249/27 186/250/27 201/269/27
f 64/302/30 63/280/30 161/283/30 162/303/30
f 97/196/29 110/206/29 200/273/29 184/255/29
f 62/244/39 58/251/39 154/254/39 160/245/39
f 72/304/40 71/300/40 173/301/40 174/305/40
f 106/207/18 120/201/18 199/210/18 197/272/18
f 61/264/19 60/306/19 158/307/19 159/265/19
f 104/216/20 119/219/20 198/222/20 195/217/20
f 116/234/41 121/239/41 208/242/41 189/235/41
f 60/306/38 59/298/38 157/299/38 158/307/38
f 86/308/22 85/208/22 179/228/22 177/309/22
f 88/205/31 86/308/31 177/309/31 178/260/31
f 125/310/14 126/311/14 129/312/14 130/313/14
f 26/314/14 56/315/14 253/316/14 254/317/14
f 46/318/13 131/318/13 135/318/13 136/318/13
f 132/318/42 45/318/42 137/318/42 138/318/42
f 45/121/11 46/120/11 136/319/11 137/320/11
f 131/321/13 132/322/13 138/63/13 135/323/13
f 135/324/43 138/325/43 142/326/43 139/327/43
f 139/328/11 142/329/11 141/330/11 140/331/11
f 137/332/12 136/333/12 140/334/12 141/335/12
f 136/336/15 135/337/15 139/338/15 140/339/15
f 145/318/42 146/318/42 150/318/42 149/318/42
f 137/332/12 141/335/12 302/340/12 145/341/12 143/342/12
f 142/326/14 138/325/14 144/309/14 146/343/14 303/344/14
f 148/345/1 147/346/1 149/347/1 150/348/1
f 146/318/42 144/318/42 148/318/42 150/318/42
f 144/318/42 143/318/42 147/318/42 148/318/42
f 143/318/42 145/318/42 149/318/42 147/318/42
f 164/259/44 156/258/44 155/349/44 217/350/44
f 154/254/45 152/351/45 170/352/45 211/353/45
f 157/354/46 163/355/46 216/356/46 213/357/46
f 204/358/47 205/359/47 232/360/47 231/361/47
f 151/214/48 153/213/48 165/362/48 171/363/48
f 190/364/49 189/365/49 226/366/49 229/367/49
f 156/258/44 162/303/44 172/368/44 155/349/44
f 167/271/1 166/369/1 174/305/1 173/301/1
f 152/351/1 154/254/1 176/253/1 175/267/1
f 178/370/11 177/371/11 180/372/11 181/373/11
f 201/374/13 200/375/13 197/376/13 196/377/13
f 177/378/50 179/379/50 182/380/50 180/381/50
f 185/382/13 184/383/13 186/384/13 187/385/13
f 188/386/50 191/387/50 185/388/50 187/389/50
f 193/390/51 192/391/51 194/392/51 195/393/51
f 199/394/51 198/395/51 196/396/51 197/397/51
f 203/398/11 202/399/11 194/400/11 192/401/11
f 178/370/11 181/373/11 202/399/11 203/398/11
f 153/213/48 159/265/48 169/402/48 165/362/48
f 186/384/13 184/383/13 200/375/13 201/374/13
f 152/403/52 151/404/52 171/405/52 170/406/52
f 193/390/51 195/393/51 198/395/51 199/394/51
f 182/380/50 179/379/50 191/387/50 188/386/50
f 162/303/44 161/283/44 183/407/44 172/368/44
f 213/357/53 216/356/53 242/408/53 238/409/53
f 171/410/54 165/411/54 236/412/54 222/413/54
f 229/367/55 226/366/55 225/414/55 246/415/55
f 155/416/56 172/417/56 223/418/56 241/419/56
f 234/420/57 231/421/57 249/422/57 247/423/57
f 165/411/58 169/424/58 212/425/58 236/412/58
f 170/406/59 171/405/59 222/426/59 218/427/59
f 172/417/56 183/428/56 224/429/56 223/418/56
f 226/430/60 227/431/60 228/432/60 225/433/60
f 220/434/61 221/435/61 233/436/61 230/437/61
f 163/355/46 164/438/46 217/439/46 216/356/46
f 208/440/62 209/441/62 234/442/62 227/443/62
f 209/444/63 204/445/63 231/421/63 234/420/63
f 158/446/46 157/354/46 213/357/46 214/447/46
f 168/448/64 160/449/64 215/450/64 221/451/64
f 161/452/52 166/453/52 219/454/52 183/455/52
f 206/456/65 210/457/65 235/458/65 207/459/65
f 159/265/48 158/307/48 214/460/48 169/402/48
f 189/461/66 208/462/66 227/431/66 226/430/66
f 166/369/67 167/271/67 220/463/67 219/464/67
f 210/465/63 190/466/63 229/467/63 235/468/63
f 160/245/68 154/254/68 211/353/68 215/469/68
f 167/271/69 168/246/69 221/470/69 220/463/69
f 236/471/70 237/472/70 218/473/70 222/474/70
f 240/475/71 212/476/71 239/477/71 238/478/71
f 233/479/1 242/480/1 243/481/1 241/482/1
f 244/483/16 230/484/16 223/485/16 224/486/16
f 240/475/1 238/478/1 242/480/1 233/479/1
f 230/484/16 233/479/16 241/482/16 223/485/16
f 237/472/72 236/471/72 212/476/72 240/475/72
f 245/487/1 246/488/1 307/489/1 306/490/1 247/491/1 248/492/1
f 246/488/1 225/493/1 228/494/1 247/491/1 306/490/1 308/495/1 309/496/1 310/497/1 311/498/1 312/499/1 307/489/1
f 211/500/73 170/501/73 218/502/73 237/503/73
f 217/504/56 155/416/56 241/419/56 243/378/56
f 207/459/74 235/458/74 252/505/74 251/506/74
f 216/356/53 217/439/53 243/507/53 242/408/53
f 245/487/13 248/492/13 265/492/13 266/487/13
f 235/468/57 229/467/57 246/508/57 252/509/57
f 231/361/75 232/360/75 250/510/75 249/511/75
f 214/447/53 213/357/53 238/409/53 239/512/53
f 221/451/76 215/450/76 240/513/76 233/514/76
f 183/455/59 219/454/59 244/515/59 224/516/59
f 169/424/77 214/517/77 239/518/77 212/425/77
f 219/519/78 220/434/78 230/437/78 244/520/78
f 227/443/79 234/442/79 247/521/79 228/522/79
f 215/523/80 211/500/80 237/503/80 240/524/80
f 254/525/11 253/526/11 255/527/11 256/528/11
f 257/526/11 299/529/11 301/530/11 300/531/11 259/165/11
f 127/532/15 125/533/15 260/534/15 258/535/15
f 76/176/12 73/175/12 256/80/12 255/536/12
f 128/537/12 127/538/12 258/539/12 299/540/12 257/541/12
f 56/542/1 76/543/1 255/544/1 253/545/1
f 130/546/1 128/547/1 257/548/1 259/549/1
f 125/310/14 130/313/14 259/550/14 300/551/14 260/552/14
f 263/399/52 262/373/52 261/553/52 264/554/52
f 264/554/59 261/553/59 266/555/59 265/556/59
f 202/399/42 181/373/42 262/373/42 263/399/42
f 275/557/81 277/558/81 280/54/81 276/53/81
f 282/559/81 284/560/81 287/561/81 283/562/81
f 282/563/82 288/564/82 285/565/82 284/566/82
f 284/567/83 285/568/83 286/569/83 287/570/83
f 283/571/84 290/572/84 288/573/84 282/574/84
f 287/575/85 286/576/85 290/577/85 283/578/85
f 275/579/82 281/580/82 278/581/82 277/582/82
f 277/583/83 278/584/83 279/585/83 280/586/83
f 276/587/84 294/588/84 281/589/84 275/590/84
f 280/591/85 279/592/85 294/593/85 276/594/85
f 281/580/82 296/17/82 293/20/82 278/581/82
f 278/584/83 293/13/83 295/16/83 279/585/83
f 294/588/84 297/9/84 296/12/84 281/589/84
f 279/592/85 295/5/85 297/8/85 294/593/85
f 288/564/82 292/79/82 289/82/82 285/565/82
f 285/568/83 289/75/83 291/78/83 286/569/83
f 290/572/84 298/71/84 292/74/84 288/573/84
f 286/576/85 291/69/85 298/70/85 290/577/85
f 302/595/11 304/596/11 305/597/11 303/598/11 146/154/11 145/599/11
l 134 133
