# Blender 5.1.1
# www.blender.org
mtllib Janela.mtl
o Cube.002
v -0.960000 -10.712759 -6.770641
v -0.001745 -9.912760 -6.954314
v -0.960000 -10.712759 -7.570641
v -0.960000 -9.912760 -7.570641
v 0.960000 -10.712759 -6.770641
v 0.298567 -9.912760 -6.954314
v 0.960000 -10.712759 -7.570641
v 0.960000 -9.912760 -7.570641
v -0.960000 12.087242 -6.770641
v -0.960000 12.087242 -7.570641
v 0.960000 12.087242 -7.570641
v 0.960000 12.087242 -6.770641
v -0.960000 -10.712759 7.229360
v -0.001745 -9.912760 6.310697
v 0.298567 -9.912760 6.310697
v 0.960000 -10.712759 7.229360
v -0.960000 11.087242 -6.770641
v -0.960000 11.087242 -7.570641
v 0.960000 11.087242 -6.770641
v 0.960000 11.087242 -7.570641
v 0.960000 12.087242 7.229360
v -0.960000 12.087242 7.229360
v -0.960000 11.087242 7.229360
v 0.960000 11.087242 7.229360
v 0.960000 11.087242 6.229360
v -0.960000 11.087242 6.229360
v -0.960000 12.087242 6.229360
v 0.960000 12.087242 6.229360
v 0.960000 -9.912758 7.229360
v -0.960000 -9.912758 7.229360
v 0.960000 -9.912758 6.229360
v -0.960000 -9.912758 6.229360
v 0.960000 -9.912760 -6.770641
v -0.960000 -9.912760 -6.770641
v 0.960000 -9.912760 7.229360
v -0.960000 -9.912760 7.229360
v 0.298567 11.087240 -6.954314
v -0.001745 11.087240 -6.954314
v 0.298567 11.087240 6.310697
v -0.001745 11.087240 6.310697
vn -1.0000 -0.0000 -0.0000
vn -0.0000 -0.0000 -1.0000
vn 1.0000 -0.0000 -0.0000
vn -0.0000 -1.0000 -0.0000
vn -0.0000 1.0000 -0.0000
vn -0.0000 -0.0000 1.0000
vt 0.314854 0.512763
vt 0.314854 0.494771
vt 0.332846 0.494771
vt 0.332846 0.512763
vt 0.964017 0.512763
vt 0.964017 0.494771
vt 0.982008 0.494771
vt 0.982008 0.512763
vt 0.332846 0.512763
vt 0.332846 0.494771
vt 0.350838 0.494771
vt 0.350838 0.512763
vt 0.000000 0.512763
vt 0.000000 0.494771
vt 0.053975 0.845609
vt 0.035983 0.845609
vt 0.035983 0.827617
vt 0.053975 0.827617
vt 0.332846 0.022490
vt 0.314854 0.022490
vt 0.314854 0.000000
vt 0.332846 0.000000
vt 0.071967 0.845609
vt 0.071967 0.827617
vt 0.000000 0.022490
vt 0.022490 0.022490
vt 0.022490 0.494771
vt 0.000000 0.494771
vt 0.982008 0.022490
vt 0.964017 0.022490
vt 0.964017 0.000000
vt 0.982008 0.000000
vt 0.350838 0.022490
vt 0.332846 0.022490
vt 0.332846 0.000000
vt 0.350838 0.000000
vt 0.149562 0.530754
vt 0.131570 0.530754
vt 0.131570 0.512763
vt 0.149562 0.512763
vt 0.035983 0.512763
vt 0.053975 0.512763
vt 0.984822 0.967053
vt 0.982008 0.967053
vt 0.982008 0.494771
vt 0.984822 0.494771
vt 0.665692 0.494771
vt 0.665692 0.512763
vt 0.017992 0.985044
vt 0.000000 0.985044
vt 0.017992 0.512763
vt 1.000000 0.022490
vt 1.000000 0.000000
vt 0.071967 0.535252
vt 0.053975 0.535252
vt 0.071967 0.512763
vt 0.643202 0.022490
vt 0.643202 0.000000
vt 0.665692 0.000000
vt 0.665692 0.022490
vt 0.022490 0.000000
vt 0.000000 0.000000
vt 0.107950 0.805127
vt 0.089958 0.805127
vt 0.089958 0.512763
vt 0.107950 0.512763
vt 0.131570 0.535252
vt 0.113578 0.535252
vt 0.113578 0.512763
vt 1.000000 0.494771
vt 0.665692 0.494771
vt 0.643202 0.494771
vt 0.035983 0.985044
vt 0.017992 0.985044
vt 0.009012 0.989175
vt 0.006198 0.989175
vt 0.083760 0.533423
vt 0.080946 0.533423
vt 0.080946 0.831748
vt 0.083760 0.831748
vt 0.089958 0.827617
vt 0.113578 0.811087
vt 0.110764 0.811087
vt 0.110764 0.512763
vt 0.113578 0.512763
vt 0.964017 0.472281
vt 0.665692 0.472281
vt 0.665692 0.000000
vt 0.110764 0.985044
vt 0.107950 0.985044
vt 0.110764 0.512763
vt 0.964017 0.944563
vt 0.665692 0.944563
vt 0.665692 0.472281
vt 0.964017 0.472281
s 0
usemtl Material.001
f 1/1/1 34/2/1 4/3/1 3/4/1
f 3/5/2 4/6/2 8/7/2 7/8/2
f 7/9/3 8/10/3 33/11/3 5/12/3
f 34/2/1 1/1/1 13/13/1 36/14/1
f 3/15/4 7/16/4 5/17/4 1/18/4
f 18/19/1 17/20/1 9/21/1 10/22/1
f 11/23/5 10/15/5 9/18/5 12/24/5
f 23/25/1 26/26/1 32/27/1 30/28/1
f 20/29/2 18/30/2 10/31/2 11/32/2
f 19/33/3 20/34/3 11/35/3 12/36/3
f 16/37/6 35/38/6 36/39/6 13/40/6
f 1/18/4 5/17/4 16/41/4 13/42/4
f 14/43/6 15/44/6 39/45/6 40/46/6
f 5/12/3 33/11/3 35/47/3 16/48/3
f 33/11/3 8/10/3 20/34/3 19/33/3
f 8/7/2 4/6/2 18/30/2 20/29/2
f 34/49/6 33/50/6 19/13/6 17/51/6
f 4/3/1 34/2/1 17/20/1 18/19/1
f 23/52/6 24/29/6 21/32/6 22/53/6
f 28/54/5 27/55/5 22/42/5 21/56/5
f 25/57/3 28/58/3 21/59/3 24/60/3
f 27/61/1 26/26/1 23/25/1 22/62/1
f 9/21/1 17/20/1 26/26/1 27/61/1
f 19/33/3 12/36/3 28/58/3 25/57/3
f 12/24/5 9/18/5 27/55/5 28/54/5
f 17/63/4 19/64/4 25/65/4 26/66/4
f 32/67/4 31/68/4 29/69/4 30/39/4
f 24/29/6 23/52/6 30/70/6 29/45/6
f 25/57/3 24/60/3 29/71/3 31/72/3
f 26/51/2 25/41/2 31/73/2 32/74/2
f 2/75/4 6/76/4 33/50/4 34/49/4
f 15/77/5 14/78/5 36/56/5 35/65/5
f 14/78/5 2/79/5 34/24/5 36/56/5
f 6/80/5 15/77/5 35/65/5 33/81/5
f 37/82/5 38/83/5 40/84/5 39/85/5
f 2/86/1 14/87/1 40/88/1 38/31/1
f 6/89/2 2/90/2 38/66/2 37/91/2
f 15/92/3 6/93/3 37/94/3 39/95/3
