# Blender 5.1.1
# www.blender.org
mtllib mato.mtl
o Plane
v -0.337825 -0.177682 0.103048
v -0.337825 -0.177682 0.103048
v 0.024683 1.195697 -2.297821
v 0.432290 -0.155573 0.044418
v 0.230472 0.885292 -0.937142
v -0.162909 0.871704 -0.871524
v 0.129285 1.237403 -1.574353
v -0.068857 1.244018 -1.555528
v 0.103048 -0.177682 0.337825
v 0.103048 -0.177682 0.337825
v -2.297821 1.195697 -0.024683
v 0.044418 -0.155573 -0.432290
v -0.937142 0.885292 -0.230472
v -0.871524 0.871704 0.162909
v -1.574353 1.237403 -0.129285
v -1.555528 1.244018 0.068857
v 0.337825 -0.177682 -0.103048
v 0.337825 -0.177682 -0.103048
v -0.024682 1.195697 2.297821
v -0.432290 -0.155573 -0.044418
v -0.230472 0.885292 0.937142
v 0.162909 0.871704 0.871524
v -0.129285 1.237403 1.574353
v 0.068857 1.244018 1.555528
v -0.103048 -0.177682 -0.337825
v -0.103048 -0.177682 -0.337825
v 2.297821 1.195697 0.024683
v -0.044418 -0.155573 0.432290
v 0.937142 0.885292 0.230472
v 0.871524 0.871704 -0.162909
v 1.574353 1.237403 0.129285
v 1.555528 1.244018 -0.068857
vn 0.0569 0.6826 0.7286
vn 0.0582 0.8755 0.4797
vn 0.0275 0.9977 -0.0615
vn 0.7286 0.6826 -0.0569
vn 0.4797 0.8755 -0.0582
vn -0.0615 0.9977 -0.0275
vn -0.0569 0.6826 -0.7286
vn -0.0582 0.8755 -0.4797
vn -0.0275 0.9977 0.0615
vn -0.7286 0.6826 0.0569
vn -0.4797 0.8755 0.0582
vn 0.0615 0.9977 0.0275
vt 0.285918 1.000000
vt 0.000000 1.000000
vt 0.038541 0.472052
vt 0.185871 0.482943
vt 0.052765 0.203806
vt 0.126455 0.202094
vt 0.065392 0.000000
s 0
usemtl Material.001
f 1/1/1 2/1/1 4/2/1 5/3/1 6/4/1
f 6/4/2 5/3/2 7/5/2 8/6/2
f 8/6/3 7/5/3 3/7/3
f 9/1/4 10/1/4 12/2/4 13/3/4 14/4/4
f 14/4/5 13/3/5 15/5/5 16/6/5
f 16/6/6 15/5/6 11/7/6
f 17/1/7 18/1/7 20/2/7 21/3/7 22/4/7
f 22/4/8 21/3/8 23/5/8 24/6/8
f 24/6/9 23/5/9 19/7/9
f 25/1/10 26/1/10 28/2/10 29/3/10 30/4/10
f 30/4/11 29/3/11 31/5/11 32/6/11
f 32/6/12 31/5/12 27/7/12
