# Blender 5.1.1
# www.blender.org
mtllib tabua.mtl
o Cube.010
v -9.741467 0.254269 -1.102806
v -9.741467 -0.322617 -1.102806
v 10.270824 0.254268 -1.102807
v 10.270824 -0.322619 -1.102807
v -9.741467 0.254269 1.192897
v -9.741467 -0.322618 1.192897
v 10.270824 0.254267 1.192896
v 10.270824 -0.322619 1.192896
v 10.270824 -0.096348 -0.324323
v 9.635905 0.254268 -0.533368
v 10.040279 0.045441 -0.411703
v 3.590928 0.150001 -0.947627
v 5.314553 0.254268 -1.102807
v 2.772524 0.254268 -0.504395
v 4.517879 0.254268 -0.745907
v 1.304823 0.254268 -0.555013
v 4.938304 -0.087142 -1.102807
v -9.741467 0.254269 1.029014
v -9.741467 0.254269 -0.374997
v -8.720019 0.246280 0.490324
v -9.741467 -0.206079 -0.785058
v -9.741467 -0.213633 0.417458
v -9.517294 0.080663 0.383754
v -1.119931 0.254268 1.192897
v -5.137991 0.254268 1.192897
v -2.409721 -0.097927 1.192897
v -4.503568 -0.139215 1.192897
v -3.986360 0.248279 0.614525
v -2.334421 0.251830 0.978497
v -4.367399 0.254268 1.236134
v -3.028814 0.134836 0.991802
v 3.426329 0.254268 0.486349
v 4.938626 0.254268 0.887961
v 5.828034 0.254268 0.345113
v 4.839432 0.254268 0.001358
v 4.884102 0.112900 0.400622
v -0.011915 0.178178 -0.989561
v -0.125816 -0.322619 1.192897
v -0.030607 -0.322618 -1.102807
v -0.017990 0.254268 -0.124020
v -0.087144 0.254268 1.192897
vn 0.0048 0.9989 -0.0477
vn 1.0000 -0.0000 -0.0000
vn -0.0000 -0.0000 1.0000
vn -0.0000 -1.0000 -0.0000
vn 0.0062 0.1044 -0.9945
vn -1.0000 -0.0000 -0.0000
vn 0.5649 0.8040 -0.1858
vn 0.3346 0.8653 0.3731
vn 0.4938 0.8504 -0.1816
vn 0.3755 0.8451 0.3806
vn 0.0074 0.9764 -0.2159
vn -0.0566 0.9690 -0.2406
vn -0.0955 0.1052 -0.9899
vn -0.1542 0.9394 -0.3063
vn -0.9663 0.2217 0.1309
vn -0.2311 0.9314 0.2814
vn -0.7500 0.5253 -0.4019
vn -0.0558 -0.0900 0.9944
vn -0.1221 0.7928 0.5971
vn 0.0745 0.2974 0.9518
vn 0.0005 1.0000 -0.0093
vn 0.0979 0.9939 0.0504
vn -0.1213 0.4442 0.8877
vn -0.0000 1.0000 -0.0000
vn 0.0758 0.9553 -0.2856
vn 0.1101 0.9407 0.3208
vn -0.1579 0.9529 -0.2588
vn -0.1193 0.9316 0.3432
vn -0.0005 1.0000 0.0010
vn -0.0012 0.1116 -0.9938
vn -0.0006 0.9999 -0.0147
vt -0.000000 0.350987
vt 0.000000 0.241808
vt 0.167480 0.203941
vt 0.168644 0.335829
vt 0.655886 0.344813
vt 0.962731 0.344813
vt 0.775894 0.461718
vt 0.961711 0.689559
vt 0.654866 0.689559
vt 1.000000 0.341113
vt 0.689699 0.340920
vt 0.689602 0.164466
vt 0.999903 0.164001
vt 0.689512 0.000000
vt 0.689511 0.344813
vt 0.522193 0.344813
vt 0.523833 0.000000
vt 0.344698 0.345021
vt 0.654866 0.344813
vt 0.614471 0.512815
vt 0.344698 0.512299
vt 0.308017 0.697465
vt 0.000000 0.695146
vt 0.000000 0.670578
vt 0.249827 0.580778
vt 0.245794 0.400473
vt 0.000000 0.460096
vt -0.000000 0.350987
vt 0.308017 0.353307
vt 0.851941 0.448675
vt 0.964108 0.430543
vt 0.231092 0.330216
vt 0.190265 0.268566
vt 0.215545 0.260940
vt 0.000000 0.777279
vt 0.028071 0.697465
vt 0.043389 0.728446
vt 0.063180 0.777279
vt 0.654866 0.604167
vt 0.471304 0.597808
vt 0.599513 0.575026
vt 0.002130 0.590929
vt 0.092225 0.574778
vt 0.689555 0.078423
vt 0.901211 0.089362
vt 0.689512 0.092523
vt 0.654866 0.689559
vt 0.688495 0.689974
vt 0.745037 0.689559
vt 0.693285 0.753737
vt 0.879022 0.125018
vt 0.754049 0.109867
vt 0.092565 0.000000
vt 0.099211 0.093401
vt 0.079292 0.006503
vt 0.537732 0.769572
vt 0.565412 0.689751
vt 0.614214 0.769572
vt 0.674251 0.879316
vt 0.344698 0.006160
vt 0.252855 0.052022
vt 0.226806 0.112302
vt 0.251146 0.185025
vt 0.166289 0.006391
vt 0.484261 0.734050
vt 0.524625 0.689751
vt 0.537732 0.793586
vt 0.441342 0.793586
vt 0.344698 0.793642
vt 0.358272 0.689750
vt 0.410057 0.751337
vt 0.441342 0.793642
vt 0.689592 0.146872
vt 0.689512 -0.000000
vt 0.999813 0.000194
vt 0.344698 0.344813
vt 0.344698 0.000000
vt 0.017705 0.112192
vt 0.000000 0.031190
vt 0.000000 0.006606
vt 0.127615 0.038669
vt 0.148500 0.006414
vt 0.654866 0.689543
vt 0.344698 0.689750
vt 0.268174 0.133436
vt 0.333762 0.265133
vt 0.344698 0.350541
vt 0.259330 0.350652
vt 0.245607 0.297130
s 0
usemtl Material.002
f 1/1/1 19/2/1 40/3/1 37/4/1
f 4/5/2 3/6/2 9/7/2 7/8/2 8/9/2
f 8/10/3 7/11/3 41/12/3 38/13/3
f 6/14/4 2/15/4 39/16/4 38/17/4
f 2/18/5 1/19/5 37/20/5 39/21/5
f 6/22/6 5/23/6 18/24/6 22/25/6 21/26/6 19/27/6 1/28/6 2/29/6
f 7/8/7 9/7/7 11/30/7
f 3/6/8 10/31/8 11/30/8
f 11/30/9 10/31/9 7/8/9
f 11/30/10 9/7/10 3/6/10
f 12/32/11 16/33/11 14/34/11
f 12/35/12 14/36/12 15/37/12 13/38/12
f 13/39/13 17/40/13 12/41/13
f 18/24/14 20/42/14 23/43/14
f 19/27/15 21/26/15 22/25/15 23/43/15
f 23/43/16 20/42/16 19/27/16
f 23/43/17 22/25/17 18/24/17
f 25/44/18 27/45/18 30/46/18
f 24/47/19 29/48/19 28/49/19 31/50/19
f 30/46/20 27/45/20 26/51/20 31/52/20
f 30/53/21 28/54/21 25/55/21
f 31/56/22 28/57/22 30/58/22
f 31/50/23 26/59/23 24/47/23
f 7/60/24 33/61/24 32/62/24 35/63/24 40/3/24 41/64/24
f 32/65/25 33/66/25 36/67/25
f 32/65/26 36/67/26 35/68/26
f 36/69/27 33/70/27 34/71/27
f 35/72/28 36/69/28 34/71/28
f 38/13/3 41/12/3 24/73/3 26/51/3 27/45/3 25/44/3 5/74/3 6/75/3
f 38/17/4 39/16/4 4/76/4 8/77/4
f 41/64/29 40/3/29 19/2/29 20/78/29 18/79/29 5/80/29 25/55/29 28/54/29 29/81/29 24/82/29
f 39/21/30 37/20/30 12/41/30 17/40/30 13/39/30 3/83/30 4/84/30
f 37/4/31 40/3/31 35/63/31 34/85/31 33/61/31 7/60/31 10/86/31 3/87/31 13/88/31 15/89/31 14/34/31 16/33/31 12/32/31
