# Blender 5.1.1
# www.blender.org
mtllib tabua quebrada.mtl
o Cube.004
v 2.477216 0.169518 -10.282881
v 2.477216 -0.407369 -10.282881
v 4.495521 0.169517 -9.188942
v 4.495521 -0.407369 -9.188942
v 3.161633 -0.181098 -9.911921
v 2.675299 0.169517 -9.453335
v 2.974954 -0.039309 -9.750872
v -0.569428 0.065251 -4.336198
v 0.115476 0.169518 -5.925497
v -0.569737 0.169518 -3.405479
v 0.049624 0.169518 -5.055020
v -1.313621 0.169519 -2.139247
v -0.063812 -0.171892 -5.594712
v 0.612840 0.169518 -3.508178
v 1.686556 0.169518 -4.646363
v 1.633120 0.169518 -5.686975
v 0.859818 0.169518 -4.981635
v 1.232123 0.028150 -4.830651
v -2.323107 0.093428 -1.188684
v -0.458640 -0.407368 -0.048570
v -2.431576 -0.407368 -1.226213
v -1.565047 0.169519 -0.770898
v -0.440212 0.169518 -0.082570
v 0.617483 -0.413314 10.741789
v 2.883522 -0.413315 10.373928
v 0.617483 0.163572 10.741789
v 2.883522 0.163572 10.373928
v 2.145869 0.163571 5.829937
v 1.335888 0.163572 10.625166
v -0.938568 -0.413316 1.156410
v 2.721756 0.163572 10.400190
v 2.048913 -0.010034 10.282309
v 2.026352 0.155584 9.478258
v 0.931125 -0.296776 10.690872
v 2.118103 -0.304329 10.498184
v 1.336530 0.163570 0.844356
v 1.502022 0.163571 1.863798
v 2.065068 0.163571 5.062374
v 1.708696 -0.188624 3.136922
v 2.044210 -0.229911 5.203712
v 1.390435 0.157582 4.785865
v 1.485000 0.161133 3.096949
v 1.609401 0.044139 3.780237
v 0.025549 0.163571 0.987116
v -0.829781 0.087480 1.119812
v 1.342727 -0.413316 0.882527
vn 0.4765 -0.0000 -0.8792
vn 0.8792 -0.0000 0.4765
vn 0.1058 0.8040 -0.5852
vn 0.4875 0.8653 -0.1164
vn 0.0756 0.8504 -0.5207
vn 0.5135 0.8451 -0.1487
vn -0.1863 0.9764 -0.1094
vn -0.2385 0.9690 -0.0649
vn -0.9157 0.1052 -0.3877
vn -0.0000 1.0000 -0.0000
vn -0.2150 0.9553 -0.2028
vn 0.3345 0.9407 0.0561
vn -0.3028 0.9529 0.0155
vn 0.2449 0.9316 0.2685
vn -0.5095 0.0754 0.8572
vn -0.0000 -1.0000 -0.0000
vn -0.1207 -0.0754 -0.9898
vn -0.8742 0.1116 -0.4725
vn -0.0132 0.9999 -0.0065
vn -0.0478 0.9989 0.0029
vn -0.9827 0.1044 0.1532
vn 0.1602 -0.0000 0.9871
vn -0.2776 0.9394 0.2013
vn 0.2841 0.2217 0.9328
vn 0.3148 0.9314 0.1830
vn -0.2765 0.5253 0.8047
vn 0.9905 -0.0900 -0.1043
vn 0.6090 0.7928 0.0249
vn 0.9276 0.2974 -0.2261
vn -0.0093 1.0000 0.0010
vn 0.0341 0.9939 -0.1047
vn 0.8956 0.4442 -0.0225
vn 0.9871 -0.0000 -0.1602
vn 0.0010 1.0000 0.0003
vt 0.655886 0.344813
vt 0.962731 0.344813
vt 0.775894 0.461718
vt 0.961711 0.689559
vt 0.654866 0.689559
vt 1.000000 0.341113
vt 0.689699 0.340920
vt 0.689602 0.164466
vt 0.999903 0.164001
vt 0.851941 0.448675
vt 0.964108 0.430543
vt 0.231092 0.330216
vt 0.190265 0.268566
vt 0.215545 0.260940
vt 0.000000 0.777279
vt 0.028071 0.697465
vt 0.043389 0.728446
vt 0.063180 0.777279
vt 0.654866 0.604167
vt 0.471304 0.597808
vt 0.599513 0.575026
vt 0.344698 0.006160
vt 0.252855 0.052022
vt 0.226806 0.112302
vt 0.251146 0.185025
vt 0.167480 0.203941
vt 0.166289 0.006391
vt 0.484261 0.734050
vt 0.524625 0.689751
vt 0.537732 0.793586
vt 0.441342 0.793586
vt 0.344698 0.793642
vt 0.358272 0.689750
vt 0.410057 0.751337
vt 0.441342 0.793642
vt 0.168644 0.335829
vt 0.344698 0.512299
vt 0.523833 0.000000
vt 0.522193 0.344813
vt 0.344698 0.344813
vt 0.344698 0.000000
vt 0.614471 0.512815
vt 0.654866 0.689543
vt 0.344698 0.689750
vt 0.268174 0.133436
vt 0.333762 0.265133
vt 0.344698 0.350541
vt 0.259330 0.350652
vt 0.245607 0.297130
vt -0.000000 0.350987
vt 0.000000 0.241808
vt 0.689512 0.000000
vt 0.689511 0.344813
vt 0.344698 0.345021
vt 0.654866 0.344813
vt 0.308017 0.697465
vt 0.000000 0.695146
vt 0.000000 0.670578
vt 0.249827 0.580778
vt 0.245794 0.400473
vt 0.000000 0.460096
vt -0.000000 0.350987
vt 0.308017 0.353307
vt 0.002130 0.590929
vt 0.092225 0.574778
vt 0.689555 0.078423
vt 0.901211 0.089362
vt 0.689512 0.092523
vt 0.654866 0.689559
vt 0.688495 0.689974
vt 0.745037 0.689559
vt 0.693285 0.753737
vt 0.879022 0.125018
vt 0.754049 0.109867
vt 0.092565 0.000000
vt 0.099211 0.093401
vt 0.079292 0.006503
vt 0.537732 0.769572
vt 0.565412 0.689751
vt 0.614214 0.769572
vt 0.674251 0.879316
vt 0.689592 0.146872
vt 0.689512 -0.000000
vt 0.999813 0.000194
vt 0.017705 0.112192
vt 0.000000 0.031190
vt 0.000000 0.006606
vt 0.127615 0.038669
vt 0.148500 0.006414
s 0
usemtl Material.005
f 2/1/1 1/2/1 5/3/1 3/4/1 4/5/1
f 4/6/2 3/7/2 23/8/2 20/9/2
f 3/4/3 5/3/3 7/10/3
f 1/2/4 6/11/4 7/10/4
f 7/10/5 6/11/5 3/4/5
f 7/10/6 5/3/6 1/2/6
f 8/12/7 12/13/7 10/14/7
f 8/15/8 10/16/8 11/17/8 9/18/8
f 9/19/9 13/20/9 8/21/9
f 3/22/10 15/23/10 14/24/10 17/25/10 22/26/10 23/27/10
f 14/28/11 15/29/11 18/30/11
f 14/28/12 18/30/12 17/31/12
f 18/32/13 15/33/13 16/34/13
f 17/35/14 18/32/14 16/34/14
f 23/27/15 22/26/15 19/36/15 21/37/15 20/38/15
f 20/38/16 21/39/16 2/40/16 4/41/16
f 36/27/17 46/38/17 30/37/17 45/36/17 44/26/17
f 21/37/18 19/42/18 8/21/18 13/20/18 9/19/18 1/43/18 2/44/18
f 19/36/19 22/26/19 17/25/19 16/45/19 15/23/19 3/22/19 6/46/19 1/47/19 9/48/19 11/49/19 10/14/19 12/13/19 8/12/19
f 26/50/20 29/51/20 44/26/20 45/36/20
f 25/52/16 24/53/16 30/39/16 46/38/16
f 24/54/21 26/55/21 45/42/21 30/37/21
f 25/56/22 27/57/22 31/58/22 35/59/22 34/60/22 29/61/22 26/62/22 24/63/22
f 31/58/23 33/64/23 32/65/23
f 29/61/24 34/60/24 35/59/24 32/65/24
f 32/65/25 33/64/25 29/61/25
f 32/65/26 35/59/26 31/58/26
f 28/66/27 40/67/27 38/68/27
f 37/69/28 42/70/28 41/71/28 43/72/28
f 38/68/29 40/67/29 39/73/29 43/74/29
f 38/75/30 41/76/30 28/77/30
f 43/78/31 41/79/31 38/80/31
f 43/72/32 39/81/32 37/69/32
f 46/9/33 36/8/33 37/82/33 39/73/33 40/67/33 28/66/33 27/83/33 25/84/33
f 36/27/34 44/26/34 29/51/34 33/85/34 31/86/34 27/87/34 28/77/34 41/76/34 42/88/34 37/89/34
