# Blender 5.1.1
# www.blender.org
mtllib telha.mtl
o Cube
v 0.514855 0.077536 -1.376408
v 0.514855 -0.660084 -1.376408
v 0.514855 0.077536 10.979426
v 0.514855 -0.660084 10.979426
v -1.485145 -1.677170 -1.376408
v -1.485145 -2.414790 -1.376408
v -1.485145 -1.677170 10.979426
v -1.485145 -2.414790 10.979426
v 2.514855 0.670391 -1.376408
v 2.514855 0.145821 -1.376408
v 2.514855 0.670391 10.979426
v 2.514855 0.145821 10.979426
v 4.514854 0.670391 -1.376408
v 4.514854 0.145821 -1.376408
v 4.514854 0.670391 10.979426
v 4.514854 0.145821 10.979426
v 6.514854 0.077536 -1.376408
v 6.514854 -0.660084 -1.376408
v 6.514854 0.077536 10.979426
v 6.514854 -0.660084 10.979426
v 8.514854 -1.677170 -1.376408
v 8.514854 -2.414790 -1.376408
v 8.514854 -1.677170 10.979426
v 8.514854 -2.414790 10.979426
v -8.485146 -2.414790 -1.376408
v -8.485146 -2.414790 10.979426
v -8.485146 -1.677170 10.979426
v -8.485146 -1.677170 -1.376408
v 17.514854 0.077536 -1.376408
v 17.514854 -0.660084 -1.376408
v 17.514854 0.077536 10.979426
v 17.514854 -0.660084 10.979426
v 15.514854 -1.677170 -1.376408
v 15.514854 -2.414790 -1.376408
v 15.514854 -1.677170 10.979426
v 15.514854 -2.414790 10.979426
v 19.514854 0.670391 -1.376408
v 19.514854 0.145821 -1.376408
v 19.514854 0.670391 10.979426
v 19.514854 0.145821 10.979426
v 21.514854 0.670391 -1.376408
v 21.514854 0.145821 -1.376408
v 21.514854 0.670391 10.979426
v 21.514854 0.145821 10.979426
v 23.514854 0.077536 -1.376408
v 23.514854 -0.660084 -1.376408
v 23.514854 0.077536 10.979426
v 23.514854 -0.660084 10.979426
v 25.514854 -1.677170 -1.376408
v 25.514854 -2.414790 -1.376408
v 25.514854 -1.677170 10.979426
v 25.514854 -2.414790 10.979426
v 8.514854 -2.414790 -1.376408
v 8.514854 -2.414790 10.979426
v 8.514854 -1.677170 10.979426
v 8.514854 -1.677170 -1.376408
v 34.514854 0.077536 -1.376408
v 34.514854 -0.660084 -1.376408
v 34.514854 0.077536 10.979426
v 34.514854 -0.660084 10.979426
v 32.514854 -1.677170 -1.376408
v 32.514854 -2.414790 -1.376408
v 32.514854 -1.677170 10.979426
v 32.514854 -2.414790 10.979426
v 36.514854 0.670391 -1.376408
v 36.514854 0.145821 -1.376408
v 36.514854 0.670391 10.979426
v 36.514854 0.145821 10.979426
v 38.514854 0.670391 -1.376408
v 38.514854 0.145821 -1.376408
v 38.514854 0.670391 10.979426
v 38.514854 0.145821 10.979426
v 40.514854 0.077536 -1.376408
v 40.514854 -0.660084 -1.376408
v 40.514854 0.077536 10.979426
v 40.514854 -0.660084 10.979426
v 42.514854 -1.677170 -1.376408
v 42.514854 -2.414790 -1.376408
v 42.514854 -1.677170 10.979426
v 42.514854 -2.414790 10.979426
v 25.514854 -2.414790 -1.376408
v 25.514854 -2.414790 10.979426
v 25.514854 -1.677170 10.979426
v 25.514854 -1.677170 -1.376408
v 51.514854 0.077536 -1.376408
v 51.514854 -0.660084 -1.376408
v 51.514854 0.077536 10.979426
v 51.514854 -0.660084 10.979426
v 49.514854 -1.677170 -1.376408
v 49.514854 -2.414790 -1.376408
v 49.514854 -1.677170 10.979426
v 49.514854 -2.414790 10.979426
v 53.514854 0.670391 -1.376408
v 53.514854 0.145821 -1.376408
v 53.514854 0.670391 10.979426
v 53.514854 0.145821 10.979426
v 55.514854 0.670391 -1.376408
v 55.514854 0.145821 -1.376408
v 55.514854 0.670391 10.979426
v 55.514854 0.145821 10.979426
v 57.514854 0.077536 -1.376408
v 57.514854 -0.660084 -1.376408
v 57.514854 0.077536 10.979426
v 57.514854 -0.660084 10.979426
v 59.514854 -1.677170 -1.376408
v 59.514854 -2.414790 -1.376408
v 59.514854 -1.677170 10.979426
v 59.514854 -2.414790 10.979426
v 42.514854 -2.414790 -1.376408
v 42.514854 -2.414790 10.979426
v 42.514854 -1.677170 10.979426
v 42.514854 -1.677170 -1.376408
v 68.514854 0.077536 -1.376408
v 68.514854 -0.660084 -1.376408
v 68.514854 0.077536 10.979426
v 68.514854 -0.660084 10.979426
v 66.514854 -1.677170 -1.376408
v 66.514854 -2.414790 -1.376408
v 66.514854 -1.677170 10.979426
v 66.514854 -2.414790 10.979426
v 70.514854 0.670391 -1.376408
v 70.514854 0.145821 -1.376408
v 70.514854 0.670391 10.979426
v 70.514854 0.145821 10.979426
v 72.514854 0.670391 -1.376408
v 72.514854 0.145821 -1.376408
v 72.514854 0.670391 10.979426
v 72.514854 0.145821 10.979426
v 74.514854 0.077536 -1.376408
v 74.514854 -0.660084 -1.376408
v 74.514854 0.077536 10.979426
v 74.514854 -0.660084 10.979426
v 76.514854 -1.677170 -1.376408
v 76.514854 -2.414790 -1.376408
v 76.514854 -1.677170 10.979426
v 76.514854 -2.414790 10.979426
v 59.514854 -2.414790 -1.376408
v 59.514854 -2.414790 10.979426
v 59.514854 -1.677170 10.979426
v 59.514854 -1.677170 -1.376408
v 0.514857 0.077536 -13.732241
v 0.514857 -0.660084 -13.732241
v 0.514857 0.077536 -1.376407
v 0.514857 -0.660084 -1.376407
v -1.485143 -1.677170 -13.732241
v -1.485143 -2.414790 -13.732241
v -1.485143 -1.677170 -1.376407
v -1.485143 -2.414790 -1.376407
v 2.514857 0.670391 -13.732241
v 2.514857 0.145821 -13.732241
v 2.514857 0.670391 -1.376407
v 2.514857 0.145821 -1.376407
v 4.514857 0.670391 -13.732241
v 4.514857 0.145821 -13.732241
v 4.514857 0.670391 -1.376407
v 4.514857 0.145821 -1.376407
v 6.514857 0.077536 -13.732241
v 6.514857 -0.660084 -13.732241
v 6.514857 0.077536 -1.376407
v 6.514857 -0.660084 -1.376407
v 8.514857 -1.677170 -13.732241
v 8.514857 -2.414790 -13.732241
v 8.514857 -1.677170 -1.376407
v 8.514857 -2.414790 -1.376407
v -8.485143 -2.414790 -13.732241
v -8.485143 -2.414790 -1.376407
v -8.485143 -1.677170 -1.376407
v -8.485143 -1.677170 -13.732241
v 17.514856 0.077536 -13.732241
v 17.514856 -0.660084 -13.732241
v 17.514856 0.077536 -1.376407
v 17.514856 -0.660084 -1.376407
v 15.514857 -1.677170 -13.732241
v 15.514857 -2.414790 -13.732241
v 15.514857 -1.677170 -1.376407
v 15.514857 -2.414790 -1.376407
v 19.514856 0.670391 -13.732241
v 19.514856 0.145821 -13.732241
v 19.514856 0.670391 -1.376407
v 19.514856 0.145821 -1.376407
v 21.514856 0.670391 -13.732241
v 21.514856 0.145821 -13.732241
v 21.514856 0.670391 -1.376407
v 21.514856 0.145821 -1.376407
v 23.514856 0.077536 -13.732241
v 23.514856 -0.660084 -13.732241
v 23.514856 0.077536 -1.376407
v 23.514856 -0.660084 -1.376407
v 25.514856 -1.677170 -13.732241
v 25.514856 -2.414790 -13.732241
v 25.514856 -1.677170 -1.376407
v 25.514856 -2.414790 -1.376407
v 8.514857 -2.414790 -13.732241
v 8.514857 -2.414790 -1.376407
v 8.514857 -1.677170 -1.376407
v 8.514857 -1.677170 -13.732241
v 34.514858 0.077536 -13.732241
v 34.514858 -0.660084 -13.732241
v 34.514858 0.077536 -1.376407
v 34.514858 -0.660084 -1.376407
v 32.514858 -1.677170 -13.732241
v 32.514858 -2.414790 -13.732241
v 32.514858 -1.677170 -1.376407
v 32.514858 -2.414790 -1.376407
v 36.514858 0.670391 -13.732241
v 36.514858 0.145821 -13.732241
v 36.514858 0.670391 -1.376407
v 36.514858 0.145821 -1.376407
v 38.514858 0.670391 -13.732241
v 38.514858 0.145821 -13.732241
v 38.514858 0.670391 -1.376407
v 38.514858 0.145821 -1.376407
v 40.514858 0.077536 -13.732241
v 40.514858 -0.660084 -13.732241
v 40.514858 0.077536 -1.376407
v 40.514858 -0.660084 -1.376407
v 42.514858 -1.677170 -13.732241
v 42.514858 -2.414790 -13.732241
v 42.514858 -1.677170 -1.376407
v 42.514858 -2.414790 -1.376407
v 25.514856 -2.414790 -13.732241
v 25.514856 -2.414790 -1.376407
v 25.514856 -1.677170 -1.376407
v 25.514856 -1.677170 -13.732241
v 51.514858 0.077536 -13.732241
v 51.514858 -0.660084 -13.732241
v 51.514858 0.077536 -1.376407
v 51.514858 -0.660084 -1.376407
v 49.514858 -1.677170 -13.732241
v 49.514858 -2.414790 -13.732241
v 49.514858 -1.677170 -1.376407
v 49.514858 -2.414790 -1.376407
v 53.514858 0.670391 -13.732241
v 53.514858 0.145821 -13.732241
v 53.514858 0.670391 -1.376407
v 53.514858 0.145821 -1.376407
v 55.514858 0.670391 -13.732241
v 55.514858 0.145821 -13.732241
v 55.514858 0.670391 -1.376407
v 55.514858 0.145821 -1.376407
v 57.514858 0.077536 -13.732241
v 57.514858 -0.660084 -13.732241
v 57.514858 0.077536 -1.376407
v 57.514858 -0.660084 -1.376407
v 59.514858 -1.677170 -13.732241
v 59.514858 -2.414790 -13.732241
v 59.514858 -1.677170 -1.376407
v 59.514858 -2.414790 -1.376407
v 42.514858 -2.414790 -13.732241
v 42.514858 -2.414790 -1.376407
v 42.514858 -1.677170 -1.376407
v 42.514858 -1.677170 -13.732241
v 68.514854 0.077536 -13.732241
v 68.514854 -0.660084 -13.732241
v 68.514854 0.077536 -1.376407
v 68.514854 -0.660084 -1.376407
v 66.514854 -1.677170 -13.732241
v 66.514854 -2.414790 -13.732241
v 66.514854 -1.677170 -1.376407
v 66.514854 -2.414790 -1.376407
v 70.514854 0.670391 -13.732241
v 70.514854 0.145821 -13.732241
v 70.514854 0.670391 -1.376407
v 70.514854 0.145821 -1.376407
v 72.514854 0.670391 -13.732241
v 72.514854 0.145821 -13.732241
v 72.514854 0.670391 -1.376407
v 72.514854 0.145821 -1.376407
v 74.514854 0.077536 -13.732241
v 74.514854 -0.660084 -13.732241
v 74.514854 0.077536 -1.376407
v 74.514854 -0.660084 -1.376407
v 76.514854 -1.677170 -13.732241
v 76.514854 -2.414790 -13.732241
v 76.514854 -1.677170 -1.376407
v 76.514854 -2.414790 -1.376407
v 59.514858 -2.414790 -13.732241
v 59.514858 -2.414790 -1.376407
v 59.514858 -1.677170 -1.376407
v 59.514858 -1.677170 -13.732241
v 0.514860 0.077536 -26.088074
v 0.514860 -0.660084 -26.088074
v 0.514860 0.077536 -13.732240
v 0.514860 -0.660084 -13.732240
v -1.485140 -1.677170 -26.088074
v -1.485140 -2.414790 -26.088074
v -1.485140 -1.677170 -13.732240
v -1.485140 -2.414790 -13.732240
v 2.514860 0.670391 -26.088074
v 2.514860 0.145821 -26.088074
v 2.514860 0.670391 -13.732240
v 2.514860 0.145821 -13.732240
v 4.514860 0.670391 -26.088074
v 4.514860 0.145821 -26.088074
v 4.514860 0.670391 -13.732240
v 4.514860 0.145821 -13.732240
v 6.514860 0.077536 -26.088074
v 6.514860 -0.660084 -26.088074
v 6.514860 0.077536 -13.732240
v 6.514860 -0.660084 -13.732240
v 8.514860 -1.677170 -26.088074
v 8.514860 -2.414790 -26.088074
v 8.514860 -1.677170 -13.732240
v 8.514860 -2.414790 -13.732240
v -8.485140 -2.414790 -26.088074
v -8.485140 -2.414790 -13.732240
v -8.485140 -1.677170 -13.732240
v -8.485140 -1.677170 -26.088074
v 17.514860 0.077536 -26.088074
v 17.514860 -0.660084 -26.088074
v 17.514860 0.077536 -13.732240
v 17.514860 -0.660084 -13.732240
v 15.514860 -1.677170 -26.088074
v 15.514860 -2.414790 -26.088074
v 15.514860 -1.677170 -13.732240
v 15.514860 -2.414790 -13.732240
v 19.514860 0.670391 -26.088074
v 19.514860 0.145821 -26.088074
v 19.514860 0.670391 -13.732240
v 19.514860 0.145821 -13.732240
v 21.514860 0.670391 -26.088074
v 21.514860 0.145821 -26.088074
v 21.514860 0.670391 -13.732240
v 21.514860 0.145821 -13.732240
v 23.514860 0.077536 -26.088074
v 23.514860 -0.660084 -26.088074
v 23.514860 0.077536 -13.732240
v 23.514860 -0.660084 -13.732240
v 25.514860 -1.677170 -26.088074
v 25.514860 -2.414790 -26.088074
v 25.514860 -1.677170 -13.732240
v 25.514860 -2.414790 -13.732240
v 8.514860 -2.414790 -26.088074
v 8.514860 -2.414790 -13.732240
v 8.514860 -1.677170 -13.732240
v 8.514860 -1.677170 -26.088074
v 34.514858 0.077536 -26.088074
v 34.514858 -0.660084 -26.088074
v 34.514858 0.077536 -13.732240
v 34.514858 -0.660084 -13.732240
v 32.514858 -1.677170 -26.088074
v 32.514858 -2.414790 -26.088074
v 32.514858 -1.677170 -13.732240
v 32.514858 -2.414790 -13.732240
v 36.514858 0.670391 -26.088074
v 36.514858 0.145821 -26.088074
v 36.514858 0.670391 -13.732240
v 36.514858 0.145821 -13.732240
v 38.514858 0.670391 -26.088074
v 38.514858 0.145821 -26.088074
v 38.514858 0.670391 -13.732240
v 38.514858 0.145821 -13.732240
v 40.514858 0.077536 -26.088074
v 40.514858 -0.660084 -26.088074
v 40.514858 0.077536 -13.732240
v 40.514858 -0.660084 -13.732240
v 42.514858 -1.677170 -26.088074
v 42.514858 -2.414790 -26.088074
v 42.514858 -1.677170 -13.732240
v 42.514858 -2.414790 -13.732240
v 25.514860 -2.414790 -26.088074
v 25.514860 -2.414790 -13.732240
v 25.514860 -1.677170 -13.732240
v 25.514860 -1.677170 -26.088074
v 51.514858 0.077536 -26.088074
v 51.514858 -0.660084 -26.088074
v 51.514858 0.077536 -13.732240
v 51.514858 -0.660084 -13.732240
v 49.514858 -1.677170 -26.088074
v 49.514858 -2.414790 -26.088074
v 49.514858 -1.677170 -13.732240
v 49.514858 -2.414790 -13.732240
v 53.514858 0.670391 -26.088074
v 53.514858 0.145821 -26.088074
v 53.514858 0.670391 -13.732240
v 53.514858 0.145821 -13.732240
v 55.514858 0.670391 -26.088074
v 55.514858 0.145821 -26.088074
v 55.514858 0.670391 -13.732240
v 55.514858 0.145821 -13.732240
v 57.514858 0.077536 -26.088074
v 57.514858 -0.660084 -26.088074
v 57.514858 0.077536 -13.732240
v 57.514858 -0.660084 -13.732240
v 59.514858 -1.677170 -26.088074
v 59.514858 -2.414790 -26.088074
v 59.514858 -1.677170 -13.732240
v 59.514858 -2.414790 -13.732240
v 42.514858 -2.414790 -26.088074
v 42.514858 -2.414790 -13.732240
v 42.514858 -1.677170 -13.732240
v 42.514858 -1.677170 -26.088074
v 68.514862 0.077536 -26.088074
v 68.514862 -0.660084 -26.088074
v 68.514862 0.077536 -13.732240
v 68.514862 -0.660084 -13.732240
v 66.514862 -1.677170 -26.088074
v 66.514862 -2.414790 -26.088074
v 66.514862 -1.677170 -13.732240
v 66.514862 -2.414790 -13.732240
v 70.514862 0.670391 -26.088074
v 70.514862 0.145821 -26.088074
v 70.514862 0.670391 -13.732240
v 70.514862 0.145821 -13.732240
v 72.514862 0.670391 -26.088074
v 72.514862 0.145821 -26.088074
v 72.514862 0.670391 -13.732240
v 72.514862 0.145821 -13.732240
v 74.514862 0.077536 -26.088074
v 74.514862 -0.660084 -26.088074
v 74.514862 0.077536 -13.732240
v 74.514862 -0.660084 -13.732240
v 76.514862 -1.677170 -26.088074
v 76.514862 -2.414790 -26.088074
v 76.514862 -1.677170 -13.732240
v 76.514862 -2.414790 -13.732240
v 59.514858 -2.414790 -26.088074
v 59.514858 -2.414790 -13.732240
v 59.514858 -1.677170 -13.732240
v 59.514858 -1.677170 -26.088074
v 0.514863 0.077536 -38.443905
v 0.514863 -0.660084 -38.443905
v 0.514863 0.077536 -26.088070
v 0.514863 -0.660084 -26.088070
v -1.485137 -1.677170 -38.443905
v -1.485137 -2.414790 -38.443905
v -1.485137 -1.677170 -26.088070
v -1.485137 -2.414790 -26.088070
v 2.514863 0.670391 -38.443905
v 2.514863 0.145821 -38.443905
v 2.514863 0.670391 -26.088070
v 2.514863 0.145821 -26.088070
v 4.514863 0.670391 -38.443905
v 4.514863 0.145821 -38.443905
v 4.514863 0.670391 -26.088070
v 4.514863 0.145821 -26.088070
v 6.514863 0.077536 -38.443905
v 6.514863 -0.660084 -38.443905
v 6.514863 0.077536 -26.088070
v 6.514863 -0.660084 -26.088070
v 8.514862 -1.677170 -38.443905
v 8.514862 -2.414790 -38.443905
v 8.514862 -1.677170 -26.088070
v 8.514862 -2.414790 -26.088070
v -8.485138 -2.414790 -38.443905
v -8.485138 -2.414790 -26.088070
v -8.485138 -1.677170 -26.088070
v -8.485138 -1.677170 -38.443905
v 17.514862 0.077536 -38.443905
v 17.514862 -0.660084 -38.443905
v 17.514862 0.077536 -26.088070
v 17.514862 -0.660084 -26.088070
v 15.514862 -1.677170 -38.443905
v 15.514862 -2.414790 -38.443905
v 15.514862 -1.677170 -26.088070
v 15.514862 -2.414790 -26.088070
v 19.514862 0.670391 -38.443905
v 19.514862 0.145821 -38.443905
v 19.514862 0.670391 -26.088070
v 19.514862 0.145821 -26.088070
v 21.514862 0.670391 -38.443905
v 21.514862 0.145821 -38.443905
v 21.514862 0.670391 -26.088070
v 21.514862 0.145821 -26.088070
v 23.514862 0.077536 -38.443905
v 23.514862 -0.660084 -38.443905
v 23.514862 0.077536 -26.088070
v 23.514862 -0.660084 -26.088070
v 25.514862 -1.677170 -38.443905
v 25.514862 -2.414790 -38.443905
v 25.514862 -1.677170 -26.088070
v 25.514862 -2.414790 -26.088070
v 8.514862 -2.414790 -38.443905
v 8.514862 -2.414790 -26.088070
v 8.514862 -1.677170 -26.088070
v 8.514862 -1.677170 -38.443905
v 34.514862 0.077536 -38.443905
v 34.514862 -0.660084 -38.443905
v 34.514862 0.077536 -26.088070
v 34.514862 -0.660084 -26.088070
v 32.514862 -1.677170 -38.443905
v 32.514862 -2.414790 -38.443905
v 32.514862 -1.677170 -26.088070
v 32.514862 -2.414790 -26.088070
v 36.514862 0.670391 -38.443905
v 36.514862 0.145821 -38.443905
v 36.514862 0.670391 -26.088070
v 36.514862 0.145821 -26.088070
v 38.514862 0.670391 -38.443905
v 38.514862 0.145821 -38.443905
v 38.514862 0.670391 -26.088070
v 38.514862 0.145821 -26.088070
v 40.514862 0.077536 -38.443905
v 40.514862 -0.660084 -38.443905
v 40.514862 0.077536 -26.088070
v 40.514862 -0.660084 -26.088070
v 42.514862 -1.677170 -38.443905
v 42.514862 -2.414790 -38.443905
v 42.514862 -1.677170 -26.088070
v 42.514862 -2.414790 -26.088070
v 25.514862 -2.414790 -38.443905
v 25.514862 -2.414790 -26.088070
v 25.514862 -1.677170 -26.088070
v 25.514862 -1.677170 -38.443905
v 51.514862 0.077536 -38.443905
v 51.514862 -0.660084 -38.443905
v 51.514862 0.077536 -26.088070
v 51.514862 -0.660084 -26.088070
v 49.514862 -1.677170 -38.443905
v 49.514862 -2.414790 -38.443905
v 49.514862 -1.677170 -26.088070
v 49.514862 -2.414790 -26.088070
v 53.514862 0.670391 -38.443905
v 53.514862 0.145821 -38.443905
v 53.514862 0.670391 -26.088070
v 53.514862 0.145821 -26.088070
v 55.514862 0.670391 -38.443905
v 55.514862 0.145821 -38.443905
v 55.514862 0.670391 -26.088070
v 55.514862 0.145821 -26.088070
v 57.514862 0.077536 -38.443905
v 57.514862 -0.660084 -38.443905
v 57.514862 0.077536 -26.088070
v 57.514862 -0.660084 -26.088070
v 59.514862 -1.677170 -38.443905
v 59.514862 -2.414790 -38.443905
v 59.514862 -1.677170 -26.088070
v 59.514862 -2.414790 -26.088070
v 42.514862 -2.414790 -38.443905
v 42.514862 -2.414790 -26.088070
v 42.514862 -1.677170 -26.088070
v 42.514862 -1.677170 -38.443905
v 68.514862 0.077536 -38.443905
v 68.514862 -0.660084 -38.443905
v 68.514862 0.077536 -26.088070
v 68.514862 -0.660084 -26.088070
v 66.514862 -1.677170 -38.443905
v 66.514862 -2.414790 -38.443905
v 66.514862 -1.677170 -26.088070
v 66.514862 -2.414790 -26.088070
v 70.514862 0.670391 -38.443905
v 70.514862 0.145821 -38.443905
v 70.514862 0.670391 -26.088070
v 70.514862 0.145821 -26.088070
v 72.514862 0.670391 -38.443905
v 72.514862 0.145821 -38.443905
v 72.514862 0.670391 -26.088070
v 72.514862 0.145821 -26.088070
v 74.514862 0.077536 -38.443905
v 74.514862 -0.660084 -38.443905
v 74.514862 0.077536 -26.088070
v 74.514862 -0.660084 -26.088070
v 76.514862 -1.677170 -38.443905
v 76.514862 -2.414790 -38.443905
v 76.514862 -1.677170 -26.088070
v 76.514862 -2.414790 -26.088070
v 59.514862 -2.414790 -38.443905
v 59.514862 -2.414790 -26.088070
v 59.514862 -1.677170 -26.088070
v 59.514862 -1.677170 -38.443905
v 0.514865 0.077536 -50.799740
v 0.514865 -0.660084 -50.799740
v 0.514865 0.077536 -38.443905
v 0.514865 -0.660084 -38.443905
v -1.485135 -1.677170 -50.799740
v -1.485135 -2.414790 -50.799740
v -1.485135 -1.677170 -38.443905
v -1.485135 -2.414790 -38.443905
v 2.514865 0.670391 -50.799740
v 2.514865 0.145821 -50.799740
v 2.514865 0.670391 -38.443905
v 2.514865 0.145821 -38.443905
v 4.514865 0.670391 -50.799740
v 4.514865 0.145821 -50.799740
v 4.514865 0.670391 -38.443905
v 4.514865 0.145821 -38.443905
v 6.514865 0.077536 -50.799740
v 6.514865 -0.660084 -50.799740
v 6.514865 0.077536 -38.443905
v 6.514865 -0.660084 -38.443905
v 8.514865 -1.677170 -50.799740
v 8.514865 -2.414790 -50.799740
v 8.514865 -1.677170 -38.443905
v 8.514865 -2.414790 -38.443905
v -8.485135 -2.414790 -50.799740
v -8.485135 -2.414790 -38.443905
v -8.485135 -1.677170 -38.443905
v -8.485135 -1.677170 -50.799740
v 17.514866 0.077536 -50.799740
v 17.514866 -0.660084 -50.799740
v 17.514866 0.077536 -38.443905
v 17.514866 -0.660084 -38.443905
v 15.514865 -1.677170 -50.799740
v 15.514865 -2.414790 -50.799740
v 15.514865 -1.677170 -38.443905
v 15.514865 -2.414790 -38.443905
v 19.514866 0.670391 -50.799740
v 19.514866 0.145821 -50.799740
v 19.514866 0.670391 -38.443905
v 19.514866 0.145821 -38.443905
v 21.514866 0.670391 -50.799740
v 21.514866 0.145821 -50.799740
v 21.514866 0.670391 -38.443905
v 21.514866 0.145821 -38.443905
v 23.514866 0.077536 -50.799740
v 23.514866 -0.660084 -50.799740
v 23.514866 0.077536 -38.443905
v 23.514866 -0.660084 -38.443905
v 25.514866 -1.677170 -50.799740
v 25.514866 -2.414790 -50.799740
v 25.514866 -1.677170 -38.443905
v 25.514866 -2.414790 -38.443905
v 8.514865 -2.414790 -50.799740
v 8.514865 -2.414790 -38.443905
v 8.514865 -1.677170 -38.443905
v 8.514865 -1.677170 -50.799740
v 34.514866 0.077536 -50.799740
v 34.514866 -0.660084 -50.799740
v 34.514866 0.077536 -38.443905
v 34.514866 -0.660084 -38.443905
v 32.514866 -1.677170 -50.799740
v 32.514866 -2.414790 -50.799740
v 32.514866 -1.677170 -38.443905
v 32.514866 -2.414790 -38.443905
v 36.514866 0.670391 -50.799740
v 36.514866 0.145821 -50.799740
v 36.514866 0.670391 -38.443905
v 36.514866 0.145821 -38.443905
v 38.514866 0.670391 -50.799740
v 38.514866 0.145821 -50.799740
v 38.514866 0.670391 -38.443905
v 38.514866 0.145821 -38.443905
v 40.514866 0.077536 -50.799740
v 40.514866 -0.660084 -50.799740
v 40.514866 0.077536 -38.443905
v 40.514866 -0.660084 -38.443905
v 42.514866 -1.677170 -50.799740
v 42.514866 -2.414790 -50.799740
v 42.514866 -1.677170 -38.443905
v 42.514866 -2.414790 -38.443905
v 25.514866 -2.414790 -50.799740
v 25.514866 -2.414790 -38.443905
v 25.514866 -1.677170 -38.443905
v 25.514866 -1.677170 -50.799740
v 51.514866 0.077536 -50.799740
v 51.514866 -0.660084 -50.799740
v 51.514866 0.077536 -38.443905
v 51.514866 -0.660084 -38.443905
v 49.514866 -1.677170 -50.799740
v 49.514866 -2.414790 -50.799740
v 49.514866 -1.677170 -38.443905
v 49.514866 -2.414790 -38.443905
v 53.514866 0.670391 -50.799740
v 53.514866 0.145821 -50.799740
v 53.514866 0.670391 -38.443905
v 53.514866 0.145821 -38.443905
v 55.514866 0.670391 -50.799740
v 55.514866 0.145821 -50.799740
v 55.514866 0.670391 -38.443905
v 55.514866 0.145821 -38.443905
v 57.514866 0.077536 -50.799740
v 57.514866 -0.660084 -50.799740
v 57.514866 0.077536 -38.443905
v 57.514866 -0.660084 -38.443905
v 59.514866 -1.677170 -50.799740
v 59.514866 -2.414790 -50.799740
v 59.514866 -1.677170 -38.443905
v 59.514866 -2.414790 -38.443905
v 42.514866 -2.414790 -50.799740
v 42.514866 -2.414790 -38.443905
v 42.514866 -1.677170 -38.443905
v 42.514866 -1.677170 -50.799740
v 68.514862 0.077536 -50.799740
v 68.514862 -0.660084 -50.799740
v 68.514862 0.077536 -38.443905
v 68.514862 -0.660084 -38.443905
v 66.514862 -1.677170 -50.799740
v 66.514862 -2.414790 -50.799740
v 66.514862 -1.677170 -38.443905
v 66.514862 -2.414790 -38.443905
v 70.514862 0.670391 -50.799740
v 70.514862 0.145821 -50.799740
v 70.514862 0.670391 -38.443905
v 70.514862 0.145821 -38.443905
v 72.514862 0.670391 -50.799740
v 72.514862 0.145821 -50.799740
v 72.514862 0.670391 -38.443905
v 72.514862 0.145821 -38.443905
v 74.514862 0.077536 -50.799740
v 74.514862 -0.660084 -50.799740
v 74.514862 0.077536 -38.443905
v 74.514862 -0.660084 -38.443905
v 76.514862 -1.677170 -50.799740
v 76.514862 -2.414790 -50.799740
v 76.514862 -1.677170 -38.443905
v 76.514862 -2.414790 -38.443905
v 59.514866 -2.414790 -50.799740
v 59.514866 -2.414790 -38.443905
v 59.514866 -1.677170 -38.443905
v 59.514866 -1.677170 -50.799740
v 0.514868 0.077536 -63.155575
v 0.514868 -0.660084 -63.155575
v 0.514868 0.077536 -50.799740
v 0.514868 -0.660084 -50.799740
v -1.485132 -1.677170 -63.155575
v -1.485132 -2.414790 -63.155575
v -1.485132 -1.677170 -50.799740
v -1.485132 -2.414790 -50.799740
v 2.514868 0.670391 -63.155575
v 2.514868 0.145821 -63.155575
v 2.514868 0.670391 -50.799740
v 2.514868 0.145821 -50.799740
v 4.514868 0.670391 -63.155575
v 4.514868 0.145821 -63.155575
v 4.514868 0.670391 -50.799740
v 4.514868 0.145821 -50.799740
v 6.514868 0.077536 -63.155575
v 6.514868 -0.660084 -63.155575
v 6.514868 0.077536 -50.799740
v 6.514868 -0.660084 -50.799740
v 8.514868 -1.677170 -63.155575
v 8.514868 -2.414790 -63.155575
v 8.514868 -1.677170 -50.799740
v 8.514868 -2.414790 -50.799740
v -8.485132 -2.414790 -63.155575
v -8.485132 -2.414790 -50.799740
v -8.485132 -1.677170 -50.799740
v -8.485132 -1.677170 -63.155575
v 17.514868 0.077536 -63.155575
v 17.514868 -0.660084 -63.155575
v 17.514868 0.077536 -50.799740
v 17.514868 -0.660084 -50.799740
v 15.514868 -1.677170 -63.155575
v 15.514868 -2.414790 -63.155575
v 15.514868 -1.677170 -50.799740
v 15.514868 -2.414790 -50.799740
v 19.514868 0.670391 -63.155575
v 19.514868 0.145821 -63.155575
v 19.514868 0.670391 -50.799740
v 19.514868 0.145821 -50.799740
v 21.514868 0.670391 -63.155575
v 21.514868 0.145821 -63.155575
v 21.514868 0.670391 -50.799740
v 21.514868 0.145821 -50.799740
v 23.514868 0.077536 -63.155575
v 23.514868 -0.660084 -63.155575
v 23.514868 0.077536 -50.799740
v 23.514868 -0.660084 -50.799740
v 25.514868 -1.677170 -63.155575
v 25.514868 -2.414790 -63.155575
v 25.514868 -1.677170 -50.799740
v 25.514868 -2.414790 -50.799740
v 8.514868 -2.414790 -63.155575
v 8.514868 -2.414790 -50.799740
v 8.514868 -1.677170 -50.799740
v 8.514868 -1.677170 -63.155575
v 34.514870 0.077536 -63.155575
v 34.514870 -0.660084 -63.155575
v 34.514870 0.077536 -50.799740
v 34.514870 -0.660084 -50.799740
v 32.514870 -1.677170 -63.155575
v 32.514870 -2.414790 -63.155575
v 32.514870 -1.677170 -50.799740
v 32.514870 -2.414790 -50.799740
v 36.514870 0.670391 -63.155575
v 36.514870 0.145821 -63.155575
v 36.514870 0.670391 -50.799740
v 36.514870 0.145821 -50.799740
v 38.514870 0.670391 -63.155575
v 38.514870 0.145821 -63.155575
v 38.514870 0.670391 -50.799740
v 38.514870 0.145821 -50.799740
v 40.514870 0.077536 -63.155575
v 40.514870 -0.660084 -63.155575
v 40.514870 0.077536 -50.799740
v 40.514870 -0.660084 -50.799740
v 42.514870 -1.677170 -63.155575
v 42.514870 -2.414790 -63.155575
v 42.514870 -1.677170 -50.799740
v 42.514870 -2.414790 -50.799740
v 25.514868 -2.414790 -63.155575
v 25.514868 -2.414790 -50.799740
v 25.514868 -1.677170 -50.799740
v 25.514868 -1.677170 -63.155575
v 51.514870 0.077536 -63.155575
v 51.514870 -0.660084 -63.155575
v 51.514870 0.077536 -50.799740
v 51.514870 -0.660084 -50.799740
v 49.514870 -1.677170 -63.155575
v 49.514870 -2.414790 -63.155575
v 49.514870 -1.677170 -50.799740
v 49.514870 -2.414790 -50.799740
v 53.514870 0.670391 -63.155575
v 53.514870 0.145821 -63.155575
v 53.514870 0.670391 -50.799740
v 53.514870 0.145821 -50.799740
v 55.514870 0.670391 -63.155575
v 55.514870 0.145821 -63.155575
v 55.514870 0.670391 -50.799740
v 55.514870 0.145821 -50.799740
v 57.514870 0.077536 -63.155575
v 57.514870 -0.660084 -63.155575
v 57.514870 0.077536 -50.799740
v 57.514870 -0.660084 -50.799740
v 59.514870 -1.677170 -63.155575
v 59.514870 -2.414790 -63.155575
v 59.514870 -1.677170 -50.799740
v 59.514870 -2.414790 -50.799740
v 42.514870 -2.414790 -63.155575
v 42.514870 -2.414790 -50.799740
v 42.514870 -1.677170 -50.799740
v 42.514870 -1.677170 -63.155575
v 68.514870 0.077536 -63.155575
v 68.514870 -0.660084 -63.155575
v 68.514870 0.077536 -50.799740
v 68.514870 -0.660084 -50.799740
v 66.514870 -1.677170 -63.155575
v 66.514870 -2.414790 -63.155575
v 66.514870 -1.677170 -50.799740
v 66.514870 -2.414790 -50.799740
v 70.514870 0.670391 -63.155575
v 70.514870 0.145821 -63.155575
v 70.514870 0.670391 -50.799740
v 70.514870 0.145821 -50.799740
v 72.514870 0.670391 -63.155575
v 72.514870 0.145821 -63.155575
v 72.514870 0.670391 -50.799740
v 72.514870 0.145821 -50.799740
v 74.514870 0.077536 -63.155575
v 74.514870 -0.660084 -63.155575
v 74.514870 0.077536 -50.799740
v 74.514870 -0.660084 -50.799740
v 76.514870 -1.677170 -63.155575
v 76.514870 -2.414790 -63.155575
v 76.514870 -1.677170 -50.799740
v 76.514870 -2.414790 -50.799740
v 59.514870 -2.414790 -63.155575
v 59.514870 -2.414790 -50.799740
v 59.514870 -1.677170 -50.799740
v 59.514870 -1.677170 -63.155575
v 0.514871 0.077536 -75.511406
v 0.514871 -0.660084 -75.511406
v 0.514871 0.077536 -63.155567
v 0.514871 -0.660084 -63.155567
v -1.485129 -1.677170 -75.511406
v -1.485129 -2.414790 -75.511406
v -1.485129 -1.677170 -63.155567
v -1.485129 -2.414790 -63.155567
v 2.514871 0.670391 -75.511406
v 2.514871 0.145821 -75.511406
v 2.514871 0.670391 -63.155567
v 2.514871 0.145821 -63.155567
v 4.514871 0.670391 -75.511406
v 4.514871 0.145821 -75.511406
v 4.514871 0.670391 -63.155567
v 4.514871 0.145821 -63.155567
v 6.514871 0.077536 -75.511406
v 6.514871 -0.660084 -75.511406
v 6.514871 0.077536 -63.155567
v 6.514871 -0.660084 -63.155567
v 8.514871 -1.677170 -75.511406
v 8.514871 -2.414790 -75.511406
v 8.514871 -1.677170 -63.155567
v 8.514871 -2.414790 -63.155567
v -8.485129 -2.414790 -75.511406
v -8.485129 -2.414790 -63.155567
v -8.485129 -1.677170 -63.155567
v -8.485129 -1.677170 -75.511406
v 17.514870 0.077536 -75.511406
v 17.514870 -0.660084 -75.511406
v 17.514870 0.077536 -63.155567
v 17.514870 -0.660084 -63.155567
v 15.514871 -1.677170 -75.511406
v 15.514871 -2.414790 -75.511406
v 15.514871 -1.677170 -63.155567
v 15.514871 -2.414790 -63.155567
v 19.514870 0.670391 -75.511406
v 19.514870 0.145821 -75.511406
v 19.514870 0.670391 -63.155567
v 19.514870 0.145821 -63.155567
v 21.514870 0.670391 -75.511406
v 21.514870 0.145821 -75.511406
v 21.514870 0.670391 -63.155567
v 21.514870 0.145821 -63.155567
v 23.514870 0.077536 -75.511406
v 23.514870 -0.660084 -75.511406
v 23.514870 0.077536 -63.155567
v 23.514870 -0.660084 -63.155567
v 25.514870 -1.677170 -75.511406
v 25.514870 -2.414790 -75.511406
v 25.514870 -1.677170 -63.155567
v 25.514870 -2.414790 -63.155567
v 8.514871 -2.414790 -75.511406
v 8.514871 -2.414790 -63.155567
v 8.514871 -1.677170 -63.155567
v 8.514871 -1.677170 -75.511406
v 34.514870 0.077536 -75.511406
v 34.514870 -0.660084 -75.511406
v 34.514870 0.077536 -63.155567
v 34.514870 -0.660084 -63.155567
v 32.514870 -1.677170 -75.511406
v 32.514870 -2.414790 -75.511406
v 32.514870 -1.677170 -63.155567
v 32.514870 -2.414790 -63.155567
v 36.514870 0.670391 -75.511406
v 36.514870 0.145821 -75.511406
v 36.514870 0.670391 -63.155567
v 36.514870 0.145821 -63.155567
v 38.514870 0.670391 -75.511406
v 38.514870 0.145821 -75.511406
v 38.514870 0.670391 -63.155567
v 38.514870 0.145821 -63.155567
v 40.514870 0.077536 -75.511406
v 40.514870 -0.660084 -75.511406
v 40.514870 0.077536 -63.155567
v 40.514870 -0.660084 -63.155567
v 42.514870 -1.677170 -75.511406
v 42.514870 -2.414790 -75.511406
v 42.514870 -1.677170 -63.155567
v 42.514870 -2.414790 -63.155567
v 25.514870 -2.414790 -75.511406
v 25.514870 -2.414790 -63.155567
v 25.514870 -1.677170 -63.155567
v 25.514870 -1.677170 -75.511406
v 51.514870 0.077536 -75.511406
v 51.514870 -0.660084 -75.511406
v 51.514870 0.077536 -63.155567
v 51.514870 -0.660084 -63.155567
v 49.514870 -1.677170 -75.511406
v 49.514870 -2.414790 -75.511406
v 49.514870 -1.677170 -63.155567
v 49.514870 -2.414790 -63.155567
v 53.514870 0.670391 -75.511406
v 53.514870 0.145821 -75.511406
v 53.514870 0.670391 -63.155567
v 53.514870 0.145821 -63.155567
v 55.514870 0.670391 -75.511406
v 55.514870 0.145821 -75.511406
v 55.514870 0.670391 -63.155567
v 55.514870 0.145821 -63.155567
v 57.514870 0.077536 -75.511406
v 57.514870 -0.660084 -75.511406
v 57.514870 0.077536 -63.155567
v 57.514870 -0.660084 -63.155567
v 59.514870 -1.677170 -75.511406
v 59.514870 -2.414790 -75.511406
v 59.514870 -1.677170 -63.155567
v 59.514870 -2.414790 -63.155567
v 42.514870 -2.414790 -75.511406
v 42.514870 -2.414790 -63.155567
v 42.514870 -1.677170 -63.155567
v 42.514870 -1.677170 -75.511406
v 68.514870 0.077536 -75.511406
v 68.514870 -0.660084 -75.511406
v 68.514870 0.077536 -63.155567
v 68.514870 -0.660084 -63.155567
v 66.514870 -1.677170 -75.511406
v 66.514870 -2.414790 -75.511406
v 66.514870 -1.677170 -63.155567
v 66.514870 -2.414790 -63.155567
v 70.514870 0.670391 -75.511406
v 70.514870 0.145821 -75.511406
v 70.514870 0.670391 -63.155567
v 70.514870 0.145821 -63.155567
v 72.514870 0.670391 -75.511406
v 72.514870 0.145821 -75.511406
v 72.514870 0.670391 -63.155567
v 72.514870 0.145821 -63.155567
v 74.514870 0.077536 -75.511406
v 74.514870 -0.660084 -75.511406
v 74.514870 0.077536 -63.155567
v 74.514870 -0.660084 -63.155567
v 76.514870 -1.677170 -75.511406
v 76.514870 -2.414790 -75.511406
v 76.514870 -1.677170 -63.155567
v 76.514870 -2.414790 -63.155567
v 59.514870 -2.414790 -75.511406
v 59.514870 -2.414790 -63.155567
v 59.514870 -1.677170 -63.155567
v 59.514870 -1.677170 -75.511406
v 0.514873 0.077536 -87.867241
v 0.514873 -0.660084 -87.867241
v 0.514873 0.077536 -75.511406
v 0.514873 -0.660084 -75.511406
v -1.485127 -1.677170 -87.867241
v -1.485127 -2.414790 -87.867241
v -1.485127 -1.677170 -75.511406
v -1.485127 -2.414790 -75.511406
v 2.514874 0.670391 -87.867241
v 2.514874 0.145821 -87.867241
v 2.514874 0.670391 -75.511406
v 2.514874 0.145821 -75.511406
v 4.514874 0.670391 -87.867241
v 4.514874 0.145821 -87.867241
v 4.514874 0.670391 -75.511406
v 4.514874 0.145821 -75.511406
v 6.514874 0.077536 -87.867241
v 6.514874 -0.660084 -87.867241
v 6.514874 0.077536 -75.511406
v 6.514874 -0.660084 -75.511406
v 8.514874 -1.677170 -87.867241
v 8.514874 -2.414790 -87.867241
v 8.514874 -1.677170 -75.511406
v 8.514874 -2.414790 -75.511406
v -8.485126 -2.414790 -87.867241
v -8.485126 -2.414790 -75.511406
v -8.485126 -1.677170 -75.511406
v -8.485126 -1.677170 -87.867241
v 17.514874 0.077536 -87.867241
v 17.514874 -0.660084 -87.867241
v 17.514874 0.077536 -75.511406
v 17.514874 -0.660084 -75.511406
v 15.514874 -1.677170 -87.867241
v 15.514874 -2.414790 -87.867241
v 15.514874 -1.677170 -75.511406
v 15.514874 -2.414790 -75.511406
v 19.514874 0.670391 -87.867241
v 19.514874 0.145821 -87.867241
v 19.514874 0.670391 -75.511406
v 19.514874 0.145821 -75.511406
v 21.514874 0.670391 -87.867241
v 21.514874 0.145821 -87.867241
v 21.514874 0.670391 -75.511406
v 21.514874 0.145821 -75.511406
v 23.514874 0.077536 -87.867241
v 23.514874 -0.660084 -87.867241
v 23.514874 0.077536 -75.511406
v 23.514874 -0.660084 -75.511406
v 25.514874 -1.677170 -87.867241
v 25.514874 -2.414790 -87.867241
v 25.514874 -1.677170 -75.511406
v 25.514874 -2.414790 -75.511406
v 8.514874 -2.414790 -87.867241
v 8.514874 -2.414790 -75.511406
v 8.514874 -1.677170 -75.511406
v 8.514874 -1.677170 -87.867241
v 34.514874 0.077536 -87.867241
v 34.514874 -0.660084 -87.867241
v 34.514874 0.077536 -75.511406
v 34.514874 -0.660084 -75.511406
v 32.514874 -1.677170 -87.867241
v 32.514874 -2.414790 -87.867241
v 32.514874 -1.677170 -75.511406
v 32.514874 -2.414790 -75.511406
v 36.514874 0.670391 -87.867241
v 36.514874 0.145821 -87.867241
v 36.514874 0.670391 -75.511406
v 36.514874 0.145821 -75.511406
v 38.514874 0.670391 -87.867241
v 38.514874 0.145821 -87.867241
v 38.514874 0.670391 -75.511406
v 38.514874 0.145821 -75.511406
v 40.514874 0.077536 -87.867241
v 40.514874 -0.660084 -87.867241
v 40.514874 0.077536 -75.511406
v 40.514874 -0.660084 -75.511406
v 42.514874 -1.677170 -87.867241
v 42.514874 -2.414790 -87.867241
v 42.514874 -1.677170 -75.511406
v 42.514874 -2.414790 -75.511406
v 25.514874 -2.414790 -87.867241
v 25.514874 -2.414790 -75.511406
v 25.514874 -1.677170 -75.511406
v 25.514874 -1.677170 -87.867241
v 51.514874 0.077536 -87.867241
v 51.514874 -0.660084 -87.867241
v 51.514874 0.077536 -75.511406
v 51.514874 -0.660084 -75.511406
v 49.514874 -1.677170 -87.867241
v 49.514874 -2.414790 -87.867241
v 49.514874 -1.677170 -75.511406
v 49.514874 -2.414790 -75.511406
v 53.514874 0.670391 -87.867241
v 53.514874 0.145821 -87.867241
v 53.514874 0.670391 -75.511406
v 53.514874 0.145821 -75.511406
v 55.514874 0.670391 -87.867241
v 55.514874 0.145821 -87.867241
v 55.514874 0.670391 -75.511406
v 55.514874 0.145821 -75.511406
v 57.514874 0.077536 -87.867241
v 57.514874 -0.660084 -87.867241
v 57.514874 0.077536 -75.511406
v 57.514874 -0.660084 -75.511406
v 59.514874 -1.677170 -87.867241
v 59.514874 -2.414790 -87.867241
v 59.514874 -1.677170 -75.511406
v 59.514874 -2.414790 -75.511406
v 42.514874 -2.414790 -87.867241
v 42.514874 -2.414790 -75.511406
v 42.514874 -1.677170 -75.511406
v 42.514874 -1.677170 -87.867241
v 68.514870 0.077536 -87.867241
v 68.514870 -0.660084 -87.867241
v 68.514870 0.077536 -75.511406
v 68.514870 -0.660084 -75.511406
v 66.514870 -1.677170 -87.867241
v 66.514870 -2.414790 -87.867241
v 66.514870 -1.677170 -75.511406
v 66.514870 -2.414790 -75.511406
v 70.514870 0.670391 -87.867241
v 70.514870 0.145821 -87.867241
v 70.514870 0.670391 -75.511406
v 70.514870 0.145821 -75.511406
v 72.514870 0.670391 -87.867241
v 72.514870 0.145821 -87.867241
v 72.514870 0.670391 -75.511406
v 72.514870 0.145821 -75.511406
v 74.514870 0.077536 -87.867241
v 74.514870 -0.660084 -87.867241
v 74.514870 0.077536 -75.511406
v 74.514870 -0.660084 -75.511406
v 76.514870 -1.677170 -87.867241
v 76.514870 -2.414790 -87.867241
v 76.514870 -1.677170 -75.511406
v 76.514870 -2.414790 -75.511406
v 59.514874 -2.414790 -87.867241
v 59.514874 -2.414790 -75.511406
v 59.514874 -1.677170 -75.511406
v 59.514874 -1.677170 -87.867241
v 0.514876 0.077536 -100.223076
v 0.514876 -0.660084 -100.223076
v 0.514876 0.077536 -87.867241
v 0.514876 -0.660084 -87.867241
v -1.485124 -1.677170 -100.223076
v -1.485124 -2.414790 -100.223076
v -1.485124 -1.677170 -87.867241
v -1.485124 -2.414790 -87.867241
v 2.514876 0.670391 -100.223076
v 2.514876 0.145821 -100.223076
v 2.514876 0.670391 -87.867241
v 2.514876 0.145821 -87.867241
v 4.514876 0.670391 -100.223076
v 4.514876 0.145821 -100.223076
v 4.514876 0.670391 -87.867241
v 4.514876 0.145821 -87.867241
v 6.514876 0.077536 -100.223076
v 6.514876 -0.660084 -100.223076
v 6.514876 0.077536 -87.867241
v 6.514876 -0.660084 -87.867241
v 8.514876 -1.677170 -100.223076
v 8.514876 -2.414790 -100.223076
v 8.514876 -1.677170 -87.867241
v 8.514876 -2.414790 -87.867241
v -8.485124 -2.414790 -100.223076
v -8.485124 -2.414790 -87.867241
v -8.485124 -1.677170 -87.867241
v -8.485124 -1.677170 -100.223076
v 17.514875 0.077536 -100.223076
v 17.514875 -0.660084 -100.223076
v 17.514875 0.077536 -87.867241
v 17.514875 -0.660084 -87.867241
v 15.514876 -1.677170 -100.223076
v 15.514876 -2.414790 -100.223076
v 15.514876 -1.677170 -87.867241
v 15.514876 -2.414790 -87.867241
v 19.514875 0.670391 -100.223076
v 19.514875 0.145821 -100.223076
v 19.514875 0.670391 -87.867241
v 19.514875 0.145821 -87.867241
v 21.514875 0.670391 -100.223076
v 21.514875 0.145821 -100.223076
v 21.514875 0.670391 -87.867241
v 21.514875 0.145821 -87.867241
v 23.514875 0.077536 -100.223076
v 23.514875 -0.660084 -100.223076
v 23.514875 0.077536 -87.867241
v 23.514875 -0.660084 -87.867241
v 25.514875 -1.677170 -100.223076
v 25.514875 -2.414790 -100.223076
v 25.514875 -1.677170 -87.867241
v 25.514875 -2.414790 -87.867241
v 8.514876 -2.414790 -100.223076
v 8.514876 -2.414790 -87.867241
v 8.514876 -1.677170 -87.867241
v 8.514876 -1.677170 -100.223076
v 34.514877 0.077536 -100.223076
v 34.514877 -0.660084 -100.223076
v 34.514877 0.077536 -87.867241
v 34.514877 -0.660084 -87.867241
v 32.514877 -1.677170 -100.223076
v 32.514877 -2.414790 -100.223076
v 32.514877 -1.677170 -87.867241
v 32.514877 -2.414790 -87.867241
v 36.514877 0.670391 -100.223076
v 36.514877 0.145821 -100.223076
v 36.514877 0.670391 -87.867241
v 36.514877 0.145821 -87.867241
v 38.514877 0.670391 -100.223076
v 38.514877 0.145821 -100.223076
v 38.514877 0.670391 -87.867241
v 38.514877 0.145821 -87.867241
v 40.514877 0.077536 -100.223076
v 40.514877 -0.660084 -100.223076
v 40.514877 0.077536 -87.867241
v 40.514877 -0.660084 -87.867241
v 42.514877 -1.677170 -100.223076
v 42.514877 -2.414790 -100.223076
v 42.514877 -1.677170 -87.867241
v 42.514877 -2.414790 -87.867241
v 25.514875 -2.414790 -100.223076
v 25.514875 -2.414790 -87.867241
v 25.514875 -1.677170 -87.867241
v 25.514875 -1.677170 -100.223076
v 51.514877 0.077536 -100.223076
v 51.514877 -0.660084 -100.223076
v 51.514877 0.077536 -87.867241
v 51.514877 -0.660084 -87.867241
v 49.514877 -1.677170 -100.223076
v 49.514877 -2.414790 -100.223076
v 49.514877 -1.677170 -87.867241
v 49.514877 -2.414790 -87.867241
v 53.514877 0.670391 -100.223076
v 53.514877 0.145821 -100.223076
v 53.514877 0.670391 -87.867241
v 53.514877 0.145821 -87.867241
v 55.514877 0.670391 -100.223076
v 55.514877 0.145821 -100.223076
v 55.514877 0.670391 -87.867241
v 55.514877 0.145821 -87.867241
v 57.514877 0.077536 -100.223076
v 57.514877 -0.660084 -100.223076
v 57.514877 0.077536 -87.867241
v 57.514877 -0.660084 -87.867241
v 59.514877 -1.677170 -100.223076
v 59.514877 -2.414790 -100.223076
v 59.514877 -1.677170 -87.867241
v 59.514877 -2.414790 -87.867241
v 42.514877 -2.414790 -100.223076
v 42.514877 -2.414790 -87.867241
v 42.514877 -1.677170 -87.867241
v 42.514877 -1.677170 -100.223076
v 68.514877 0.077536 -100.223076
v 68.514877 -0.660084 -100.223076
v 68.514877 0.077536 -87.867241
v 68.514877 -0.660084 -87.867241
v 66.514877 -1.677170 -100.223076
v 66.514877 -2.414790 -100.223076
v 66.514877 -1.677170 -87.867241
v 66.514877 -2.414790 -87.867241
v 70.514877 0.670391 -100.223076
v 70.514877 0.145821 -100.223076
v 70.514877 0.670391 -87.867241
v 70.514877 0.145821 -87.867241
v 72.514877 0.670391 -100.223076
v 72.514877 0.145821 -100.223076
v 72.514877 0.670391 -87.867241
v 72.514877 0.145821 -87.867241
v 74.514877 0.077536 -100.223076
v 74.514877 -0.660084 -100.223076
v 74.514877 0.077536 -87.867241
v 74.514877 -0.660084 -87.867241
v 76.514877 -1.677170 -100.223076
v 76.514877 -2.414790 -100.223076
v 76.514877 -1.677170 -87.867241
v 76.514877 -2.414790 -87.867241
v 59.514877 -2.414790 -100.223076
v 59.514877 -2.414790 -87.867241
v 59.514877 -1.677170 -87.867241
v 59.514877 -1.677170 -100.223076
v 0.514879 0.077536 -112.578911
v 0.514879 -0.660084 -112.578911
v 0.514879 0.077536 -100.223076
v 0.514879 -0.660084 -100.223076
v -1.485121 -1.677170 -112.578911
v -1.485121 -2.414790 -112.578911
v -1.485121 -1.677170 -100.223076
v -1.485121 -2.414790 -100.223076
v 2.514879 0.670391 -112.578911
v 2.514879 0.145821 -112.578911
v 2.514879 0.670391 -100.223076
v 2.514879 0.145821 -100.223076
v 4.514879 0.670391 -112.578911
v 4.514879 0.145821 -112.578911
v 4.514879 0.670391 -100.223076
v 4.514879 0.145821 -100.223076
v 6.514879 0.077536 -112.578911
v 6.514879 -0.660084 -112.578911
v 6.514879 0.077536 -100.223076
v 6.514879 -0.660084 -100.223076
v 8.514878 -1.677170 -112.578911
v 8.514878 -2.414790 -112.578911
v 8.514878 -1.677170 -100.223076
v 8.514878 -2.414790 -100.223076
v -8.485122 -2.414790 -112.578911
v -8.485122 -2.414790 -100.223076
v -8.485122 -1.677170 -100.223076
v -8.485122 -1.677170 -112.578911
v 17.514879 0.077536 -112.578911
v 17.514879 -0.660084 -112.578911
v 17.514879 0.077536 -100.223076
v 17.514879 -0.660084 -100.223076
v 15.514878 -1.677170 -112.578911
v 15.514878 -2.414790 -112.578911
v 15.514878 -1.677170 -100.223076
v 15.514878 -2.414790 -100.223076
v 19.514879 0.670391 -112.578911
v 19.514879 0.145821 -112.578911
v 19.514879 0.670391 -100.223076
v 19.514879 0.145821 -100.223076
v 21.514879 0.670391 -112.578911
v 21.514879 0.145821 -112.578911
v 21.514879 0.670391 -100.223076
v 21.514879 0.145821 -100.223076
v 23.514879 0.077536 -112.578911
v 23.514879 -0.660084 -112.578911
v 23.514879 0.077536 -100.223076
v 23.514879 -0.660084 -100.223076
v 25.514879 -1.677170 -112.578911
v 25.514879 -2.414790 -112.578911
v 25.514879 -1.677170 -100.223076
v 25.514879 -2.414790 -100.223076
v 8.514878 -2.414790 -112.578911
v 8.514878 -2.414790 -100.223076
v 8.514878 -1.677170 -100.223076
v 8.514878 -1.677170 -112.578911
v 34.514877 0.077536 -112.578911
v 34.514877 -0.660084 -112.578911
v 34.514877 0.077536 -100.223076
v 34.514877 -0.660084 -100.223076
v 32.514877 -1.677170 -112.578911
v 32.514877 -2.414790 -112.578911
v 32.514877 -1.677170 -100.223076
v 32.514877 -2.414790 -100.223076
v 36.514877 0.670391 -112.578911
v 36.514877 0.145821 -112.578911
v 36.514877 0.670391 -100.223076
v 36.514877 0.145821 -100.223076
v 38.514877 0.670391 -112.578911
v 38.514877 0.145821 -112.578911
v 38.514877 0.670391 -100.223076
v 38.514877 0.145821 -100.223076
v 40.514877 0.077536 -112.578911
v 40.514877 -0.660084 -112.578911
v 40.514877 0.077536 -100.223076
v 40.514877 -0.660084 -100.223076
v 42.514877 -1.677170 -112.578911
v 42.514877 -2.414790 -112.578911
v 42.514877 -1.677170 -100.223076
v 42.514877 -2.414790 -100.223076
v 25.514879 -2.414790 -112.578911
v 25.514879 -2.414790 -100.223076
v 25.514879 -1.677170 -100.223076
v 25.514879 -1.677170 -112.578911
v 51.514877 0.077536 -112.578911
v 51.514877 -0.660084 -112.578911
v 51.514877 0.077536 -100.223076
v 51.514877 -0.660084 -100.223076
v 49.514877 -1.677170 -112.578911
v 49.514877 -2.414790 -112.578911
v 49.514877 -1.677170 -100.223076
v 49.514877 -2.414790 -100.223076
v 53.514877 0.670391 -112.578911
v 53.514877 0.145821 -112.578911
v 53.514877 0.670391 -100.223076
v 53.514877 0.145821 -100.223076
v 55.514877 0.670391 -112.578911
v 55.514877 0.145821 -112.578911
v 55.514877 0.670391 -100.223076
v 55.514877 0.145821 -100.223076
v 57.514877 0.077536 -112.578911
v 57.514877 -0.660084 -112.578911
v 57.514877 0.077536 -100.223076
v 57.514877 -0.660084 -100.223076
v 59.514877 -1.677170 -112.578911
v 59.514877 -2.414790 -112.578911
v 59.514877 -1.677170 -100.223076
v 59.514877 -2.414790 -100.223076
v 42.514877 -2.414790 -112.578911
v 42.514877 -2.414790 -100.223076
v 42.514877 -1.677170 -100.223076
v 42.514877 -1.677170 -112.578911
v 68.514877 0.077536 -112.578911
v 68.514877 -0.660084 -112.578911
v 68.514877 0.077536 -100.223076
v 68.514877 -0.660084 -100.223076
v 66.514877 -1.677170 -112.578911
v 66.514877 -2.414790 -112.578911
v 66.514877 -1.677170 -100.223076
v 66.514877 -2.414790 -100.223076
v 70.514877 0.670391 -112.578911
v 70.514877 0.145821 -112.578911
v 70.514877 0.670391 -100.223076
v 70.514877 0.145821 -100.223076
v 72.514877 0.670391 -112.578911
v 72.514877 0.145821 -112.578911
v 72.514877 0.670391 -100.223076
v 72.514877 0.145821 -100.223076
v 74.514877 0.077536 -112.578911
v 74.514877 -0.660084 -112.578911
v 74.514877 0.077536 -100.223076
v 74.514877 -0.660084 -100.223076
v 76.514877 -1.677170 -112.578911
v 76.514877 -2.414790 -112.578911
v 76.514877 -1.677170 -100.223076
v 76.514877 -2.414790 -100.223076
v 59.514877 -2.414790 -112.578911
v 59.514877 -2.414790 -100.223076
v 59.514877 -1.677170 -100.223076
v 59.514877 -1.677170 -112.578911
vn -0.6595 0.7517 -0.0000
vn -0.0000 -0.0000 1.0000
vn -0.0000 -0.0000 -1.0000
vn 0.6595 -0.7517 -0.0000
vn 0.3738 -0.9275 -0.0000
vn -0.0000 1.0000 -0.0000
vn -0.2842 0.9588 -0.0000
vn -0.0000 -1.0000 -0.0000
vn 0.6595 0.7517 -0.0000
vn 0.2842 0.9588 -0.0000
vn -0.3738 -0.9275 -0.0000
vn 1.0000 -0.0000 -0.0000
vn -0.6595 -0.7517 -0.0000
vn -1.0000 -0.0000 -0.0000
vt 0.400098 0.259050
vt 0.400098 0.323813
vt 0.000000 0.323813
vt 0.000000 0.259050
vt 0.843278 0.291432
vt 0.819393 0.291432
vt 0.876213 0.226669
vt 0.900098 0.226669
vt 0.976115 0.323813
vt 1.000000 0.323813
vt 1.000000 0.550482
vt 0.976115 0.550482
vt 0.800196 0.226669
vt 0.800196 0.291432
vt 0.400098 0.291432
vt 0.400098 0.226669
vt 0.800196 0.356194
vt 0.400098 0.356194
vt 0.919295 0.259050
vt 0.943180 0.259050
vt 0.400098 0.194288
vt 0.000000 0.194288
vt 0.000000 0.129525
vt 0.400098 0.129525
vt 0.817182 0.356194
vt 0.900098 0.194288
vt 0.917084 0.194288
vt 0.800196 0.420957
vt 0.817182 0.420957
vt 0.843278 0.485719
vt 0.819393 0.485719
vt 0.900098 0.129525
vt 0.917084 0.129525
vt 0.800196 0.420957
vt 0.400098 0.420957
vt 0.400098 0.064763
vt 0.000000 0.064763
vt 0.000000 -0.000000
vt 0.400098 -0.000000
vt 0.919295 0.064763
vt 0.943180 0.064763
vt 0.800196 0.485719
vt 0.400098 0.485719
vt 0.023885 0.950580
vt 0.000000 0.950580
vt 0.000000 0.550482
vt 0.023885 0.550482
vt 0.976115 0.000000
vt 1.000000 0.000000
vt 0.800196 0.550482
vt 0.400098 0.550482
vt 0.900098 0.550482
vt 0.876213 0.550482
vt 0.047770 0.950580
vt 0.023885 0.950580
vt 0.023885 0.550482
vt 0.047770 0.550482
vt 0.876213 0.000000
vt 0.900098 0.000000
vt 0.400098 -0.000000
vt 0.800196 -0.000000
vt 0.400098 0.550482
vt 0.000000 0.550482
s 0
usemtl Material
f 1/1/1 5/2/1 7/3/1 3/4/1
f 4/5/2 3/6/2 7/7/2 8/8/2
f 5/9/3 6/10/3 25/11/3 28/12/3
f 6/13/4 2/14/4 4/15/4 8/16/4
f 4/15/5 2/14/5 10/17/5 12/18/5
f 6/10/3 5/9/3 1/19/3 2/20/3
f 9/21/6 11/22/6 15/23/6 13/24/6
f 1/1/7 3/4/7 11/22/7 9/21/7
f 3/6/2 4/5/2 12/25/2 11/17/2
f 2/20/3 1/19/3 9/26/3 10/27/3
f 15/28/2 16/29/2 20/30/2 19/31/2
f 10/27/3 9/26/3 13/32/3 14/33/3
f 12/18/8 10/17/8 14/34/8 16/35/8
f 11/17/2 12/25/2 16/29/2 15/28/2
f 17/36/9 19/37/9 23/38/9 21/39/9
f 13/24/10 15/23/10 19/37/10 17/36/10
f 14/33/3 13/32/3 17/40/3 18/41/3
f 16/35/11 14/34/11 18/42/11 20/43/11
f 22/44/12 21/45/12 23/46/12 24/47/12
f 18/41/3 17/40/3 21/48/3 22/49/3
f 20/43/13 18/42/13 22/50/13 24/51/13
f 19/31/2 20/30/2 24/52/2 23/53/2
f 26/54/14 27/55/14 28/56/14 25/57/14
f 8/8/2 7/7/2 27/58/2 26/59/2
f 6/13/8 8/16/8 26/60/8 25/61/8
f 7/3/6 5/2/6 28/62/6 27/63/6
f 29/1/1 33/2/1 35/3/1 31/4/1
f 32/5/2 31/6/2 35/7/2 36/8/2
f 33/9/3 34/10/3 53/11/3 56/12/3
f 34/13/4 30/14/4 32/15/4 36/16/4
f 32/15/5 30/14/5 38/17/5 40/18/5
f 34/10/3 33/9/3 29/19/3 30/20/3
f 37/21/6 39/22/6 43/23/6 41/24/6
f 29/1/7 31/4/7 39/22/7 37/21/7
f 31/6/2 32/5/2 40/25/2 39/17/2
f 30/20/3 29/19/3 37/26/3 38/27/3
f 43/28/2 44/29/2 48/30/2 47/31/2
f 38/27/3 37/26/3 41/32/3 42/33/3
f 40/18/8 38/17/8 42/34/8 44/35/8
f 39/17/2 40/25/2 44/29/2 43/28/2
f 45/36/9 47/37/9 51/38/9 49/39/9
f 41/24/10 43/23/10 47/37/10 45/36/10
f 42/33/3 41/32/3 45/40/3 46/41/3
f 44/35/11 42/34/11 46/42/11 48/43/11
f 50/44/12 49/45/12 51/46/12 52/47/12
f 46/41/3 45/40/3 49/48/3 50/49/3
f 48/43/13 46/42/13 50/50/13 52/51/13
f 47/31/2 48/30/2 52/52/2 51/53/2
f 54/54/14 55/55/14 56/56/14 53/57/14
f 36/8/2 35/7/2 55/58/2 54/59/2
f 34/13/8 36/16/8 54/60/8 53/61/8
f 35/3/6 33/2/6 56/62/6 55/63/6
f 57/1/1 61/2/1 63/3/1 59/4/1
f 60/5/2 59/6/2 63/7/2 64/8/2
f 61/9/3 62/10/3 81/11/3 84/12/3
f 62/13/4 58/14/4 60/15/4 64/16/4
f 60/15/5 58/14/5 66/17/5 68/18/5
f 62/10/3 61/9/3 57/19/3 58/20/3
f 65/21/6 67/22/6 71/23/6 69/24/6
f 57/1/7 59/4/7 67/22/7 65/21/7
f 59/6/2 60/5/2 68/25/2 67/17/2
f 58/20/3 57/19/3 65/26/3 66/27/3
f 71/28/2 72/29/2 76/30/2 75/31/2
f 66/27/3 65/26/3 69/32/3 70/33/3
f 68/18/8 66/17/8 70/34/8 72/35/8
f 67/17/2 68/25/2 72/29/2 71/28/2
f 73/36/9 75/37/9 79/38/9 77/39/9
f 69/24/10 71/23/10 75/37/10 73/36/10
f 70/33/3 69/32/3 73/40/3 74/41/3
f 72/35/11 70/34/11 74/42/11 76/43/11
f 78/44/12 77/45/12 79/46/12 80/47/12
f 74/41/3 73/40/3 77/48/3 78/49/3
f 76/43/13 74/42/13 78/50/13 80/51/13
f 75/31/2 76/30/2 80/52/2 79/53/2
f 82/54/14 83/55/14 84/56/14 81/57/14
f 64/8/2 63/7/2 83/58/2 82/59/2
f 62/13/8 64/16/8 82/60/8 81/61/8
f 63/3/6 61/2/6 84/62/6 83/63/6
f 85/1/1 89/2/1 91/3/1 87/4/1
f 88/5/2 87/6/2 91/7/2 92/8/2
f 89/9/3 90/10/3 109/11/3 112/12/3
f 90/13/4 86/14/4 88/15/4 92/16/4
f 88/15/5 86/14/5 94/17/5 96/18/5
f 90/10/3 89/9/3 85/19/3 86/20/3
f 93/21/6 95/22/6 99/23/6 97/24/6
f 85/1/7 87/4/7 95/22/7 93/21/7
f 87/6/2 88/5/2 96/25/2 95/17/2
f 86/20/3 85/19/3 93/26/3 94/27/3
f 99/28/2 100/29/2 104/30/2 103/31/2
f 94/27/3 93/26/3 97/32/3 98/33/3
f 96/18/8 94/17/8 98/34/8 100/35/8
f 95/17/2 96/25/2 100/29/2 99/28/2
f 101/36/9 103/37/9 107/38/9 105/39/9
f 97/24/10 99/23/10 103/37/10 101/36/10
f 98/33/3 97/32/3 101/40/3 102/41/3
f 100/35/11 98/34/11 102/42/11 104/43/11
f 106/44/12 105/45/12 107/46/12 108/47/12
f 102/41/3 101/40/3 105/48/3 106/49/3
f 104/43/13 102/42/13 106/50/13 108/51/13
f 103/31/2 104/30/2 108/52/2 107/53/2
f 110/54/14 111/55/14 112/56/14 109/57/14
f 92/8/2 91/7/2 111/58/2 110/59/2
f 90/13/8 92/16/8 110/60/8 109/61/8
f 91/3/6 89/2/6 112/62/6 111/63/6
f 113/1/1 117/2/1 119/3/1 115/4/1
f 116/5/2 115/6/2 119/7/2 120/8/2
f 117/9/3 118/10/3 137/11/3 140/12/3
f 118/13/4 114/14/4 116/15/4 120/16/4
f 116/15/5 114/14/5 122/17/5 124/18/5
f 118/10/3 117/9/3 113/19/3 114/20/3
f 121/21/6 123/22/6 127/23/6 125/24/6
f 113/1/7 115/4/7 123/22/7 121/21/7
f 115/6/2 116/5/2 124/25/2 123/17/2
f 114/20/3 113/19/3 121/26/3 122/27/3
f 127/28/2 128/29/2 132/30/2 131/31/2
f 122/27/3 121/26/3 125/32/3 126/33/3
f 124/18/8 122/17/8 126/34/8 128/35/8
f 123/17/2 124/25/2 128/29/2 127/28/2
f 129/36/9 131/37/9 135/38/9 133/39/9
f 125/24/10 127/23/10 131/37/10 129/36/10
f 126/33/3 125/32/3 129/40/3 130/41/3
f 128/35/11 126/34/11 130/42/11 132/43/11
f 134/44/12 133/45/12 135/46/12 136/47/12
f 130/41/3 129/40/3 133/48/3 134/49/3
f 132/43/13 130/42/13 134/50/13 136/51/13
f 131/31/2 132/30/2 136/52/2 135/53/2
f 138/54/14 139/55/14 140/56/14 137/57/14
f 120/8/2 119/7/2 139/58/2 138/59/2
f 118/13/8 120/16/8 138/60/8 137/61/8
f 119/3/6 117/2/6 140/62/6 139/63/6
f 141/1/1 145/2/1 147/3/1 143/4/1
f 144/5/2 143/6/2 147/7/2 148/8/2
f 145/9/3 146/10/3 165/11/3 168/12/3
f 146/13/4 142/14/4 144/15/4 148/16/4
f 144/15/5 142/14/5 150/17/5 152/18/5
f 146/10/3 145/9/3 141/19/3 142/20/3
f 149/21/6 151/22/6 155/23/6 153/24/6
f 141/1/7 143/4/7 151/22/7 149/21/7
f 143/6/2 144/5/2 152/25/2 151/17/2
f 142/20/3 141/19/3 149/26/3 150/27/3
f 155/28/2 156/29/2 160/30/2 159/31/2
f 150/27/3 149/26/3 153/32/3 154/33/3
f 152/18/8 150/17/8 154/34/8 156/35/8
f 151/17/2 152/25/2 156/29/2 155/28/2
f 157/36/9 159/37/9 163/38/9 161/39/9
f 153/24/10 155/23/10 159/37/10 157/36/10
f 154/33/3 153/32/3 157/40/3 158/41/3
f 156/35/11 154/34/11 158/42/11 160/43/11
f 162/44/12 161/45/12 163/46/12 164/47/12
f 158/41/3 157/40/3 161/48/3 162/49/3
f 160/43/13 158/42/13 162/50/13 164/51/13
f 159/31/2 160/30/2 164/52/2 163/53/2
f 166/54/14 167/55/14 168/56/14 165/57/14
f 148/8/2 147/7/2 167/58/2 166/59/2
f 146/13/8 148/16/8 166/60/8 165/61/8
f 147/3/6 145/2/6 168/62/6 167/63/6
f 169/1/1 173/2/1 175/3/1 171/4/1
f 172/5/2 171/6/2 175/7/2 176/8/2
f 173/9/3 174/10/3 193/11/3 196/12/3
f 174/13/4 170/14/4 172/15/4 176/16/4
f 172/15/5 170/14/5 178/17/5 180/18/5
f 174/10/3 173/9/3 169/19/3 170/20/3
f 177/21/6 179/22/6 183/23/6 181/24/6
f 169/1/7 171/4/7 179/22/7 177/21/7
f 171/6/2 172/5/2 180/25/2 179/17/2
f 170/20/3 169/19/3 177/26/3 178/27/3
f 183/28/2 184/29/2 188/30/2 187/31/2
f 178/27/3 177/26/3 181/32/3 182/33/3
f 180/18/8 178/17/8 182/34/8 184/35/8
f 179/17/2 180/25/2 184/29/2 183/28/2
f 185/36/9 187/37/9 191/38/9 189/39/9
f 181/24/10 183/23/10 187/37/10 185/36/10
f 182/33/3 181/32/3 185/40/3 186/41/3
f 184/35/11 182/34/11 186/42/11 188/43/11
f 190/44/12 189/45/12 191/46/12 192/47/12
f 186/41/3 185/40/3 189/48/3 190/49/3
f 188/43/13 186/42/13 190/50/13 192/51/13
f 187/31/2 188/30/2 192/52/2 191/53/2
f 194/54/14 195/55/14 196/56/14 193/57/14
f 176/8/2 175/7/2 195/58/2 194/59/2
f 174/13/8 176/16/8 194/60/8 193/61/8
f 175/3/6 173/2/6 196/62/6 195/63/6
f 197/1/1 201/2/1 203/3/1 199/4/1
f 200/5/2 199/6/2 203/7/2 204/8/2
f 201/9/3 202/10/3 221/11/3 224/12/3
f 202/13/4 198/14/4 200/15/4 204/16/4
f 200/15/5 198/14/5 206/17/5 208/18/5
f 202/10/3 201/9/3 197/19/3 198/20/3
f 205/21/6 207/22/6 211/23/6 209/24/6
f 197/1/7 199/4/7 207/22/7 205/21/7
f 199/6/2 200/5/2 208/25/2 207/17/2
f 198/20/3 197/19/3 205/26/3 206/27/3
f 211/28/2 212/29/2 216/30/2 215/31/2
f 206/27/3 205/26/3 209/32/3 210/33/3
f 208/18/8 206/17/8 210/34/8 212/35/8
f 207/17/2 208/25/2 212/29/2 211/28/2
f 213/36/9 215/37/9 219/38/9 217/39/9
f 209/24/10 211/23/10 215/37/10 213/36/10
f 210/33/3 209/32/3 213/40/3 214/41/3
f 212/35/11 210/34/11 214/42/11 216/43/11
f 218/44/12 217/45/12 219/46/12 220/47/12
f 214/41/3 213/40/3 217/48/3 218/49/3
f 216/43/13 214/42/13 218/50/13 220/51/13
f 215/31/2 216/30/2 220/52/2 219/53/2
f 222/54/14 223/55/14 224/56/14 221/57/14
f 204/8/2 203/7/2 223/58/2 222/59/2
f 202/13/8 204/16/8 222/60/8 221/61/8
f 203/3/6 201/2/6 224/62/6 223/63/6
f 225/1/1 229/2/1 231/3/1 227/4/1
f 228/5/2 227/6/2 231/7/2 232/8/2
f 229/9/3 230/10/3 249/11/3 252/12/3
f 230/13/4 226/14/4 228/15/4 232/16/4
f 228/15/5 226/14/5 234/17/5 236/18/5
f 230/10/3 229/9/3 225/19/3 226/20/3
f 233/21/6 235/22/6 239/23/6 237/24/6
f 225/1/7 227/4/7 235/22/7 233/21/7
f 227/6/2 228/5/2 236/25/2 235/17/2
f 226/20/3 225/19/3 233/26/3 234/27/3
f 239/28/2 240/29/2 244/30/2 243/31/2
f 234/27/3 233/26/3 237/32/3 238/33/3
f 236/18/8 234/17/8 238/34/8 240/35/8
f 235/17/2 236/25/2 240/29/2 239/28/2
f 241/36/9 243/37/9 247/38/9 245/39/9
f 237/24/10 239/23/10 243/37/10 241/36/10
f 238/33/3 237/32/3 241/40/3 242/41/3
f 240/35/11 238/34/11 242/42/11 244/43/11
f 246/44/12 245/45/12 247/46/12 248/47/12
f 242/41/3 241/40/3 245/48/3 246/49/3
f 244/43/13 242/42/13 246/50/13 248/51/13
f 243/31/2 244/30/2 248/52/2 247/53/2
f 250/54/14 251/55/14 252/56/14 249/57/14
f 232/8/2 231/7/2 251/58/2 250/59/2
f 230/13/8 232/16/8 250/60/8 249/61/8
f 231/3/6 229/2/6 252/62/6 251/63/6
f 253/1/1 257/2/1 259/3/1 255/4/1
f 256/5/2 255/6/2 259/7/2 260/8/2
f 257/9/3 258/10/3 277/11/3 280/12/3
f 258/13/4 254/14/4 256/15/4 260/16/4
f 256/15/5 254/14/5 262/17/5 264/18/5
f 258/10/3 257/9/3 253/19/3 254/20/3
f 261/21/6 263/22/6 267/23/6 265/24/6
f 253/1/7 255/4/7 263/22/7 261/21/7
f 255/6/2 256/5/2 264/25/2 263/17/2
f 254/20/3 253/19/3 261/26/3 262/27/3
f 267/28/2 268/29/2 272/30/2 271/31/2
f 262/27/3 261/26/3 265/32/3 266/33/3
f 264/18/8 262/17/8 266/34/8 268/35/8
f 263/17/2 264/25/2 268/29/2 267/28/2
f 269/36/9 271/37/9 275/38/9 273/39/9
f 265/24/10 267/23/10 271/37/10 269/36/10
f 266/33/3 265/32/3 269/40/3 270/41/3
f 268/35/11 266/34/11 270/42/11 272/43/11
f 274/44/12 273/45/12 275/46/12 276/47/12
f 270/41/3 269/40/3 273/48/3 274/49/3
f 272/43/13 270/42/13 274/50/13 276/51/13
f 271/31/2 272/30/2 276/52/2 275/53/2
f 278/54/14 279/55/14 280/56/14 277/57/14
f 260/8/2 259/7/2 279/58/2 278/59/2
f 258/13/8 260/16/8 278/60/8 277/61/8
f 259/3/6 257/2/6 280/62/6 279/63/6
f 281/1/1 285/2/1 287/3/1 283/4/1
f 284/5/2 283/6/2 287/7/2 288/8/2
f 285/9/3 286/10/3 305/11/3 308/12/3
f 286/13/4 282/14/4 284/15/4 288/16/4
f 284/15/5 282/14/5 290/17/5 292/18/5
f 286/10/3 285/9/3 281/19/3 282/20/3
f 289/21/6 291/22/6 295/23/6 293/24/6
f 281/1/7 283/4/7 291/22/7 289/21/7
f 283/6/2 284/5/2 292/25/2 291/17/2
f 282/20/3 281/19/3 289/26/3 290/27/3
f 295/28/2 296/29/2 300/30/2 299/31/2
f 290/27/3 289/26/3 293/32/3 294/33/3
f 292/18/8 290/17/8 294/34/8 296/35/8
f 291/17/2 292/25/2 296/29/2 295/28/2
f 297/36/9 299/37/9 303/38/9 301/39/9
f 293/24/10 295/23/10 299/37/10 297/36/10
f 294/33/3 293/32/3 297/40/3 298/41/3
f 296/35/11 294/34/11 298/42/11 300/43/11
f 302/44/12 301/45/12 303/46/12 304/47/12
f 298/41/3 297/40/3 301/48/3 302/49/3
f 300/43/13 298/42/13 302/50/13 304/51/13
f 299/31/2 300/30/2 304/52/2 303/53/2
f 306/54/14 307/55/14 308/56/14 305/57/14
f 288/8/2 287/7/2 307/58/2 306/59/2
f 286/13/8 288/16/8 306/60/8 305/61/8
f 287/3/6 285/2/6 308/62/6 307/63/6
f 309/1/1 313/2/1 315/3/1 311/4/1
f 312/5/2 311/6/2 315/7/2 316/8/2
f 313/9/3 314/10/3 333/11/3 336/12/3
f 314/13/4 310/14/4 312/15/4 316/16/4
f 312/15/5 310/14/5 318/17/5 320/18/5
f 314/10/3 313/9/3 309/19/3 310/20/3
f 317/21/6 319/22/6 323/23/6 321/24/6
f 309/1/7 311/4/7 319/22/7 317/21/7
f 311/6/2 312/5/2 320/25/2 319/17/2
f 310/20/3 309/19/3 317/26/3 318/27/3
f 323/28/2 324/29/2 328/30/2 327/31/2
f 318/27/3 317/26/3 321/32/3 322/33/3
f 320/18/8 318/17/8 322/34/8 324/35/8
f 319/17/2 320/25/2 324/29/2 323/28/2
f 325/36/9 327/37/9 331/38/9 329/39/9
f 321/24/10 323/23/10 327/37/10 325/36/10
f 322/33/3 321/32/3 325/40/3 326/41/3
f 324/35/11 322/34/11 326/42/11 328/43/11
f 330/44/12 329/45/12 331/46/12 332/47/12
f 326/41/3 325/40/3 329/48/3 330/49/3
f 328/43/13 326/42/13 330/50/13 332/51/13
f 327/31/2 328/30/2 332/52/2 331/53/2
f 334/54/14 335/55/14 336/56/14 333/57/14
f 316/8/2 315/7/2 335/58/2 334/59/2
f 314/13/8 316/16/8 334/60/8 333/61/8
f 315/3/6 313/2/6 336/62/6 335/63/6
f 337/1/1 341/2/1 343/3/1 339/4/1
f 340/5/2 339/6/2 343/7/2 344/8/2
f 341/9/3 342/10/3 361/11/3 364/12/3
f 342/13/4 338/14/4 340/15/4 344/16/4
f 340/15/5 338/14/5 346/17/5 348/18/5
f 342/10/3 341/9/3 337/19/3 338/20/3
f 345/21/6 347/22/6 351/23/6 349/24/6
f 337/1/7 339/4/7 347/22/7 345/21/7
f 339/6/2 340/5/2 348/25/2 347/17/2
f 338/20/3 337/19/3 345/26/3 346/27/3
f 351/28/2 352/29/2 356/30/2 355/31/2
f 346/27/3 345/26/3 349/32/3 350/33/3
f 348/18/8 346/17/8 350/34/8 352/35/8
f 347/17/2 348/25/2 352/29/2 351/28/2
f 353/36/9 355/37/9 359/38/9 357/39/9
f 349/24/10 351/23/10 355/37/10 353/36/10
f 350/33/3 349/32/3 353/40/3 354/41/3
f 352/35/11 350/34/11 354/42/11 356/43/11
f 358/44/12 357/45/12 359/46/12 360/47/12
f 354/41/3 353/40/3 357/48/3 358/49/3
f 356/43/13 354/42/13 358/50/13 360/51/13
f 355/31/2 356/30/2 360/52/2 359/53/2
f 362/54/14 363/55/14 364/56/14 361/57/14
f 344/8/2 343/7/2 363/58/2 362/59/2
f 342/13/8 344/16/8 362/60/8 361/61/8
f 343/3/6 341/2/6 364/62/6 363/63/6
f 365/1/1 369/2/1 371/3/1 367/4/1
f 368/5/2 367/6/2 371/7/2 372/8/2
f 369/9/3 370/10/3 389/11/3 392/12/3
f 370/13/4 366/14/4 368/15/4 372/16/4
f 368/15/5 366/14/5 374/17/5 376/18/5
f 370/10/3 369/9/3 365/19/3 366/20/3
f 373/21/6 375/22/6 379/23/6 377/24/6
f 365/1/7 367/4/7 375/22/7 373/21/7
f 367/6/2 368/5/2 376/25/2 375/17/2
f 366/20/3 365/19/3 373/26/3 374/27/3
f 379/28/2 380/29/2 384/30/2 383/31/2
f 374/27/3 373/26/3 377/32/3 378/33/3
f 376/18/8 374/17/8 378/34/8 380/35/8
f 375/17/2 376/25/2 380/29/2 379/28/2
f 381/36/9 383/37/9 387/38/9 385/39/9
f 377/24/10 379/23/10 383/37/10 381/36/10
f 378/33/3 377/32/3 381/40/3 382/41/3
f 380/35/11 378/34/11 382/42/11 384/43/11
f 386/44/12 385/45/12 387/46/12 388/47/12
f 382/41/3 381/40/3 385/48/3 386/49/3
f 384/43/13 382/42/13 386/50/13 388/51/13
f 383/31/2 384/30/2 388/52/2 387/53/2
f 390/54/14 391/55/14 392/56/14 389/57/14
f 372/8/2 371/7/2 391/58/2 390/59/2
f 370/13/8 372/16/8 390/60/8 389/61/8
f 371/3/6 369/2/6 392/62/6 391/63/6
f 393/1/1 397/2/1 399/3/1 395/4/1
f 396/5/2 395/6/2 399/7/2 400/8/2
f 397/9/3 398/10/3 417/11/3 420/12/3
f 398/13/4 394/14/4 396/15/4 400/16/4
f 396/15/5 394/14/5 402/17/5 404/18/5
f 398/10/3 397/9/3 393/19/3 394/20/3
f 401/21/6 403/22/6 407/23/6 405/24/6
f 393/1/7 395/4/7 403/22/7 401/21/7
f 395/6/2 396/5/2 404/25/2 403/17/2
f 394/20/3 393/19/3 401/26/3 402/27/3
f 407/28/2 408/29/2 412/30/2 411/31/2
f 402/27/3 401/26/3 405/32/3 406/33/3
f 404/18/8 402/17/8 406/34/8 408/35/8
f 403/17/2 404/25/2 408/29/2 407/28/2
f 409/36/9 411/37/9 415/38/9 413/39/9
f 405/24/10 407/23/10 411/37/10 409/36/10
f 406/33/3 405/32/3 409/40/3 410/41/3
f 408/35/11 406/34/11 410/42/11 412/43/11
f 414/44/12 413/45/12 415/46/12 416/47/12
f 410/41/3 409/40/3 413/48/3 414/49/3
f 412/43/13 410/42/13 414/50/13 416/51/13
f 411/31/2 412/30/2 416/52/2 415/53/2
f 418/54/14 419/55/14 420/56/14 417/57/14
f 400/8/2 399/7/2 419/58/2 418/59/2
f 398/13/8 400/16/8 418/60/8 417/61/8
f 399/3/6 397/2/6 420/62/6 419/63/6
f 421/1/1 425/2/1 427/3/1 423/4/1
f 424/5/2 423/6/2 427/7/2 428/8/2
f 425/9/3 426/10/3 445/11/3 448/12/3
f 426/13/4 422/14/4 424/15/4 428/16/4
f 424/15/5 422/14/5 430/17/5 432/18/5
f 426/10/3 425/9/3 421/19/3 422/20/3
f 429/21/6 431/22/6 435/23/6 433/24/6
f 421/1/7 423/4/7 431/22/7 429/21/7
f 423/6/2 424/5/2 432/25/2 431/17/2
f 422/20/3 421/19/3 429/26/3 430/27/3
f 435/28/2 436/29/2 440/30/2 439/31/2
f 430/27/3 429/26/3 433/32/3 434/33/3
f 432/18/8 430/17/8 434/34/8 436/35/8
f 431/17/2 432/25/2 436/29/2 435/28/2
f 437/36/9 439/37/9 443/38/9 441/39/9
f 433/24/10 435/23/10 439/37/10 437/36/10
f 434/33/3 433/32/3 437/40/3 438/41/3
f 436/35/11 434/34/11 438/42/11 440/43/11
f 442/44/12 441/45/12 443/46/12 444/47/12
f 438/41/3 437/40/3 441/48/3 442/49/3
f 440/43/13 438/42/13 442/50/13 444/51/13
f 439/31/2 440/30/2 444/52/2 443/53/2
f 446/54/14 447/55/14 448/56/14 445/57/14
f 428/8/2 427/7/2 447/58/2 446/59/2
f 426/13/8 428/16/8 446/60/8 445/61/8
f 427/3/6 425/2/6 448/62/6 447/63/6
f 449/1/1 453/2/1 455/3/1 451/4/1
f 452/5/2 451/6/2 455/7/2 456/8/2
f 453/9/3 454/10/3 473/11/3 476/12/3
f 454/13/4 450/14/4 452/15/4 456/16/4
f 452/15/5 450/14/5 458/17/5 460/18/5
f 454/10/3 453/9/3 449/19/3 450/20/3
f 457/21/6 459/22/6 463/23/6 461/24/6
f 449/1/7 451/4/7 459/22/7 457/21/7
f 451/6/2 452/5/2 460/25/2 459/17/2
f 450/20/3 449/19/3 457/26/3 458/27/3
f 463/28/2 464/29/2 468/30/2 467/31/2
f 458/27/3 457/26/3 461/32/3 462/33/3
f 460/18/8 458/17/8 462/34/8 464/35/8
f 459/17/2 460/25/2 464/29/2 463/28/2
f 465/36/9 467/37/9 471/38/9 469/39/9
f 461/24/10 463/23/10 467/37/10 465/36/10
f 462/33/3 461/32/3 465/40/3 466/41/3
f 464/35/11 462/34/11 466/42/11 468/43/11
f 470/44/12 469/45/12 471/46/12 472/47/12
f 466/41/3 465/40/3 469/48/3 470/49/3
f 468/43/13 466/42/13 470/50/13 472/51/13
f 467/31/2 468/30/2 472/52/2 471/53/2
f 474/54/14 475/55/14 476/56/14 473/57/14
f 456/8/2 455/7/2 475/58/2 474/59/2
f 454/13/8 456/16/8 474/60/8 473/61/8
f 455/3/6 453/2/6 476/62/6 475/63/6
f 477/1/1 481/2/1 483/3/1 479/4/1
f 480/5/2 479/6/2 483/7/2 484/8/2
f 481/9/3 482/10/3 501/11/3 504/12/3
f 482/13/4 478/14/4 480/15/4 484/16/4
f 480/15/5 478/14/5 486/17/5 488/18/5
f 482/10/3 481/9/3 477/19/3 478/20/3
f 485/21/6 487/22/6 491/23/6 489/24/6
f 477/1/7 479/4/7 487/22/7 485/21/7
f 479/6/2 480/5/2 488/25/2 487/17/2
f 478/20/3 477/19/3 485/26/3 486/27/3
f 491/28/2 492/29/2 496/30/2 495/31/2
f 486/27/3 485/26/3 489/32/3 490/33/3
f 488/18/8 486/17/8 490/34/8 492/35/8
f 487/17/2 488/25/2 492/29/2 491/28/2
f 493/36/9 495/37/9 499/38/9 497/39/9
f 489/24/10 491/23/10 495/37/10 493/36/10
f 490/33/3 489/32/3 493/40/3 494/41/3
f 492/35/11 490/34/11 494/42/11 496/43/11
f 498/44/12 497/45/12 499/46/12 500/47/12
f 494/41/3 493/40/3 497/48/3 498/49/3
f 496/43/13 494/42/13 498/50/13 500/51/13
f 495/31/2 496/30/2 500/52/2 499/53/2
f 502/54/14 503/55/14 504/56/14 501/57/14
f 484/8/2 483/7/2 503/58/2 502/59/2
f 482/13/8 484/16/8 502/60/8 501/61/8
f 483/3/6 481/2/6 504/62/6 503/63/6
f 505/1/1 509/2/1 511/3/1 507/4/1
f 508/5/2 507/6/2 511/7/2 512/8/2
f 509/9/3 510/10/3 529/11/3 532/12/3
f 510/13/4 506/14/4 508/15/4 512/16/4
f 508/15/5 506/14/5 514/17/5 516/18/5
f 510/10/3 509/9/3 505/19/3 506/20/3
f 513/21/6 515/22/6 519/23/6 517/24/6
f 505/1/7 507/4/7 515/22/7 513/21/7
f 507/6/2 508/5/2 516/25/2 515/17/2
f 506/20/3 505/19/3 513/26/3 514/27/3
f 519/28/2 520/29/2 524/30/2 523/31/2
f 514/27/3 513/26/3 517/32/3 518/33/3
f 516/18/8 514/17/8 518/34/8 520/35/8
f 515/17/2 516/25/2 520/29/2 519/28/2
f 521/36/9 523/37/9 527/38/9 525/39/9
f 517/24/10 519/23/10 523/37/10 521/36/10
f 518/33/3 517/32/3 521/40/3 522/41/3
f 520/35/11 518/34/11 522/42/11 524/43/11
f 526/44/12 525/45/12 527/46/12 528/47/12
f 522/41/3 521/40/3 525/48/3 526/49/3
f 524/43/13 522/42/13 526/50/13 528/51/13
f 523/31/2 524/30/2 528/52/2 527/53/2
f 530/54/14 531/55/14 532/56/14 529/57/14
f 512/8/2 511/7/2 531/58/2 530/59/2
f 510/13/8 512/16/8 530/60/8 529/61/8
f 511/3/6 509/2/6 532/62/6 531/63/6
f 533/1/1 537/2/1 539/3/1 535/4/1
f 536/5/2 535/6/2 539/7/2 540/8/2
f 537/9/3 538/10/3 557/11/3 560/12/3
f 538/13/4 534/14/4 536/15/4 540/16/4
f 536/15/5 534/14/5 542/17/5 544/18/5
f 538/10/3 537/9/3 533/19/3 534/20/3
f 541/21/6 543/22/6 547/23/6 545/24/6
f 533/1/7 535/4/7 543/22/7 541/21/7
f 535/6/2 536/5/2 544/25/2 543/17/2
f 534/20/3 533/19/3 541/26/3 542/27/3
f 547/28/2 548/29/2 552/30/2 551/31/2
f 542/27/3 541/26/3 545/32/3 546/33/3
f 544/18/8 542/17/8 546/34/8 548/35/8
f 543/17/2 544/25/2 548/29/2 547/28/2
f 549/36/9 551/37/9 555/38/9 553/39/9
f 545/24/10 547/23/10 551/37/10 549/36/10
f 546/33/3 545/32/3 549/40/3 550/41/3
f 548/35/11 546/34/11 550/42/11 552/43/11
f 554/44/12 553/45/12 555/46/12 556/47/12
f 550/41/3 549/40/3 553/48/3 554/49/3
f 552/43/13 550/42/13 554/50/13 556/51/13
f 551/31/2 552/30/2 556/52/2 555/53/2
f 558/54/14 559/55/14 560/56/14 557/57/14
f 540/8/2 539/7/2 559/58/2 558/59/2
f 538/13/8 540/16/8 558/60/8 557/61/8
f 539/3/6 537/2/6 560/62/6 559/63/6
f 561/1/1 565/2/1 567/3/1 563/4/1
f 564/5/2 563/6/2 567/7/2 568/8/2
f 565/9/3 566/10/3 585/11/3 588/12/3
f 566/13/4 562/14/4 564/15/4 568/16/4
f 564/15/5 562/14/5 570/17/5 572/18/5
f 566/10/3 565/9/3 561/19/3 562/20/3
f 569/21/6 571/22/6 575/23/6 573/24/6
f 561/1/7 563/4/7 571/22/7 569/21/7
f 563/6/2 564/5/2 572/25/2 571/17/2
f 562/20/3 561/19/3 569/26/3 570/27/3
f 575/28/2 576/29/2 580/30/2 579/31/2
f 570/27/3 569/26/3 573/32/3 574/33/3
f 572/18/8 570/17/8 574/34/8 576/35/8
f 571/17/2 572/25/2 576/29/2 575/28/2
f 577/36/9 579/37/9 583/38/9 581/39/9
f 573/24/10 575/23/10 579/37/10 577/36/10
f 574/33/3 573/32/3 577/40/3 578/41/3
f 576/35/11 574/34/11 578/42/11 580/43/11
f 582/44/12 581/45/12 583/46/12 584/47/12
f 578/41/3 577/40/3 581/48/3 582/49/3
f 580/43/13 578/42/13 582/50/13 584/51/13
f 579/31/2 580/30/2 584/52/2 583/53/2
f 586/54/14 587/55/14 588/56/14 585/57/14
f 568/8/2 567/7/2 587/58/2 586/59/2
f 566/13/8 568/16/8 586/60/8 585/61/8
f 567/3/6 565/2/6 588/62/6 587/63/6
f 589/1/1 593/2/1 595/3/1 591/4/1
f 592/5/2 591/6/2 595/7/2 596/8/2
f 593/9/3 594/10/3 613/11/3 616/12/3
f 594/13/4 590/14/4 592/15/4 596/16/4
f 592/15/5 590/14/5 598/17/5 600/18/5
f 594/10/3 593/9/3 589/19/3 590/20/3
f 597/21/6 599/22/6 603/23/6 601/24/6
f 589/1/7 591/4/7 599/22/7 597/21/7
f 591/6/2 592/5/2 600/25/2 599/17/2
f 590/20/3 589/19/3 597/26/3 598/27/3
f 603/28/2 604/29/2 608/30/2 607/31/2
f 598/27/3 597/26/3 601/32/3 602/33/3
f 600/18/8 598/17/8 602/34/8 604/35/8
f 599/17/2 600/25/2 604/29/2 603/28/2
f 605/36/9 607/37/9 611/38/9 609/39/9
f 601/24/10 603/23/10 607/37/10 605/36/10
f 602/33/3 601/32/3 605/40/3 606/41/3
f 604/35/11 602/34/11 606/42/11 608/43/11
f 610/44/12 609/45/12 611/46/12 612/47/12
f 606/41/3 605/40/3 609/48/3 610/49/3
f 608/43/13 606/42/13 610/50/13 612/51/13
f 607/31/2 608/30/2 612/52/2 611/53/2
f 614/54/14 615/55/14 616/56/14 613/57/14
f 596/8/2 595/7/2 615/58/2 614/59/2
f 594/13/8 596/16/8 614/60/8 613/61/8
f 595/3/6 593/2/6 616/62/6 615/63/6
f 617/1/1 621/2/1 623/3/1 619/4/1
f 620/5/2 619/6/2 623/7/2 624/8/2
f 621/9/3 622/10/3 641/11/3 644/12/3
f 622/13/4 618/14/4 620/15/4 624/16/4
f 620/15/5 618/14/5 626/17/5 628/18/5
f 622/10/3 621/9/3 617/19/3 618/20/3
f 625/21/6 627/22/6 631/23/6 629/24/6
f 617/1/7 619/4/7 627/22/7 625/21/7
f 619/6/2 620/5/2 628/25/2 627/17/2
f 618/20/3 617/19/3 625/26/3 626/27/3
f 631/28/2 632/29/2 636/30/2 635/31/2
f 626/27/3 625/26/3 629/32/3 630/33/3
f 628/18/8 626/17/8 630/34/8 632/35/8
f 627/17/2 628/25/2 632/29/2 631/28/2
f 633/36/9 635/37/9 639/38/9 637/39/9
f 629/24/10 631/23/10 635/37/10 633/36/10
f 630/33/3 629/32/3 633/40/3 634/41/3
f 632/35/11 630/34/11 634/42/11 636/43/11
f 638/44/12 637/45/12 639/46/12 640/47/12
f 634/41/3 633/40/3 637/48/3 638/49/3
f 636/43/13 634/42/13 638/50/13 640/51/13
f 635/31/2 636/30/2 640/52/2 639/53/2
f 642/54/14 643/55/14 644/56/14 641/57/14
f 624/8/2 623/7/2 643/58/2 642/59/2
f 622/13/8 624/16/8 642/60/8 641/61/8
f 623/3/6 621/2/6 644/62/6 643/63/6
f 645/1/1 649/2/1 651/3/1 647/4/1
f 648/5/2 647/6/2 651/7/2 652/8/2
f 649/9/3 650/10/3 669/11/3 672/12/3
f 650/13/4 646/14/4 648/15/4 652/16/4
f 648/15/5 646/14/5 654/17/5 656/18/5
f 650/10/3 649/9/3 645/19/3 646/20/3
f 653/21/6 655/22/6 659/23/6 657/24/6
f 645/1/7 647/4/7 655/22/7 653/21/7
f 647/6/2 648/5/2 656/25/2 655/17/2
f 646/20/3 645/19/3 653/26/3 654/27/3
f 659/28/2 660/29/2 664/30/2 663/31/2
f 654/27/3 653/26/3 657/32/3 658/33/3
f 656/18/8 654/17/8 658/34/8 660/35/8
f 655/17/2 656/25/2 660/29/2 659/28/2
f 661/36/9 663/37/9 667/38/9 665/39/9
f 657/24/10 659/23/10 663/37/10 661/36/10
f 658/33/3 657/32/3 661/40/3 662/41/3
f 660/35/11 658/34/11 662/42/11 664/43/11
f 666/44/12 665/45/12 667/46/12 668/47/12
f 662/41/3 661/40/3 665/48/3 666/49/3
f 664/43/13 662/42/13 666/50/13 668/51/13
f 663/31/2 664/30/2 668/52/2 667/53/2
f 670/54/14 671/55/14 672/56/14 669/57/14
f 652/8/2 651/7/2 671/58/2 670/59/2
f 650/13/8 652/16/8 670/60/8 669/61/8
f 651/3/6 649/2/6 672/62/6 671/63/6
f 673/1/1 677/2/1 679/3/1 675/4/1
f 676/5/2 675/6/2 679/7/2 680/8/2
f 677/9/3 678/10/3 697/11/3 700/12/3
f 678/13/4 674/14/4 676/15/4 680/16/4
f 676/15/5 674/14/5 682/17/5 684/18/5
f 678/10/3 677/9/3 673/19/3 674/20/3
f 681/21/6 683/22/6 687/23/6 685/24/6
f 673/1/7 675/4/7 683/22/7 681/21/7
f 675/6/2 676/5/2 684/25/2 683/17/2
f 674/20/3 673/19/3 681/26/3 682/27/3
f 687/28/2 688/29/2 692/30/2 691/31/2
f 682/27/3 681/26/3 685/32/3 686/33/3
f 684/18/8 682/17/8 686/34/8 688/35/8
f 683/17/2 684/25/2 688/29/2 687/28/2
f 689/36/9 691/37/9 695/38/9 693/39/9
f 685/24/10 687/23/10 691/37/10 689/36/10
f 686/33/3 685/32/3 689/40/3 690/41/3
f 688/35/11 686/34/11 690/42/11 692/43/11
f 694/44/12 693/45/12 695/46/12 696/47/12
f 690/41/3 689/40/3 693/48/3 694/49/3
f 692/43/13 690/42/13 694/50/13 696/51/13
f 691/31/2 692/30/2 696/52/2 695/53/2
f 698/54/14 699/55/14 700/56/14 697/57/14
f 680/8/2 679/7/2 699/58/2 698/59/2
f 678/13/8 680/16/8 698/60/8 697/61/8
f 679/3/6 677/2/6 700/62/6 699/63/6
f 701/1/1 705/2/1 707/3/1 703/4/1
f 704/5/2 703/6/2 707/7/2 708/8/2
f 705/9/3 706/10/3 725/11/3 728/12/3
f 706/13/4 702/14/4 704/15/4 708/16/4
f 704/15/5 702/14/5 710/17/5 712/18/5
f 706/10/3 705/9/3 701/19/3 702/20/3
f 709/21/6 711/22/6 715/23/6 713/24/6
f 701/1/7 703/4/7 711/22/7 709/21/7
f 703/6/2 704/5/2 712/25/2 711/17/2
f 702/20/3 701/19/3 709/26/3 710/27/3
f 715/28/2 716/29/2 720/30/2 719/31/2
f 710/27/3 709/26/3 713/32/3 714/33/3
f 712/18/8 710/17/8 714/34/8 716/35/8
f 711/17/2 712/25/2 716/29/2 715/28/2
f 717/36/9 719/37/9 723/38/9 721/39/9
f 713/24/10 715/23/10 719/37/10 717/36/10
f 714/33/3 713/32/3 717/40/3 718/41/3
f 716/35/11 714/34/11 718/42/11 720/43/11
f 722/44/12 721/45/12 723/46/12 724/47/12
f 718/41/3 717/40/3 721/48/3 722/49/3
f 720/43/13 718/42/13 722/50/13 724/51/13
f 719/31/2 720/30/2 724/52/2 723/53/2
f 726/54/14 727/55/14 728/56/14 725/57/14
f 708/8/2 707/7/2 727/58/2 726/59/2
f 706/13/8 708/16/8 726/60/8 725/61/8
f 707/3/6 705/2/6 728/62/6 727/63/6
f 729/1/1 733/2/1 735/3/1 731/4/1
f 732/5/2 731/6/2 735/7/2 736/8/2
f 733/9/3 734/10/3 753/11/3 756/12/3
f 734/13/4 730/14/4 732/15/4 736/16/4
f 732/15/5 730/14/5 738/17/5 740/18/5
f 734/10/3 733/9/3 729/19/3 730/20/3
f 737/21/6 739/22/6 743/23/6 741/24/6
f 729/1/7 731/4/7 739/22/7 737/21/7
f 731/6/2 732/5/2 740/25/2 739/17/2
f 730/20/3 729/19/3 737/26/3 738/27/3
f 743/28/2 744/29/2 748/30/2 747/31/2
f 738/27/3 737/26/3 741/32/3 742/33/3
f 740/18/8 738/17/8 742/34/8 744/35/8
f 739/17/2 740/25/2 744/29/2 743/28/2
f 745/36/9 747/37/9 751/38/9 749/39/9
f 741/24/10 743/23/10 747/37/10 745/36/10
f 742/33/3 741/32/3 745/40/3 746/41/3
f 744/35/11 742/34/11 746/42/11 748/43/11
f 750/44/12 749/45/12 751/46/12 752/47/12
f 746/41/3 745/40/3 749/48/3 750/49/3
f 748/43/13 746/42/13 750/50/13 752/51/13
f 747/31/2 748/30/2 752/52/2 751/53/2
f 754/54/14 755/55/14 756/56/14 753/57/14
f 736/8/2 735/7/2 755/58/2 754/59/2
f 734/13/8 736/16/8 754/60/8 753/61/8
f 735/3/6 733/2/6 756/62/6 755/63/6
f 757/1/1 761/2/1 763/3/1 759/4/1
f 760/5/2 759/6/2 763/7/2 764/8/2
f 761/9/3 762/10/3 781/11/3 784/12/3
f 762/13/4 758/14/4 760/15/4 764/16/4
f 760/15/5 758/14/5 766/17/5 768/18/5
f 762/10/3 761/9/3 757/19/3 758/20/3
f 765/21/6 767/22/6 771/23/6 769/24/6
f 757/1/7 759/4/7 767/22/7 765/21/7
f 759/6/2 760/5/2 768/25/2 767/17/2
f 758/20/3 757/19/3 765/26/3 766/27/3
f 771/28/2 772/29/2 776/30/2 775/31/2
f 766/27/3 765/26/3 769/32/3 770/33/3
f 768/18/8 766/17/8 770/34/8 772/35/8
f 767/17/2 768/25/2 772/29/2 771/28/2
f 773/36/9 775/37/9 779/38/9 777/39/9
f 769/24/10 771/23/10 775/37/10 773/36/10
f 770/33/3 769/32/3 773/40/3 774/41/3
f 772/35/11 770/34/11 774/42/11 776/43/11
f 778/44/12 777/45/12 779/46/12 780/47/12
f 774/41/3 773/40/3 777/48/3 778/49/3
f 776/43/13 774/42/13 778/50/13 780/51/13
f 775/31/2 776/30/2 780/52/2 779/53/2
f 782/54/14 783/55/14 784/56/14 781/57/14
f 764/8/2 763/7/2 783/58/2 782/59/2
f 762/13/8 764/16/8 782/60/8 781/61/8
f 763/3/6 761/2/6 784/62/6 783/63/6
f 785/1/1 789/2/1 791/3/1 787/4/1
f 788/5/2 787/6/2 791/7/2 792/8/2
f 789/9/3 790/10/3 809/11/3 812/12/3
f 790/13/4 786/14/4 788/15/4 792/16/4
f 788/15/5 786/14/5 794/17/5 796/18/5
f 790/10/3 789/9/3 785/19/3 786/20/3
f 793/21/6 795/22/6 799/23/6 797/24/6
f 785/1/7 787/4/7 795/22/7 793/21/7
f 787/6/2 788/5/2 796/25/2 795/17/2
f 786/20/3 785/19/3 793/26/3 794/27/3
f 799/28/2 800/29/2 804/30/2 803/31/2
f 794/27/3 793/26/3 797/32/3 798/33/3
f 796/18/8 794/17/8 798/34/8 800/35/8
f 795/17/2 796/25/2 800/29/2 799/28/2
f 801/36/9 803/37/9 807/38/9 805/39/9
f 797/24/10 799/23/10 803/37/10 801/36/10
f 798/33/3 797/32/3 801/40/3 802/41/3
f 800/35/11 798/34/11 802/42/11 804/43/11
f 806/44/12 805/45/12 807/46/12 808/47/12
f 802/41/3 801/40/3 805/48/3 806/49/3
f 804/43/13 802/42/13 806/50/13 808/51/13
f 803/31/2 804/30/2 808/52/2 807/53/2
f 810/54/14 811/55/14 812/56/14 809/57/14
f 792/8/2 791/7/2 811/58/2 810/59/2
f 790/13/8 792/16/8 810/60/8 809/61/8
f 791/3/6 789/2/6 812/62/6 811/63/6
f 813/1/1 817/2/1 819/3/1 815/4/1
f 816/5/2 815/6/2 819/7/2 820/8/2
f 817/9/3 818/10/3 837/11/3 840/12/3
f 818/13/4 814/14/4 816/15/4 820/16/4
f 816/15/5 814/14/5 822/17/5 824/18/5
f 818/10/3 817/9/3 813/19/3 814/20/3
f 821/21/6 823/22/6 827/23/6 825/24/6
f 813/1/7 815/4/7 823/22/7 821/21/7
f 815/6/2 816/5/2 824/25/2 823/17/2
f 814/20/3 813/19/3 821/26/3 822/27/3
f 827/28/2 828/29/2 832/30/2 831/31/2
f 822/27/3 821/26/3 825/32/3 826/33/3
f 824/18/8 822/17/8 826/34/8 828/35/8
f 823/17/2 824/25/2 828/29/2 827/28/2
f 829/36/9 831/37/9 835/38/9 833/39/9
f 825/24/10 827/23/10 831/37/10 829/36/10
f 826/33/3 825/32/3 829/40/3 830/41/3
f 828/35/11 826/34/11 830/42/11 832/43/11
f 834/44/12 833/45/12 835/46/12 836/47/12
f 830/41/3 829/40/3 833/48/3 834/49/3
f 832/43/13 830/42/13 834/50/13 836/51/13
f 831/31/2 832/30/2 836/52/2 835/53/2
f 838/54/14 839/55/14 840/56/14 837/57/14
f 820/8/2 819/7/2 839/58/2 838/59/2
f 818/13/8 820/16/8 838/60/8 837/61/8
f 819/3/6 817/2/6 840/62/6 839/63/6
f 841/1/1 845/2/1 847/3/1 843/4/1
f 844/5/2 843/6/2 847/7/2 848/8/2
f 845/9/3 846/10/3 865/11/3 868/12/3
f 846/13/4 842/14/4 844/15/4 848/16/4
f 844/15/5 842/14/5 850/17/5 852/18/5
f 846/10/3 845/9/3 841/19/3 842/20/3
f 849/21/6 851/22/6 855/23/6 853/24/6
f 841/1/7 843/4/7 851/22/7 849/21/7
f 843/6/2 844/5/2 852/25/2 851/17/2
f 842/20/3 841/19/3 849/26/3 850/27/3
f 855/28/2 856/29/2 860/30/2 859/31/2
f 850/27/3 849/26/3 853/32/3 854/33/3
f 852/18/8 850/17/8 854/34/8 856/35/8
f 851/17/2 852/25/2 856/29/2 855/28/2
f 857/36/9 859/37/9 863/38/9 861/39/9
f 853/24/10 855/23/10 859/37/10 857/36/10
f 854/33/3 853/32/3 857/40/3 858/41/3
f 856/35/11 854/34/11 858/42/11 860/43/11
f 862/44/12 861/45/12 863/46/12 864/47/12
f 858/41/3 857/40/3 861/48/3 862/49/3
f 860/43/13 858/42/13 862/50/13 864/51/13
f 859/31/2 860/30/2 864/52/2 863/53/2
f 866/54/14 867/55/14 868/56/14 865/57/14
f 848/8/2 847/7/2 867/58/2 866/59/2
f 846/13/8 848/16/8 866/60/8 865/61/8
f 847/3/6 845/2/6 868/62/6 867/63/6
f 869/1/1 873/2/1 875/3/1 871/4/1
f 872/5/2 871/6/2 875/7/2 876/8/2
f 873/9/3 874/10/3 893/11/3 896/12/3
f 874/13/4 870/14/4 872/15/4 876/16/4
f 872/15/5 870/14/5 878/17/5 880/18/5
f 874/10/3 873/9/3 869/19/3 870/20/3
f 877/21/6 879/22/6 883/23/6 881/24/6
f 869/1/7 871/4/7 879/22/7 877/21/7
f 871/6/2 872/5/2 880/25/2 879/17/2
f 870/20/3 869/19/3 877/26/3 878/27/3
f 883/28/2 884/29/2 888/30/2 887/31/2
f 878/27/3 877/26/3 881/32/3 882/33/3
f 880/18/8 878/17/8 882/34/8 884/35/8
f 879/17/2 880/25/2 884/29/2 883/28/2
f 885/36/9 887/37/9 891/38/9 889/39/9
f 881/24/10 883/23/10 887/37/10 885/36/10
f 882/33/3 881/32/3 885/40/3 886/41/3
f 884/35/11 882/34/11 886/42/11 888/43/11
f 890/44/12 889/45/12 891/46/12 892/47/12
f 886/41/3 885/40/3 889/48/3 890/49/3
f 888/43/13 886/42/13 890/50/13 892/51/13
f 887/31/2 888/30/2 892/52/2 891/53/2
f 894/54/14 895/55/14 896/56/14 893/57/14
f 876/8/2 875/7/2 895/58/2 894/59/2
f 874/13/8 876/16/8 894/60/8 893/61/8
f 875/3/6 873/2/6 896/62/6 895/63/6
f 897/1/1 901/2/1 903/3/1 899/4/1
f 900/5/2 899/6/2 903/7/2 904/8/2
f 901/9/3 902/10/3 921/11/3 924/12/3
f 902/13/4 898/14/4 900/15/4 904/16/4
f 900/15/5 898/14/5 906/17/5 908/18/5
f 902/10/3 901/9/3 897/19/3 898/20/3
f 905/21/6 907/22/6 911/23/6 909/24/6
f 897/1/7 899/4/7 907/22/7 905/21/7
f 899/6/2 900/5/2 908/25/2 907/17/2
f 898/20/3 897/19/3 905/26/3 906/27/3
f 911/28/2 912/29/2 916/30/2 915/31/2
f 906/27/3 905/26/3 909/32/3 910/33/3
f 908/18/8 906/17/8 910/34/8 912/35/8
f 907/17/2 908/25/2 912/29/2 911/28/2
f 913/36/9 915/37/9 919/38/9 917/39/9
f 909/24/10 911/23/10 915/37/10 913/36/10
f 910/33/3 909/32/3 913/40/3 914/41/3
f 912/35/11 910/34/11 914/42/11 916/43/11
f 918/44/12 917/45/12 919/46/12 920/47/12
f 914/41/3 913/40/3 917/48/3 918/49/3
f 916/43/13 914/42/13 918/50/13 920/51/13
f 915/31/2 916/30/2 920/52/2 919/53/2
f 922/54/14 923/55/14 924/56/14 921/57/14
f 904/8/2 903/7/2 923/58/2 922/59/2
f 902/13/8 904/16/8 922/60/8 921/61/8
f 903/3/6 901/2/6 924/62/6 923/63/6
f 925/1/1 929/2/1 931/3/1 927/4/1
f 928/5/2 927/6/2 931/7/2 932/8/2
f 929/9/3 930/10/3 949/11/3 952/12/3
f 930/13/4 926/14/4 928/15/4 932/16/4
f 928/15/5 926/14/5 934/17/5 936/18/5
f 930/10/3 929/9/3 925/19/3 926/20/3
f 933/21/6 935/22/6 939/23/6 937/24/6
f 925/1/7 927/4/7 935/22/7 933/21/7
f 927/6/2 928/5/2 936/25/2 935/17/2
f 926/20/3 925/19/3 933/26/3 934/27/3
f 939/28/2 940/29/2 944/30/2 943/31/2
f 934/27/3 933/26/3 937/32/3 938/33/3
f 936/18/8 934/17/8 938/34/8 940/35/8
f 935/17/2 936/25/2 940/29/2 939/28/2
f 941/36/9 943/37/9 947/38/9 945/39/9
f 937/24/10 939/23/10 943/37/10 941/36/10
f 938/33/3 937/32/3 941/40/3 942/41/3
f 940/35/11 938/34/11 942/42/11 944/43/11
f 946/44/12 945/45/12 947/46/12 948/47/12
f 942/41/3 941/40/3 945/48/3 946/49/3
f 944/43/13 942/42/13 946/50/13 948/51/13
f 943/31/2 944/30/2 948/52/2 947/53/2
f 950/54/14 951/55/14 952/56/14 949/57/14
f 932/8/2 931/7/2 951/58/2 950/59/2
f 930/13/8 932/16/8 950/60/8 949/61/8
f 931/3/6 929/2/6 952/62/6 951/63/6
f 953/1/1 957/2/1 959/3/1 955/4/1
f 956/5/2 955/6/2 959/7/2 960/8/2
f 957/9/3 958/10/3 977/11/3 980/12/3
f 958/13/4 954/14/4 956/15/4 960/16/4
f 956/15/5 954/14/5 962/17/5 964/18/5
f 958/10/3 957/9/3 953/19/3 954/20/3
f 961/21/6 963/22/6 967/23/6 965/24/6
f 953/1/7 955/4/7 963/22/7 961/21/7
f 955/6/2 956/5/2 964/25/2 963/17/2
f 954/20/3 953/19/3 961/26/3 962/27/3
f 967/28/2 968/29/2 972/30/2 971/31/2
f 962/27/3 961/26/3 965/32/3 966/33/3
f 964/18/8 962/17/8 966/34/8 968/35/8
f 963/17/2 964/25/2 968/29/2 967/28/2
f 969/36/9 971/37/9 975/38/9 973/39/9
f 965/24/10 967/23/10 971/37/10 969/36/10
f 966/33/3 965/32/3 969/40/3 970/41/3
f 968/35/11 966/34/11 970/42/11 972/43/11
f 974/44/12 973/45/12 975/46/12 976/47/12
f 970/41/3 969/40/3 973/48/3 974/49/3
f 972/43/13 970/42/13 974/50/13 976/51/13
f 971/31/2 972/30/2 976/52/2 975/53/2
f 978/54/14 979/55/14 980/56/14 977/57/14
f 960/8/2 959/7/2 979/58/2 978/59/2
f 958/13/8 960/16/8 978/60/8 977/61/8
f 959/3/6 957/2/6 980/62/6 979/63/6
f 981/1/1 985/2/1 987/3/1 983/4/1
f 984/5/2 983/6/2 987/7/2 988/8/2
f 985/9/3 986/10/3 1005/11/3 1008/12/3
f 986/13/4 982/14/4 984/15/4 988/16/4
f 984/15/5 982/14/5 990/17/5 992/18/5
f 986/10/3 985/9/3 981/19/3 982/20/3
f 989/21/6 991/22/6 995/23/6 993/24/6
f 981/1/7 983/4/7 991/22/7 989/21/7
f 983/6/2 984/5/2 992/25/2 991/17/2
f 982/20/3 981/19/3 989/26/3 990/27/3
f 995/28/2 996/29/2 1000/30/2 999/31/2
f 990/27/3 989/26/3 993/32/3 994/33/3
f 992/18/8 990/17/8 994/34/8 996/35/8
f 991/17/2 992/25/2 996/29/2 995/28/2
f 997/36/9 999/37/9 1003/38/9 1001/39/9
f 993/24/10 995/23/10 999/37/10 997/36/10
f 994/33/3 993/32/3 997/40/3 998/41/3
f 996/35/11 994/34/11 998/42/11 1000/43/11
f 1002/44/12 1001/45/12 1003/46/12 1004/47/12
f 998/41/3 997/40/3 1001/48/3 1002/49/3
f 1000/43/13 998/42/13 1002/50/13 1004/51/13
f 999/31/2 1000/30/2 1004/52/2 1003/53/2
f 1006/54/14 1007/55/14 1008/56/14 1005/57/14
f 988/8/2 987/7/2 1007/58/2 1006/59/2
f 986/13/8 988/16/8 1006/60/8 1005/61/8
f 987/3/6 985/2/6 1008/62/6 1007/63/6
f 1009/1/1 1013/2/1 1015/3/1 1011/4/1
f 1012/5/2 1011/6/2 1015/7/2 1016/8/2
f 1013/9/3 1014/10/3 1033/11/3 1036/12/3
f 1014/13/4 1010/14/4 1012/15/4 1016/16/4
f 1012/15/5 1010/14/5 1018/17/5 1020/18/5
f 1014/10/3 1013/9/3 1009/19/3 1010/20/3
f 1017/21/6 1019/22/6 1023/23/6 1021/24/6
f 1009/1/7 1011/4/7 1019/22/7 1017/21/7
f 1011/6/2 1012/5/2 1020/25/2 1019/17/2
f 1010/20/3 1009/19/3 1017/26/3 1018/27/3
f 1023/28/2 1024/29/2 1028/30/2 1027/31/2
f 1018/27/3 1017/26/3 1021/32/3 1022/33/3
f 1020/18/8 1018/17/8 1022/34/8 1024/35/8
f 1019/17/2 1020/25/2 1024/29/2 1023/28/2
f 1025/36/9 1027/37/9 1031/38/9 1029/39/9
f 1021/24/10 1023/23/10 1027/37/10 1025/36/10
f 1022/33/3 1021/32/3 1025/40/3 1026/41/3
f 1024/35/11 1022/34/11 1026/42/11 1028/43/11
f 1030/44/12 1029/45/12 1031/46/12 1032/47/12
f 1026/41/3 1025/40/3 1029/48/3 1030/49/3
f 1028/43/13 1026/42/13 1030/50/13 1032/51/13
f 1027/31/2 1028/30/2 1032/52/2 1031/53/2
f 1034/54/14 1035/55/14 1036/56/14 1033/57/14
f 1016/8/2 1015/7/2 1035/58/2 1034/59/2
f 1014/13/8 1016/16/8 1034/60/8 1033/61/8
f 1015/3/6 1013/2/6 1036/62/6 1035/63/6
f 1037/1/1 1041/2/1 1043/3/1 1039/4/1
f 1040/5/2 1039/6/2 1043/7/2 1044/8/2
f 1041/9/3 1042/10/3 1061/11/3 1064/12/3
f 1042/13/4 1038/14/4 1040/15/4 1044/16/4
f 1040/15/5 1038/14/5 1046/17/5 1048/18/5
f 1042/10/3 1041/9/3 1037/19/3 1038/20/3
f 1045/21/6 1047/22/6 1051/23/6 1049/24/6
f 1037/1/7 1039/4/7 1047/22/7 1045/21/7
f 1039/6/2 1040/5/2 1048/25/2 1047/17/2
f 1038/20/3 1037/19/3 1045/26/3 1046/27/3
f 1051/28/2 1052/29/2 1056/30/2 1055/31/2
f 1046/27/3 1045/26/3 1049/32/3 1050/33/3
f 1048/18/8 1046/17/8 1050/34/8 1052/35/8
f 1047/17/2 1048/25/2 1052/29/2 1051/28/2
f 1053/36/9 1055/37/9 1059/38/9 1057/39/9
f 1049/24/10 1051/23/10 1055/37/10 1053/36/10
f 1050/33/3 1049/32/3 1053/40/3 1054/41/3
f 1052/35/11 1050/34/11 1054/42/11 1056/43/11
f 1058/44/12 1057/45/12 1059/46/12 1060/47/12
f 1054/41/3 1053/40/3 1057/48/3 1058/49/3
f 1056/43/13 1054/42/13 1058/50/13 1060/51/13
f 1055/31/2 1056/30/2 1060/52/2 1059/53/2
f 1062/54/14 1063/55/14 1064/56/14 1061/57/14
f 1044/8/2 1043/7/2 1063/58/2 1062/59/2
f 1042/13/8 1044/16/8 1062/60/8 1061/61/8
f 1043/3/6 1041/2/6 1064/62/6 1063/63/6
f 1065/1/1 1069/2/1 1071/3/1 1067/4/1
f 1068/5/2 1067/6/2 1071/7/2 1072/8/2
f 1069/9/3 1070/10/3 1089/11/3 1092/12/3
f 1070/13/4 1066/14/4 1068/15/4 1072/16/4
f 1068/15/5 1066/14/5 1074/17/5 1076/18/5
f 1070/10/3 1069/9/3 1065/19/3 1066/20/3
f 1073/21/6 1075/22/6 1079/23/6 1077/24/6
f 1065/1/7 1067/4/7 1075/22/7 1073/21/7
f 1067/6/2 1068/5/2 1076/25/2 1075/17/2
f 1066/20/3 1065/19/3 1073/26/3 1074/27/3
f 1079/28/2 1080/29/2 1084/30/2 1083/31/2
f 1074/27/3 1073/26/3 1077/32/3 1078/33/3
f 1076/18/8 1074/17/8 1078/34/8 1080/35/8
f 1075/17/2 1076/25/2 1080/29/2 1079/28/2
f 1081/36/9 1083/37/9 1087/38/9 1085/39/9
f 1077/24/10 1079/23/10 1083/37/10 1081/36/10
f 1078/33/3 1077/32/3 1081/40/3 1082/41/3
f 1080/35/11 1078/34/11 1082/42/11 1084/43/11
f 1086/44/12 1085/45/12 1087/46/12 1088/47/12
f 1082/41/3 1081/40/3 1085/48/3 1086/49/3
f 1084/43/13 1082/42/13 1086/50/13 1088/51/13
f 1083/31/2 1084/30/2 1088/52/2 1087/53/2
f 1090/54/14 1091/55/14 1092/56/14 1089/57/14
f 1072/8/2 1071/7/2 1091/58/2 1090/59/2
f 1070/13/8 1072/16/8 1090/60/8 1089/61/8
f 1071/3/6 1069/2/6 1092/62/6 1091/63/6
f 1093/1/1 1097/2/1 1099/3/1 1095/4/1
f 1096/5/2 1095/6/2 1099/7/2 1100/8/2
f 1097/9/3 1098/10/3 1117/11/3 1120/12/3
f 1098/13/4 1094/14/4 1096/15/4 1100/16/4
f 1096/15/5 1094/14/5 1102/17/5 1104/18/5
f 1098/10/3 1097/9/3 1093/19/3 1094/20/3
f 1101/21/6 1103/22/6 1107/23/6 1105/24/6
f 1093/1/7 1095/4/7 1103/22/7 1101/21/7
f 1095/6/2 1096/5/2 1104/25/2 1103/17/2
f 1094/20/3 1093/19/3 1101/26/3 1102/27/3
f 1107/28/2 1108/29/2 1112/30/2 1111/31/2
f 1102/27/3 1101/26/3 1105/32/3 1106/33/3
f 1104/18/8 1102/17/8 1106/34/8 1108/35/8
f 1103/17/2 1104/25/2 1108/29/2 1107/28/2
f 1109/36/9 1111/37/9 1115/38/9 1113/39/9
f 1105/24/10 1107/23/10 1111/37/10 1109/36/10
f 1106/33/3 1105/32/3 1109/40/3 1110/41/3
f 1108/35/11 1106/34/11 1110/42/11 1112/43/11
f 1114/44/12 1113/45/12 1115/46/12 1116/47/12
f 1110/41/3 1109/40/3 1113/48/3 1114/49/3
f 1112/43/13 1110/42/13 1114/50/13 1116/51/13
f 1111/31/2 1112/30/2 1116/52/2 1115/53/2
f 1118/54/14 1119/55/14 1120/56/14 1117/57/14
f 1100/8/2 1099/7/2 1119/58/2 1118/59/2
f 1098/13/8 1100/16/8 1118/60/8 1117/61/8
f 1099/3/6 1097/2/6 1120/62/6 1119/63/6
f 1121/1/1 1125/2/1 1127/3/1 1123/4/1
f 1124/5/2 1123/6/2 1127/7/2 1128/8/2
f 1125/9/3 1126/10/3 1145/11/3 1148/12/3
f 1126/13/4 1122/14/4 1124/15/4 1128/16/4
f 1124/15/5 1122/14/5 1130/17/5 1132/18/5
f 1126/10/3 1125/9/3 1121/19/3 1122/20/3
f 1129/21/6 1131/22/6 1135/23/6 1133/24/6
f 1121/1/7 1123/4/7 1131/22/7 1129/21/7
f 1123/6/2 1124/5/2 1132/25/2 1131/17/2
f 1122/20/3 1121/19/3 1129/26/3 1130/27/3
f 1135/28/2 1136/29/2 1140/30/2 1139/31/2
f 1130/27/3 1129/26/3 1133/32/3 1134/33/3
f 1132/18/8 1130/17/8 1134/34/8 1136/35/8
f 1131/17/2 1132/25/2 1136/29/2 1135/28/2
f 1137/36/9 1139/37/9 1143/38/9 1141/39/9
f 1133/24/10 1135/23/10 1139/37/10 1137/36/10
f 1134/33/3 1133/32/3 1137/40/3 1138/41/3
f 1136/35/11 1134/34/11 1138/42/11 1140/43/11
f 1142/44/12 1141/45/12 1143/46/12 1144/47/12
f 1138/41/3 1137/40/3 1141/48/3 1142/49/3
f 1140/43/13 1138/42/13 1142/50/13 1144/51/13
f 1139/31/2 1140/30/2 1144/52/2 1143/53/2
f 1146/54/14 1147/55/14 1148/56/14 1145/57/14
f 1128/8/2 1127/7/2 1147/58/2 1146/59/2
f 1126/13/8 1128/16/8 1146/60/8 1145/61/8
f 1127/3/6 1125/2/6 1148/62/6 1147/63/6
f 1149/1/1 1153/2/1 1155/3/1 1151/4/1
f 1152/5/2 1151/6/2 1155/7/2 1156/8/2
f 1153/9/3 1154/10/3 1173/11/3 1176/12/3
f 1154/13/4 1150/14/4 1152/15/4 1156/16/4
f 1152/15/5 1150/14/5 1158/17/5 1160/18/5
f 1154/10/3 1153/9/3 1149/19/3 1150/20/3
f 1157/21/6 1159/22/6 1163/23/6 1161/24/6
f 1149/1/7 1151/4/7 1159/22/7 1157/21/7
f 1151/6/2 1152/5/2 1160/25/2 1159/17/2
f 1150/20/3 1149/19/3 1157/26/3 1158/27/3
f 1163/28/2 1164/29/2 1168/30/2 1167/31/2
f 1158/27/3 1157/26/3 1161/32/3 1162/33/3
f 1160/18/8 1158/17/8 1162/34/8 1164/35/8
f 1159/17/2 1160/25/2 1164/29/2 1163/28/2
f 1165/36/9 1167/37/9 1171/38/9 1169/39/9
f 1161/24/10 1163/23/10 1167/37/10 1165/36/10
f 1162/33/3 1161/32/3 1165/40/3 1166/41/3
f 1164/35/11 1162/34/11 1166/42/11 1168/43/11
f 1170/44/12 1169/45/12 1171/46/12 1172/47/12
f 1166/41/3 1165/40/3 1169/48/3 1170/49/3
f 1168/43/13 1166/42/13 1170/50/13 1172/51/13
f 1167/31/2 1168/30/2 1172/52/2 1171/53/2
f 1174/54/14 1175/55/14 1176/56/14 1173/57/14
f 1156/8/2 1155/7/2 1175/58/2 1174/59/2
f 1154/13/8 1156/16/8 1174/60/8 1173/61/8
f 1155/3/6 1153/2/6 1176/62/6 1175/63/6
f 1177/1/1 1181/2/1 1183/3/1 1179/4/1
f 1180/5/2 1179/6/2 1183/7/2 1184/8/2
f 1181/9/3 1182/10/3 1201/11/3 1204/12/3
f 1182/13/4 1178/14/4 1180/15/4 1184/16/4
f 1180/15/5 1178/14/5 1186/17/5 1188/18/5
f 1182/10/3 1181/9/3 1177/19/3 1178/20/3
f 1185/21/6 1187/22/6 1191/23/6 1189/24/6
f 1177/1/7 1179/4/7 1187/22/7 1185/21/7
f 1179/6/2 1180/5/2 1188/25/2 1187/17/2
f 1178/20/3 1177/19/3 1185/26/3 1186/27/3
f 1191/28/2 1192/29/2 1196/30/2 1195/31/2
f 1186/27/3 1185/26/3 1189/32/3 1190/33/3
f 1188/18/8 1186/17/8 1190/34/8 1192/35/8
f 1187/17/2 1188/25/2 1192/29/2 1191/28/2
f 1193/36/9 1195/37/9 1199/38/9 1197/39/9
f 1189/24/10 1191/23/10 1195/37/10 1193/36/10
f 1190/33/3 1189/32/3 1193/40/3 1194/41/3
f 1192/35/11 1190/34/11 1194/42/11 1196/43/11
f 1198/44/12 1197/45/12 1199/46/12 1200/47/12
f 1194/41/3 1193/40/3 1197/48/3 1198/49/3
f 1196/43/13 1194/42/13 1198/50/13 1200/51/13
f 1195/31/2 1196/30/2 1200/52/2 1199/53/2
f 1202/54/14 1203/55/14 1204/56/14 1201/57/14
f 1184/8/2 1183/7/2 1203/58/2 1202/59/2
f 1182/13/8 1184/16/8 1202/60/8 1201/61/8
f 1183/3/6 1181/2/6 1204/62/6 1203/63/6
f 1205/1/1 1209/2/1 1211/3/1 1207/4/1
f 1208/5/2 1207/6/2 1211/7/2 1212/8/2
f 1209/9/3 1210/10/3 1229/11/3 1232/12/3
f 1210/13/4 1206/14/4 1208/15/4 1212/16/4
f 1208/15/5 1206/14/5 1214/17/5 1216/18/5
f 1210/10/3 1209/9/3 1205/19/3 1206/20/3
f 1213/21/6 1215/22/6 1219/23/6 1217/24/6
f 1205/1/7 1207/4/7 1215/22/7 1213/21/7
f 1207/6/2 1208/5/2 1216/25/2 1215/17/2
f 1206/20/3 1205/19/3 1213/26/3 1214/27/3
f 1219/28/2 1220/29/2 1224/30/2 1223/31/2
f 1214/27/3 1213/26/3 1217/32/3 1218/33/3
f 1216/18/8 1214/17/8 1218/34/8 1220/35/8
f 1215/17/2 1216/25/2 1220/29/2 1219/28/2
f 1221/36/9 1223/37/9 1227/38/9 1225/39/9
f 1217/24/10 1219/23/10 1223/37/10 1221/36/10
f 1218/33/3 1217/32/3 1221/40/3 1222/41/3
f 1220/35/11 1218/34/11 1222/42/11 1224/43/11
f 1226/44/12 1225/45/12 1227/46/12 1228/47/12
f 1222/41/3 1221/40/3 1225/48/3 1226/49/3
f 1224/43/13 1222/42/13 1226/50/13 1228/51/13
f 1223/31/2 1224/30/2 1228/52/2 1227/53/2
f 1230/54/14 1231/55/14 1232/56/14 1229/57/14
f 1212/8/2 1211/7/2 1231/58/2 1230/59/2
f 1210/13/8 1212/16/8 1230/60/8 1229/61/8
f 1211/3/6 1209/2/6 1232/62/6 1231/63/6
f 1233/1/1 1237/2/1 1239/3/1 1235/4/1
f 1236/5/2 1235/6/2 1239/7/2 1240/8/2
f 1237/9/3 1238/10/3 1257/11/3 1260/12/3
f 1238/13/4 1234/14/4 1236/15/4 1240/16/4
f 1236/15/5 1234/14/5 1242/17/5 1244/18/5
f 1238/10/3 1237/9/3 1233/19/3 1234/20/3
f 1241/21/6 1243/22/6 1247/23/6 1245/24/6
f 1233/1/7 1235/4/7 1243/22/7 1241/21/7
f 1235/6/2 1236/5/2 1244/25/2 1243/17/2
f 1234/20/3 1233/19/3 1241/26/3 1242/27/3
f 1247/28/2 1248/29/2 1252/30/2 1251/31/2
f 1242/27/3 1241/26/3 1245/32/3 1246/33/3
f 1244/18/8 1242/17/8 1246/34/8 1248/35/8
f 1243/17/2 1244/25/2 1248/29/2 1247/28/2
f 1249/36/9 1251/37/9 1255/38/9 1253/39/9
f 1245/24/10 1247/23/10 1251/37/10 1249/36/10
f 1246/33/3 1245/32/3 1249/40/3 1250/41/3
f 1248/35/11 1246/34/11 1250/42/11 1252/43/11
f 1254/44/12 1253/45/12 1255/46/12 1256/47/12
f 1250/41/3 1249/40/3 1253/48/3 1254/49/3
f 1252/43/13 1250/42/13 1254/50/13 1256/51/13
f 1251/31/2 1252/30/2 1256/52/2 1255/53/2
f 1258/54/14 1259/55/14 1260/56/14 1257/57/14
f 1240/8/2 1239/7/2 1259/58/2 1258/59/2
f 1238/13/8 1240/16/8 1258/60/8 1257/61/8
f 1239/3/6 1237/2/6 1260/62/6 1259/63/6
f 1261/1/1 1265/2/1 1267/3/1 1263/4/1
f 1264/5/2 1263/6/2 1267/7/2 1268/8/2
f 1265/9/3 1266/10/3 1285/11/3 1288/12/3
f 1266/13/4 1262/14/4 1264/15/4 1268/16/4
f 1264/15/5 1262/14/5 1270/17/5 1272/18/5
f 1266/10/3 1265/9/3 1261/19/3 1262/20/3
f 1269/21/6 1271/22/6 1275/23/6 1273/24/6
f 1261/1/7 1263/4/7 1271/22/7 1269/21/7
f 1263/6/2 1264/5/2 1272/25/2 1271/17/2
f 1262/20/3 1261/19/3 1269/26/3 1270/27/3
f 1275/28/2 1276/29/2 1280/30/2 1279/31/2
f 1270/27/3 1269/26/3 1273/32/3 1274/33/3
f 1272/18/8 1270/17/8 1274/34/8 1276/35/8
f 1271/17/2 1272/25/2 1276/29/2 1275/28/2
f 1277/36/9 1279/37/9 1283/38/9 1281/39/9
f 1273/24/10 1275/23/10 1279/37/10 1277/36/10
f 1274/33/3 1273/32/3 1277/40/3 1278/41/3
f 1276/35/11 1274/34/11 1278/42/11 1280/43/11
f 1282/44/12 1281/45/12 1283/46/12 1284/47/12
f 1278/41/3 1277/40/3 1281/48/3 1282/49/3
f 1280/43/13 1278/42/13 1282/50/13 1284/51/13
f 1279/31/2 1280/30/2 1284/52/2 1283/53/2
f 1286/54/14 1287/55/14 1288/56/14 1285/57/14
f 1268/8/2 1267/7/2 1287/58/2 1286/59/2
f 1266/13/8 1268/16/8 1286/60/8 1285/61/8
f 1267/3/6 1265/2/6 1288/62/6 1287/63/6
f 1289/1/1 1293/2/1 1295/3/1 1291/4/1
f 1292/5/2 1291/6/2 1295/7/2 1296/8/2
f 1293/9/3 1294/10/3 1313/11/3 1316/12/3
f 1294/13/4 1290/14/4 1292/15/4 1296/16/4
f 1292/15/5 1290/14/5 1298/17/5 1300/18/5
f 1294/10/3 1293/9/3 1289/19/3 1290/20/3
f 1297/21/6 1299/22/6 1303/23/6 1301/24/6
f 1289/1/7 1291/4/7 1299/22/7 1297/21/7
f 1291/6/2 1292/5/2 1300/25/2 1299/17/2
f 1290/20/3 1289/19/3 1297/26/3 1298/27/3
f 1303/28/2 1304/29/2 1308/30/2 1307/31/2
f 1298/27/3 1297/26/3 1301/32/3 1302/33/3
f 1300/18/8 1298/17/8 1302/34/8 1304/35/8
f 1299/17/2 1300/25/2 1304/29/2 1303/28/2
f 1305/36/9 1307/37/9 1311/38/9 1309/39/9
f 1301/24/10 1303/23/10 1307/37/10 1305/36/10
f 1302/33/3 1301/32/3 1305/40/3 1306/41/3
f 1304/35/11 1302/34/11 1306/42/11 1308/43/11
f 1310/44/12 1309/45/12 1311/46/12 1312/47/12
f 1306/41/3 1305/40/3 1309/48/3 1310/49/3
f 1308/43/13 1306/42/13 1310/50/13 1312/51/13
f 1307/31/2 1308/30/2 1312/52/2 1311/53/2
f 1314/54/14 1315/55/14 1316/56/14 1313/57/14
f 1296/8/2 1295/7/2 1315/58/2 1314/59/2
f 1294/13/8 1296/16/8 1314/60/8 1313/61/8
f 1295/3/6 1293/2/6 1316/62/6 1315/63/6
f 1317/1/1 1321/2/1 1323/3/1 1319/4/1
f 1320/5/2 1319/6/2 1323/7/2 1324/8/2
f 1321/9/3 1322/10/3 1341/11/3 1344/12/3
f 1322/13/4 1318/14/4 1320/15/4 1324/16/4
f 1320/15/5 1318/14/5 1326/17/5 1328/18/5
f 1322/10/3 1321/9/3 1317/19/3 1318/20/3
f 1325/21/6 1327/22/6 1331/23/6 1329/24/6
f 1317/1/7 1319/4/7 1327/22/7 1325/21/7
f 1319/6/2 1320/5/2 1328/25/2 1327/17/2
f 1318/20/3 1317/19/3 1325/26/3 1326/27/3
f 1331/28/2 1332/29/2 1336/30/2 1335/31/2
f 1326/27/3 1325/26/3 1329/32/3 1330/33/3
f 1328/18/8 1326/17/8 1330/34/8 1332/35/8
f 1327/17/2 1328/25/2 1332/29/2 1331/28/2
f 1333/36/9 1335/37/9 1339/38/9 1337/39/9
f 1329/24/10 1331/23/10 1335/37/10 1333/36/10
f 1330/33/3 1329/32/3 1333/40/3 1334/41/3
f 1332/35/11 1330/34/11 1334/42/11 1336/43/11
f 1338/44/12 1337/45/12 1339/46/12 1340/47/12
f 1334/41/3 1333/40/3 1337/48/3 1338/49/3
f 1336/43/13 1334/42/13 1338/50/13 1340/51/13
f 1335/31/2 1336/30/2 1340/52/2 1339/53/2
f 1342/54/14 1343/55/14 1344/56/14 1341/57/14
f 1324/8/2 1323/7/2 1343/58/2 1342/59/2
f 1322/13/8 1324/16/8 1342/60/8 1341/61/8
f 1323/3/6 1321/2/6 1344/62/6 1343/63/6
f 1345/1/1 1349/2/1 1351/3/1 1347/4/1
f 1348/5/2 1347/6/2 1351/7/2 1352/8/2
f 1349/9/3 1350/10/3 1369/11/3 1372/12/3
f 1350/13/4 1346/14/4 1348/15/4 1352/16/4
f 1348/15/5 1346/14/5 1354/17/5 1356/18/5
f 1350/10/3 1349/9/3 1345/19/3 1346/20/3
f 1353/21/6 1355/22/6 1359/23/6 1357/24/6
f 1345/1/7 1347/4/7 1355/22/7 1353/21/7
f 1347/6/2 1348/5/2 1356/25/2 1355/17/2
f 1346/20/3 1345/19/3 1353/26/3 1354/27/3
f 1359/28/2 1360/29/2 1364/30/2 1363/31/2
f 1354/27/3 1353/26/3 1357/32/3 1358/33/3
f 1356/18/8 1354/17/8 1358/34/8 1360/35/8
f 1355/17/2 1356/25/2 1360/29/2 1359/28/2
f 1361/36/9 1363/37/9 1367/38/9 1365/39/9
f 1357/24/10 1359/23/10 1363/37/10 1361/36/10
f 1358/33/3 1357/32/3 1361/40/3 1362/41/3
f 1360/35/11 1358/34/11 1362/42/11 1364/43/11
f 1366/44/12 1365/45/12 1367/46/12 1368/47/12
f 1362/41/3 1361/40/3 1365/48/3 1366/49/3
f 1364/43/13 1362/42/13 1366/50/13 1368/51/13
f 1363/31/2 1364/30/2 1368/52/2 1367/53/2
f 1370/54/14 1371/55/14 1372/56/14 1369/57/14
f 1352/8/2 1351/7/2 1371/58/2 1370/59/2
f 1350/13/8 1352/16/8 1370/60/8 1369/61/8
f 1351/3/6 1349/2/6 1372/62/6 1371/63/6
f 1373/1/1 1377/2/1 1379/3/1 1375/4/1
f 1376/5/2 1375/6/2 1379/7/2 1380/8/2
f 1377/9/3 1378/10/3 1397/11/3 1400/12/3
f 1378/13/4 1374/14/4 1376/15/4 1380/16/4
f 1376/15/5 1374/14/5 1382/17/5 1384/18/5
f 1378/10/3 1377/9/3 1373/19/3 1374/20/3
f 1381/21/6 1383/22/6 1387/23/6 1385/24/6
f 1373/1/7 1375/4/7 1383/22/7 1381/21/7
f 1375/6/2 1376/5/2 1384/25/2 1383/17/2
f 1374/20/3 1373/19/3 1381/26/3 1382/27/3
f 1387/28/2 1388/29/2 1392/30/2 1391/31/2
f 1382/27/3 1381/26/3 1385/32/3 1386/33/3
f 1384/18/8 1382/17/8 1386/34/8 1388/35/8
f 1383/17/2 1384/25/2 1388/29/2 1387/28/2
f 1389/36/9 1391/37/9 1395/38/9 1393/39/9
f 1385/24/10 1387/23/10 1391/37/10 1389/36/10
f 1386/33/3 1385/32/3 1389/40/3 1390/41/3
f 1388/35/11 1386/34/11 1390/42/11 1392/43/11
f 1394/44/12 1393/45/12 1395/46/12 1396/47/12
f 1390/41/3 1389/40/3 1393/48/3 1394/49/3
f 1392/43/13 1390/42/13 1394/50/13 1396/51/13
f 1391/31/2 1392/30/2 1396/52/2 1395/53/2
f 1398/54/14 1399/55/14 1400/56/14 1397/57/14
f 1380/8/2 1379/7/2 1399/58/2 1398/59/2
f 1378/13/8 1380/16/8 1398/60/8 1397/61/8
f 1379/3/6 1377/2/6 1400/62/6 1399/63/6
