# File generated by ImageToStl.com - Free Image and 3D model conversion tools

mtllib armario.mtl

# Cube002_0
o obj1
v -2100.51347351 -1579.9884846 800.74430134
v -1970.09199524 -1579.9884846 800.74430134
v -1970.09199524 -1579.98850584 670.32282307
v -2100.51347351 -1579.98850584 670.32282307
v -2100.51347351 -1579.9884846 800.74430134
v -2078.20430282 -2438.24930636 778.43527047
v -1992.40116593 -2438.24930636 778.43527047
v -1970.09199524 -1579.9884846 800.74430134
v -2100.51347351 -1579.98850584 670.32282307
v -2078.20430282 -2438.24932034 692.63213359
v -2078.20430282 -2438.24930636 778.43527047
v -2100.51347351 -1579.9884846 800.74430134
v -1992.40116593 -2438.24930636 778.43527047
v -2078.20430282 -2438.24930636 778.43527047
v -2078.20430282 -2438.24932034 692.63213359
v -1992.40116593 -2438.24932034 692.63213359
v -1970.09199524 -1579.9884846 800.74430134
v -1992.40116593 -2438.24930636 778.43527047
v -1992.40116593 -2438.24932034 692.63213359
v -1970.09199524 -1579.98850584 670.32282307
v -1970.09199524 -1579.98850584 670.32282307
v -1992.40116593 -2438.24932034 692.63213359
v -2078.20430282 -2438.24932034 692.63213359
v -2100.51347351 -1579.98850584 670.32282307
v 1812.13087463 -1579.98872895 -699.10269878
v 1942.55235291 -1579.98872895 -699.10269878
v 1942.55235291 -1579.9887502 -829.52417706
v 1812.13087463 -1579.9887502 -829.52417706
v 1812.13087463 -1579.98872895 -699.10269878
v 1834.44009974 -2438.24955072 -721.41178407
v 1920.2431278 -2438.24955072 -721.41178407
v 1942.55235291 -1579.98872895 -699.10269878
v 1812.13087463 -1579.9887502 -829.52417706
v 1834.44009974 -2438.2495647 -807.21481212
v 1834.44009974 -2438.24955072 -721.41178407
v 1812.13087463 -1579.98872895 -699.10269878
v 1920.2431278 -2438.24955072 -721.41178407
v 1834.44009974 -2438.24955072 -721.41178407
v 1834.44009974 -2438.2495647 -807.21481212
v 1920.2431278 -2438.2495647 -807.21481212
v 1942.55235291 -1579.98872895 -699.10269878
v 1920.2431278 -2438.24955072 -721.41178407
v 1920.2431278 -2438.2495647 -807.21481212
v 1942.55235291 -1579.9887502 -829.52417706
v 1942.55235291 -1579.9887502 -829.52417706
v 1920.2431278 -2438.2495647 -807.21481212
v 1834.44009974 -2438.2495647 -807.21481212
v 1812.13087463 -1579.9887502 -829.52417706
v 1942.55235291 -1514.98583255 800.74429075
v 1812.13087463 -1514.98583255 800.74429075
v 1812.13087463 -1579.9884846 800.74430134
v 1942.55235291 -1579.9884846 800.74430134
v 1834.44009974 -2438.24930636 778.43527047
v 1920.2431278 -2438.24930636 778.43527047
v 1812.13087463 -1579.98850584 670.32282307
v 1834.44009974 -2438.24932034 692.63213359
v 1834.44009974 -2438.24930636 778.43527047
v 1812.13087463 -1579.9884846 800.74430134
v 1920.2431278 -2438.24930636 778.43527047
v 1834.44009974 -2438.24930636 778.43527047
v 1834.44009974 -2438.24932034 692.63213359
v 1920.2431278 -2438.24932034 692.63213359
v 1942.55235291 -1579.9884846 800.74430134
v 1920.2431278 -2438.24930636 778.43527047
v 1920.2431278 -2438.24932034 692.63213359
v 1942.55235291 -1579.98850584 670.32282307
v 1942.55235291 -1579.98850584 670.32282307
v 1920.2431278 -2438.24932034 692.63213359
v 1834.44009974 -2438.24932034 692.63213359
v 1812.13087463 -1579.98850584 670.32282307
v -2100.51347351 -1579.98872895 -699.10269878
v -1970.09199524 -1579.98872895 -699.10269878
v -1970.09199524 -1579.9887502 -829.52417706
v -2100.51347351 -1579.9887502 -829.52417706
v -2100.51347351 -1579.98872895 -699.10269878
v -2078.20430282 -2438.24955072 -721.41178407
v -1992.40116593 -2438.24955072 -721.41178407
v -1970.09199524 -1579.98872895 -699.10269878
v -2100.51347351 -1579.9887502 -829.52417706
v -2078.20430282 -2438.2495647 -807.21481212
v -2078.20430282 -2438.24955072 -721.41178407
v -2100.51347351 -1579.98872895 -699.10269878
v -1992.40116593 -2438.24955072 -721.41178407
v -2078.20430282 -2438.24955072 -721.41178407
v -2078.20430282 -2438.2495647 -807.21481212
v -1992.40116593 -2438.2495647 -807.21481212
v -1970.09199524 -1579.98872895 -699.10269878
v -1992.40116593 -2438.24955072 -721.41178407
v -1992.40116593 -2438.2495647 -807.21481212
v -1970.09199524 -1579.9887502 -829.52417706
v -1970.09199524 -1579.9887502 -829.52417706
v -1992.40116593 -2438.2495647 -807.21481212
v -2078.20430282 -2438.2495647 -807.21481212
v -2100.51347351 -1579.9887502 -829.52417706
v -2100.51347351 2202.02599139 -700.59363149
v -2100.51347351 2202.02597039 -829.52479322
v -2100.51347351 -1514.98609816 -829.52418765
v -2100.51347351 -1514.98607715 -700.59302591
v -2100.51347351 -1579.9887502 -829.52417706
v -2100.51347351 -1514.98609816 -829.52418765
v -1970.09199524 -1514.98609816 -829.52418765
v -1970.09199524 -1579.9887502 -829.52417706
v 1942.55235291 -1514.9858538 670.32281248
v 1942.55235291 -1514.98583255 800.74429075
v 1942.55235291 2202.02623599 800.74368517
v 1812.13087463 2202.02623599 800.74368517
v 1812.13087463 -1514.98609816 -829.52418765
v 1942.55235291 -1514.98609816 -829.52418765
v 1942.55235291 -1579.9887502 -829.52417706
v 1812.13087463 -1579.9887502 -829.52417706
v 1812.13087463 -1579.9887502 -829.52417706
v 1942.55235291 -1579.9887502 -829.52417706
v 1942.55235291 -1579.98872919 -700.59301532
v 1812.13087463 -1579.98872919 -700.59301532
v -2100.51347351 -1579.98850584 670.32282307
v -2100.51347351 -1579.98872919 -700.59301532
v -1970.09199524 -1579.98872919 -700.59301532
v -1970.09199524 -1579.98850584 670.32282307
v 1942.55235291 -1579.9887502 -829.52417706
v 1942.55235291 -1514.98609816 -829.52418765
v 1942.55235291 -1514.98607715 -700.59302591
v 1942.55235291 -1579.98872919 -700.59301532
v -2100.51347351 -1514.98583255 800.74429075
v -2100.51347351 -1514.9858538 670.32281248
v -2100.51347351 -1579.98850584 670.32282307
v -2100.51347351 -1579.9884846 800.74430134
v -2100.51347351 -1579.9887502 -829.52417706
v -2100.51347351 -1579.98872919 -700.59301532
v -731.08795166 2202.02621474 670.3222069
v -731.08795166 -1514.9858538 670.32281248
v -1970.09199524 -1514.9858538 670.32281248
v -1970.09199524 2202.02621474 670.3222069
v -2100.51347351 2202.02621474 670.3222069
v -2100.51347351 -1579.9884846 800.74430134
v -1970.09199524 -1579.9884846 800.74430134
v -2100.51347351 -1514.98583255 800.74429075
v -2100.51347351 -1579.9884846 800.74430134
v -1970.09199524 -1579.9884846 800.74430134
v -1970.09199524 -1514.98583255 800.74429075
v -731.08795166 -1514.98583255 800.74429075
v -731.10063838 -1579.9884846 800.74430134
v 1812.13087463 -1579.98850584 670.32282307
v 1812.13087463 -1579.9884846 800.74430134
v -731.10063838 -1579.9884846 800.74430134
v -731.08795166 -1514.98583255 800.74429075
v 1812.13087463 -1514.98583255 800.74429075
v 1812.13087463 -1514.9858538 670.32281248
v -1970.09199524 -1514.9858538 670.32281248
v -1970.09199524 -1514.98583255 800.74429075
v 1812.13087463 2202.02621474 670.3222069
v 1812.13087463 2202.02599139 -700.59363149
v 1812.13087463 -1514.98607715 -700.59302591
v 1812.13087463 -1514.9858538 670.32281248
v -1970.09199524 -1579.9887502 -829.52417706
v -1970.09199524 -1514.98607715 -700.59302591
v 1812.13087463 -1514.98607715 -700.59302591
v 1812.13087463 2202.02599139 -700.59363149
v -1970.09199524 2202.02599139 -700.59363149
v -1970.09199524 -1514.98607715 -700.59302591
v 1812.13087463 -1514.98607715 -700.59302591
v -2100.51347351 -1579.9887502 -829.52417706
v 1942.55235291 -1579.98850584 670.32282307
v 1942.55235291 2202.02597039 -829.52479322
v 1942.55235291 2202.02599139 -700.59363149
v 1942.55235291 2202.02621474 670.3222069
v 1942.55235291 2202.02623599 800.74368517
v -1970.09199524 2202.02599139 -700.59363149
v -1970.09199524 2202.02621474 670.3222069
v -1970.09199524 -1514.9858538 670.32281248
v -1970.09199524 -1514.98607715 -700.59302591
v -2100.51347351 2202.02597039 -829.52479322
v -1970.09199524 2202.02597039 -829.52479322
v 1812.13087463 2202.02597039 -829.52479322
v 1942.55235291 2202.02597039 -829.52479322
v 574.57237093 -1514.9858538 670.32281248
v 574.57237093 2202.02621474 670.3222069
v 1812.13087463 2202.02621474 670.3222069
v 1812.13087463 -1514.9858538 670.32281248
v -2100.51347351 2202.02623599 800.74368517
v -1970.09199524 2202.02623599 800.74368517
v -2100.51347351 2202.02623599 800.74368517
v -731.08795166 2202.02621474 670.3222069
v -731.08795166 2202.02623599 800.74368517
v -731.08795166 -1514.98583255 800.74429075
v -731.08795166 -1514.9858538 670.32281248
v -731.08795166 -1514.9858538 670.32281248
v -731.08795166 -1514.98583255 800.74429075
v -1970.09199524 -1514.98583255 800.74429075
v -1970.09199524 -1514.9858538 670.32281248
v -731.08795166 -1514.98583255 800.74429075
v -731.08795166 2202.02623599 800.74368517
v 574.57237093 2202.02623599 800.74368517
v 574.57237093 2202.02621474 670.3222069
v 574.57237093 -1514.9858538 670.32281248
v 574.57237093 -1514.98583255 800.74429075
v 1812.13087463 -1514.98582639 838.5983401
v 574.57237093 -1514.98582639 838.5983401
v 574.57237093 -1514.98583255 800.74429075
v 1812.13087463 -1514.98583255 800.74429075
v 574.57237093 -1514.9858538 670.32281248
v 1812.13087463 -1514.9858538 670.32281248
v -2100.51347351 2137.02395709 800.74369576
v -1970.09199524 2137.02395709 800.74369576
v -1970.09199524 2137.02393584 670.32221749
v -2100.51347351 2137.02393584 670.32221749
v 1812.13087463 2137.02371273 -699.10330436
v 1942.55235291 2137.02371273 -699.10330436
v 1942.55235291 2137.02369149 -829.52478263
v 1812.13087463 2137.02369149 -829.52478263
v -2100.51347351 2137.02371273 -699.10330436
v -1970.09199524 2137.02371273 -699.10330436
v -1970.09199524 2137.02369149 -829.52478263
v -2100.51347351 2137.02369149 -829.52478263
v 1746.9201355 2137.02369149 -829.52478263
v 1877.34161377 2137.02369149 -829.52478263
v 1877.34161377 2137.02371249 -700.5936209
v 1812.13087463 2137.02371249 -700.5936209
v -2035.30273438 2137.02393584 670.32221749
v -2035.30273438 2137.02371249 -700.5936209
v -1970.09199524 2137.02371249 -700.5936209
v -1970.09199524 2137.02393584 670.32221749
v -2035.30273438 2137.02395709 800.74369576
v -1904.8812561 2137.02395709 800.74369576
v 1812.13087463 2137.02393584 670.32221749
v 1746.9201355 2137.02395709 800.74369576
v -1904.8812561 2137.02369149 -829.52478263
v -2035.30273438 2137.02369149 -829.52478263
v 1877.34161377 2137.02393584 670.32221749
v -2172.25638122 2127.19447247 724.15259667
v -2172.25638122 2127.19422678 -783.85482556
v 2079.48386018 2198.69732752 724.15258502
v 2079.48386018 2198.6973509 867.61619868
v 1942.55235291 2202.02623599 800.74368517
v 1942.55235291 2202.02621474 670.3222069
v -2237.46712036 2198.69732752 724.15258502
v -2237.46712036 2198.6973509 867.61619868
v -2100.51347351 2202.02623599 800.74368517
v -2100.51347351 2202.02621474 670.3222069
v -2237.46712036 2198.69705873 -925.67918974
v -2237.46712036 2198.69708184 -783.8548372
v -2100.51347351 2202.02599139 -700.59363149
v -2100.51347351 2202.02597039 -829.52479322
v 1936.02018433 2198.6973509 867.61619868
v 1812.13087463 2202.02623599 800.74368517
v -2172.25638122 2127.19449584 867.61621033
v 2014.27312104 2127.19420367 -925.67917809
v 2014.27312104 2127.19422678 -783.85482556
v 2014.27312104 2127.19447247 724.15259667
v 2079.48386018 2198.69732752 724.15258502
v 2079.48386018 2198.69708184 -783.8548372
v 1942.55235291 2202.02599139 -700.59363149
v 1942.55235291 2202.02621474 670.3222069
v 2001.23092347 2198.69708184 -783.8548372
v 2001.23092347 2198.69732752 724.15258502
v 1812.13087463 2202.02621474 670.3222069
v 1812.13087463 2202.02599139 -700.59363149
v 2079.48386018 2198.69705873 -925.67918974
v 1942.55235291 2202.02597039 -829.52479322
v -2159.21430802 2198.69732752 724.15258502
v -2159.21430802 2198.69708184 -783.8548372
v -1970.09199524 2202.02599139 -700.59363149
v -1970.09199524 2202.02621474 670.3222069
v 2001.23092347 2198.69708184 -783.8548372
v -2159.21430802 2198.69708184 -783.8548372
v -1970.09199524 2202.02599139 -700.59363149
v 1812.13087463 2202.02599139 -700.59363149
v 639.91669377 2198.6973509 867.61619868
v 574.57237093 2202.02623599 800.74368517
v 2001.23092347 2198.69705873 -925.67918974
v 1812.13087463 2202.02597039 -829.52479322
v 639.91669377 2198.69732752 724.15258502
v 2001.23092347 2198.69732752 724.15258502
v 1812.13087463 2202.02621474 670.3222069
v 574.57237093 2202.02621474 670.3222069
v 1936.02018433 2127.19420367 -925.67917809
v -2237.46712036 2198.69708184 -783.8548372
v -2237.46712036 2198.69705873 -925.67918974
v -2100.51347351 2202.02597039 -829.52479322
v -2100.51347351 2202.02599139 -700.59363149
v 1936.02018433 2127.19449584 867.61621033
v -2094.00356889 2127.19449584 867.61621033
v -2159.21430802 2198.6973509 867.61619868
v -1970.09199524 2202.02623599 800.74368517
v 2079.48386018 2198.69708184 -783.8548372
v 1942.55235291 2202.02599139 -700.59363149
v 639.91669377 2198.6973509 867.61619868
v 574.57237093 2202.02623599 800.74368517
v -2159.21430802 2198.69705873 -925.67918974
v -1970.09199524 2202.02597039 -829.52479322
v -2159.21430802 2198.69732752 724.15258502
v -1970.09199524 2202.02621474 670.3222069
v -2172.25638122 2127.19420367 -925.67917809
v -2094.00356889 2127.19420367 -925.67917809
v 639.91669377 2198.6973509 867.61619868
v 2001.23092347 2198.6973509 867.61619868
v 1812.13087463 2202.02623599 800.74368517
v 574.57237093 2202.02623599 800.74368517
v 639.91669377 2198.69732752 724.15258502
v 574.57237093 2202.02621474 670.3222069
v -2094.00356889 2198.6973509 867.61619868
v -2237.46712036 2198.6973509 867.61619868
v -2100.51347351 2202.02623599 800.74368517
v -1970.09199524 2202.02623599 800.74368517
v -796.30988496 2198.6973509 867.61619868
v -731.08795166 2202.02623599 800.74368517
v 2079.48386018 2198.6973509 867.61619868
v 1942.55235291 2202.02623599 800.74368517
v -796.30988496 2198.6973509 867.61619868
v -796.30988496 2198.69732752 724.15258502
v -731.08795166 2202.02621474 670.3222069
v -731.08795166 2202.02623599 800.74368517
v 639.91669377 2198.6973509 867.61619868
v 574.57237093 2202.02623599 800.74368517
v -796.30988496 2198.6973509 867.61619868
v -731.08795166 2202.02623599 800.74368517
v -2094.00356889 2198.69705873 -925.67918974
v -1970.09199524 2202.02597039 -829.52479322
v 1936.02018433 2198.69705873 -925.67918974
v 1812.13087463 2202.02597039 -829.52479322
v -796.30988496 2198.69732752 724.15258502
v -731.08795166 2202.02621474 670.3222069
v -2237.46712036 2198.69732752 724.15258502
v -2100.51347351 2202.02621474 670.3222069
v -796.30988496 2198.6973509 867.61619868
v -731.08795166 2202.02623599 800.74368517
v 2079.48386018 2198.69705873 -925.67918974
v 1942.55235291 2202.02597039 -829.52479322
v 2014.27312104 2127.19449584 867.61621033
v 1877.34161377 2137.02395709 800.74369576
v -731.08795166 2202.02621474 670.3222069
v -731.08795166 -1514.9858538 670.32281248
v -1970.09199524 -1514.9858538 670.32281248
v -1970.09199524 2202.02621474 670.3222069
v -731.08795166 2202.02621474 670.3222069
v -731.08795166 2202.02623599 800.74368517
v -731.08795166 -1514.98583255 800.74429075
v -731.08795166 -1514.9858538 670.32281248
v 1812.13087463 2202.02624216 838.59773453
v 1812.13087463 -1514.98582639 838.5983401
v 1812.13087463 -1514.98583255 800.74429075
v 1812.13087463 2202.02623599 800.74368517
v -731.08795166 -1579.9884846 800.74430134
v 573.12683105 -1514.98583255 800.74429075
v 573.11414433 -1579.9884846 800.74430134
v -731.10063838 -1579.9884846 800.74430134
v -731.08795166 -1514.98583255 800.74429075
v 573.12683105 -1514.98582193 865.95502988
v 573.11414433 -1579.98847397 865.95504047
v 573.11414433 -1579.9884846 800.74430134
v 573.12683105 -1514.98583255 800.74429075
v -731.08795166 -1514.98582193 865.95502988
v -731.08795166 -1579.98847397 865.95504047
v 573.11414433 -1579.98847397 865.95504047
v 573.12683105 -1514.98582193 865.95502988
v -731.08795166 -1579.98847397 865.95504047
v -731.08795166 -1514.98582193 865.95502988
v -731.08795166 -1514.98583255 800.74429075
v -731.08795166 -1579.9884846 800.74430134
v -731.08795166 2136.81549686 800.74369579
v 573.12683105 2136.81549686 800.74369579
v 573.12683105 -1514.98583255 800.74429075
v -731.08795166 -1514.98583255 800.74429075
v 573.11414433 -1579.98847397 865.95504047
v -731.08795166 -1579.98847397 865.95504047
v -731.08795166 -1579.9884846 800.74430134
v 573.11414433 -1579.9884846 800.74430134
v -731.08795166 2136.81550748 865.95443493
v -731.08795166 2136.81549686 800.74369579
v 573.12683105 2136.81549686 800.74369579
v 573.12683105 2136.81550748 865.95443493
v 573.12683105 2136.81550748 865.95443493
v -731.08795166 2136.81550748 865.95443493
v -731.08795166 2136.81550748 865.95443493
v 573.12683105 2136.81550748 865.95443493
v 573.12683105 2136.81549686 800.74369579
v -731.08795166 2136.81549686 800.74369579
v -2308.82171491 2264.7217562 -814.34775416
v -2308.82171491 2264.72173235 -960.72265926
v 2002.76352907 2264.72203389 890.1135372
v 2067.97426821 2264.72200977 742.04663402
v 1936.02018433 2198.6973509 867.61619868
v -2160.75474954 2264.72173235 -960.72265926
v 2002.76352907 2264.72173235 -960.72265926
v 1936.02018433 2198.69705873 -925.67918974
v -2094.00356889 2198.69705873 -925.67918974
v -819.33006395 2264.72203389 890.1135372
v -819.33006395 2264.72200977 742.04663402
v -796.30988496 2198.69732752 724.15258502
v -796.30988496 2198.6973509 867.61619868
v 2150.83049444 2264.72200977 742.04663402
v 2150.83049444 2264.72203389 890.1135372
v 2067.97426821 2264.7217562 -814.34775416
v 2067.97426821 2264.72200977 742.04663402
v 2001.23092347 2198.69732752 724.15258502
v 2001.23092347 2198.69708184 -783.8548372
v -2308.82171491 2264.72200977 742.04663402
v -2094.00356889 2198.6973509 867.61619868
v 2079.48386018 2198.6973509 867.61619868
v 2001.23092347 2198.6973509 867.61619868
v 1936.02018433 2127.19449584 867.61621033
v 2014.27312104 2127.19449584 867.61621033
v -2172.25638122 2127.19420367 -925.67917809
v -2237.46712036 2198.69705873 -925.67918974
v -2159.21430802 2198.69705873 -925.67918974
v -2094.00356889 2127.19420367 -925.67917809
v 2079.48386018 2198.69732752 724.15258502
v 2079.48386018 2198.6973509 867.61619868
v 2014.27312104 2127.19449584 867.61621033
v 2014.27312104 2127.19447247 724.15259667
v 2001.23092347 2198.69705873 -925.67918974
v 2079.48386018 2198.69705873 -925.67918974
v 2014.27312104 2127.19420367 -925.67917809
v 1936.02018433 2127.19420367 -925.67917809
v 2014.27312104 2127.19420367 -925.67917809
v 2079.48386018 2198.69705873 -925.67918974
v 2079.48386018 2198.69708184 -783.8548372
v 2014.27312104 2127.19422678 -783.85482556
v -2237.46712036 2198.6973509 867.61619868
v -2237.46712036 2198.69732752 724.15258502
v -2172.25638122 2127.19447247 724.15259667
v -2172.25638122 2127.19449584 867.61621033
v -2237.46712036 2198.69705873 -925.67918974
v -2172.25638122 2127.19420367 -925.67917809
v -2172.25638122 2127.19422678 -783.85482556
v -2237.46712036 2198.69708184 -783.8548372
v -2237.46712036 2198.6973509 867.61619868
v -2172.25638122 2127.19449584 867.61621033
v -2094.00356889 2127.19449584 867.61621033
v -2159.21430802 2198.6973509 867.61619868
v 2150.83049444 2264.7217562 -814.34775416
v 2150.83049444 2264.72203389 890.1135372
v 2002.76352907 2264.72203389 890.1135372
v 1936.02018433 2198.6973509 867.61619868
v 2079.48386018 2198.6973509 867.61619868
v -2308.82171491 2264.72203389 890.1135372
v -2197.1405131 2312.15364633 -979.82451499
v 2039.14506372 2312.15364633 -979.82451499
v 2189.72101467 2312.15392845 751.80053782
v 2189.72101467 2312.15395298 902.37661315
v 2150.83049444 2264.72203389 890.1135372
v 2150.83049444 2264.72200977 742.04663402
v 2104.35580286 2312.15367058 -830.96910725
v 2104.35580286 2312.15392845 751.80053782
v -2347.71646405 2312.15392845 751.80053782
v -2347.71646405 2312.15367058 -830.96910725
v -2308.82171491 2264.7217562 -814.34775416
v -2308.82171491 2264.72200977 742.04663402
v -831.8782257 2312.15392845 751.80053782
v -2262.35125224 2312.15392845 751.80053782
v -2225.96548868 2264.72200977 742.04663402
v -819.33006395 2264.72200977 742.04663402
v 2189.72101467 2312.15367058 -830.96910725
v 2150.83049444 2264.7217562 -814.34775416
v 2189.72101467 2312.15395298 902.37661315
v 2039.14506372 2312.15395298 902.37661315
v -2347.71646405 2312.15395298 902.37661315
v -2308.82171491 2264.72203389 890.1135372
v -2262.35125224 2312.15367058 -830.96910725
v 2104.35580286 2312.15367058 -830.96910725
v 2067.97426821 2264.7217562 -814.34775416
v -2225.96548868 2264.7217562 -814.34775416
v -2262.35125224 2312.15367058 -830.96910725
v -2262.35125224 2312.15392845 751.80053782
v -2225.96548868 2264.72200977 742.04663402
v -2225.96548868 2264.7217562 -814.34775416
v -2308.82171491 2264.72173235 -960.72265926
v -2237.46712036 2198.69705873 -925.67918974
v -2225.96548868 2264.72200977 742.04663402
v -2225.96548868 2264.7217562 -814.34775416
v -2159.21430802 2198.69708184 -783.8548372
v -2159.21430802 2198.69732752 724.15258502
v -2159.21430802 2198.69732752 724.15258502
v -796.30988496 2198.69732752 724.15258502
v 2150.83049444 2264.72173235 -960.72265926
v 2079.48386018 2198.69705873 -925.67918974
v 2067.97426821 2264.7217562 -814.34775416
v -2225.96548868 2264.7217562 -814.34775416
v -2159.21430802 2198.69708184 -783.8548372
v 2001.23092347 2198.69708184 -783.8548372
v -2160.75474954 2264.72203389 890.1135372
v -2308.82171491 2264.72203389 890.1135372
v -2237.46712036 2198.6973509 867.61619868
v -2094.00356889 2198.6973509 867.61619868
v 662.9799081 2264.72200977 742.04663402
v 662.9799081 2264.72203389 890.1135372
v 639.91669377 2198.6973509 867.61619868
v 639.91669377 2198.69732752 724.15258502
v 2150.83049444 2264.72173235 -960.72265926
v 2001.23092347 2198.69708184 -783.8548372
v -2159.21430802 2198.69708184 -783.8548372
v -2225.96548868 2264.72200977 742.04663402
v -2160.75474954 2264.72203389 890.1135372
v 2067.97426821 2264.72200977 742.04663402
v 662.9799081 2264.72200977 742.04663402
v 639.91669377 2198.69732752 724.15258502
v 2001.23092347 2198.69732752 724.15258502
v 2067.97426821 2264.7217562 -814.34775416
v -2225.96548868 2264.7217562 -814.34775416
v 2039.14506372 2312.15395298 902.37661315
v 2189.72101467 2312.15395298 902.37661315
v 2189.72101467 2312.15392845 751.80053782
v 2104.35580286 2312.15392845 751.80053782
v 2189.72101467 2312.15364633 -979.82451499
v 2039.14506372 2312.15364633 -979.82451499
v 2104.35580286 2312.15367058 -830.96910725
v 2189.72101467 2312.15367058 -830.96910725
v -2347.71646405 2312.15364633 -979.82451499
v -2347.71646405 2312.15367058 -830.96910725
v -2262.35125224 2312.15367058 -830.96910725
v -2197.1405131 2312.15364633 -979.82451499
v -2347.71646405 2312.15392845 751.80053782
v -2347.71646405 2312.15395298 902.37661315
v -2197.1405131 2312.15395298 902.37661315
v -2262.35125224 2312.15392845 751.80053782
v -2262.35125224 2312.15392845 751.80053782
v -2262.35125224 2312.15395298 902.37661315
v 2104.35580286 2312.15395298 902.37661315
v 2104.35580286 2312.15392845 751.80053782
v -2262.35125224 2312.15367058 -830.96910725
v 2104.35580286 2312.15367058 -830.96910725
v 2039.14506372 2312.15395298 902.37661315
v 2104.35580286 2312.15392845 751.80053782
v 2067.97426821 2264.72200977 742.04663402
v 2002.76352907 2264.72203389 890.1135372
v -2347.71646405 2312.15364633 -979.82451499
v -2308.82171491 2264.72173235 -960.72265926
v 675.55145322 2312.15392845 751.80053782
v 675.55145322 2312.15395298 902.37661315
v -2347.71646405 2312.15364633 -979.82451499
v 2104.35580286 2312.15392845 751.80053782
v 675.55145322 2312.15392845 751.80053782
v -831.8782257 2312.15395298 902.37661315
v -831.8782257 2312.15392845 751.80053782
v 2189.72101467 2312.15364633 -979.82451499
v 2104.35580286 2312.15367058 -830.96910725
v -2262.35125224 2312.15367058 -830.96910725
v -2197.1405131 2312.15395298 902.37661315
v -2347.71646405 2312.15395298 902.37661315
v 2189.72101467 2312.15364633 -979.82451499
v 2150.83049444 2264.72173235 -960.72265926
v -2197.1405131 2312.15395298 902.37661315
v -2160.75474954 2264.72203389 890.1135372
v -2262.35125224 2312.15392845 751.80053782
v -2262.35125224 2312.15367058 -830.96910725
v 2104.35580286 2312.15367058 -830.96910725
v 2067.97426821 2264.7217562 -814.34775416
v 574.57237093 2202.02624216 838.59773453
v 574.57237093 -1514.98582639 838.5983401
v 1812.13087463 -1514.98582639 838.5983401
v 1812.13087463 2202.02624216 838.59773453
v -731.08795166 -1514.98582639 838.5983401
v -731.08795166 2202.02624216 838.59773453
v -1970.09199524 2202.02624216 838.59773453
v -1970.09199524 -1514.98582639 838.5983401
v -731.08795166 -1514.98582639 838.5983401
v -1970.09199524 -1514.98582639 838.5983401
v -1970.09199524 -1514.98583255 800.74429075
v -731.08795166 -1514.98583255 800.74429075
v 574.57237093 -1514.98582639 838.5983401
v 574.57237093 2202.02624216 838.59773453
v -1970.09199524 -1514.98582639 838.5983401
v -1970.09199524 2202.02624216 838.59773453
v -1970.09199524 2202.02623599 800.74368517
v -1970.09199524 -1514.98583255 800.74429075
v 574.57237093 2202.02624216 838.59773453
v 1812.13087463 2202.02624216 838.59773453
v 1812.13087463 2202.02623599 800.74368517
v 574.57237093 2202.02623599 800.74368517
v -1970.09199524 2202.02624216 838.59773453
v -731.08795166 2202.02624216 838.59773453
v -731.08795166 2202.02623599 800.74368517
v -1970.09199524 2202.02623599 800.74368517
v -731.08795166 2202.02624216 838.59773453
v -731.08795166 -1514.98582639 838.5983401
v 2013.06141484 2264.72203389 890.1135372
v -2171.05238656 2264.72203389 890.1135372
v -2106.0083161 2198.6973509 867.61619868
v 1948.02455841 2198.6973509 867.61619868
v 2048.51209246 2312.15395298 902.37661315
v -2206.50754184 2312.15395298 902.37661315
vn 0 0 1
vn 0 -0.99966 -0.02598
vn -0.99966 0 -0.02598
vn 0 0 -1
vn 0.99966 0 -0.02598
vn 0 0.99966 -0.02598
vn 0 -0.99966 -0.02598
vn -0.99966 0 -0.02598
vn 0.99966 0 -0.02598
vn 0 0.99966 -0.02598
vn 0 -1 0
vn 0 -0.99966 -0.02598
vn -0.99966 0 -0.02598
vn 0.99966 0 -0.02598
vn 0 0.99966 -0.02598
vn 0 -0.99966 -0.02598
vn -0.99966 0 -0.02598
vn 0.99966 0 -0.02598
vn 0 0.99966 -0.02598
vn -1 0 0
vn 0 1 0
vn 1 0 0
vn 0.07159 0 -0.99743
vn -0.02431 0 -0.9997
vn -0.0243 0 0.9997
vn -0.0243 0 0.9997
vn 0 0.04972 -0.99876
vn 0.07159 0 -0.99743
vn -0.0716 0 -0.99743
vn -0.0716 0 -0.99743
vn 0.02431 0 0.9997
vn -0.0176 0 -0.99985
vn 0.0243 0 0.9997
vn 0.0176 0 -0.99985
vn 0 0.03995 0.9992
vn 0 0.04972 -0.99876
vn 0 0.0346 0.9994
vn 0 -0.06172 0.99809
vn 0 -0.1017 -0.99482
vn 0.0243 0 -0.9997
vn 0 0.14543 -0.98937
vn 0 -0.04972 0.99876
vn -0.02431 0 -0.9997
vn 0.05088 0 0.9987
vn 0 0.0346 0.9994
vn -0.0176 0 0.99985
vn 0 -0.1017 -0.99482
vn 0 -0.04972 0.99876
vn 0 0.06172 -0.99809
vn 0 0.04972 -0.99876
vn 0.02431 0 0.9997
vn 0.05098 0 -0.9987
vn -0.05088 0 -0.9987
vn 0 -0.04972 0.99876
vn 0 0.14543 -0.98937
vn 0 -0.04972 0.99876
vn 0 -0.0346 -0.9994
vn 0 -0.0346 -0.9994
vn 0.0243 0 -0.9997
vn 0 0.0346 0.9994
vn 0.0243 0 -0.9997
vn 0 -0.1017 -0.99482
vn 0.0176 0 0.99985
vn -0.05098 0 0.9987
vn 0.07159 0 -0.99743
vn -0.02431 0 -0.9997
vn -0.0243 0 0.9997
vn 0 -0.03995 -0.9992
vn 0 -0.0346 -0.9994
vn -0.0716 0 -0.99743
vn 0 0.14543 -0.98937
vn 1 0 -0.0002
vn -0.67916 0 -0.73399
vn -0.63026 0.28196 0.72337
vn 0 0.88329 -0.46882
vn -0.94425 0 -0.32922
vn 0.6792 0 -0.73395
vn 0.70327 0 -0.71092
vn -0.67916 0 -0.73399
vn 0.73887 0 -0.67385
vn 0 1 0
vn 0.73887 0 -0.67385
vn -0.73887 0 -0.67385
vn -0.73887 0 -0.67385
vn 0 -1 0
vn 0.67921 0 -0.73395
vn 0 1 0
vn 0 -0.94656 -0.32253
vn -0.73887 0 -0.67385
vn 0.73887 0 -0.67385
vn -0.67916 0 -0.73399
vn 0 0.9276 -0.37357
vn 0.77329 0 -0.63405
vn 0.79347 0 -0.60861
vn -0.77326 0 -0.63409
vn 0 -0.9795 -0.20143
vn 0.7733 0 -0.63405
vn 0 -0.96817 -0.25031
vn -0.77326 0 -0.63409
vn 0 0.94373 -0.33071
vn 0.79343 0 0.60866
vn 0 0.88329 -0.46882
vn -0.70323 0 -0.71096
vn 0 -0.96518 -0.26158
vn 0 0.88329 -0.46882
vn 0 -0.90786 0.41928
vn 0 -0.94656 -0.32253
vn 0.94406 0 -0.32977
vn 0.6792 0 -0.73395
vn 0 0.90786 -0.41928
vn 0.63023 0.28194 0.72341
vn 0 -0.96518 -0.26158
vn -0.70327 0 0.71092
vn 0.70323 0 0.71096
vn -0.71707 0.31316 0.62269
vn -0.77326 0 -0.63408
vn 0.96662 0 -0.2562
vn 0 0.9276 -0.37356
vn 0 -0.9795 -0.20143
vn -0.96674 0 -0.25575
vn 0 0.9276 -0.37357
vn 0 -0.94373 0.33071
vn 0 -0.96817 -0.25031
vn 0.7733 0 -0.63404
vn 0.71704 0.31314 0.62273
vn -0.79343 0 -0.60866
vn -0.79347 0 0.60861
vn 0 -0.94656 -0.32253
vn 0 -0.96817 -0.25031
vt 0.76851 0.55301
vt 0.76851 0.54443
vt 0.77708 0.54443
vt 0.77708 0.55301
vt 0.81995 0.488
vt 0.81848 0.54439
vt 0.81284 0.54439
vt 0.81138 0.488
vt 0.8028 0.488
vt 0.80133 0.54443
vt 0.79569 0.54443
vt 0.79423 0.488
vt 0.79692 0.79735
vt 0.79692 0.80299
vt 0.79128 0.80299
vt 0.79128 0.79735
vt 0.77708 0.488
vt 0.77561 0.54443
vt 0.76997 0.54443
vt 0.76851 0.488
vt 0.36364 0.79731
vt 0.36217 0.85368
vt 0.35653 0.85368
vt 0.35506 0.79731
vt 0.77413 0.80592
vt 0.77413 0.79735
vt 0.7827 0.79735
vt 0.7827 0.80592
vt 0.82852 0.488
vt 0.82706 0.54439
vt 0.82142 0.54439
vt 0.0987 0.74926
vt 0.09723 0.80569
vt 0.09159 0.80569
vt 0.09012 0.74926
vt 0.67262 0.79772
vt 0.67262 0.80336
vt 0.66698 0.80336
vt 0.66698 0.79772
vt 0.78565 0.488
vt 0.78419 0.54443
vt 0.77855 0.54443
vt 0.77708 0.488
vt 0.84567 0.488
vt 0.8442 0.54436
vt 0.83856 0.54436
vt 0.8371 0.488
vt 0.24789 0.49247
vt 0.25647 0.49247
vt 0.25647 0.49673
vt 0.24789 0.49673
vt 0.255 0.55313
vt 0.24936 0.55313
vt 0.81138 0.488
vt 0.80991 0.54443
vt 0.80427 0.54443
vt 0.80256 0.79735
vt 0.80256 0.80299
vt 0.76851 0.4971
vt 0.76704 0.55353
vt 0.7614 0.55353
vt 0.75993 0.4971
vt 0.84577 0.79717
vt 0.8443 0.85353
vt 0.83866 0.85353
vt 0.83719 0.79717
vt 0.78565 0.55301
vt 0.78565 0.54443
vt 0.79423 0.54443
vt 0.79423 0.55301
vt 0.83563 0.54439
vt 0.82999 0.54439
vt 0.11834 0.75928
vt 0.11688 0.81571
vt 0.11124 0.81571
vt 0.10977 0.75928
vt 0.66698 0.79772
vt 0.66698 0.80336
vt 0.66134 0.80336
vt 0.66134 0.79772
vt 0.79423 0.488
vt 0.79276 0.54443
vt 0.78712 0.54443
vt 0.78565 0.488
vt 0.3747 0.7973
vt 0.37323 0.85366
vt 0.36759 0.85366
vt 0.36613 0.7973
vt 0.59042 0
vt 0.59889 0
vt 0.59889 0.24417
vt 0.59042 0.24417
vt 0.24789 0.26579
vt 0.24363 0.26579
vt 0.24363 0.25721
vt 0.24789 0.25721
vt 0.75993 0.49283
vt 0.76851 0.49283
vt 0.24789 0.24864
vt 0.25647 0.24864
vt 0.24363 0.00857
vt 0.24363 0
vt 0.24789 0
vt 0.24789 0.00857
vt 0.24789 0.5617
vt 0.24789 0.55313
vt 0.25637 0.55313
vt 0.25637 0.5617
vt 0.34649 0.81891
vt 0.25637 0.81891
vt 0.25637 0.81034
vt 0.34649 0.81034
vt 0.66134 0.4971
vt 0.66134 0.49283
vt 0.66981 0.49283
vt 0.66981 0.4971
vt 0.49172 0.24417
vt 0.5003 0.24417
vt 0.5003 0.24844
vt 0.49172 0.24844
vt 0.59889 0.24844
vt 0.59042 0.24844
vt 0.91864 0.55353
vt 0.91864 0.79717
vt 0.83719 0.55353
vt 0.5003 0
vt 0.35506 0.81891
vt 0.35506 0.81034
vt 0.78761 0.24383
vt 0.78761 0.24809
vt 0.77904 0.24809
vt 0.77904 0.24383
vt 0.42366 0.49247
vt 0.42366 0.49673
vt 0.34649 0.5617
vt 0.35506 0.5617
vt 0.35506 0.72889
vt 0.59889 0.16719
vt 0.59889 -0
vt 0.60747 -0
vt 0.60747 0.24864
vt 0.59889 0.24864
vt 0 0.55896
vt 0.09012 0.55896
vt 0.09012 0.80313
vt 0 0.80313
vt 0.24789 0.81034
vt 0.69759 0.24864
vt 0.69759 -0
vt 0.24789 0.24864
vt 0.24789 -0
vt 0.49172 0
vt 0.49172 0.24864
vt 0.24789 0.81891
vt 0.34649 0.55313
vt 0.66134 0.24864
vt 0.66981 0.24864
vt 0.75993 0.24864
vt 0.76851 0.24864
vt 0.66134 0.55353
vt 0.75146 0.55353
vt 0.75146 0.79772
vt 0.66134 0.79772
vt 0 0.26579
vt 0 0.25721
vt 0 0.00857
vt 0 0
vt 0.91864 0.79717
vt 0.91864 0.55353
vt 1 0.55353
vt 1 0.79717
vt 0.49172 0
vt 0.77904 0
vt 0.78761 0
vt 0.39257 0.55313
vt 0.40115 0.55313
vt 0.40115 0.79731
vt 0.39257 0.79731
vt 0.40839 0.74354
vt 0.41696 0.74354
vt 0.41696 0.82499
vt 0.40839 0.82499
vt 0.69759 0.24383
vt 0.69759 0
vt 0.36862 0.55313
vt 0.37719 0.55313
vt 0.37719 0.7973
vt 0.36862 0.7973
vt 0.11108 0.55896
vt 0.11108 0.64031
vt 0.10859 0.64031
vt 0.10859 0.55896
vt 0.10002 0.64031
vt 0.10002 0.55896
vt 0.77708 0.55301
vt 0.78565 0.55301
vt 0.7827 0.80592
vt 0.7827 0.79735
vt 0.79128 0.79735
vt 0.79128 0.80592
vt 0.79423 0.55301
vt 0.79423 0.54443
vt 0.8028 0.54443
vt 0.8028 0.55301
vt 0.42997 0.5645
vt 0.42997 0.55592
vt 0.43845 0.55592
vt 0.43845 0.56021
vt 0.52857 0.81314
vt 0.43845 0.81314
vt 0.43845 0.80885
vt 0.52857 0.80885
vt 0.53714 0.81314
vt 0.53714 0.80456
vt 0.52857 0.56021
vt 0.53714 0.5645
vt 0.42997 0.80456
vt 0.42997 0.81314
vt 0.52857 0.55592
vt 0.53211 0.82214
vt 0.43298 0.82214
vt 0.11078 0.27048
vt 0.12021 0.27048
vt 0.11582 0.27948
vt 0.10724 0.27948
vt 0.1311 0.54958
vt 0.12167 0.54958
vt 0.12607 0.54057
vt 0.13464 0.54057
vt 0.23956 0.54958
vt 0.23023 0.54958
vt 0.22476 0.54057
vt 0.23324 0.54057
vt 0.12021 0.27991
vt 0.11582 0.28805
vt 0.54154 0.82214
vt 0.42366 0.54692
vt 0.43298 0.54692
vt 0.53211 0.54692
vt 0.1311 0.26579
vt 0.23023 0.26579
vt 0.22476 0.27479
vt 0.13464 0.27479
vt 0.12167 0.54958
vt 0.2208 0.54958
vt 0.21726 0.56201
vt 0.12714 0.56201
vt 0.23956 0.26579
vt 0.23324 0.27479
vt 0.2208 0.82308
vt 0.12167 0.82308
vt 0.12714 0.81064
vt 0.21726 0.81064
vt 0.65741 0.54009
vt 0.65741 0.81359
vt 0.65194 0.80116
vt 0.65194 0.55252
vt 0.12021 0.36511
vt 0.11582 0.36941
vt 0.23956 0.27093
vt 0.23324 0.28336
vt 0.55828 0.62958
vt 0.55828 0.54009
vt 0.56182 0.55252
vt 0.56182 0.63387
vt 0.42366 0.55207
vt 0.01165 0.55427
vt 0.00233 0.55427
vt 0.00865 0.54526
vt 0.01712 0.54526
vt 0.54154 0.55207
vt 0.54154 0.81699
vt 0.12167 0.54443
vt 0.12607 0.532
vt 0.01165 0.27048
vt 0.01712 0.27948
vt 0.54885 0.62958
vt 0.55325 0.63387
vt 0.23956 0.54443
vt 0.23324 0.532
vt 0.55828 0.81359
vt 0.56182 0.80116
vt 0.42366 0.82214
vt 0.42366 0.81699
vt 0.12167 0.36042
vt 0.12167 0.27093
vt 0.12607 0.28336
vt 0.12607 0.36472
vt 0.2208 0.63907
vt 0.21726 0.64336
vt 0.12021 0.54483
vt 0.12021 0.55427
vt 0.11582 0.54526
vt 0.11582 0.53669
vt 0.12021 0.45953
vt 0.11582 0.45524
vt 0.12167 0.26579
vt 0.12607 0.27479
vt 0.23023 0.73348
vt 0.2208 0.73348
vt 0.21726 0.72919
vt 0.22584 0.72919
vt 0.23023 0.63907
vt 0.22584 0.64336
vt 0.12167 0.45484
vt 0.12607 0.45055
vt 0.00233 0.54483
vt 0.00865 0.53669
vt 0.00233 0.27991
vt 0.00865 0.28805
vt 0.55828 0.72399
vt 0.56182 0.71971
vt 0.11078 0.55427
vt 0.10724 0.54526
vt 0.54885 0.72399
vt 0.55325 0.71971
vt 0.00233 0.27048
vt 0.00865 0.27948
vt 0.54154 0.54692
vt 0.53714 0.55592
vt 0.93569 0.24864
vt 0.93569 0.49227
vt 0.85424 0.49227
vt 0.85424 0.24864
vt 0.35506 0.55313
vt 0.36364 0.55313
vt 0.36364 0.79731
vt 0.35506 0.79731
vt 0.24673 0.26579
vt 0.24673 0.50997
vt 0.24424 0.50997
vt 0.24424 0.26579
vt 0.69759 0.24809
vt 0.85003 0.79717
vt 0.85003 0.88291
vt 0.84577 0.8829
vt 0.54583 0.78683
vt 0.54583 0.7911
vt 0.54154 0.7911
vt 0.54154 0.78683
vt 0.83719 0.79308
vt 0.83719 0.79735
vt 0.75146 0.79735
vt 0.75146 0.79308
vt 0.24252 0.79373
vt 0.24252 0.78946
vt 0.2468 0.78946
vt 0.2468 0.79373
vt 0.76851 0.24864
vt 0.85424 0.24864
vt 0.85424 0.488
vt 0.76851 0.488
vt 0.2468 0.79373
vt 0.2468 0.87947
vt 0.24252 0.87947
vt 0.24252 0.79373
vt 0.24252 0.54958
vt 0.2468 0.54958
vt 0.54583 0.54692
vt 0.41828 0.63886
vt 0.41828 0.55313
vt 0.42257 0.55313
vt 0.42257 0.63886
vt 0.00962 0.55896
vt 0 0.55896
vt 0.54739 0.53999
vt 0.55712 0.5357
vt 0.54885 0.54437
vt 0.38039 0.83912
vt 0.38039 0.56542
vt 0.3849 0.5698
vt 0.3849 0.83473
vt 0.7622 0.80826
vt 0.7622 0.79852
vt 0.76659 0.79735
vt 0.76659 0.80678
vt 0.11194 0.26579
vt 0.12167 0.26579
vt 0.10322 0.74327
vt 0.10322 0.64095
vt 0.10772 0.64213
vt 0.10772 0.74126
vt 0.11194 0.55896
vt 0.54885 0.8093
vt 0.23783 0.835
vt 0.23783 0.82986
vt 0.24252 0.82557
vt 0.24252 0.83071
vt 0.24424 0.54529
vt 0.23956 0.54958
vt 0.23956 0.54443
vt 0.24424 0.54014
vt 0.10002 0.75379
vt 0.10002 0.74436
vt 0.10487 0.74436
vt 0.10487 0.75379
vt 0.23956 0.27093
vt 0.23956 0.26579
vt 0.24424 0.27007
vt 0.24424 0.27522
vt 0.10487 0.86225
vt 0.10002 0.86225
vt 0.10002 0.85293
vt 0.10487 0.85293
vt 0.41865 0.86132
vt 0.41865 0.85189
vt 0.42351 0.85189
vt 0.42351 0.86132
vt 0.41865 0.74343
vt 0.42351 0.74343
vt 0.42351 0.75276
vt 0.41865 0.75276
vt 0.23783 0.55121
vt 0.24252 0.5555
vt 0.24252 0.56064
vt 0.23783 0.55636
vt 0.00962 0.26579
vt 0.75462 0.81147
vt 0.75462 0.80173
vt 0.75905 0.79735
vt 0.75905 0.80678
vt 0.12167 0.55896
vt 0.37719 0.84151
vt 0.37719 0.56302
vt 0.54154 0.801
vt 0.54154 0.7911
vt 0.54475 0.7919
vt 0.54475 0.80164
vt 0.10002 0.74436
vt 0.10002 0.64031
vt 0.10487 0.8582
vt 0.10487 0.75415
vt 0.10809 0.75524
vt 0.10809 0.85755
vt 0.40839 0.7412
vt 0.40839 0.64716
vt 0.41154 0.64955
vt 0.41154 0.74202
vt 0.54154 0.90504
vt 0.54475 0.90395
vt 0.75146 0.81403
vt 0.75146 0.80413
vt 0.10487 0.86809
vt 0.10809 0.86729
vt 0.3849 0.84019
vt 0.3849 0.55313
vt 0.38809 0.55552
vt 0.38809 0.83779
vt 0.8532 0.91111
vt 0.85334 0.80707
vt 0.85637 0.80771
vt 0.85623 0.91003
vt 0.38039 0.84885
vt 0.3849 0.84416
vt 0.11429 0.66236
vt 0.11429 0.56005
vt 0.1188 0.56205
vt 0.1188 0.66119
vt 0.41595 0.65394
vt 0.41595 0.74354
vt 0.38039 0.55568
vt 0.3849 0.56037
vt 0.40419 0.83779
vt 0.40419 0.55552
vt 0.40839 0.55991
vt 0.40839 0.83341
vt 0.39574 0.8096
vt 0.39574 0.79987
vt 0.40016 0.80456
vt 0.40016 0.81399
vt 0.76974 0.80789
vt 0.76974 0.79815
vt 0.77413 0.79963
vt 0.77413 0.80906
vt -0 0.26579
vt 0.39257 0.5599
vt 0.39257 0.83341
vt 0.55712 0.81798
vt 0.54739 0.81369
vt 0.4191 0.74104
vt 0.4191 0.64868
vt 0.42351 0.64716
vt 0.42351 0.73665
vt 0.65944 0.5357
vt 0.65944 0.81798
vt 0.42366 0.25854
vt 0.42366 0.24864
vt 0.43356 0.24864
vt 0.43356 0.25425
vt 0.54739 0.24864
vt 0.54739 0.25854
vt 0.5376 0.25425
vt 0.5376 0.24864
vt 0.54739 0.54692
vt 0.5376 0.54692
vt 0.5376 0.54131
vt 0.54739 0.53702
vt 0.43356 0.54692
vt 0.42366 0.54692
vt 0.42366 0.53702
vt 0.43356 0.54131
vt 0.55729 0.5357
vt 0.54739 0.5357
vt 0.54739 0.24864
vt 0.55729 0.24864
vt 0.66134 0.5357
vt 0.66134 0.24864
vt 0.8532 0.79717
vt 0.85305 0.80707
vt 0.85003 0.80771
vt 0.85018 0.79798
vt 0.10809 0.74562
vt 0.76659 0.80725
vt 0.76659 0.79735
vt 0.37719 0.85141
vt 0.41595 0.74343
vt 0.41595 0.64951
vt 0.75905 0.80906
vt 0.75905 0.79916
vt 0.37719 0.55313
vt 0.40115 0.84019
vt 0.40115 0.55313
vt 0.39257 0.80721
vt 0.39257 0.79731
vt 0.54154 0.91483
vt 0.54475 0.91357
vt 0.8532 0.79717
vt 0.85623 0.79798
vt 0.11108 0.66301
vt 0.11108 0.55896
vt 0.8532 0.91111
vt 0.85018 0.91003
vt 0.95042 0
vt 0.95042 0.24383
vt 0.86906 0.24383
vt 0.86906 0
vt 0.78761 0.24383
vt 0.09987 0.65288
vt 0.09987 0.73433
vt 0.09738 0.73433
vt 0.09738 0.65288
vt 0.36613 0.55313
vt 0.1188 0.80313
vt 0.1188 0.55896
vt 0.12128 0.55896
vt 0.12128 0.80313
vt 0.54475 0.87245
vt 0.54475 0.7911
vt 0.54724 0.7911
vt 0.54724 0.87245
vt 0.10772 0.72176
vt 0.10772 0.64031
vt 0.11021 0.64031
vt 0.11021 0.72176
vt 0.36613 0.55313
vt 0.36613 0.79731
vt 0.2334 0.83424
vt 0.2334 0.55197
vt 0.23023 0.83664
vt 0.23023 0.54958
usemtl mat0
f 1/1/1 2/2/1 3/3/1
f 3/3/1 4/4/1 1/1/1
f 5/5/2 6/6/2 7/7/2
f 7/7/2 8/8/2 5/5/2
f 9/9/3 10/10/3 11/11/3
f 11/11/3 12/12/3 9/9/3
f 13/13/4 14/14/4 15/15/4
f 15/15/4 16/16/4 13/13/4
f 17/17/5 18/18/5 19/19/5
f 19/19/5 20/20/5 17/17/5
f 21/21/6 22/22/6 23/23/6
f 23/23/6 24/24/6 21/21/6
f 25/25/1 26/26/1 27/27/1
f 27/27/1 28/28/1 25/25/1
f 29/29/7 30/30/7 31/31/7
f 31/31/7 32/5/7 29/29/7
f 33/32/8 34/33/8 35/34/8
f 35/34/8 36/35/8 33/32/8
f 37/36/4 38/37/4 39/38/4
f 39/38/4 40/39/4 37/36/4
f 41/40/9 42/41/9 43/42/9
f 43/42/9 44/43/9 41/40/9
f 45/44/10 46/45/10 47/46/10
f 47/46/10 48/47/10 45/44/10
f 49/48/11 50/49/11 51/50/11
f 51/50/11 52/51/11 49/48/11
f 51/50/12 53/52/12 54/53/12
f 54/53/12 52/51/12 51/50/12
f 55/54/13 56/55/13 57/56/13
f 57/56/13 58/9/13 55/54/13
f 59/57/4 60/58/4 61/14/4
f 61/14/4 62/13/4 59/57/4
f 63/59/14 64/60/14 65/61/14
f 65/61/14 66/62/14 63/59/14
f 67/63/15 68/64/15 69/65/15
f 69/65/15 70/66/15 67/63/15
f 71/67/1 72/68/1 73/69/1
f 73/69/1 74/70/1 71/67/1
f 75/47/16 76/71/16 77/72/16
f 77/72/16 78/29/16 75/47/16
f 79/73/17 80/74/17 81/75/17
f 81/75/17 82/76/17 79/73/17
f 83/77/4 84/78/4 85/79/4
f 85/79/4 86/80/4 83/77/4
f 87/81/18 88/82/18 89/83/18
f 89/83/18 90/84/18 87/81/18
f 91/85/19 92/86/19 93/87/19
f 93/87/19 94/88/19 91/85/19
f 95/89/20 96/90/20 97/91/20
f 97/91/20 98/92/20 95/89/20
f 99/93/21 100/94/21 101/95/21
f 101/95/21 102/96/21 99/93/21
f 103/97/22 104/98/22 63/59/22
f 63/59/22 66/62/22 103/97/22
f 105/99/11 106/100/11 50/49/11
f 50/49/11 49/48/11 105/99/11
f 107/101/21 108/102/21 109/103/21
f 109/103/21 110/104/21 107/101/21
f 111/105/4 112/106/4 113/107/4
f 113/107/4 114/108/4 111/105/4
f 115/109/4 116/110/4 117/111/4
f 117/111/4 118/112/4 115/109/4
f 119/113/22 120/114/22 121/115/22
f 121/115/22 122/116/22 119/113/22
f 123/117/20 124/118/20 125/119/20
f 125/119/20 126/120/20 123/117/20
f 97/91/20 127/121/20 128/122/20
f 128/122/20 98/92/20 97/91/20
f 129/123/21 130/124/21 131/66/21
f 131/66/21 132/125/21 129/123/21
f 133/126/20 95/89/20 98/92/20
f 98/92/20 124/118/20 133/126/20
f 134/127/4 115/109/4 118/112/4
f 118/112/4 135/128/4 134/127/4
f 136/129/11 137/130/11 138/131/11
f 138/131/11 139/132/11 136/129/11
f 140/133/11 141/134/11 51/50/11
f 51/50/11 50/49/11 140/133/11
f 135/128/4 118/112/4 142/135/4
f 142/135/4 143/136/4 144/137/4
f 144/137/4 135/128/4 142/135/4
f 145/138/1 146/139/1 147/140/1
f 147/140/1 148/141/1 149/142/1
f 149/142/1 145/138/1 147/140/1
f 150/143/20 151/144/20 152/145/20
f 152/145/20 153/146/20 150/143/20
f 118/112/4 117/111/4 114/108/4
f 114/108/4 142/135/4 118/112/4
f 102/96/21 101/95/21 107/101/21
f 107/101/21 110/104/21 102/96/21
f 117/111/4 154/147/4 111/105/4
f 111/105/4 114/108/4 117/111/4
f 155/148/1 148/141/1 147/140/1
f 147/140/1 156/149/1 155/148/1
f 157/150/11 158/151/11 159/152/11
f 159/152/11 160/153/11 157/150/11
f 98/92/20 128/122/20 125/119/20
f 125/119/20 124/118/20 98/92/20
f 122/116/22 121/115/22 103/97/22
f 103/97/22 66/62/22 122/116/22
f 116/110/4 161/154/4 154/147/4
f 154/147/4 117/111/4 116/110/4
f 114/108/4 113/107/4 162/155/4
f 162/155/4 142/135/4 114/108/4
f 163/156/22 164/157/22 121/115/22
f 121/115/22 120/114/22 163/156/22
f 165/158/22 166/159/22 104/98/22
f 104/98/22 103/97/22 165/158/22
f 167/160/22 168/161/22 169/162/22
f 169/162/22 170/163/22 167/160/22
f 171/164/21 172/165/21 101/95/21
f 101/95/21 100/94/21 171/164/21
f 173/166/21 174/167/21 108/102/21
f 108/102/21 107/101/21 173/166/21
f 172/165/21 173/166/21 107/101/21
f 107/101/21 101/95/21 172/165/21
f 175/168/21 176/169/21 177/170/21
f 177/170/21 178/171/21 175/168/21
f 179/172/20 133/126/20 124/118/20
f 124/118/20 123/117/20 179/172/20
f 180/173/11 181/174/11 136/129/11
f 136/129/11 139/132/11 180/173/11
f 164/157/22 165/158/22 103/97/22
f 103/97/22 121/115/22 164/157/22
f 182/175/22 183/176/22 184/177/22
f 184/177/22 185/178/22 182/175/22
f 186/179/4 187/180/4 188/181/4
f 188/181/4 189/182/4 186/179/4
f 190/183/11 191/184/11 180/173/11
f 180/173/11 139/132/11 190/183/11
f 192/185/20 193/186/20 194/187/20
f 194/187/20 195/188/20 192/185/20
f 196/189/4 197/190/4 198/191/4
f 198/191/4 199/192/4 196/189/4
f 198/191/4 200/193/4 201/194/4
f 201/194/4 199/192/4 198/191/4
f 202/195/1 203/3/1 204/68/1
f 204/68/1 205/196/1 202/195/1
f 206/197/1 207/198/1 208/199/1
f 208/199/1 209/200/1 206/197/1
f 210/201/1 211/202/1 212/203/1
f 212/203/1 213/204/1 210/201/1
f 214/205/4 215/206/4 216/207/4
f 216/207/4 217/208/4 214/205/4
f 218/209/4 219/210/4 220/211/4
f 220/211/4 221/212/4 218/209/4
f 222/213/4 218/209/4 221/212/4
f 221/212/4 223/214/4 222/213/4
f 223/214/4 221/212/4 224/215/4
f 224/215/4 225/216/4 223/214/4
f 221/212/4 220/211/4 217/208/4
f 217/208/4 224/215/4 221/212/4
f 220/211/4 226/217/4 214/205/4
f 214/205/4 217/208/4 220/211/4
f 219/210/4 227/218/4 226/217/4
f 226/217/4 220/211/4 219/210/4
f 217/208/4 216/207/4 228/219/4
f 228/219/4 224/215/4 217/208/4
f 229/220/23 230/221/23 219/210/23
f 219/210/23 218/209/23 229/220/23
f 231/222/24 232/223/24 233/224/24
f 233/224/24 234/225/24 231/222/24
f 235/226/25 236/227/25 237/228/25
f 237/228/25 238/229/25 235/226/25
f 239/230/26 240/231/26 241/232/26
f 241/232/26 242/233/26 239/230/26
f 232/223/27 243/234/27 244/235/27
f 244/235/27 233/224/27 232/223/27
f 245/236/28 229/220/28 218/209/28
f 218/209/28 222/213/28 245/236/28
f 246/237/29 247/238/29 216/207/29
f 216/207/29 215/206/29 246/237/29
f 247/238/30 248/239/30 228/219/30
f 228/219/30 216/207/30 247/238/30
f 249/240/31 250/241/31 251/242/31
f 251/242/31 252/243/31 249/240/31
f 253/244/32 254/245/32 255/246/32
f 255/246/32 256/247/32 253/244/32
f 250/241/33 257/248/33 258/249/33
f 258/249/33 251/242/33 250/241/33
f 259/250/34 260/251/34 261/252/34
f 261/252/34 262/253/34 259/250/34
f 263/254/35 264/255/35 265/256/35
f 265/256/35 266/257/35 263/254/35
f 243/234/36 267/258/36 268/259/36
f 268/259/36 244/235/36 243/234/36
f 257/248/37 269/260/37 270/261/37
f 270/261/37 258/249/37 257/248/37
f 271/262/38 272/263/38 273/264/38
f 273/264/38 274/265/38 271/262/38
f 275/266/39 246/237/39 215/206/39
f 215/206/39 214/205/39 275/266/39
f 276/267/40 277/268/40 278/269/40
f 278/269/40 279/270/40 276/267/40
f 280/271/41 281/272/41 223/214/41
f 223/214/41 225/216/41 280/271/41
f 236/227/42 282/273/42 283/274/42
f 283/274/42 237/228/42 236/227/42
f 284/275/43 231/222/43 234/225/43
f 234/225/43 285/276/43 284/275/43
f 286/277/44 271/262/44 274/265/44
f 274/265/44 287/278/44 286/277/44
f 288/279/45 239/230/45 242/233/45
f 242/233/45 289/280/45 288/279/45
f 264/255/46 290/281/46 291/282/46
f 291/282/46 265/256/46 264/255/46
f 292/283/47 293/284/47 226/217/47
f 226/217/47 227/218/47 292/283/47
f 294/285/48 295/286/48 296/287/48
f 296/287/48 297/288/48 294/285/48
f 254/245/49 298/289/49 299/290/49
f 299/290/49 255/246/49 254/245/49
f 300/291/36 301/292/36 302/293/36
f 302/293/36 303/294/36 300/291/36
f 304/295/50 300/291/50 303/294/50
f 303/294/50 305/296/50 304/295/50
f 306/297/51 249/240/51 252/243/51
f 252/243/51 307/298/51 306/297/51
f 308/299/52 309/300/52 310/301/52
f 310/301/52 311/302/52 308/299/52
f 298/289/53 312/303/53 313/304/53
f 313/304/53 299/290/53 298/289/53
f 295/286/54 306/297/54 307/298/54
f 307/298/54 296/287/54 295/286/54
f 281/272/55 245/236/55 222/213/55
f 222/213/55 223/214/55 281/272/55
f 282/273/56 314/305/56 315/306/56
f 315/306/56 283/274/56 282/273/56
f 277/268/57 316/307/57 317/308/57
f 317/308/57 278/269/57 277/268/57
f 309/300/49 259/250/49 262/253/49
f 262/253/49 310/301/49 309/300/49
f 316/307/58 318/309/58 319/310/58
f 319/310/58 317/308/58 316/307/58
f 290/281/38 320/311/38 321/312/38
f 321/312/38 291/282/38 290/281/38
f 322/313/59 276/267/59 279/270/59
f 279/270/59 323/314/59 322/313/59
f 269/260/60 288/279/60 289/280/60
f 289/280/60 270/261/60 269/260/60
f 301/292/61 322/313/61 323/314/61
f 323/314/61 302/293/61 301/292/61
f 293/284/62 275/266/62 214/205/62
f 214/205/62 226/217/62 293/284/62
f 272/263/63 263/254/63 266/257/63
f 266/257/63 273/264/63 272/263/63
f 320/311/64 324/315/64 325/316/64
f 325/316/64 321/312/64 320/311/64
f 230/221/65 292/283/65 227/218/65
f 227/218/65 219/210/65 230/221/65
f 326/317/66 284/275/66 285/276/66
f 285/276/66 327/318/66 326/317/66
f 240/231/67 235/226/67 238/229/67
f 238/229/67 241/232/67 240/231/67
f 260/251/68 253/244/68 256/247/68
f 256/247/68 261/252/68 260/251/68
f 318/309/69 326/317/69 327/318/69
f 327/318/69 319/310/69 318/309/69
f 248/239/70 328/319/70 329/320/70
f 329/320/70 228/219/70 248/239/70
f 328/319/71 280/271/71 225/216/71
f 225/216/71 329/320/71 328/319/71
f 330/321/21 331/322/21 332/323/21
f 332/323/21 333/324/21 330/321/21
f 334/325/22 335/326/22 336/327/22
f 336/327/22 337/328/22 334/325/22
f 338/329/22 339/330/22 340/331/22
f 340/331/22 341/332/22 338/329/22
f 342/333/11 190/183/11 139/132/11
f 139/132/11 138/131/11 342/333/11
f 343/63/21 344/334/21 345/335/21
f 345/335/21 346/336/21 343/63/21
f 347/337/72 348/338/72 349/339/72
f 349/339/72 350/340/72 347/337/72
f 351/341/11 352/342/11 353/343/11
f 353/343/11 354/344/11 351/341/11
f 355/345/20 356/346/20 357/347/20
f 357/347/20 358/348/20 355/345/20
f 359/349/21 360/350/21 361/351/21
f 361/351/21 362/352/21 359/349/21
f 363/353/4 364/354/4 365/355/4
f 365/355/4 366/356/4 363/353/4
f 367/357/20 368/358/20 357/347/20
f 357/347/20 356/346/20 367/357/20
f 369/319/22 370/359/22 347/337/22
f 347/337/22 350/340/22 369/319/22
f 371/161/11 372/125/11 351/341/11
f 351/341/11 354/344/11 371/161/11
f 373/360/1 374/361/1 375/362/1
f 375/362/1 376/363/1 373/360/1
f 377/364/73 378/365/73 277/268/73
f 277/268/73 276/267/73 377/364/73
f 379/366/74 380/367/74 272/263/74
f 272/263/74 381/368/74 379/366/74
f 382/369/75 383/370/75 384/371/75
f 384/371/75 385/372/75 382/369/75
f 386/373/76 387/374/76 388/375/76
f 388/375/76 389/376/76 386/373/76
f 390/377/77 391/378/77 232/223/77
f 232/223/77 231/222/77 390/377/77
f 392/379/78 393/380/78 394/381/78
f 394/381/78 395/382/78 392/379/78
f 396/383/79 377/364/79 276/267/79
f 276/267/79 322/313/79 396/383/79
f 324/315/1 320/311/1 290/281/1
f 290/281/1 397/384/1 324/315/1
f 271/262/1 286/277/1 381/368/1
f 381/368/1 272/263/1 271/262/1
f 398/385/11 399/386/11 400/387/11
f 400/387/11 401/388/11 398/385/11
f 402/389/21 403/390/21 404/391/21
f 404/391/21 405/392/21 402/389/21
f 406/393/80 407/394/80 408/395/80
f 408/395/80 409/396/80 406/393/80
f 410/397/81 411/398/81 412/399/81
f 412/399/81 413/400/81 410/397/81
f 414/401/82 415/402/82 416/403/82
f 416/403/82 417/404/82 414/401/82
f 418/405/83 419/406/83 420/407/83
f 420/407/83 421/408/83 418/405/83
f 422/409/84 423/410/84 424/411/84
f 424/411/84 425/412/84 422/409/84
f 426/413/11 427/414/11 428/415/11
f 428/415/11 429/416/11 426/413/11
f 429/416/85 428/415/85 400/387/85
f 400/387/85 399/386/85 429/416/85
f 430/417/86 390/377/86 231/222/86
f 231/222/86 284/275/86 430/417/86
f 405/392/87 404/391/87 410/397/87
f 410/397/87 413/400/87 405/392/87
f 431/418/88 432/419/88 433/420/88
f 433/420/88 434/421/88 431/418/88
f 425/412/89 424/411/89 420/407/89
f 420/407/89 419/406/89 425/412/89
f 417/404/90 416/403/90 406/393/90
f 406/393/90 409/396/90 417/404/90
f 435/422/91 396/383/91 322/313/91
f 322/313/91 301/292/91 435/422/91
f 436/423/92 437/424/92 383/370/92
f 383/370/92 382/369/92 436/423/92
f 438/425/93 439/426/93 440/427/93
f 440/427/93 441/428/93 438/425/93
f 442/429/94 443/430/94 393/380/94
f 393/380/94 392/379/94 442/429/94
f 444/431/95 445/432/95 446/433/95
f 446/433/95 447/434/95 444/431/95
f 448/435/96 449/436/96 450/437/96
f 450/437/96 451/438/96 448/435/96
f 452/439/97 438/425/97 441/428/97
f 441/428/97 453/440/97 452/439/97
f 454/441/98 455/442/98 432/419/98
f 432/419/98 431/418/98 454/441/98
f 456/443/99 444/431/99 447/434/99
f 447/434/99 457/444/99 456/443/99
f 458/445/100 459/446/100 460/447/100
f 460/447/100 461/448/100 458/445/100
f 462/449/101 463/450/101 464/451/101
f 464/451/101 465/452/101 462/449/101
f 466/453/102 382/369/102 385/372/102
f 385/372/102 467/454/102 466/453/102
f 468/455/103 469/456/103 470/457/103
f 470/457/103 471/458/103 468/455/103
f 451/438/104 450/437/104 472/459/104
f 472/459/104 473/460/104 451/438/104
f 383/370/105 474/461/105 475/462/105
f 475/462/105 384/371/105 383/370/105
f 476/463/106 477/464/106 478/465/106
f 478/465/106 479/466/106 476/463/106
f 480/467/107 481/468/107 482/469/107
f 482/469/107 483/470/107 480/467/107
f 484/471/108 485/472/108 486/473/108
f 486/473/108 487/474/108 484/471/108
f 488/475/109 430/417/109 284/275/109
f 284/275/109 326/317/109 488/475/109
f 461/448/110 460/447/110 489/476/110
f 489/476/110 490/477/110 461/448/110
f 491/478/111 492/479/111 397/384/111
f 397/384/111 290/281/111 491/478/111
f 493/480/112 494/481/112 495/482/112
f 495/482/112 496/483/112 493/480/112
f 380/367/113 497/484/113 263/254/113
f 263/254/113 272/263/113 380/367/113
f 498/485/114 491/478/114 290/281/114
f 290/281/114 264/255/114 498/485/114
f 499/486/1 500/487/1 501/488/1
f 501/488/1 502/489/1 499/486/1
f 503/490/1 504/491/1 505/492/1
f 505/492/1 506/493/1 503/490/1
f 507/494/1 508/495/1 509/496/1
f 509/496/1 510/497/1 507/494/1
f 511/498/1 512/499/1 513/500/1
f 513/500/1 514/501/1 511/498/1
f 510/497/1 509/496/1 505/492/1
f 505/492/1 504/491/1 510/497/1
f 508/495/1 511/498/1 514/501/1
f 514/501/1 509/496/1 508/495/1
f 506/493/1 505/492/1 502/489/1
f 502/489/1 501/488/1 506/493/1
f 515/502/1 516/503/1 517/504/1
f 517/504/1 518/505/1 515/502/1
f 519/506/1 515/502/1 518/505/1
f 518/505/1 520/507/1 519/506/1
f 521/508/115 522/509/115 523/510/115
f 523/510/115 524/511/115 521/508/115
f 445/432/116 525/395/116 526/512/116
f 526/512/116 446/433/116 445/432/116
f 527/513/117 528/514/117 485/472/117
f 485/472/117 484/471/117 527/513/117
f 529/515/118 436/423/118 382/369/118
f 382/369/118 466/453/118 529/515/118
f 530/516/119 531/517/119 494/481/119
f 494/481/119 493/480/119 530/516/119
f 532/518/120 533/519/120 387/374/120
f 387/374/120 386/373/120 532/518/120
f 437/424/121 534/520/121 474/461/121
f 474/461/121 383/370/121 437/424/121
f 535/521/122 536/522/122 477/464/122
f 477/464/122 476/463/122 535/521/122
f 537/523/123 538/524/123 481/468/123
f 481/468/123 480/467/123 537/523/123
f 539/525/124 452/439/124 453/440/124
f 453/440/124 540/526/124 539/525/124
f 463/450/125 541/527/125 542/528/125
f 542/528/125 464/451/125 463/450/125
f 543/529/126 544/530/126 469/456/126
f 469/456/126 468/455/126 543/529/126
f 522/509/127 545/531/127 546/532/127
f 546/532/127 523/510/127 522/509/127
f 547/533/11 548/534/11 549/535/11
f 549/535/11 550/536/11 547/533/11
f 551/537/11 552/174/11 553/536/11
f 553/536/11 554/535/11 551/537/11
f 555/538/4 556/539/4 557/540/4
f 557/540/4 558/541/4 555/538/4
f 559/88/20 560/542/20 192/185/20
f 192/185/20 195/188/20 559/88/20
f 561/543/20 562/544/20 563/545/20
f 563/545/20 564/546/20 561/543/20
f 565/547/1 566/548/1 567/549/1
f 567/549/1 568/550/1 565/547/1
f 569/551/1 570/552/1 571/553/1
f 571/553/1 572/554/1 569/551/1
f 573/555/22 574/556/22 336/327/22
f 336/327/22 335/326/22 573/555/22
f 575/557/128 576/558/128 577/416/128
f 577/416/128 578/386/128 575/557/128
f 579/559/129 580/560/129 576/558/129
f 576/558/129 575/557/129 579/559/129
# Vertices: 580, normals: 129, texture coordinates: 560, faces: 448

