# Blender 5.1.1
# www.blender.org
mtllib cadeira quebrada.mtl
o Plane.003
v 3.417927 3.917291 -0.357737
v -4.586001 3.916296 -0.455073
v 3.417925 -3.899416 -0.277690
v -4.586002 -3.900412 -0.375026
v 3.552133 -4.036366 0.628941
v 3.552135 4.072779 0.545899
v -4.742184 4.071748 0.445031
v -4.742185 -4.037398 0.528073
v 3.785915 -4.263378 -0.288158
v 3.785916 4.280961 -0.375657
v -4.953537 4.279874 -0.481938
v -4.953538 -4.264464 -0.394439
v 3.611617 -4.092637 -0.508388
v 3.611618 4.105746 -0.592344
v -4.773977 4.104703 -0.694322
v -4.773978 -4.093679 -0.610366
v 3.420783 -3.901823 -0.512663
v 3.420784 3.914885 -0.592711
v -4.583144 3.913890 -0.690047
v -4.583145 -3.902818 -0.609999
v 1.877961 -3.720127 11.168984
v 1.877961 -2.382198 11.155283
v 2.905949 -3.719999 11.181486
v 2.905949 -2.382070 11.167785
v -4.387952 -3.603547 0.333805
v -4.387952 -2.343614 0.320903
v -3.128044 -3.603391 0.349127
v -3.128044 -2.343457 0.336224
v -4.387951 2.453168 0.271781
v -4.387951 3.713102 0.258879
v -3.128044 2.453325 0.287103
v -3.128043 3.713259 0.274200
v 3.744138 -2.631833 10.774012
v 3.323570 -1.822122 12.318484
v 3.644543 -3.767755 11.342415
v 3.223976 -2.958044 12.886887
v 4.036733 -2.279629 7.383059
v 4.049359 -2.429741 9.170575
v 3.995823 -3.548626 7.276781
v 4.008449 -3.698738 9.064297
v 4.072063 -2.060155 3.758726
v 3.676589 -2.287899 5.493559
v 4.090819 -3.323820 3.597111
v 3.695345 -3.551565 5.331944
v 3.233844 3.645731 -6.319813
v 3.218522 3.658633 -5.059973
v 3.233844 2.385798 -6.306911
v 3.218521 2.398699 -5.047071
v 1.973937 3.645575 -6.335135
v 1.958614 3.658476 -5.075294
v 1.973937 2.385641 -6.322233
v 1.958614 2.398542 -5.062392
v 2.777513 2.560348 -2.735742
v 2.767132 2.569089 -1.882181
v 2.777512 -2.412143 -2.684821
v 2.767131 -2.403402 -1.831260
v 2.343243 2.560294 -2.741023
v 2.332862 2.569035 -1.887462
v 2.343242 -2.412197 -2.690102
v 2.332861 -2.403456 -1.836541
v -3.553235 2.559561 -2.812730
v -3.563616 2.568302 -1.959170
v -3.553236 -2.412930 -2.761809
v -3.563617 -2.404189 -1.908249
v -3.987505 2.559507 -2.818012
v -3.997886 2.568248 -1.964451
v -3.987506 -2.412984 -2.767091
v -3.997887 -2.404243 -1.913530
v 2.010653 -3.308572 -2.684968
v 2.000271 -3.299831 -1.831407
v -3.091192 -3.309206 -2.747011
v -3.101573 -3.300466 -1.893451
v 2.010653 -2.874292 -2.689415
v 2.000271 -2.865551 -1.835854
v -3.091192 -2.874927 -2.751459
v -3.101573 -2.866186 -1.897898
v 2.010653 3.022308 -2.749799
v 2.000271 3.031049 -1.896239
v -3.017436 2.762639 -2.811843
v -3.029407 2.769032 -1.958283
v 2.010653 3.456586 -2.754246
v 2.000272 3.465327 -1.900686
v -3.107648 3.187444 -2.816290
v -3.119618 3.193839 -1.962730
v 0.143762 -3.902484 10.459767
v 0.258485 -2.765980 9.895179
v -0.381882 -3.096818 11.977746
v -0.298581 -1.961522 11.405236
v 1.988681 -2.436027 -5.192281
v 1.988861 -2.436115 -5.218903
v 3.196137 -2.436499 -5.366394
v 3.196513 -3.714494 -5.374740
v 1.989427 -3.714678 -5.289376
v 7.069077 -3.694324 -8.530470
v 7.069077 -2.434390 -8.543373
v 6.270962 -3.704308 -9.505413
v 2.369132 -3.724779 -6.275789
v 2.304756 -2.446526 -6.235598
v 6.270962 -2.444374 -9.518316
v 3.210419 -3.714815 -5.406031
v 2.284247 -2.446537 -6.218622
v 3.193759 -2.436901 -5.405629
v -1.148536 -3.386963 7.326694
v -0.972297 -3.542216 9.112622
v -0.621123 -2.133254 7.428253
v -0.895378 -2.274351 9.218553
v 4.036547 -2.282456 7.391649
v 3.995636 -3.551452 7.285370
v 2.030829 -0.189806 7.028395
v 3.482400 3.880291 7.294663
v 2.282062 4.306897 7.317394
v 0.993696 0.694412 7.081063
v -0.311729 -1.998449 2.767494
v -0.707203 -2.226193 4.502327
v -0.292973 -3.262115 2.605879
v -0.688447 -3.489859 4.340713
v -3.033132 3.633344 -7.529538
v -3.030986 2.371603 -7.693104
v -4.292079 2.372445 -7.610902
v -4.296055 3.635727 -7.296864
v -2.292003 -0.307758 -7.366593
v -2.330503 -0.443035 -8.618719
v -3.505501 -0.638942 -7.293499
v -4.276292 2.124662 -7.568373
v -4.402237 2.302911 -8.851685
v -3.544001 -0.774220 -8.545627
v -3.036710 2.362324 -7.632165
v -3.122409 2.396274 -8.901123
v 3.229704 3.667463 -7.341485
v 3.229790 2.396308 -7.333344
v 2.002038 2.398450 -7.213994
v 2.002146 3.669662 -7.242907
v 3.283639 1.526647 -10.318220
v 3.283639 2.740310 -10.656778
v 2.023731 1.522530 -10.332979
v 2.002039 2.404238 -7.253881
v 2.002147 3.624650 -7.610822
v 2.023731 2.736193 -10.671537
v 3.229790 2.371278 -7.368610
v 3.229705 3.597013 -7.705472
v -0.522223 3.292844 -2.780821
v -0.534194 3.299238 -1.927261
v -0.612435 3.717650 -2.785268
v -0.624405 3.724044 -1.931708
v -0.056503 3.601966 -2.768661
v 2.407580 2.942046 -2.737639
v 2.399815 2.953176 -1.884079
v 0.048131 4.032578 -1.919548
v 2.512215 3.372657 -1.888526
v 2.519979 3.361527 -2.742086
v -0.064269 3.613097 -1.915100
v 0.055896 4.021448 -2.773108
v -4.322491 -3.658665 -5.048464
v -3.062583 -2.398574 -5.046045
v -4.322491 -2.398731 -5.061366
v -3.062583 -3.658508 -5.033142
v -4.184412 -3.668904 -5.567963
v -4.178663 -2.408970 -5.579514
v -3.063292 -3.668747 -4.992904
v -3.057544 -2.408814 -5.004455
v 3.067827 3.858524 1.880218
v 3.067870 2.553982 1.891139
v 1.940000 2.554989 1.944563
v 1.940054 3.859560 1.923256
v -2.956096 -3.696463 -7.962647
v -2.950347 -2.436529 -7.974198
v -1.834976 -3.696306 -7.387589
v -1.829227 -2.436372 -7.399140
v -1.224287 -3.734104 -10.300026
v -1.227308 -2.474170 -10.312569
v -2.452755 -3.734260 -10.019905
v -1.854426 -3.706701 -7.395923
v -1.857447 -2.446768 -7.408467
v -2.455775 -2.474327 -10.032447
v -0.625958 -3.706545 -7.676044
v -0.628979 -2.446611 -7.688589
v 3.067827 3.845028 2.110476
v 2.905950 2.427260 11.224541
v 1.877962 2.429312 11.212209
v 1.877962 1.109439 10.992706
v 2.905950 1.107388 11.005040
v 2.436130 2.327311 10.905784
v 1.534788 2.576995 11.332580
v 1.039254 1.384028 10.983983
v 1.940597 1.134344 10.557184
v 2.644674 2.829366 11.052489
v 2.149140 1.636399 10.703892
v 1.743331 3.079051 11.479286
v 1.247797 1.886084 11.130689
v 0.777205 -1.706097 9.454244
v 3.081132 3.840459 11.075009
v 3.631611 3.154896 12.638621
v 0.256579 -1.971617 11.579111
v 2.514563 3.464334 13.167557
v 1.964084 4.149898 11.603945
v -0.334061 -1.382739 9.987248
v 1.379855 -2.266062 11.054556
v 2.030829 -0.189806 7.028395
v 3.482400 3.880291 7.294663
v 3.475546 3.765622 9.084831
v 0.931955 0.425847 8.861164
v 2.275208 4.192227 9.107561
v 2.282062 4.306897 7.317394
v 0.993696 0.694412 7.081063
v 2.120214 -0.034629 8.836216
v 3.373579 4.330868 3.299341
v 3.334533 4.162050 5.084805
v 0.926304 0.374192 2.871716
v 2.147739 4.678146 3.305368
v 0.887259 0.205375 4.657183
v 2.108694 4.509329 5.090834
v 2.152144 0.026914 2.865689
v 2.113098 -0.141903 4.651155
v 3.067870 2.558518 1.894050
v 1.940000 2.550206 1.946834
v 1.940054 3.838554 2.153036
vn 0.0122 -0.0102 -0.9999
vn -0.0122 0.0102 0.9999
vn -0.9749 0.0023 0.2228
vn 0.9692 0.0025 0.2464
vn -0.0028 -0.9709 0.2396
vn -0.0028 0.9756 0.2197
vn -0.9999 -0.0001 -0.0122
vn 0.0076 -0.7874 -0.6164
vn 0.9999 0.0001 0.0122
vn 0.7817 -0.0064 -0.6236
vn 0.0076 0.7746 -0.6324
vn -0.0000 0.9999 -0.0102
vn -0.0000 -0.9999 0.0102
vn -0.7663 -0.0066 -0.6424
vn -0.0960 0.0306 -0.9949
vn -0.7002 -0.0335 0.7132
vn 0.9690 0.0373 0.2443
vn -0.0782 -0.8916 0.4461
vn 0.2344 -0.4514 -0.8610
vn -0.2344 0.4514 0.8610
vn 0.9995 -0.0314 -0.0097
vn -0.0321 -0.9960 -0.0834
vn 0.0070 -0.0837 0.9965
vn -0.0147 0.9918 0.1268
vn 0.9753 -0.0137 0.2205
vn 0.2077 -0.9781 0.0102
vn -0.9781 -0.2078 -0.0122
vn -0.1810 -0.9834 0.0095
vn -0.9504 -0.0689 -0.3032
vn 0.0782 0.8916 -0.4461
vn -0.0054 1.0000 -0.0058
vn -0.0001 1.0000 -0.0033
vn -1.0000 -0.0001 -0.0068
vn 0.9998 0.0002 0.0175
vn 0.0001 -1.0000 -0.0003
vn 0.6292 0.0080 0.7772
vn 0.7738 -0.0065 -0.6334
vn -0.6376 -0.0079 -0.7703
vn 0.0082 -1.0000 0.0035
vn 0.0321 0.9960 0.0834
vn -0.9723 0.2336 -0.0073
vn 0.9994 -0.0331 0.0108
vn 0.2205 0.1270 -0.9671
vn -0.2205 -0.1270 0.9671
vn 0.0147 -0.9918 -0.1268
vn -0.9753 0.0137 -0.2205
vn -0.0306 -0.1074 -0.9938
vn 0.9631 0.2628 -0.0580
vn 0.2674 -0.9588 0.0954
vn -0.9631 -0.2628 0.0580
vn 0.0306 0.1074 0.9938
vn -0.1256 0.9878 0.0925
vn -0.1214 0.1842 -0.9754
vn 0.0001 0.9604 -0.2788
vn 0.9998 0.0047 0.0169
vn 0.0122 -0.2687 -0.9632
vn -1.0000 -0.0018 -0.0065
vn -0.0001 -0.9614 0.2753
vn 0.0884 0.2718 0.9583
vn -0.0884 -0.0145 -0.9960
vn -0.0140 0.0075 0.9999
vn 0.0140 -0.0075 -0.9999
vn -0.2077 0.9781 -0.0102
vn 0.0241 -0.0136 -0.9996
vn 0.2588 0.9659 -0.0102
vn 0.0091 -0.0130 -0.9999
vn -0.0091 0.0130 0.9999
vn -0.2588 -0.9659 0.0102
vn 0.1950 0.9808 -0.0093
vn -0.0242 0.0136 0.9996
vn -0.9659 0.2587 -0.0122
vn 0.9781 0.2078 0.0122
vn -0.0046 -0.9999 0.0092
vn -0.8898 -0.0001 -0.4564
vn 0.8898 0.0001 0.4564
vn 0.0046 0.9999 -0.0092
vn 0.0001 0.9998 -0.0207
vn -0.0001 -0.9999 0.0171
vn -0.4564 0.0102 0.8897
vn 0.2223 0.0102 0.9749
vn 0.4564 -0.0102 -0.8897
vn -0.2223 -0.0102 -0.9749
vn -0.0024 0.9999 -0.0100
vn 0.9750 0.0001 -0.2223
vn -0.9750 -0.0001 0.2223
vn 0.0024 -0.9999 0.0100
vn -0.0125 0.2228 -0.9748
vn -0.4642 -0.1072 0.8792
vn -0.0953 -0.9835 0.1538
vn 0.1453 0.9864 0.0773
vn 0.3069 -0.3822 0.8717
vn -0.8760 0.2712 -0.3988
vn -0.3478 -0.9161 -0.1997
vn 0.8767 -0.2429 -0.4151
vn 0.3704 0.8916 0.2605
vn -0.3069 0.3822 -0.8717
vn -0.8767 0.2429 0.4151
vn 0.3069 -0.3822 0.8716
vn 0.8666 -0.2735 -0.4174
vn -0.5176 -0.8553 -0.0230
vn 0.9421 -0.3348 -0.0178
vn 0.3353 0.9401 0.0615
vn -0.9421 0.3348 0.0178
vn -0.0038 -0.0639 0.9979
vn -0.9621 0.2726 0.0047
vn 0.2717 0.9575 0.0965
vn -0.0218 -0.0941 0.9953
vn 0.0218 0.0941 -0.9953
vn 0.9621 -0.2726 -0.0047
vn -0.2717 -0.9575 -0.0965
vn -0.0001 -0.9876 -0.1573
vn 0.0001 0.9881 0.1537
vn -1.0000 0.0011 -0.0067
vn 0.9998 -0.0029 0.0173
vn -0.0427 0.1618 -0.9859
vn 0.0427 0.0123 0.9990
vt 0.271139 0.274318
vt 0.529656 0.274318
vt 0.529656 0.539032
vt 0.271139 0.539032
vt 0.271139 0.274318
vt 0.271139 0.000000
vt 0.539327 0.000000
vt 0.539327 0.274318
vt 0.875942 0.711540
vt 0.875942 0.994121
vt 0.845321 0.986925
vt 0.845321 0.718737
vt 0.830275 0.711541
vt 0.830275 0.994122
vt 0.799655 0.986926
vt 0.799655 0.718738
vt 0.992939 0.594593
vt 0.992939 0.883633
vt 0.962331 0.876272
vt 0.962331 0.601954
vt 0.955270 0.594593
vt 0.955270 0.883633
vt 0.924661 0.876272
vt 0.924661 0.601954
vt 0.837326 0.970058
vt 0.837326 0.711541
vt 0.845096 0.711541
vt 0.845096 0.970058
vt 1.000000 0.600445
vt 1.000000 0.877781
vt 0.744545 0.970258
vt 0.744545 0.711742
vt 0.752315 0.711742
vt 0.752315 0.970258
vt 0.837326 0.717262
vt 0.837326 0.988401
vt 0.264828 0.006311
vt 0.006311 0.006311
vt 0.000000 0.000000
vt 0.271139 0.000000
vt 0.006311 0.271025
vt 0.000000 0.277337
vt 0.264828 0.271025
vt 0.271139 0.277337
vt 0.962331 0.600445
vt 0.962331 0.877781
vt 0.529656 0.803745
vt 0.529656 0.539032
vt 0.537427 0.539032
vt 0.537427 0.803745
vt 0.529656 0.539032
vt 0.529656 0.274318
vt 0.537427 0.274318
vt 0.537427 0.539032
vt 0.882993 0.717261
vt 0.882993 0.988400
vt 0.389408 0.924825
vt 0.355409 0.924825
vt 0.355409 0.880577
vt 0.389408 0.880577
vt 0.717234 0.541488
vt 0.757097 0.546850
vt 0.581590 0.547564
vt 0.882090 0.544097
vt 0.567554 0.876489
vt 0.567554 0.918158
vt 0.525885 0.918158
vt 0.525885 0.876489
vt 0.473106 0.717026
vt 0.473106 0.539032
vt 0.514775 0.539032
vt 0.514775 0.717026
vt 0.882993 0.533977
vt 0.882993 0.355988
vt 0.924661 0.355988
vt 0.924661 0.533977
vt 0.118629 0.752623
vt 0.118629 0.574633
vt 0.160298 0.574633
vt 0.160298 0.752623
vt 0.389769 0.717026
vt 0.389769 0.539032
vt 0.431437 0.539032
vt 0.431437 0.717026
vt 0.609223 0.889985
vt 0.609223 0.931654
vt 0.567554 0.931654
vt 0.567554 0.889985
vt 0.271139 0.895644
vt 0.271139 0.836328
vt 0.313274 0.836328
vt 0.313274 0.895644
vt 0.118629 0.602027
vt 0.059315 0.602027
vt 0.059315 0.478962
vt 0.118629 0.482548
vt 0.042135 0.926717
vt 0.000000 0.926717
vt 0.000000 0.807238
vt 0.042135 0.807755
vt 0.084270 0.926717
vt 0.042135 0.803096
vt 0.084270 0.803652
vt 0.567554 0.889985
vt 0.567554 0.830669
vt 0.609689 0.830669
vt 0.609689 0.889985
vt 0.389769 0.836328
vt 0.330454 0.836328
vt 0.330454 0.671523
vt 0.389769 0.666109
vt 0.966796 0.297297
vt 0.924661 0.297297
vt 0.924661 0.133683
vt 0.966796 0.132491
vt 0.177944 0.425985
vt 0.118629 0.425985
vt 0.118629 0.277337
vt 0.177944 0.277337
vt 0.567554 0.771353
vt 0.567554 0.712037
vt 0.609689 0.712037
vt 0.609689 0.771353
vt 0.924655 0.959757
vt 0.882993 0.959757
vt 0.882993 0.918088
vt 0.924655 0.918088
vt 0.312803 0.937313
vt 0.271139 0.937313
vt 0.271139 0.895644
vt 0.312803 0.895644
vt 0.669485 0.959822
vt 0.627822 0.959822
vt 0.627822 0.918153
vt 0.669485 0.918153
vt 0.354938 0.937313
vt 0.313274 0.937313
vt 0.313274 0.895644
vt 0.354938 0.895644
vt 0.473106 0.895019
vt 0.473106 0.936688
vt 0.431437 0.936688
vt 0.431437 0.895019
vt 0.514775 0.895019
vt 0.514775 0.936688
vt 0.473106 0.936688
vt 0.473106 0.895019
vt 0.684276 0.876484
vt 0.656049 0.876484
vt 0.656049 0.712032
vt 0.684276 0.712032
vt 0.752315 0.739969
vt 0.752315 0.711742
vt 0.766678 0.711742
vt 0.766678 0.739969
vt 0.712503 0.876484
vt 0.684276 0.876484
vt 0.684276 0.712032
vt 0.712503 0.712032
vt 0.098633 0.794706
vt 0.098633 0.766479
vt 0.112995 0.766479
vt 0.112995 0.794706
vt 0.624052 0.876489
vt 0.609689 0.876489
vt 0.609689 0.712037
vt 0.624052 0.712037
vt 0.897355 0.876419
vt 0.882993 0.876419
vt 0.882993 0.711967
vt 0.897355 0.711967
vt 0.627822 0.876484
vt 0.627822 0.712032
vt 0.752315 0.768197
vt 0.752315 0.739969
vt 0.766678 0.768197
vt 0.567554 0.876489
vt 0.539327 0.876489
vt 0.539327 0.712037
vt 0.752315 0.796425
vt 0.752315 0.768197
vt 0.766678 0.768197
vt 0.766678 0.796425
vt 0.911718 0.876419
vt 0.911718 0.711967
vt 0.098633 0.930930
vt 0.084270 0.930930
vt 0.084270 0.766479
vt 0.112498 0.766479
vt 0.084270 0.766479
vt 0.084270 0.602027
vt 0.112498 0.602027
vt 0.098633 0.822933
vt 0.098633 0.794706
vt 0.112995 0.794706
vt 0.112995 0.822933
vt 0.799655 0.876192
vt 0.771427 0.876192
vt 0.771427 0.711741
vt 0.799655 0.711741
vt 0.251123 0.798919
vt 0.251123 0.770692
vt 0.265486 0.770692
vt 0.265486 0.798919
vt 0.251123 0.441788
vt 0.265486 0.441788
vt 0.265486 0.606240
vt 0.251123 0.606240
vt 0.265486 0.770692
vt 0.251123 0.770692
vt 0.251123 0.606240
vt 0.265486 0.606240
vt 0.265486 0.359563
vt 0.237258 0.359563
vt 0.237258 0.277337
vt 0.265486 0.277337
vt 0.752315 0.824652
vt 0.752315 0.796425
vt 0.766678 0.796425
vt 0.766678 0.824652
vt 0.251123 0.827146
vt 0.251123 0.798919
vt 0.265486 0.798919
vt 0.265486 0.827146
vt 0.059315 0.396299
vt 0.000000 0.400958
vt 0.000000 0.277337
vt 0.059315 0.277337
vt 0.716317 0.711742
vt 0.757986 0.711742
vt 0.717239 0.540608
vt 0.720152 0.000000
vt 0.754151 0.000000
vt 0.627822 0.540906
vt 0.585547 0.544256
vt 0.583575 -0.000000
vt 0.627822 0.000307
vt 0.539327 0.547149
vt 0.539327 0.000307
vt 0.583575 -0.000000
vt 0.842208 0.547404
vt 0.845159 0.000000
vt 0.879157 0.000000
vt 0.539327 0.712037
vt 0.580995 0.711748
vt 0.711160 0.876484
vt 0.711160 0.918153
vt 0.669491 0.918153
vt 0.669491 0.876484
vt 0.586154 0.711748
vt 0.627822 0.541786
vt 0.627822 0.712037
vt 0.841324 0.711540
vt 0.882993 0.711540
vt 0.330454 0.693153
vt 0.271139 0.702645
vt 0.271139 0.539032
vt 0.330454 0.539032
vt 0.483773 0.689045
vt 0.687877 0.913585
vt 0.588622 0.801011
vt 0.237258 0.574633
vt 0.402406 0.702651
vt 0.966796 0.594593
vt 0.924661 0.594593
vt 0.924661 0.445945
vt 0.966796 0.445945
vt 0.177944 0.574633
vt 0.177944 0.425985
vt 0.237258 0.425985
vt 0.000000 0.000000
vt 0.201967 0.838536
vt 0.160298 0.832700
vt 0.160298 0.574633
vt 0.201967 0.574633
vt 0.473106 0.799715
vt 0.431437 0.802940
vt 0.473106 0.539032
vt 0.924661 0.258073
vt 0.882993 0.249871
vt 0.882993 -0.000000
vt 0.924661 -0.000000
vt 0.243636 0.824499
vt 0.201967 0.835311
vt 0.201967 0.574633
vt 0.243636 0.574633
vt 0.160298 0.930613
vt 0.201967 0.930613
vt 0.431437 0.895019
vt 0.431437 0.936688
vt 0.389769 0.936688
vt 0.389769 0.895019
vt 0.201967 0.930613
vt 0.243636 0.930613
vt 0.431437 0.895019
vt 0.473106 0.895019
vt 0.799655 0.711541
vt 0.800223 0.606180
vt 0.840776 0.609933
vt 0.841324 0.711541
vt 0.630402 0.711747
vt 0.630033 0.610109
vt 0.672070 0.610559
vt 0.672070 0.712032
vt 0.627822 0.918153
vt 0.672070 0.606118
vt 0.714119 0.606355
vt 0.713737 0.711747
vt 0.757986 0.711741
vt 0.758533 0.610265
vt 0.799084 0.605824
vt 0.799655 0.711741
vt 0.514775 0.539032
vt 0.529138 0.539032
vt 0.529138 0.621257
vt 0.514775 0.621257
vt 0.529138 0.867935
vt 0.514775 0.867935
vt 0.514775 0.785709
vt 0.529138 0.785709
vt 0.744544 0.876194
vt 0.716317 0.876194
vt 0.716317 0.793968
vt 0.744544 0.793968
vt 0.744544 0.711742
vt 0.514775 0.703483
vt 0.529138 0.703483
vt 0.529138 0.703483
vt 0.514775 0.703483
vt 0.265486 0.441788
vt 0.237258 0.441788
vt 0.389769 0.806022
vt 0.431437 0.806022
vt 0.118629 0.841618
vt 0.160298 0.841618
vt 0.882993 0.622972
vt 0.924661 0.622972
vt 0.473106 0.806022
vt 0.514775 0.806022
vt 0.628928 0.305055
vt 0.672070 0.305431
vt 0.672070 0.303210
vt 0.715218 0.303178
vt 0.801856 0.303090
vt 0.839132 0.304967
vt 0.760177 0.305133
vt 0.797452 0.302912
vt 0.924661 0.876419
vt 0.924661 0.918088
vt 0.882993 0.876419
vt 0.473106 0.895019
vt 0.514775 0.895019
vt 0.882993 0.711967
vt 0.924661 0.711967
vt 0.118629 0.930613
vt 0.160298 0.930613
vt 0.716317 -0.000000
vt 0.672070 0.000303
vt 0.672070 0.000303
vt 0.627822 -0.000000
vt 0.837488 0.000000
vt 0.803490 0.000000
vt 0.795820 0.000000
vt 0.761821 0.000000
vt 0.355409 0.836328
vt 0.389408 0.836328
vt 0.059315 0.602027
vt 0.000000 0.602027
vt 0.313274 0.895644
vt 0.313274 0.836328
vt 0.355409 0.895644
vt 0.000000 0.602027
vt 0.042135 0.602027
vt 0.059315 0.277337
vt 0.118629 0.277337
vt 0.084270 0.602027
vt 0.330454 0.836328
vt 0.271139 0.836328
vt 0.757520 0.935508
vt 0.757520 0.876192
vt 0.799655 0.935508
vt 0.330454 0.539032
vt 0.389769 0.539032
vt 0.924661 0.000000
vt 0.966796 0.000000
vt 0.177944 0.277337
vt 0.237258 0.277337
vt 0.567554 0.830669
vt 0.609689 0.771353
vt 0.609689 0.830669
vt 0.924661 0.297297
vt 0.966796 0.297297
vt 0.177944 0.574633
vt 0.118629 0.574633
s 0
usemtl Material.002
f 1/1/1 3/2/1 4/3/1 2/4/1
f 6/5/2 7/6/2 8/7/2 5/8/2
f 11/9/3 12/10/3 8/11/3 7/12/3
f 9/13/4 10/14/4 6/15/4 5/16/4
f 12/17/5 9/18/5 5/19/5 8/20/5
f 10/21/6 11/22/6 7/23/6 6/24/6
f 3/25/7 1/26/7 18/27/7 17/28/7
f 9/18/8 12/17/8 16/29/8 13/30/8
f 2/31/9 4/32/9 20/33/9 19/34/9
f 10/14/10 9/13/10 13/35/10 14/36/10
f 17/37/1 18/38/1 14/39/1 13/40/1
f 18/38/1 19/41/1 15/42/1 14/39/1
f 19/41/1 20/43/1 16/44/1 15/42/1
f 20/43/1 17/37/1 13/40/1 16/44/1
f 11/22/11 10/21/11 14/45/11 15/46/11
f 4/47/12 3/48/12 17/49/12 20/50/12
f 1/51/13 2/52/13 19/53/13 18/54/13
f 12/10/14 11/9/14 15/55/14 16/56/14
f 53/148/9 54/149/9 56/150/9 55/151/9
f 55/152/13 56/153/13 60/154/13 59/155/13
f 59/156/7 60/157/7 58/158/7 57/159/7
f 57/160/12 58/161/12 54/162/12 53/163/12
f 55/164/1 59/165/1 57/166/1 53/167/1
f 60/168/2 56/169/2 54/170/2 58/171/2
f 61/149/9 62/172/9 64/173/9 63/150/9
f 63/174/13 64/175/13 68/155/13 67/176/13
f 67/177/7 68/178/7 66/179/7 65/121/7
f 65/180/12 66/181/12 62/182/12 61/183/12
f 63/184/1 67/168/1 65/171/1 61/185/1
f 68/186/2 64/187/2 62/188/2 66/161/2
f 69/189/13 70/190/13 72/191/13 71/192/13
f 71/193/7 72/194/7 76/195/7 75/196/7
f 75/197/12 76/198/12 74/199/12 73/200/12
f 73/201/9 74/202/9 70/203/9 69/204/9
f 71/205/1 75/206/1 73/207/1 69/208/1
f 76/209/2 72/210/2 70/211/2 74/212/2
f 141/213/26 142/214/26 80/215/26 79/216/26
f 79/217/27 80/218/27 84/219/27 83/220/27
f 81/221/9 82/222/9 78/223/9 77/224/9
f 82/222/28 81/221/28 150/221/28 149/222/28
f 109/271/2 110/271/2 199/271/2 198/271/2
f 110/271/2 111/271/2 203/271/2 199/271/2
f 111/271/2 112/271/2 204/271/2 203/271/2
f 112/271/2 109/271/2 198/271/2 204/271/2
f 84/313/61 80/314/61 142/315/61 144/316/61
f 79/317/62 83/318/62 143/319/62 141/320/62
f 83/321/63 84/322/63 144/323/63 143/324/63
f 78/223/64 82/222/64 149/222/64 147/223/64
f 152/324/65 148/323/65 149/229/65 150/325/65
f 145/320/66 152/319/66 150/326/66 146/327/66
f 148/316/67 151/315/67 147/328/67 149/329/67
f 146/330/68 147/331/68 151/214/68 145/213/68
f 77/224/69 78/223/69 147/223/69 146/224/69
f 81/221/70 77/224/70 146/224/70 150/221/70
f 151/214/71 148/323/71 152/319/71 145/213/71
f 142/214/72 141/213/72 143/319/72 144/323/72
usemtl Material.006
f 21/57/2 23/58/2 24/59/2 22/60/2
f 90/61/15 91/62/15 92/63/15 93/64/15
f 98/61/16 97/64/16 100/63/16 102/62/16
f 25/65/2 27/66/2 28/67/2 26/68/2
f 155/69/12 26/70/12 28/71/12 154/72/12
f 154/73/9 28/74/9 27/75/9 156/76/9
f 153/77/7 25/78/7 26/79/7 155/80/7
f 156/81/13 27/82/13 25/83/13 153/84/13
f 29/85/2 31/86/2 32/87/2 30/88/2
f 33/89/17 34/90/17 36/91/17 35/92/17
f 35/93/18 36/94/18 87/95/18 85/96/18
f 33/97/19 35/98/19 85/99/19 86/100/19
f 36/101/20 34/97/20 88/102/20 87/103/20
f 37/104/21 38/105/21 40/106/21 39/107/21
f 39/108/22 40/109/22 104/110/22 103/111/22
f 40/112/23 38/113/23 106/114/23 104/115/23
f 113/116/24 114/117/24 42/118/24 41/119/24
f 41/120/25 42/121/25 44/122/25 43/123/25
f 45/124/9 46/125/9 48/126/9 47/127/9
f 47/128/13 48/129/13 52/130/13 51/131/13
f 51/132/7 52/133/7 50/134/7 49/135/7
f 49/136/12 50/137/12 46/138/12 45/139/12
f 47/140/1 51/141/1 49/142/1 45/143/1
f 52/144/2 48/145/2 46/146/2 50/147/2
f 85/96/29 87/95/29 88/102/29 86/225/29
f 86/225/30 88/226/30 34/227/30 33/228/30
f 99/229/31 98/61/31 102/62/31 95/230/31
f 91/62/32 90/61/32 89/231/32 22/232/32 24/233/32
f 89/234/33 93/235/33 21/236/33 22/237/33
f 92/63/34 91/238/34 24/239/34 23/240/34
f 93/64/35 92/241/35 23/242/35 21/243/35
f 95/244/36 102/238/36 100/63/36 94/245/36
f 94/246/37 96/247/37 99/248/37 95/249/37
f 96/250/38 97/235/38 101/234/38 98/251/38 99/252/38
f 94/253/39 100/241/39 97/64/39 96/254/39
f 105/255/40 106/256/40 38/257/40 37/258/40
f 103/259/41 104/115/41 106/256/41 105/260/41
f 39/107/42 37/104/42 107/104/42 108/107/42
f 113/261/43 41/120/43 43/262/43 115/263/43
f 44/264/44 42/265/44 114/266/44 116/267/44
f 43/262/45 44/268/45 116/269/45 115/270/45
f 115/270/46 116/269/46 114/266/46 113/116/46
f 118/272/9 117/273/9 32/274/9 31/275/9
f 119/276/13 118/277/13 31/83/13 29/278/13
f 117/279/12 120/280/12 30/281/12 32/282/12
f 120/283/7 119/284/7 29/285/7 30/286/7
f 126/74/47 125/280/47 128/279/47 122/75/47
f 122/287/48 128/273/48 127/272/48 121/288/48
f 121/289/49 123/290/49 126/291/49 122/292/49
f 123/293/50 124/284/50 125/283/50 126/294/50
f 121/295/51 127/277/51 124/276/51 123/296/51
f 128/279/52 125/280/52 124/284/52 127/277/52
f 117/279/53 118/277/53 119/284/53 120/280/53
f 138/297/54 137/298/54 140/299/54 134/300/54
f 134/301/55 140/302/55 139/303/55 133/304/55
f 133/249/56 135/248/56 138/305/56 134/172/56
f 135/304/57 136/306/57 137/307/57 138/308/57
f 133/309/58 139/310/58 136/311/58 135/312/58
f 139/303/59 140/302/59 137/298/59 136/306/59
f 130/303/60 131/306/60 132/298/60 129/302/60
f 167/332/73 159/81/73 157/84/73 165/333/73
f 165/334/74 157/77/74 158/80/74 166/335/74
f 168/336/75 160/73/75 159/76/75 167/337/75
f 166/338/76 158/69/76 160/72/76 168/339/76
f 130/303/34 129/302/34 161/340/34 162/341/34
f 132/307/33 131/306/33 163/342/33 164/343/33
f 129/299/77 132/298/77 164/344/77 161/345/77
f 131/311/78 130/310/78 162/346/78 163/347/78
f 156/76/1 153/77/1 155/69/1 154/73/1
f 159/76/79 160/73/79 158/69/79 157/77/79
f 173/335/80 172/334/80 175/332/80 176/336/80
f 166/335/81 168/336/81 167/332/81 165/334/81
f 169/348/82 171/349/82 174/126/82 170/350/82
f 174/351/83 173/338/83 176/339/83 170/352/83
f 170/353/84 176/336/84 175/337/84 169/354/84
f 171/355/85 172/334/85 173/335/85 174/356/85
f 169/292/86 175/332/86 172/333/86 171/295/86
f 179/357/87 180/358/87 184/358/87 183/357/87
f 181/359/88 178/360/88 182/360/88 185/359/88
f 178/361/89 179/362/89 183/362/89 182/361/89
f 180/363/90 181/364/90 185/364/90 184/363/90
f 184/363/91 185/364/91 187/364/91 189/363/91
f 189/60/91 187/59/91 186/365/91 188/366/91
f 183/357/92 184/358/92 189/358/92 188/357/92
f 196/96/93 190/225/93 197/102/93 193/95/93
f 191/367/94 192/368/94 197/226/94 190/225/94
f 195/369/95 194/370/95 192/365/95 191/371/95
f 190/100/96 196/99/96 195/372/96 191/373/96
f 196/96/97 193/95/97 194/374/97 195/375/97
f 193/103/98 197/102/98 192/373/98 194/376/98
f 182/361/96 183/362/96 188/362/96 186/361/96
f 185/359/99 182/360/99 186/360/99 187/359/99
f 204/259/100 198/260/100 205/256/100 201/115/100
f 199/377/101 200/378/101 205/256/101 198/255/101
f 203/379/102 202/380/102 200/197/102 199/381/102
f 204/111/103 201/110/103 202/382/103 203/383/103
f 201/115/104 205/114/104 200/384/104 202/385/104
f 208/270/105 210/269/105 211/386/105 209/387/105
f 209/388/106 211/120/106 207/389/106 206/390/106
f 210/267/107 213/266/107 207/391/107 211/392/107
f 206/390/108 212/261/108 208/263/108 209/388/108
f 206/393/109 207/394/109 213/117/109 212/116/109
f 208/270/110 212/116/110 213/266/110 210/269/110
f 215/347/111 214/346/111 181/364/111 180/363/111
f 177/345/112 216/344/112 179/362/112 178/361/112
f 216/343/113 215/342/113 180/358/113 179/357/113
f 214/341/114 177/340/114 178/360/114 181/359/114
f 177/345/115 214/346/115 215/342/115 216/344/115
f 161/345/116 164/344/116 163/342/116 162/346/116
