# Blender 5.1.1
# www.blender.org
mtllib Janela quebrada.mtl
o Cube.002
v -0.960000 -10.712759 -6.770641
v -0.001745 -9.912760 -6.954314
v -0.960000 -10.712759 -7.570641
v -0.960000 -9.912760 -7.570641
v 0.960000 -10.712759 -6.770641
v 0.298567 -9.912760 -6.954314
v 0.960000 -10.712759 -7.570641
v 0.960000 -9.912760 -7.570641
v -0.960000 12.087242 -6.770641
v -0.960000 12.087242 -7.570641
v 0.960000 12.087242 -7.570641
v 0.960000 12.087242 -6.770641
v -0.960000 -10.712759 7.229360
v -0.001745 -9.912760 6.310697
v 0.298567 -9.912760 6.310697
v 0.960000 -10.712759 7.229360
v -0.960000 11.087242 -6.770641
v -0.960000 11.087242 -7.570641
v 0.960000 11.087242 -6.770641
v 0.960000 11.087242 -7.570641
v 0.960000 12.087242 7.229360
v -0.960000 12.087242 7.229360
v -0.960000 11.087242 7.229360
v 0.960000 11.087242 7.229360
v 0.960000 11.087242 6.229360
v -0.960000 11.087242 6.229360
v -0.960000 12.087242 6.229360
v 0.960000 12.087242 6.229360
v 0.960000 -9.912758 7.229360
v -0.960000 -9.912758 7.229360
v 0.960000 -9.912758 6.229360
v -0.960000 -9.912758 6.229360
v 0.960000 -9.912760 -6.770641
v -0.960000 -9.912760 -6.770641
v 0.960000 -9.912760 7.229360
v -0.960000 -9.912760 7.229360
v 0.298567 11.087240 -6.954314
v -0.001745 11.087240 -6.954314
v 0.298567 11.087240 6.310697
v -0.001745 11.087240 6.310697
vn -1.0000 -0.0000 -0.0000
vn -0.0000 -0.0000 -1.0000
vn 1.0000 -0.0000 -0.0000
vn -0.0000 -1.0000 -0.0000
vn -0.0000 1.0000 -0.0000
vn -0.0000 -0.0000 1.0000
vt 0.314854 0.512763
vt 0.314854 0.494771
vt 0.332846 0.494771
vt 0.332846 0.512763
vt 0.964017 0.512763
vt 0.964017 0.494771
vt 0.982008 0.494771
vt 0.982008 0.512763
vt 0.332846 0.512763
vt 0.332846 0.494771
vt 0.350838 0.494771
vt 0.350838 0.512763
vt 0.000000 0.512763
vt 0.000000 0.494771
vt 0.053975 0.845609
vt 0.035983 0.845609
vt 0.035983 0.827617
vt 0.053975 0.827617
vt 0.332846 0.022490
vt 0.314854 0.022490
vt 0.314854 0.000000
vt 0.332846 0.000000
vt 0.071967 0.845609
vt 0.071967 0.827617
vt 0.000000 0.022490
vt 0.022490 0.022490
vt 0.022490 0.494771
vt 0.000000 0.494771
vt 0.982008 0.022490
vt 0.964017 0.022490
vt 0.964017 0.000000
vt 0.982008 0.000000
vt 0.350838 0.022490
vt 0.332846 0.022490
vt 0.332846 0.000000
vt 0.350838 0.000000
vt 0.149562 0.530754
vt 0.131570 0.530754
vt 0.131570 0.512763
vt 0.149562 0.512763
vt 0.035983 0.512763
vt 0.053975 0.512763
vt 0.984822 0.967053
vt 0.982008 0.967053
vt 0.982008 0.494771
vt 0.984822 0.494771
vt 0.665692 0.494771
vt 0.665692 0.512763
vt 0.017992 0.985044
vt 0.000000 0.985044
vt 0.017992 0.512763
vt 1.000000 0.022490
vt 1.000000 0.000000
vt 0.071967 0.535252
vt 0.053975 0.535252
vt 0.071967 0.512763
vt 0.643202 0.022490
vt 0.643202 0.000000
vt 0.665692 0.000000
vt 0.665692 0.022490
vt 0.022490 0.000000
vt 0.000000 0.000000
vt 0.107950 0.805127
vt 0.089958 0.805127
vt 0.089958 0.512763
vt 0.107950 0.512763
vt 0.131570 0.535252
vt 0.113578 0.535252
vt 0.113578 0.512763
vt 1.000000 0.494771
vt 0.665692 0.494771
vt 0.643202 0.494771
vt 0.035983 0.985044
vt 0.017992 0.985044
vt 0.009012 0.989175
vt 0.006198 0.989175
vt 0.083760 0.533423
vt 0.080946 0.533423
vt 0.080946 0.831748
vt 0.083760 0.831748
vt 0.089958 0.827617
vt 0.113578 0.811087
vt 0.110764 0.811087
vt 0.110764 0.512763
vt 0.113578 0.512763
vt 0.964017 0.472281
vt 0.665692 0.472281
vt 0.665692 0.000000
vt 0.110764 0.985044
vt 0.107950 0.985044
vt 0.110764 0.512763
vt 0.964017 0.944563
vt 0.665692 0.944563
vt 0.665692 0.472281
vt 0.964017 0.472281
s 0
usemtl Material.001
f 1/1/1 34/2/1 4/3/1 3/4/1
f 3/5/2 4/6/2 8/7/2 7/8/2
f 7/9/3 8/10/3 33/11/3 5/12/3
f 34/2/1 1/1/1 13/13/1 36/14/1
f 3/15/4 7/16/4 5/17/4 1/18/4
f 18/19/1 17/20/1 9/21/1 10/22/1
f 11/23/5 10/15/5 9/18/5 12/24/5
f 23/25/1 26/26/1 32/27/1 30/28/1
f 20/29/2 18/30/2 10/31/2 11/32/2
f 19/33/3 20/34/3 11/35/3 12/36/3
f 16/37/6 35/38/6 36/39/6 13/40/6
f 1/18/4 5/17/4 16/41/4 13/42/4
f 14/43/6 15/44/6 39/45/6 40/46/6
f 5/12/3 33/11/3 35/47/3 16/48/3
f 33/11/3 8/10/3 20/34/3 19/33/3
f 8/7/2 4/6/2 18/30/2 20/29/2
f 34/49/6 33/50/6 19/13/6 17/51/6
f 4/3/1 34/2/1 17/20/1 18/19/1
f 23/52/6 24/29/6 21/32/6 22/53/6
f 28/54/5 27/55/5 22/42/5 21/56/5
f 25/57/3 28/58/3 21/59/3 24/60/3
f 27/61/1 26/26/1 23/25/1 22/62/1
f 9/21/1 17/20/1 26/26/1 27/61/1
f 19/33/3 12/36/3 28/58/3 25/57/3
f 12/24/5 9/18/5 27/55/5 28/54/5
f 17/63/4 19/64/4 25/65/4 26/66/4
f 32/67/4 31/68/4 29/69/4 30/39/4
f 24/29/6 23/52/6 30/70/6 29/45/6
f 25/57/3 24/60/3 29/71/3 31/72/3
f 26/51/2 25/41/2 31/73/2 32/74/2
f 2/75/4 6/76/4 33/50/4 34/49/4
f 15/77/5 14/78/5 36/56/5 35/65/5
f 14/78/5 2/79/5 34/24/5 36/56/5
f 6/80/5 15/77/5 35/65/5 33/81/5
f 37/82/5 38/83/5 40/84/5 39/85/5
f 2/86/1 14/87/1 40/88/1 38/31/1
f 6/89/2 2/90/2 38/66/2 37/91/2
f 15/92/3 6/93/3 37/94/3 39/95/3
o Cube.003
v -0.276052 4.203787 -10.021400
v 0.197799 4.424747 -10.265203
v 0.767099 2.166826 -9.840061
v 1.240950 2.387787 -10.083864
v 0.692632 2.312239 -9.853006
v 0.054659 3.558007 -9.963909
v 0.806541 3.055701 -8.976711
v 0.246458 4.098175 -10.190853
v 0.799076 3.034084 -10.099058
v 0.619308 3.008861 -9.774950
v 3.739212 4.381842 -2.056034
v 2.354061 3.349535 -5.683774
v 3.583872 4.185372 -3.369376
v 2.895971 3.663242 -5.277273
v 2.493176 4.160888 -4.692231
v 3.225120 4.260989 -3.170511
v 2.639354 3.509150 -4.984622
v 3.087885 4.115593 -3.845843
v 3.191987 6.632133 -1.260201
v 4.555765 4.858207 -1.402290
v 3.545436 6.919628 -1.497668
v 3.520688 5.833439 -1.165159
v 4.095246 4.647182 -1.123572
v 4.411310 2.578613 0.851489
v -0.272866 5.193697 9.757099
v -0.742573 5.353926 9.462992
v 0.097999 7.482364 9.280111
v 0.567707 7.322134 9.574219
v 0.118852 6.725623 9.244150
v 2.331032 6.235704 5.034644
v 0.098432 6.663217 9.520878
v 0.175559 6.794712 8.781614
v 4.751346 4.769800 0.519882
v 3.135683 5.629324 3.623730
v 3.257228 5.041492 2.904848
v 2.559292 5.704419 4.380656
v 3.937030 4.719249 1.643604
v 2.778530 6.046240 4.886412
v 2.599896 4.287387 3.543813
v 1.771485 4.295428 4.871219
v 1.569528 5.022437 5.589828
v 2.140807 5.092482 4.715622
v 2.089593 4.694279 4.857763
v 5.208987 4.730998 0.750164
v 4.375211 3.986928 0.544837
v 3.924179 2.748569 0.590509
vn -0.8405 -0.3390 0.4227
vn 0.8214 0.3830 -0.4226
vn -0.5355 0.8440 -0.0288
vn -0.3447 -0.2569 -0.9029
vn -0.9639 -0.1276 0.2336
vn -0.4558 -0.4494 -0.7684
vn -0.7168 -0.6658 0.2072
vn -0.8727 -0.0373 -0.4869
vn 0.5065 -0.8622 -0.0098
vn -0.4220 -0.8648 0.2720
vn 0.2139 -0.9393 0.2682
vn -0.8254 -0.3746 0.4223
vn -0.7597 -0.4003 0.5124
vn -0.0034 -0.9889 0.1483
vn 0.4544 -0.8873 0.0790
vn -0.8211 -0.3840 0.4223
vn -0.4505 0.2515 0.8566
vn -0.3662 -0.9271 0.0797
vn -0.8411 0.5376 0.0592
vn -0.9919 -0.0214 -0.1248
vn -0.8484 0.5288 -0.0250
vn -0.9966 -0.0237 -0.0789
vn -0.7193 0.4733 -0.5086
vn -0.6753 0.4779 -0.5617
vn 0.3198 0.9229 -0.2143
vn -0.8142 0.2777 -0.5098
vn -0.7074 0.5492 -0.4448
vn -0.9330 -0.0084 -0.3597
vn -0.6100 0.4649 -0.6417
vn -0.8305 -0.0895 -0.5499
vn 0.8142 -0.2777 0.5098
vn 0.2735 0.9520 -0.1370
vn -0.8085 0.2912 -0.5115
vn 0.4019 -0.1931 -0.8951
vn 0.4234 0.2499 0.8708
vt -0.000000 0.350987
vt 0.000000 0.241808
vt 0.167480 0.203941
vt 0.168644 0.335829
vt 0.689512 0.000000
vt 0.689511 0.344813
vt 0.522193 0.344813
vt 0.523833 0.000000
vt 0.344698 0.345021
vt 0.654866 0.344813
vt 0.614471 0.512815
vt 0.344698 0.512299
vt 0.308017 0.697465
vt 0.000000 0.695146
vt 0.000000 0.670578
vt 0.249827 0.580778
vt 0.245794 0.400473
vt 0.000000 0.460096
vt -0.000000 0.350987
vt 0.308017 0.353307
vt 0.002130 0.590929
vt 0.092225 0.574778
vt 0.689555 0.078423
vt 0.901211 0.089362
vt 0.689512 0.092523
vt 0.654866 0.689559
vt 0.688495 0.689974
vt 0.745037 0.689559
vt 0.693285 0.753737
vt 0.879022 0.125018
vt 0.754049 0.109867
vt 0.092565 0.000000
vt 0.099211 0.093401
vt 0.079292 0.006503
vt 0.537732 0.769572
vt 0.565412 0.689751
vt 0.614214 0.769572
vt 0.674251 0.879316
vt 0.999903 0.164001
vt 0.689602 0.164466
vt 0.689592 0.146872
vt 0.689512 -0.000000
vt 0.999813 0.000194
vt 0.166289 0.006391
vt 0.017705 0.112192
vt 0.000000 0.031190
vt 0.000000 0.006606
vt 0.127615 0.038669
vt 0.148500 0.006414
vt 0.655886 0.344813
vt 0.962731 0.344813
vt 0.775894 0.461718
vt 0.961711 0.689559
vt 0.654866 0.689559
vt 1.000000 0.341113
vt 0.689699 0.340920
vt 0.851941 0.448675
vt 0.964108 0.430543
vt 0.231092 0.330216
vt 0.190265 0.268566
vt 0.215545 0.260940
vt 0.000000 0.777279
vt 0.028071 0.697465
vt 0.043389 0.728446
vt 0.063180 0.777279
vt 0.654866 0.604167
vt 0.471304 0.597808
vt 0.599513 0.575026
vt 0.344698 0.006160
vt 0.252855 0.052022
vt 0.226806 0.112302
vt 0.251146 0.185025
vt 0.484261 0.734050
vt 0.524625 0.689751
vt 0.537732 0.793586
vt 0.441342 0.793586
vt 0.344698 0.793642
vt 0.358272 0.689750
vt 0.410057 0.751337
vt 0.441342 0.793642
vt 0.344698 0.344813
vt 0.344698 0.000000
vt 0.654866 0.689543
vt 0.344698 0.689750
vt 0.268174 0.133436
vt 0.333762 0.265133
vt 0.344698 0.350541
vt 0.259330 0.350652
vt 0.245607 0.297130
s 0
usemtl Material.004
f 41/96/7 46/97/7 62/98/7 59/99/7
f 44/100/8 42/101/8 61/102/8 60/103/8
f 42/104/9 41/105/9 59/106/9 61/107/9
f 44/108/10 43/109/10 45/110/10 49/111/10 48/112/10 46/113/10 41/114/10 42/115/10
f 45/110/11 47/116/11 50/117/11
f 46/113/12 48/112/12 49/111/12 50/117/12
f 50/117/13 47/116/13 46/113/13
f 50/117/14 49/111/14 45/110/14
f 52/118/15 54/119/15 57/120/15
f 51/121/16 56/122/16 55/123/16 58/124/16
f 57/120/17 54/119/17 53/125/17 58/126/17
f 57/127/18 55/128/18 52/129/18
f 58/130/19 55/131/19 57/132/19
f 58/124/20 53/133/20 51/121/20
f 60/134/21 63/135/21 51/136/21 53/125/21 54/119/21 52/118/21 43/137/21 44/138/21
f 63/139/22 62/98/22 46/97/22 47/140/22 45/141/22 43/142/22 52/129/22 55/128/22 56/143/22 51/144/22
f 68/145/23 67/146/23 71/147/23 66/148/23 65/149/23
f 65/150/24 66/151/24 86/135/24 64/134/24
f 66/148/25 71/147/25 69/152/25
f 67/146/26 72/153/26 69/152/26
f 69/152/27 72/153/27 66/148/27
f 69/152/28 71/147/28 67/146/28
f 74/154/29 77/155/29 75/156/29
f 74/157/30 75/158/30 76/159/30 70/160/30
f 70/161/31 78/162/31 74/163/31
f 66/164/32 80/165/32 79/166/32 82/167/32 85/98/32 86/139/32
f 79/168/33 80/169/33 83/170/33
f 79/168/34 83/170/34 82/171/34
f 83/172/35 80/173/35 81/174/35
f 82/175/36 83/172/36 81/174/36
f 64/103/37 84/102/37 68/176/37 65/177/37
f 84/107/38 73/106/38 74/163/38 78/162/38 70/161/38 67/178/38 68/179/38
f 73/99/39 85/98/39 82/167/39 81/180/39 80/165/39 66/164/39 72/181/39 67/182/39 70/183/39 76/184/39 75/156/39 77/155/39 74/154/39
f 86/139/40 85/98/40 73/99/40 84/107/40 64/103/40
f 63/139/41 60/103/41 61/107/41 59/99/41 62/98/41
o Cube.004
v 0.766709 2.055050 -10.408983
v 0.198587 2.055051 -10.308807
v 0.766709 -0.240653 -10.408983
v 0.198587 -0.240653 -10.308807
v 0.421421 1.276566 -10.348099
v 0.876962 1.485611 -9.783710
v 0.601089 1.363946 -10.145678
v 1.823979 1.899870 -3.812463
v 1.627357 2.055050 -5.528009
v 2.068777 1.456639 -3.024599
v 1.765699 1.698150 -4.743439
v 2.323640 1.507257 -1.579196
v 1.356469 2.055050 -5.098191
v 1.955244 0.465895 -3.668472
v 1.692636 0.064283 -5.157793
v 1.538192 0.607130 -6.033689
v 1.709862 0.950886 -5.060105
v 1.562884 0.551621 -5.079548
v 2.477355 1.941805 -0.269249
v 2.003946 -0.240653 -0.070115
v 1.987413 2.055050 -0.163878
v 2.553345 1.076263 -0.276479
v 2.565353 -0.240653 -0.208376
v 0.248715 2.055050 9.154810
v 0.248714 -0.240653 9.154810
v 0.790811 2.055050 9.352118
v 0.790811 -0.240653 9.352118
v 2.365291 -0.240653 5.026266
v 0.790811 1.327241 9.352118
v 3.570023 2.055050 0.029587
v 0.790811 -0.076770 9.352118
v 0.704346 0.568490 9.082088
v 1.132659 0.461920 8.389538
v 0.358225 1.737302 9.194670
v 0.351127 0.534786 9.192085
v 4.092782 -0.240653 0.280021
v 3.739548 -0.240653 1.250524
v 2.628849 -0.283889 4.302145
v 2.967459 -0.240653 2.342072
v 2.212523 -0.240653 4.295524
v 2.753544 0.337719 3.942038
v 3.321877 -0.026253 2.390937
v 2.974443 -0.039558 3.003439
v 4.116434 1.076263 0.215037
v 4.047009 1.941805 0.183304
v 3.537459 -0.240653 0.119054
vn -0.1736 -0.0000 -0.9848
vn -0.0000 -1.0000 -0.0000
vn 0.6937 0.1858 -0.6959
vn 0.7941 -0.3731 -0.4798
vn 0.7517 0.1816 -0.6340
vn 0.7670 -0.3806 -0.5165
vn 0.9603 0.2159 -0.1769
vn 0.9641 0.2406 -0.1125
vn 0.1202 0.9899 0.0758
vn 0.9848 -0.0000 -0.1736
vn 0.9277 0.2856 -0.2406
vn 0.9073 -0.3208 -0.2718
vn 0.9659 0.2588 -0.0099
vn 0.9382 -0.3432 -0.0442
vn 0.2473 0.0394 0.9681
vn -0.9848 -0.0000 0.1736
vn 0.2699 -0.0394 -0.9621
vn 0.1101 0.9938 -0.0182
vn 0.9848 0.0147 -0.1730
vn 0.9403 0.0477 0.3371
vn -0.9397 -0.0000 -0.3420
vn 0.1002 0.9945 0.0299
vn -0.3420 -0.0000 0.9397
vn 0.8300 0.3063 0.4662
vn -0.1221 -0.1309 0.9838
vn 0.7962 -0.2814 0.5357
vn 0.2371 0.4019 0.8845
vn -0.1036 -0.9944 0.0217
vn 0.7032 -0.5971 0.3859
vn 0.3050 -0.9518 0.0317
vn 0.9398 0.0093 0.3415
vn 0.9675 -0.0504 0.2480
vn 0.3760 -0.8877 0.2659
vn 0.9395 -0.0010 0.3425
vt 0.655886 0.344813
vt 0.962731 0.344813
vt 0.775894 0.461718
vt 0.961711 0.689559
vt 0.654866 0.689559
vt 1.000000 0.341113
vt 0.689699 0.340920
vt 0.689602 0.164466
vt 0.999903 0.164001
vt 0.851941 0.448675
vt 0.964108 0.430543
vt 0.231092 0.330216
vt 0.190265 0.268566
vt 0.215545 0.260940
vt 0.000000 0.777279
vt 0.028071 0.697465
vt 0.043389 0.728446
vt 0.063180 0.777279
vt 0.654866 0.604167
vt 0.471304 0.597808
vt 0.599513 0.575026
vt 0.344698 0.006160
vt 0.252855 0.052022
vt 0.226806 0.112302
vt 0.251146 0.185025
vt 0.167480 0.203941
vt 0.166289 0.006391
vt 0.484261 0.734050
vt 0.524625 0.689751
vt 0.537732 0.793586
vt 0.441342 0.793586
vt 0.344698 0.793642
vt 0.358272 0.689750
vt 0.410057 0.751337
vt 0.441342 0.793642
vt 0.168644 0.335829
vt 0.344698 0.512299
vt 0.523833 0.000000
vt 0.522193 0.344813
vt 0.344698 0.344813
vt 0.344698 0.000000
vt 0.614471 0.512815
vt 0.654866 0.689543
vt 0.344698 0.689750
vt 0.268174 0.133436
vt 0.333762 0.265133
vt 0.344698 0.350541
vt 0.259330 0.350652
vt 0.245607 0.297130
vt -0.000000 0.350987
vt 0.000000 0.241808
vt 0.689512 0.000000
vt 0.689511 0.344813
vt 0.344698 0.345021
vt 0.654866 0.344813
vt 0.308017 0.697465
vt 0.000000 0.695146
vt 0.000000 0.670578
vt 0.249827 0.580778
vt 0.245794 0.400473
vt 0.000000 0.460096
vt -0.000000 0.350987
vt 0.308017 0.353307
vt 0.002130 0.590929
vt 0.092225 0.574778
vt 0.689555 0.078423
vt 0.901211 0.089362
vt 0.689512 0.092523
vt 0.654866 0.689559
vt 0.688495 0.689974
vt 0.745037 0.689559
vt 0.693285 0.753737
vt 0.879022 0.125018
vt 0.754049 0.109867
vt 0.092565 0.000000
vt 0.099211 0.093401
vt 0.079292 0.006503
vt 0.537732 0.769572
vt 0.565412 0.689751
vt 0.614214 0.769572
vt 0.674251 0.879316
vt 0.689592 0.146872
vt 0.689512 -0.000000
vt 0.999813 0.000194
vt 0.017705 0.112192
vt 0.000000 0.031190
vt 0.000000 0.006606
vt 0.127615 0.038669
vt 0.148500 0.006414
s 0
usemtl Material.005
f 88/185/42 87/186/42 91/187/42 89/188/42 90/189/42
f 90/190/43 89/191/43 109/192/43 106/193/43
f 89/188/44 91/187/44 93/194/44
f 87/186/45 92/195/45 93/194/45
f 93/194/46 92/195/46 89/188/46
f 93/194/47 91/187/47 87/186/47
f 94/196/48 98/197/48 96/198/48
f 94/199/49 96/200/49 97/201/49 95/202/49
f 95/203/50 99/204/50 94/205/50
f 89/206/51 101/207/51 100/208/51 103/209/51 108/210/51 109/211/51
f 100/212/52 101/213/52 104/214/52
f 100/212/53 104/214/53 103/215/53
f 104/216/54 101/217/54 102/218/54
f 103/219/55 104/216/55 102/218/55
f 109/211/56 108/210/56 105/220/56 107/221/56 106/222/56
f 106/222/57 107/223/57 88/224/57 90/225/57
f 122/211/58 132/222/58 116/221/58 131/220/58 130/210/58
f 107/221/59 105/226/59 94/205/59 99/204/59 95/203/59 87/227/59 88/228/59
f 105/220/60 108/210/60 103/209/60 102/229/60 101/207/60 89/206/60 92/230/60 87/231/60 95/232/60 97/233/60 96/198/60 98/197/60 94/196/60
f 112/234/61 115/235/61 130/210/61 131/220/61
f 111/236/62 110/237/62 116/223/62 132/222/62
f 110/238/63 112/239/63 131/226/63 116/221/63
f 111/240/64 113/241/64 117/242/64 121/243/64 120/244/64 115/245/64 112/246/64 110/247/64
f 117/242/65 119/248/65 118/249/65
f 115/245/66 120/244/66 121/243/66 118/249/66
f 118/249/67 119/248/67 115/245/67
f 118/249/68 121/243/68 117/242/68
f 114/250/69 126/251/69 124/252/69
f 123/253/70 128/254/70 127/255/70 129/256/70
f 124/252/71 126/251/71 125/257/71 129/258/71
f 124/259/72 127/260/72 114/261/72
f 129/262/73 127/263/73 124/264/73
f 129/256/74 125/265/74 123/253/74
f 132/193/43 122/192/43 123/266/43 125/257/43 126/251/43 114/250/43 113/267/43 111/268/43
f 122/211/75 130/210/75 115/235/75 119/269/75 117/270/75 113/271/75 114/261/75 127/260/75 128/272/75 123/273/75
o Cube.005
v -0.634977 -2.277978 9.683192
v -1.076897 -2.277978 9.312378
v -0.506366 -4.564946 9.529920
v -0.948287 -4.564945 9.159104
v -0.515547 -4.401686 9.540862
v -0.594203 -3.003018 9.634602
v 0.102230 -3.776021 8.792196
v -0.969823 -2.594517 9.366073
v -0.908241 -3.792458 9.280931
v -0.541139 -3.739344 9.301277
v 5.014360 -3.813530 2.950574
v 2.441430 -4.163727 6.016874
v 3.918657 -3.925942 3.708464
v 2.546252 -4.108433 5.279801
v 3.141877 -3.487184 5.172795
v 4.222794 -3.705795 3.890134
v 2.937294 -4.139637 5.425924
v 3.689268 -3.779570 4.343955
v 5.543313 -1.542807 2.201816
v 5.209012 -3.726887 1.821120
v 5.141367 -1.431621 1.901736
v 5.646202 -2.405584 2.197574
v 5.675697 -3.723517 2.162423
v 4.015441 -3.708891 -1.061980
v -1.163100 -2.802764 -10.031471
v -0.663501 -2.802764 -10.319916
v -0.563460 -0.515797 -10.146637
v -1.063058 -0.515797 -9.858194
v -0.659591 -1.224365 -9.895490
v 1.905247 -0.947764 -5.870714
v -0.901025 -1.291319 -10.030089
v -0.272022 -1.138406 -9.641853
v 4.487515 -1.524811 -1.245914
v 2.666720 -1.252578 -4.343271
v 3.145348 -1.765451 -3.722797
v 2.286515 -1.372741 -5.210339
v 3.878612 -1.842944 -2.452748
v 1.796986 -0.980556 -5.375408
v 2.776515 -2.695442 -4.361636
v 2.005742 -2.963720 -5.696652
v 1.586386 -2.345422 -6.422997
v 2.093787 -2.089137 -5.544154
v 1.931709 -2.482989 -5.542144
v 4.068060 -1.413625 -0.970842
v 4.518720 -2.387588 -1.344048
v 4.495777 -3.705521 -1.383787
vn 0.7656 0.0479 0.6416
vn -0.7660 -0.0000 -0.6428
vn 0.0282 0.9913 0.1288
vn -0.6403 -0.0872 0.7631
vn 0.6037 0.2917 0.7419
vn -0.4415 -0.2146 0.8712
vn 0.5813 -0.3004 0.7562
vn -0.1004 0.3350 0.9369
vn -0.0489 -0.9955 -0.0816
vn 0.5626 -0.6055 0.5630
vn 0.3289 -0.9417 0.0707
vn 0.7658 0.0093 0.6430
vn 0.8269 -0.0417 0.5608
vn 0.3124 -0.8949 0.3189
vn 0.0560 -0.9962 -0.0668
vn 0.7658 -0.0010 0.6431
vn 0.5633 -0.0476 0.8249
vn 0.5824 0.0476 -0.8115
vn -0.4981 0.0872 -0.8627
vn -0.0436 -0.9962 -0.0755
vn 0.4230 0.2343 -0.8753
vn 0.5665 -0.3425 -0.7495
vn 0.4984 0.2240 -0.8375
vn 0.5282 -0.3464 -0.7752
vn 0.8513 0.2158 -0.4783
vn 0.8779 0.2347 -0.4175
vn 0.1818 0.9778 0.1045
vn 0.8660 -0.0000 -0.5000
vn 0.8020 0.2911 -0.5215
vn 0.7459 -0.3100 -0.5896
vn 0.9152 0.2440 -0.3207
vn 0.8513 -0.3523 -0.3888
vn -0.8660 -0.0000 0.5000
vn 0.1405 0.9899 0.0202
vn 0.8669 0.0146 -0.4983
vt -0.000000 0.350987
vt 0.000000 0.241808
vt 0.167480 0.203941
vt 0.168644 0.335829
vt 0.689512 0.000000
vt 0.689511 0.344813
vt 0.522193 0.344813
vt 0.523833 0.000000
vt 0.344698 0.345021
vt 0.654866 0.344813
vt 0.614471 0.512815
vt 0.344698 0.512299
vt 0.308017 0.697465
vt 0.000000 0.695146
vt 0.000000 0.670578
vt 0.249827 0.580778
vt 0.245794 0.400473
vt 0.000000 0.460096
vt -0.000000 0.350987
vt 0.308017 0.353307
vt 0.002130 0.590929
vt 0.092225 0.574778
vt 0.689555 0.078423
vt 0.901211 0.089362
vt 0.689512 0.092523
vt 0.654866 0.689559
vt 0.688495 0.689974
vt 0.745037 0.689559
vt 0.693285 0.753737
vt 0.879022 0.125018
vt 0.754049 0.109867
vt 0.092565 0.000000
vt 0.099211 0.093401
vt 0.079292 0.006503
vt 0.537732 0.769572
vt 0.565412 0.689751
vt 0.614214 0.769572
vt 0.674251 0.879316
vt 0.999903 0.164001
vt 0.689602 0.164466
vt 0.689592 0.146872
vt 0.689512 -0.000000
vt 0.999813 0.000194
vt 0.166289 0.006391
vt 0.017705 0.112192
vt 0.000000 0.031190
vt 0.000000 0.006606
vt 0.127615 0.038669
vt 0.148500 0.006414
vt 0.655886 0.344813
vt 0.962731 0.344813
vt 0.775894 0.461718
vt 0.961711 0.689559
vt 0.654866 0.689559
vt 1.000000 0.341113
vt 0.689699 0.340920
vt 0.851941 0.448675
vt 0.964108 0.430543
vt 0.231092 0.330216
vt 0.190265 0.268566
vt 0.215545 0.260940
vt 0.000000 0.777279
vt 0.028071 0.697465
vt 0.043389 0.728446
vt 0.063180 0.777279
vt 0.654866 0.604167
vt 0.471304 0.597808
vt 0.599513 0.575026
vt 0.344698 0.006160
vt 0.252855 0.052022
vt 0.226806 0.112302
vt 0.251146 0.185025
vt 0.484261 0.734050
vt 0.524625 0.689751
vt 0.537732 0.793586
vt 0.441342 0.793586
vt 0.344698 0.793642
vt 0.358272 0.689750
vt 0.410057 0.751337
vt 0.441342 0.793642
vt 0.344698 0.344813
vt 0.344698 0.000000
vt 0.654866 0.689543
vt 0.344698 0.689750
vt 0.268174 0.133436
vt 0.333762 0.265133
vt 0.344698 0.350541
vt 0.259330 0.350652
vt 0.245607 0.297130
s 0
usemtl Material.006
f 133/274/76 138/275/76 154/276/76 151/277/76
f 136/278/77 134/279/77 153/280/77 152/281/77
f 134/282/78 133/283/78 151/284/78 153/285/78
f 136/286/79 135/287/79 137/288/79 141/289/79 140/290/79 138/291/79 133/292/79 134/293/79
f 137/288/80 139/294/80 142/295/80
f 138/291/81 140/290/81 141/289/81 142/295/81
f 142/295/82 139/294/82 138/291/82
f 142/295/83 141/289/83 137/288/83
f 144/296/84 146/297/84 149/298/84
f 143/299/85 148/300/85 147/301/85 150/302/85
f 149/298/86 146/297/86 145/303/86 150/304/86
f 149/305/87 147/306/87 144/307/87
f 150/308/88 147/309/88 149/310/88
f 150/302/89 145/311/89 143/299/89
f 152/312/90 155/313/90 143/314/90 145/303/90 146/297/90 144/296/90 135/315/90 136/316/90
f 155/317/91 154/276/91 138/275/91 139/318/91 137/319/91 135/320/91 144/307/91 147/306/91 148/321/91 143/322/91
f 178/317/92 177/276/92 165/277/92 176/285/92 156/281/92
f 155/317/93 152/281/93 153/285/93 151/277/93 154/276/93
f 160/323/94 159/324/94 163/325/94 158/326/94 157/327/94
f 157/328/95 158/329/95 178/313/95 156/312/95
f 158/326/96 163/325/96 161/330/96
f 159/324/97 164/331/97 161/330/97
f 161/330/98 164/331/98 158/326/98
f 161/330/99 163/325/99 159/324/99
f 166/332/100 169/333/100 167/334/100
f 166/335/101 167/336/101 168/337/101 162/338/101
f 162/339/102 170/340/102 166/341/102
f 158/342/103 172/343/103 171/344/103 174/345/103 177/276/103 178/317/103
f 171/346/104 172/347/104 175/348/104
f 171/346/105 175/348/105 174/349/105
f 175/350/106 172/351/106 173/352/106
f 174/353/107 175/350/107 173/352/107
f 156/281/108 176/280/108 160/354/108 157/355/108
f 176/285/109 165/284/109 166/341/109 170/340/109 162/339/109 159/356/109 160/357/109
f 165/277/110 177/276/110 174/345/110 173/358/110 172/343/110 158/342/110 164/359/110 159/360/110 162/361/110 168/362/110 167/334/110 169/333/110 166/332/110
o Cube.006
v 0.787312 -5.111531 -10.322893
v 1.364198 -5.111531 -10.322893
v 0.787312 -6.855718 9.613245
v 1.364198 -6.855718 9.613245
v 0.787312 -7.398499 -10.522978
v 1.364198 -7.398499 -10.522978
v 0.787312 -9.142687 9.413160
v 1.364198 -9.142687 9.413160
v 1.137927 -7.631241 9.545395
v 0.787312 -7.367653 8.931112
v 0.996139 -7.524100 9.323343
v 0.891579 -6.428116 2.945243
v 0.787312 -6.423750 4.675834
v 0.787312 -6.798332 2.091322
v 0.787312 -6.709858 3.851086
v 0.787312 -6.619988 0.633619
v 1.128722 -6.390958 4.301017
v 0.787312 -7.235239 -10.508694
v 0.787312 -5.836571 -10.386326
v 0.795300 -6.787624 -9.444183
v 1.247660 -5.428070 -10.350586
v 1.255213 -6.626011 -10.455393
v 0.960918 -6.611973 -10.229136
v 0.787312 -8.149916 -1.934249
v 0.787312 -7.799718 -5.937019
v 1.139507 -8.037503 -3.219131
v 1.180795 -7.855012 -5.305010
v 0.793301 -7.323918 -4.739362
v 0.789750 -7.830482 -3.125431
v 0.787312 -7.909952 -5.173128
v 0.906744 -7.783216 -3.818341
v 0.787312 -7.842289 2.656291
v 0.787312 -8.374179 4.127830
v 0.787312 -7.910914 5.061167
v 0.787312 -7.482304 4.106286
v 0.928680 -7.883943 4.115988
v 0.863402 -6.072332 -0.640236
v 1.364198 -8.236559 -0.943917
v 1.364198 -5.957889 -0.648987
v 0.787312 -6.934051 -0.721724
v 0.787312 -8.239929 -0.905392
vn -0.9989 0.0471 0.0089
vn -0.0000 -0.0872 0.9962
vn -0.0000 -0.9962 -0.0872
vn 1.0000 -0.0000 -0.0000
vn -0.1044 0.9902 0.0929
vn -0.0000 0.0872 -0.9962
vn -0.8040 0.1359 0.5789
vn -0.8653 -0.4008 0.3008
vn -0.8504 0.1379 0.5078
vn -0.8451 -0.4119 0.3409
vn -0.9764 0.2145 0.0262
vn -0.9690 0.2446 -0.0355
vn -0.1052 0.9944 -0.0088
vn -0.9394 0.3186 -0.1269
vn -0.2217 -0.0462 -0.9740
vn -0.9314 -0.2602 -0.2547
vn -0.5253 0.4657 -0.7121
vn 0.0900 -0.9857 -0.1422
vn -0.7928 -0.5842 -0.1737
vn -0.2974 -0.9547 -0.0087
vn -1.0000 0.0092 0.0013
vn -0.9939 -0.0588 0.0931
vn -0.4442 -0.8737 -0.1982
vn -1.0000 -0.0000 -0.0000
vn -0.9553 0.2779 0.1005
vn -0.9407 -0.3291 0.0817
vn -0.9529 0.2715 -0.1348
vn -0.9316 -0.3315 -0.1488
vn -1.0000 -0.0009 -0.0006
vn -0.1116 0.9901 0.0854
vn -0.9999 0.0147 0.0007
vt -0.000000 0.350987
vt 0.000000 0.241808
vt 0.167480 0.203941
vt 0.168644 0.335829
vt 0.655886 0.344813
vt 0.962731 0.344813
vt 0.775894 0.461718
vt 0.961711 0.689559
vt 0.654866 0.689559
vt 1.000000 0.341113
vt 0.689699 0.340920
vt 0.689602 0.164466
vt 0.999903 0.164001
vt 0.689512 0.000000
vt 0.689511 0.344813
vt 0.522193 0.344813
vt 0.523833 0.000000
vt 0.344698 0.345021
vt 0.654866 0.344813
vt 0.614471 0.512815
vt 0.344698 0.512299
vt 0.308017 0.697465
vt 0.000000 0.695146
vt 0.000000 0.670578
vt 0.249827 0.580778
vt 0.245794 0.400473
vt 0.000000 0.460096
vt -0.000000 0.350987
vt 0.308017 0.353307
vt 0.851941 0.448675
vt 0.964108 0.430543
vt 0.231092 0.330216
vt 0.190265 0.268566
vt 0.215545 0.260940
vt 0.000000 0.777279
vt 0.028071 0.697465
vt 0.043389 0.728446
vt 0.063180 0.777279
vt 0.654866 0.604167
vt 0.471304 0.597808
vt 0.599513 0.575026
vt 0.002130 0.590929
vt 0.092225 0.574778
vt 0.689555 0.078423
vt 0.901211 0.089362
vt 0.689512 0.092523
vt 0.654866 0.689559
vt 0.688495 0.689974
vt 0.745037 0.689559
vt 0.693285 0.753737
vt 0.879022 0.125018
vt 0.754049 0.109867
vt 0.092565 0.000000
vt 0.099211 0.093401
vt 0.079292 0.006503
vt 0.537732 0.769572
vt 0.565412 0.689751
vt 0.614214 0.769572
vt 0.674251 0.879316
vt 0.344698 0.006160
vt 0.252855 0.052022
vt 0.226806 0.112302
vt 0.251146 0.185025
vt 0.166289 0.006391
vt 0.484261 0.734050
vt 0.524625 0.689751
vt 0.537732 0.793586
vt 0.441342 0.793586
vt 0.344698 0.793642
vt 0.358272 0.689750
vt 0.410057 0.751337
vt 0.441342 0.793642
vt 0.689592 0.146872
vt 0.689512 -0.000000
vt 0.999813 0.000194
vt 0.344698 0.344813
vt 0.344698 0.000000
vt 0.017705 0.112192
vt 0.000000 0.031190
vt 0.000000 0.006606
vt 0.127615 0.038669
vt 0.148500 0.006414
vt 0.654866 0.689543
vt 0.344698 0.689750
vt 0.268174 0.133436
vt 0.333762 0.265133
vt 0.344698 0.350541
vt 0.259330 0.350652
vt 0.245607 0.297130
s 0
usemtl Material.007
f 179/363/111 197/364/111 218/365/111 215/366/111
f 182/367/112 181/368/112 187/369/112 185/370/112 186/371/112
f 186/372/113 185/373/113 219/374/113 216/375/113
f 184/376/114 180/377/114 217/378/114 216/379/114
f 180/380/115 179/381/115 215/382/115 217/383/115
f 184/384/116 183/385/116 196/386/116 200/387/116 199/388/116 197/389/116 179/390/116 180/391/116
f 185/370/117 187/369/117 189/392/117
f 181/368/118 188/393/118 189/392/118
f 189/392/119 188/393/119 185/370/119
f 189/392/120 187/369/120 181/368/120
f 190/394/121 194/395/121 192/396/121
f 190/397/122 192/398/122 193/399/122 191/400/122
f 191/401/123 195/402/123 190/403/123
f 196/386/124 198/404/124 201/405/124
f 197/389/125 199/388/125 200/387/125 201/405/125
f 201/405/126 198/404/126 197/389/126
f 201/405/127 200/387/127 196/386/127
f 203/406/128 205/407/128 208/408/128
f 202/409/129 207/410/129 206/411/129 209/412/129
f 208/408/130 205/407/130 204/413/130 209/414/130
f 208/415/131 206/416/131 203/417/131
f 209/418/132 206/419/132 208/420/132
f 209/412/133 204/421/133 202/409/133
f 185/422/134 211/423/134 210/424/134 213/425/134 218/365/134 219/426/134
f 210/427/135 211/428/135 214/429/135
f 210/427/136 214/429/136 213/430/136
f 214/431/137 211/432/137 212/433/137
f 213/434/138 214/431/138 212/433/138
f 216/375/113 219/374/113 202/435/113 204/413/113 205/407/113 203/406/113 183/436/113 184/437/113
f 216/379/114 217/378/114 182/438/114 186/439/114
f 219/426/139 218/365/139 197/364/139 198/440/139 196/441/139 183/442/139 203/417/139 206/416/139 207/443/139 202/444/139
f 217/383/140 215/382/140 190/403/140 195/402/140 191/401/140 181/445/140 182/446/140
f 215/366/141 218/365/141 213/425/141 212/447/141 211/423/141 185/422/141 188/448/141 181/449/141 191/450/141 193/451/141 192/396/141 194/395/141 190/394/141
o Cube.011
v 1.300057 10.868339 9.413162
v 0.723170 10.868339 9.413162
v 1.300054 9.124154 -10.522976
v 0.723167 9.124154 -10.522976
v 1.300057 8.581370 9.613245
v 0.723170 8.581370 9.613245
v 1.300054 6.837186 -10.322893
v 0.723167 6.837186 -10.322893
v 0.949439 8.348632 -10.455128
v 1.300054 8.612219 -9.840845
v 1.091227 8.455772 -10.233076
v 1.195788 9.551755 -3.854974
v 1.300055 9.556121 -5.585566
v 1.300055 9.181539 -3.001054
v 1.300055 9.270014 -4.760818
v 1.300055 9.359882 -1.543350
v 0.958645 9.588913 -5.210749
v 1.300057 8.744630 9.598961
v 1.300057 10.143298 9.476595
v 1.292068 9.192245 8.534451
v 0.839709 10.551799 9.440855
v 0.832155 9.353859 9.545662
v 1.126451 9.367896 9.319405
v 1.300056 7.829955 1.024517
v 1.300056 8.180151 5.027287
v 0.947861 7.942368 2.309399
v 0.906573 8.124858 4.395278
v 1.294067 8.655951 3.829630
v 1.297618 8.149389 2.215699
v 1.300056 8.069919 4.263395
v 1.180624 8.196655 2.908609
v 1.300055 8.137582 -3.566023
v 1.300055 7.605693 -5.037562
v 1.300054 8.068957 -5.970899
v 1.300055 8.497568 -5.016018
v 1.158687 8.095929 -5.025720
v 1.223965 9.907538 -0.269496
v 0.723169 7.743312 0.034185
v 0.723169 10.021982 -0.260745
v 1.300055 9.045819 -0.188008
v 1.300055 7.739942 -0.004340
vn 0.9989 0.0471 -0.0089
vn -0.0000 -0.0872 -0.9962
vn -0.0000 -0.9962 0.0872
vn -1.0000 -0.0000 -0.0000
vn 0.1044 0.9902 -0.0929
vn -0.0000 0.0872 0.9962
vn 0.8040 0.1359 -0.5789
vn 0.8653 -0.4008 -0.3008
vn 0.8504 0.1379 -0.5078
vn 0.8451 -0.4119 -0.3409
vn 0.9764 0.2145 -0.0262
vn 0.9690 0.2446 0.0355
vn 0.1052 0.9944 0.0088
vn 0.9394 0.3186 0.1269
vn 0.2217 -0.0462 0.9740
vn 0.9314 -0.2602 0.2547
vn 0.5253 0.4657 0.7121
vn -0.0900 -0.9857 0.1422
vn 0.7928 -0.5842 0.1737
vn 0.2974 -0.9547 0.0087
vn 1.0000 0.0092 -0.0013
vn 0.9939 -0.0588 -0.0931
vn 0.4442 -0.8737 0.1982
vn 1.0000 -0.0000 -0.0000
vn 0.9553 0.2779 -0.1005
vn 0.9407 -0.3291 -0.0817
vn 0.9529 0.2715 0.1348
vn 0.9316 -0.3315 0.1488
vn 1.0000 -0.0009 0.0006
vn 0.1116 0.9901 -0.0854
vn 0.9999 0.0147 -0.0007
vt -0.000000 0.350987
vt 0.000000 0.241808
vt 0.167480 0.203941
vt 0.168644 0.335829
vt 0.655886 0.344813
vt 0.962731 0.344813
vt 0.775894 0.461718
vt 0.961711 0.689559
vt 0.654866 0.689559
vt 1.000000 0.341113
vt 0.689699 0.340920
vt 0.689602 0.164466
vt 0.999903 0.164001
vt 0.689512 0.000000
vt 0.689511 0.344813
vt 0.522193 0.344813
vt 0.523833 0.000000
vt 0.344698 0.345021
vt 0.654866 0.344813
vt 0.614471 0.512815
vt 0.344698 0.512299
vt 0.308017 0.697465
vt 0.000000 0.695146
vt 0.000000 0.670578
vt 0.249827 0.580778
vt 0.245794 0.400473
vt 0.000000 0.460096
vt -0.000000 0.350987
vt 0.308017 0.353307
vt 0.851941 0.448675
vt 0.964108 0.430543
vt 0.231092 0.330216
vt 0.190265 0.268566
vt 0.215545 0.260940
vt 0.000000 0.777279
vt 0.028071 0.697465
vt 0.043389 0.728446
vt 0.063180 0.777279
vt 0.654866 0.604167
vt 0.471304 0.597808
vt 0.599513 0.575026
vt 0.002130 0.590929
vt 0.092225 0.574778
vt 0.689555 0.078423
vt 0.901211 0.089362
vt 0.689512 0.092523
vt 0.654866 0.689559
vt 0.688495 0.689974
vt 0.745037 0.689559
vt 0.693285 0.753737
vt 0.879022 0.125018
vt 0.754049 0.109867
vt 0.092565 0.000000
vt 0.099211 0.093401
vt 0.079292 0.006503
vt 0.537732 0.769572
vt 0.565412 0.689751
vt 0.614214 0.769572
vt 0.674251 0.879316
vt 0.344698 0.006160
vt 0.252855 0.052022
vt 0.226806 0.112302
vt 0.251146 0.185025
vt 0.166289 0.006391
vt 0.484261 0.734050
vt 0.524625 0.689751
vt 0.537732 0.793586
vt 0.441342 0.793586
vt 0.344698 0.793642
vt 0.358272 0.689750
vt 0.410057 0.751337
vt 0.441342 0.793642
vt 0.689592 0.146872
vt 0.689512 -0.000000
vt 0.999813 0.000194
vt 0.344698 0.344813
vt 0.344698 0.000000
vt 0.017705 0.112192
vt 0.000000 0.031190
vt 0.000000 0.006606
vt 0.127615 0.038669
vt 0.148500 0.006414
vt 0.654866 0.689543
vt 0.344698 0.689750
vt 0.268174 0.133436
vt 0.333762 0.265133
vt 0.344698 0.350541
vt 0.259330 0.350652
vt 0.245607 0.297130
s 0
usemtl Material.008
f 220/452/142 238/453/142 259/454/142 256/455/142
f 223/456/143 222/457/143 228/458/143 226/459/143 227/460/143
f 227/461/144 226/462/144 260/463/144 257/464/144
f 225/465/145 221/466/145 258/467/145 257/468/145
f 221/469/146 220/470/146 256/471/146 258/472/146
f 225/473/147 224/474/147 237/475/147 241/476/147 240/477/147 238/478/147 220/479/147 221/480/147
f 226/459/148 228/458/148 230/481/148
f 222/457/149 229/482/149 230/481/149
f 230/481/150 229/482/150 226/459/150
f 230/481/151 228/458/151 222/457/151
f 231/483/152 235/484/152 233/485/152
f 231/486/153 233/487/153 234/488/153 232/489/153
f 232/490/154 236/491/154 231/492/154
f 237/475/155 239/493/155 242/494/155
f 238/478/156 240/477/156 241/476/156 242/494/156
f 242/494/157 239/493/157 238/478/157
f 242/494/158 241/476/158 237/475/158
f 244/495/159 246/496/159 249/497/159
f 243/498/160 248/499/160 247/500/160 250/501/160
f 249/497/161 246/496/161 245/502/161 250/503/161
f 249/504/162 247/505/162 244/506/162
f 250/507/163 247/508/163 249/509/163
f 250/501/164 245/510/164 243/498/164
f 226/511/165 252/512/165 251/513/165 254/514/165 259/454/165 260/515/165
f 251/516/166 252/517/166 255/518/166
f 251/516/167 255/518/167 254/519/167
f 255/520/168 252/521/168 253/522/168
f 254/523/169 255/520/169 253/522/169
f 257/464/144 260/463/144 243/524/144 245/502/144 246/496/144 244/495/144 224/525/144 225/526/144
f 257/468/145 258/467/145 223/527/145 227/528/145
f 260/515/170 259/454/170 238/453/170 239/529/170 237/530/170 224/531/170 244/506/170 247/505/170 248/532/170 243/533/170
f 258/472/171 256/471/171 231/492/171 236/491/171 232/490/171 222/534/171 223/535/171
f 256/455/172 259/454/172 254/514/172 253/536/172 252/512/172 226/511/172 229/537/172 222/538/172 232/539/172 234/540/172 233/485/172 235/484/172 231/483/172
