# Blender 5.1.1
# www.blender.org
mtllib Janela barricada.mtl
o Cube.002
v -0.960000 -10.712759 -6.770641
v -0.001745 -9.912760 -6.954314
v -0.960000 -10.712759 -7.570641
v -0.960000 -9.912760 -7.570641
v 0.960000 -10.712759 -6.770641
v 0.298567 -9.912760 -6.954314
v 0.960000 -10.712759 -7.570641
v 0.960000 -9.912760 -7.570641
v -0.960000 12.087242 -6.770641
v -0.960000 12.087242 -7.570641
v 0.960000 12.087242 -7.570641
v 0.960000 12.087242 -6.770641
v -0.960000 -10.712759 7.229360
v -0.001745 -9.912760 6.310697
v 0.298567 -9.912760 6.310697
v 0.960000 -10.712759 7.229360
v -0.960000 11.087242 -6.770641
v -0.960000 11.087242 -7.570641
v 0.960000 11.087242 -6.770641
v 0.960000 11.087242 -7.570641
v 0.960000 12.087242 7.229360
v -0.960000 12.087242 7.229360
v -0.960000 11.087242 7.229360
v 0.960000 11.087242 7.229360
v 0.960000 11.087242 6.229360
v -0.960000 11.087242 6.229360
v -0.960000 12.087242 6.229360
v 0.960000 12.087242 6.229360
v 0.960000 -9.912758 7.229360
v -0.960000 -9.912758 7.229360
v 0.960000 -9.912758 6.229360
v -0.960000 -9.912758 6.229360
v 0.960000 -9.912760 -6.770641
v -0.960000 -9.912760 -6.770641
v 0.960000 -9.912760 7.229360
v -0.960000 -9.912760 7.229360
v 0.298567 11.087240 -6.954314
v -0.001745 11.087240 -6.954314
v 0.298567 11.087240 6.310697
v -0.001745 11.087240 6.310697
vn -1.0000 -0.0000 -0.0000
vn -0.0000 -0.0000 -1.0000
vn 1.0000 -0.0000 -0.0000
vn -0.0000 -1.0000 -0.0000
vn -0.0000 1.0000 -0.0000
vn -0.0000 -0.0000 1.0000
vt 0.314854 0.512763
vt 0.314854 0.494771
vt 0.332846 0.494771
vt 0.332846 0.512763
vt 0.964017 0.512763
vt 0.964017 0.494771
vt 0.982008 0.494771
vt 0.982008 0.512763
vt 0.332846 0.512763
vt 0.332846 0.494771
vt 0.350838 0.494771
vt 0.350838 0.512763
vt 0.000000 0.512763
vt 0.000000 0.494771
vt 0.053975 0.845609
vt 0.035983 0.845609
vt 0.035983 0.827617
vt 0.053975 0.827617
vt 0.332846 0.022490
vt 0.314854 0.022490
vt 0.314854 0.000000
vt 0.332846 0.000000
vt 0.071967 0.845609
vt 0.071967 0.827617
vt 0.000000 0.022490
vt 0.022490 0.022490
vt 0.022490 0.494771
vt 0.000000 0.494771
vt 0.982008 0.022490
vt 0.964017 0.022490
vt 0.964017 0.000000
vt 0.982008 0.000000
vt 0.350838 0.022490
vt 0.332846 0.022490
vt 0.332846 0.000000
vt 0.350838 0.000000
vt 0.149562 0.530754
vt 0.131570 0.530754
vt 0.131570 0.512763
vt 0.149562 0.512763
vt 0.035983 0.512763
vt 0.053975 0.512763
vt 0.984822 0.967053
vt 0.982008 0.967053
vt 0.982008 0.494771
vt 0.984822 0.494771
vt 0.665692 0.494771
vt 0.665692 0.512763
vt 0.017992 0.985044
vt 0.000000 0.985044
vt 0.017992 0.512763
vt 1.000000 0.022490
vt 1.000000 0.000000
vt 0.071967 0.535252
vt 0.053975 0.535252
vt 0.071967 0.512763
vt 0.643202 0.022490
vt 0.643202 0.000000
vt 0.665692 0.000000
vt 0.665692 0.022490
vt 0.022490 0.000000
vt 0.000000 0.000000
vt 0.107950 0.805127
vt 0.089958 0.805127
vt 0.089958 0.512763
vt 0.107950 0.512763
vt 0.131570 0.535252
vt 0.113578 0.535252
vt 0.113578 0.512763
vt 1.000000 0.494771
vt 0.665692 0.494771
vt 0.643202 0.494771
vt 0.035983 0.985044
vt 0.017992 0.985044
vt 0.009012 0.989175
vt 0.006198 0.989175
vt 0.083760 0.533423
vt 0.080946 0.533423
vt 0.080946 0.831748
vt 0.083760 0.831748
vt 0.089958 0.827617
vt 0.113578 0.811087
vt 0.110764 0.811087
vt 0.110764 0.512763
vt 0.113578 0.512763
vt 0.964017 0.472281
vt 0.665692 0.472281
vt 0.665692 0.000000
vt 0.110764 0.985044
vt 0.107950 0.985044
vt 0.110764 0.512763
vt 0.964017 0.944563
vt 0.665692 0.944563
vt 0.665692 0.472281
vt 0.964017 0.472281
s 0
usemtl Material.001
f 1/1/1 34/2/1 4/3/1 3/4/1
f 3/5/2 4/6/2 8/7/2 7/8/2
f 7/9/3 8/10/3 33/11/3 5/12/3
f 34/2/1 1/1/1 13/13/1 36/14/1
f 3/15/4 7/16/4 5/17/4 1/18/4
f 18/19/1 17/20/1 9/21/1 10/22/1
f 11/23/5 10/15/5 9/18/5 12/24/5
f 23/25/1 26/26/1 32/27/1 30/28/1
f 20/29/2 18/30/2 10/31/2 11/32/2
f 19/33/3 20/34/3 11/35/3 12/36/3
f 16/37/6 35/38/6 36/39/6 13/40/6
f 1/18/4 5/17/4 16/41/4 13/42/4
f 14/43/6 15/44/6 39/45/6 40/46/6
f 5/12/3 33/11/3 35/47/3 16/48/3
f 33/11/3 8/10/3 20/34/3 19/33/3
f 8/7/2 4/6/2 18/30/2 20/29/2
f 34/49/6 33/50/6 19/13/6 17/51/6
f 4/3/1 34/2/1 17/20/1 18/19/1
f 23/52/6 24/29/6 21/32/6 22/53/6
f 28/54/5 27/55/5 22/42/5 21/56/5
f 25/57/3 28/58/3 21/59/3 24/60/3
f 27/61/1 26/26/1 23/25/1 22/62/1
f 9/21/1 17/20/1 26/26/1 27/61/1
f 19/33/3 12/36/3 28/58/3 25/57/3
f 12/24/5 9/18/5 27/55/5 28/54/5
f 17/63/4 19/64/4 25/65/4 26/66/4
f 32/67/4 31/68/4 29/69/4 30/39/4
f 24/29/6 23/52/6 30/70/6 29/45/6
f 25/57/3 24/60/3 29/71/3 31/72/3
f 26/51/2 25/41/2 31/73/2 32/74/2
f 2/75/4 6/76/4 33/50/4 34/49/4
f 15/77/5 14/78/5 36/56/5 35/65/5
f 14/78/5 2/79/5 34/24/5 36/56/5
f 6/80/5 15/77/5 35/65/5 33/81/5
f 37/82/5 38/83/5 40/84/5 39/85/5
f 2/86/1 14/87/1 40/88/1 38/31/1
f 6/89/2 2/90/2 38/66/2 37/91/2
f 15/92/3 6/93/3 37/94/3 39/95/3
o Cube.011
v 1.300057 10.868339 9.413162
v 0.723170 10.868339 9.413162
v 1.300054 9.124154 -10.522976
v 0.723167 9.124154 -10.522976
v 1.300057 8.581370 9.613245
v 0.723170 8.581370 9.613245
v 1.300054 6.837186 -10.322893
v 0.723167 6.837186 -10.322893
v 0.949439 8.348632 -10.455128
v 1.300054 8.612219 -9.840845
v 1.091227 8.455772 -10.233076
v 1.195788 9.551755 -3.854974
v 1.300055 9.556121 -5.585566
v 1.300055 9.181539 -3.001054
v 1.300055 9.270014 -4.760818
v 1.300055 9.359882 -1.543350
v 0.958645 9.588913 -5.210749
v 1.300057 8.744630 9.598961
v 1.300057 10.143298 9.476595
v 1.292068 9.192245 8.534451
v 0.839709 10.551799 9.440855
v 0.832155 9.353859 9.545662
v 1.126451 9.367896 9.319405
v 1.300056 7.829955 1.024517
v 1.300056 8.180151 5.027287
v 0.947861 7.942368 2.309399
v 0.906573 8.124858 4.395278
v 1.294067 8.655951 3.829630
v 1.297618 8.149389 2.215699
v 1.300056 8.069919 4.263395
v 1.180624 8.196655 2.908609
v 1.300055 8.137582 -3.566023
v 1.300055 7.605693 -5.037562
v 1.300054 8.068957 -5.970899
v 1.300055 8.497568 -5.016018
v 1.158687 8.095929 -5.025720
v 1.223965 9.907538 -0.269496
v 0.723169 7.743312 0.034185
v 0.723169 10.021982 -0.260745
v 1.300055 9.045819 -0.188008
v 1.300055 7.739942 -0.004340
vn 0.9989 0.0471 -0.0089
vn -0.0000 -0.0872 -0.9962
vn -0.0000 -0.9962 0.0872
vn -1.0000 -0.0000 -0.0000
vn 0.1044 0.9902 -0.0929
vn -0.0000 0.0872 0.9962
vn 0.8040 0.1359 -0.5789
vn 0.8653 -0.4008 -0.3008
vn 0.8504 0.1379 -0.5078
vn 0.8451 -0.4119 -0.3409
vn 0.9764 0.2145 -0.0262
vn 0.9690 0.2446 0.0355
vn 0.1052 0.9944 0.0088
vn 0.9394 0.3186 0.1269
vn 0.2217 -0.0462 0.9740
vn 0.9314 -0.2602 0.2547
vn 0.5253 0.4657 0.7121
vn -0.0900 -0.9857 0.1422
vn 0.7928 -0.5842 0.1737
vn 0.2974 -0.9547 0.0087
vn 1.0000 0.0092 -0.0013
vn 0.9939 -0.0588 -0.0931
vn 0.4442 -0.8737 0.1982
vn 1.0000 -0.0000 -0.0000
vn 0.9553 0.2779 -0.1005
vn 0.9407 -0.3291 -0.0817
vn 0.9529 0.2715 0.1348
vn 0.9316 -0.3315 0.1488
vn 1.0000 -0.0009 0.0006
vn 0.1116 0.9901 -0.0854
vn 0.9999 0.0147 -0.0007
vt -0.000000 0.350987
vt 0.000000 0.241808
vt 0.167480 0.203941
vt 0.168644 0.335829
vt 0.655886 0.344813
vt 0.962731 0.344813
vt 0.775894 0.461718
vt 0.961711 0.689559
vt 0.654866 0.689559
vt 1.000000 0.341113
vt 0.689699 0.340920
vt 0.689602 0.164466
vt 0.999903 0.164001
vt 0.689512 0.000000
vt 0.689511 0.344813
vt 0.522193 0.344813
vt 0.523833 0.000000
vt 0.344698 0.345021
vt 0.654866 0.344813
vt 0.614471 0.512815
vt 0.344698 0.512299
vt 0.308017 0.697465
vt 0.000000 0.695146
vt 0.000000 0.670578
vt 0.249827 0.580778
vt 0.245794 0.400473
vt 0.000000 0.460096
vt -0.000000 0.350987
vt 0.308017 0.353307
vt 0.851941 0.448675
vt 0.964108 0.430543
vt 0.231092 0.330216
vt 0.190265 0.268566
vt 0.215545 0.260940
vt 0.000000 0.777279
vt 0.028071 0.697465
vt 0.043389 0.728446
vt 0.063180 0.777279
vt 0.654866 0.604167
vt 0.471304 0.597808
vt 0.599513 0.575026
vt 0.002130 0.590929
vt 0.092225 0.574778
vt 0.689555 0.078423
vt 0.901211 0.089362
vt 0.689512 0.092523
vt 0.654866 0.689559
vt 0.688495 0.689974
vt 0.745037 0.689559
vt 0.693285 0.753737
vt 0.879022 0.125018
vt 0.754049 0.109867
vt 0.092565 0.000000
vt 0.099211 0.093401
vt 0.079292 0.006503
vt 0.537732 0.769572
vt 0.565412 0.689751
vt 0.614214 0.769572
vt 0.674251 0.879316
vt 0.344698 0.006160
vt 0.252855 0.052022
vt 0.226806 0.112302
vt 0.251146 0.185025
vt 0.166289 0.006391
vt 0.484261 0.734050
vt 0.524625 0.689751
vt 0.537732 0.793586
vt 0.441342 0.793586
vt 0.344698 0.793642
vt 0.358272 0.689750
vt 0.410057 0.751337
vt 0.441342 0.793642
vt 0.689592 0.146872
vt 0.689512 -0.000000
vt 0.999813 0.000194
vt 0.344698 0.344813
vt 0.344698 0.000000
vt 0.017705 0.112192
vt 0.000000 0.031190
vt 0.000000 0.006606
vt 0.127615 0.038669
vt 0.148500 0.006414
vt 0.654866 0.689543
vt 0.344698 0.689750
vt 0.268174 0.133436
vt 0.333762 0.265133
vt 0.344698 0.350541
vt 0.259330 0.350652
vt 0.245607 0.297130
s 0
usemtl Material.002
f 41/96/7 59/97/7 80/98/7 77/99/7
f 44/100/8 43/101/8 49/102/8 47/103/8 48/104/8
f 48/105/9 47/106/9 81/107/9 78/108/9
f 46/109/10 42/110/10 79/111/10 78/112/10
f 42/113/11 41/114/11 77/115/11 79/116/11
f 46/117/12 45/118/12 58/119/12 62/120/12 61/121/12 59/122/12 41/123/12 42/124/12
f 47/103/13 49/102/13 51/125/13
f 43/101/14 50/126/14 51/125/14
f 51/125/15 50/126/15 47/103/15
f 51/125/16 49/102/16 43/101/16
f 52/127/17 56/128/17 54/129/17
f 52/130/18 54/131/18 55/132/18 53/133/18
f 53/134/19 57/135/19 52/136/19
f 58/119/20 60/137/20 63/138/20
f 59/122/21 61/121/21 62/120/21 63/138/21
f 63/138/22 60/137/22 59/122/22
f 63/138/23 62/120/23 58/119/23
f 65/139/24 67/140/24 70/141/24
f 64/142/25 69/143/25 68/144/25 71/145/25
f 70/141/26 67/140/26 66/146/26 71/147/26
f 70/148/27 68/149/27 65/150/27
f 71/151/28 68/152/28 70/153/28
f 71/145/29 66/154/29 64/142/29
f 47/155/30 73/156/30 72/157/30 75/158/30 80/98/30 81/159/30
f 72/160/31 73/161/31 76/162/31
f 72/160/32 76/162/32 75/163/32
f 76/164/33 73/165/33 74/166/33
f 75/167/34 76/164/34 74/166/34
f 78/108/9 81/107/9 64/168/9 66/146/9 67/140/9 65/139/9 45/169/9 46/170/9
f 78/112/10 79/111/10 44/171/10 48/172/10
f 81/159/35 80/98/35 59/97/35 60/173/35 58/174/35 45/175/35 65/150/35 68/149/35 69/176/35 64/177/35
f 79/116/36 77/115/36 52/136/36 57/135/36 53/134/36 43/178/36 44/179/36
f 77/99/37 80/98/37 75/158/37 74/180/37 73/156/37 47/155/37 50/181/37 43/182/37 53/183/37 55/184/37 54/129/37 56/128/37 52/127/37
o Cube.003
v 0.787309 4.832921 -10.522978
v 1.364195 4.832921 -10.522978
v 0.787315 6.577108 9.413160
v 1.364201 6.577108 9.413160
v 0.787309 2.545953 -10.322893
v 1.364195 2.545953 -10.322893
v 0.787315 4.290140 9.613245
v 1.364201 4.290140 9.613245
v 1.137930 5.801586 9.481010
v 0.787315 5.954499 8.830288
v 0.996142 5.868540 9.243727
v 0.891580 5.840326 2.772208
v 0.787313 6.145141 4.475750
v 0.787313 5.327454 1.995549
v 0.787313 5.720163 3.713214
v 0.787312 5.249960 0.529022
v 1.128723 6.112348 4.100934
v 0.787309 2.709213 -10.337177
v 0.787309 4.107881 -10.459543
v 0.795297 3.334877 -9.366566
v 1.247657 4.516382 -10.495283
v 1.255210 3.318441 -10.390476
v 0.960915 3.371555 -10.170095
v 0.787311 3.297370 -1.734165
v 0.787310 2.947173 -5.736936
v 1.139506 3.184957 -3.019047
v 1.180793 3.002466 -5.104927
v 0.793300 3.623715 -4.640095
v 0.789749 3.405105 -2.962720
v 0.787310 2.971262 -4.965507
v 0.906743 3.331330 -3.653311
v 0.787313 4.397462 2.733216
v 0.787313 4.129184 4.274760
v 0.787313 4.747483 5.113472
v 0.787313 5.003768 4.098671
v 0.928681 4.609916 4.177969
v 0.863402 5.568093 -0.820579
v 1.364198 3.384013 -0.743833
v 1.364198 5.679278 -0.849071
v 0.787312 4.705316 -0.751194
v 0.787312 3.387383 -0.705308
vn -0.9989 0.0479 0.0006
vn -0.0000 0.0872 0.9962
vn -0.0000 -0.9962 0.0872
vn 1.0000 -0.0000 -0.0000
vn -0.1044 0.9913 -0.0805
vn -0.0000 -0.0872 -0.9962
vn -0.8040 0.2343 0.5465
vn -0.8653 -0.3425 0.3659
vn -0.8504 0.2240 0.4761
vn -0.8451 -0.3464 0.4072
vn -0.9764 0.2158 -0.0114
vn -0.9690 0.2347 -0.0774
vn -0.1052 0.9778 -0.1814
vn -0.9394 0.2917 -0.1803
vn -0.2217 -0.2146 -0.9512
vn -0.9314 -0.3004 -0.2057
vn -0.5253 0.3350 -0.7822
vn 0.0900 -0.9955 0.0311
vn -0.7928 -0.6055 -0.0696
vn -0.2974 -0.9417 0.1572
vn -1.0000 0.0093 -0.0003
vn -0.9939 -0.0417 0.1019
vn -0.4442 -0.8949 -0.0435
vn -1.0000 -0.0000 -0.0000
vn -0.9553 0.2911 0.0507
vn -0.9407 -0.3100 0.1376
vn -0.9529 0.2440 -0.1799
vn -0.9316 -0.3523 -0.0890
vn -1.0000 -0.0010 -0.0004
vn -0.1116 0.9899 -0.0878
vn -0.9999 0.0146 -0.0019
vt -0.000000 0.350987
vt 0.000000 0.241808
vt 0.167480 0.203941
vt 0.168644 0.335829
vt 0.655886 0.344813
vt 0.962731 0.344813
vt 0.775894 0.461718
vt 0.961711 0.689559
vt 0.654866 0.689559
vt 1.000000 0.341113
vt 0.689699 0.340920
vt 0.689602 0.164466
vt 0.999903 0.164001
vt 0.689512 0.000000
vt 0.689511 0.344813
vt 0.522193 0.344813
vt 0.523833 0.000000
vt 0.344698 0.345021
vt 0.654866 0.344813
vt 0.614471 0.512815
vt 0.344698 0.512299
vt 0.308017 0.697465
vt 0.000000 0.695146
vt 0.000000 0.670578
vt 0.249827 0.580778
vt 0.245794 0.400473
vt 0.000000 0.460096
vt -0.000000 0.350987
vt 0.308017 0.353307
vt 0.851941 0.448675
vt 0.964108 0.430543
vt 0.231092 0.330216
vt 0.190265 0.268566
vt 0.215545 0.260940
vt 0.000000 0.777279
vt 0.028071 0.697465
vt 0.043389 0.728446
vt 0.063180 0.777279
vt 0.654866 0.604167
vt 0.471304 0.597808
vt 0.599513 0.575026
vt 0.002130 0.590929
vt 0.092225 0.574778
vt 0.689555 0.078423
vt 0.901211 0.089362
vt 0.689512 0.092523
vt 0.654866 0.689559
vt 0.688495 0.689974
vt 0.745037 0.689559
vt 0.693285 0.753737
vt 0.879022 0.125018
vt 0.754049 0.109867
vt 0.092565 0.000000
vt 0.099211 0.093401
vt 0.079292 0.006503
vt 0.537732 0.769572
vt 0.565412 0.689751
vt 0.614214 0.769572
vt 0.674251 0.879316
vt 0.344698 0.006160
vt 0.252855 0.052022
vt 0.226806 0.112302
vt 0.251146 0.185025
vt 0.166289 0.006391
vt 0.484261 0.734050
vt 0.524625 0.689751
vt 0.537732 0.793586
vt 0.441342 0.793586
vt 0.344698 0.793642
vt 0.358272 0.689750
vt 0.410057 0.751337
vt 0.441342 0.793642
vt 0.689592 0.146872
vt 0.689512 -0.000000
vt 0.999813 0.000194
vt 0.344698 0.344813
vt 0.344698 0.000000
vt 0.017705 0.112192
vt 0.000000 0.031190
vt 0.000000 0.006606
vt 0.127615 0.038669
vt 0.148500 0.006414
vt 0.654866 0.689543
vt 0.344698 0.689750
vt 0.268174 0.133436
vt 0.333762 0.265133
vt 0.344698 0.350541
vt 0.259330 0.350652
vt 0.245607 0.297130
s 0
usemtl Material.004
f 82/185/38 100/186/38 121/187/38 118/188/38
f 85/189/39 84/190/39 90/191/39 88/192/39 89/193/39
f 89/194/40 88/195/40 122/196/40 119/197/40
f 87/198/41 83/199/41 120/200/41 119/201/41
f 83/202/42 82/203/42 118/204/42 120/205/42
f 87/206/43 86/207/43 99/208/43 103/209/43 102/210/43 100/211/43 82/212/43 83/213/43
f 88/192/44 90/191/44 92/214/44
f 84/190/45 91/215/45 92/214/45
f 92/214/46 91/215/46 88/192/46
f 92/214/47 90/191/47 84/190/47
f 93/216/48 97/217/48 95/218/48
f 93/219/49 95/220/49 96/221/49 94/222/49
f 94/223/50 98/224/50 93/225/50
f 99/208/51 101/226/51 104/227/51
f 100/211/52 102/210/52 103/209/52 104/227/52
f 104/227/53 101/226/53 100/211/53
f 104/227/54 103/209/54 99/208/54
f 106/228/55 108/229/55 111/230/55
f 105/231/56 110/232/56 109/233/56 112/234/56
f 111/230/57 108/229/57 107/235/57 112/236/57
f 111/237/58 109/238/58 106/239/58
f 112/240/59 109/241/59 111/242/59
f 112/234/60 107/243/60 105/231/60
f 88/244/61 114/245/61 113/246/61 116/247/61 121/187/61 122/248/61
f 113/249/62 114/250/62 117/251/62
f 113/249/63 117/251/63 116/252/63
f 117/253/64 114/254/64 115/255/64
f 116/256/65 117/253/65 115/255/65
f 119/197/40 122/196/40 105/257/40 107/235/40 108/229/40 106/228/40 86/258/40 87/259/40
f 119/201/41 120/200/41 85/260/41 89/261/41
f 122/248/66 121/187/66 100/186/66 101/262/66 99/263/66 86/264/66 106/239/66 109/238/66 110/265/66 105/266/66
f 120/205/67 118/204/67 93/225/67 98/224/67 94/223/67 84/267/67 85/268/67
f 118/188/68 121/187/68 116/247/68 115/269/68 114/245/68 88/244/68 91/270/68 84/271/68 94/272/68 96/273/68 95/218/68 97/217/68 93/216/68
o Cube.004
v 1.300057 2.055051 9.551279
v 0.723170 2.055051 9.551279
v 1.300054 2.055051 -10.461012
v 0.723167 2.055051 -10.461012
v 1.300057 -0.240653 9.551279
v 0.723170 -0.240653 9.551279
v 1.300054 -0.240653 -10.461012
v 0.723167 -0.240653 -10.461012
v 0.949439 1.276566 -10.461012
v 1.300054 1.485611 -9.826092
v 1.091227 1.363946 -10.230467
v 1.195788 1.899870 -3.781115
v 1.300055 2.055051 -5.504740
v 1.300055 1.456639 -2.962711
v 1.300055 1.698150 -4.708066
v 1.300055 1.507257 -1.495010
v 0.958645 2.055051 -5.128491
v 1.300057 -0.076770 9.551279
v 1.300057 1.327241 9.551279
v 1.292068 0.461920 8.529833
v 0.839709 1.737302 9.551279
v 0.832155 0.534786 9.551279
v 1.126451 0.568490 9.327106
v 1.300055 -0.240653 0.929744
v 1.300056 -0.240653 4.947804
v 0.947860 -0.240653 2.219534
v 0.906573 -0.240653 4.313381
v 1.294067 0.337719 3.796173
v 1.297618 -0.026253 2.144234
v 1.300056 -0.283890 4.177212
v 1.180624 -0.039558 2.838627
v 1.300055 0.465895 -3.616516
v 1.300055 0.064283 -5.128813
v 1.300054 0.607130 -6.018221
v 1.300055 0.950886 -5.029619
v 1.158686 0.551621 -5.074289
v 1.223965 1.941805 -0.178272
v 0.723169 -0.240653 -0.064371
v 0.723169 2.055051 -0.159580
v 1.300055 1.076263 -0.172197
v 1.300055 -0.240653 -0.103043
vn 0.9989 0.0477 -0.0048
vn -0.0000 -0.0000 -1.0000
vn -0.0000 -1.0000 -0.0000
vn -1.0000 -0.0000 -0.0000
vn 0.1044 0.9945 -0.0062
vn -0.0000 -0.0000 1.0000
vn 0.8040 0.1858 -0.5649
vn 0.8653 -0.3731 -0.3346
vn 0.8504 0.1816 -0.4938
vn 0.8451 -0.3806 -0.3755
vn 0.9764 0.2159 -0.0074
vn 0.9690 0.2406 0.0566
vn 0.1052 0.9899 0.0955
vn 0.9394 0.3063 0.1542
vn 0.2217 -0.1309 0.9663
vn 0.9314 -0.2814 0.2311
vn 0.5253 0.4019 0.7500
vn -0.0900 -0.9944 0.0558
vn 0.7928 -0.5971 0.1221
vn 0.2974 -0.9518 -0.0745
vn 1.0000 0.0093 -0.0005
vn 0.9939 -0.0504 -0.0979
vn 0.4442 -0.8877 0.1213
vn 1.0000 -0.0000 -0.0000
vn 0.9553 0.2856 -0.0758
vn 0.9407 -0.3208 -0.1101
vn 0.9529 0.2588 0.1579
vn 0.9316 -0.3432 0.1193
vn 1.0000 -0.0010 0.0005
vn 0.1116 0.9938 0.0012
vn 0.9999 0.0147 0.0006
vt -0.000000 0.350987
vt 0.000000 0.241808
vt 0.167480 0.203941
vt 0.168644 0.335829
vt 0.655886 0.344813
vt 0.962731 0.344813
vt 0.775894 0.461718
vt 0.961711 0.689559
vt 0.654866 0.689559
vt 1.000000 0.341113
vt 0.689699 0.340920
vt 0.689602 0.164466
vt 0.999903 0.164001
vt 0.689512 0.000000
vt 0.689511 0.344813
vt 0.522193 0.344813
vt 0.523833 0.000000
vt 0.344698 0.345021
vt 0.654866 0.344813
vt 0.614471 0.512815
vt 0.344698 0.512299
vt 0.308017 0.697465
vt 0.000000 0.695146
vt 0.000000 0.670578
vt 0.249827 0.580778
vt 0.245794 0.400473
vt 0.000000 0.460096
vt -0.000000 0.350987
vt 0.308017 0.353307
vt 0.851941 0.448675
vt 0.964108 0.430543
vt 0.231092 0.330216
vt 0.190265 0.268566
vt 0.215545 0.260940
vt 0.000000 0.777279
vt 0.028071 0.697465
vt 0.043389 0.728446
vt 0.063180 0.777279
vt 0.654866 0.604167
vt 0.471304 0.597808
vt 0.599513 0.575026
vt 0.002130 0.590929
vt 0.092225 0.574778
vt 0.689555 0.078423
vt 0.901211 0.089362
vt 0.689512 0.092523
vt 0.654866 0.689559
vt 0.688495 0.689974
vt 0.745037 0.689559
vt 0.693285 0.753737
vt 0.879022 0.125018
vt 0.754049 0.109867
vt 0.092565 0.000000
vt 0.099211 0.093401
vt 0.079292 0.006503
vt 0.537732 0.769572
vt 0.565412 0.689751
vt 0.614214 0.769572
vt 0.674251 0.879316
vt 0.344698 0.006160
vt 0.252855 0.052022
vt 0.226806 0.112302
vt 0.251146 0.185025
vt 0.166289 0.006391
vt 0.484261 0.734050
vt 0.524625 0.689751
vt 0.537732 0.793586
vt 0.441342 0.793586
vt 0.344698 0.793642
vt 0.358272 0.689750
vt 0.410057 0.751337
vt 0.441342 0.793642
vt 0.689592 0.146872
vt 0.689512 -0.000000
vt 0.999813 0.000194
vt 0.344698 0.344813
vt 0.344698 0.000000
vt 0.017705 0.112192
vt 0.000000 0.031190
vt 0.000000 0.006606
vt 0.127615 0.038669
vt 0.148500 0.006414
vt 0.654866 0.689543
vt 0.344698 0.689750
vt 0.268174 0.133436
vt 0.333762 0.265133
vt 0.344698 0.350541
vt 0.259330 0.350652
vt 0.245607 0.297130
s 0
usemtl Material.005
f 123/274/69 141/275/69 162/276/69 159/277/69
f 126/278/70 125/279/70 131/280/70 129/281/70 130/282/70
f 130/283/71 129/284/71 163/285/71 160/286/71
f 128/287/72 124/288/72 161/289/72 160/290/72
f 124/291/73 123/292/73 159/293/73 161/294/73
f 128/295/74 127/296/74 140/297/74 144/298/74 143/299/74 141/300/74 123/301/74 124/302/74
f 129/281/75 131/280/75 133/303/75
f 125/279/76 132/304/76 133/303/76
f 133/303/77 132/304/77 129/281/77
f 133/303/78 131/280/78 125/279/78
f 134/305/79 138/306/79 136/307/79
f 134/308/80 136/309/80 137/310/80 135/311/80
f 135/312/81 139/313/81 134/314/81
f 140/297/82 142/315/82 145/316/82
f 141/300/83 143/299/83 144/298/83 145/316/83
f 145/316/84 142/315/84 141/300/84
f 145/316/85 144/298/85 140/297/85
f 147/317/86 149/318/86 152/319/86
f 146/320/87 151/321/87 150/322/87 153/323/87
f 152/319/88 149/318/88 148/324/88 153/325/88
f 152/326/89 150/327/89 147/328/89
f 153/329/90 150/330/90 152/331/90
f 153/323/91 148/332/91 146/320/91
f 129/333/92 155/334/92 154/335/92 157/336/92 162/276/92 163/337/92
f 154/338/93 155/339/93 158/340/93
f 154/338/94 158/340/94 157/341/94
f 158/342/95 155/343/95 156/344/95
f 157/345/96 158/342/96 156/344/96
f 160/286/71 163/285/71 146/346/71 148/324/71 149/318/71 147/317/71 127/347/71 128/348/71
f 160/290/72 161/289/72 126/349/72 130/350/72
f 163/337/97 162/276/97 141/275/97 142/351/97 140/352/97 127/353/97 147/328/97 150/327/97 151/354/97 146/355/97
f 161/294/98 159/293/98 134/314/98 139/313/98 135/312/98 125/356/98 126/357/98
f 159/277/99 162/276/99 157/336/99 156/358/99 155/334/99 129/333/99 132/359/99 125/360/99 135/361/99 137/362/99 136/307/99 138/306/99 134/305/99
o Cube.005
v 1.300057 -2.277978 9.613245
v 0.723170 -2.277978 9.613245
v 1.300054 -0.533793 -10.322893
v 0.723167 -0.533793 -10.322893
v 1.300057 -4.564946 9.413162
v 0.723170 -4.564946 9.413162
v 1.300054 -2.820761 -10.522976
v 0.723167 -2.820761 -10.522976
v 0.949439 -1.309315 -10.390743
v 1.300054 -1.156402 -9.740021
v 1.091227 -1.242361 -10.153460
v 1.195788 -1.270574 -3.681941
v 1.300055 -0.965760 -5.385482
v 1.300055 -1.783447 -2.905281
v 1.300055 -1.390737 -4.622946
v 1.300055 -1.860940 -1.438754
v 0.958645 -0.998552 -5.010665
v 1.300057 -4.401686 9.427444
v 1.300057 -3.003018 9.549812
v 1.292068 -3.776021 8.456833
v 0.839709 -2.594517 9.585552
v 0.832155 -3.792458 9.480745
v 1.126451 -3.739344 9.260365
v 1.300055 -3.813530 0.824434
v 1.300056 -4.163727 4.827204
v 0.947860 -3.925942 2.109316
v 0.906573 -4.108433 4.195195
v 1.294067 -3.487184 3.730363
v 1.297618 -3.705795 2.052988
v 1.300056 -4.139637 4.055775
v 1.180624 -3.779570 2.743579
v 1.300055 -2.713438 -3.642947
v 1.300055 -2.981717 -5.184492
v 1.300054 -2.363418 -6.023204
v 1.300055 -2.107133 -5.008403
v 1.158687 -2.500985 -5.087701
v 1.223965 -1.542807 -0.089153
v 0.723169 -3.726887 -0.165898
v 0.723169 -1.431621 -0.060661
v 1.300055 -2.405584 -0.158538
v 1.300055 -3.723517 -0.204424
vn 0.9989 0.0479 -0.0006
vn -0.0000 0.0872 -0.9962
vn -0.0000 -0.9962 -0.0872
vn -1.0000 -0.0000 -0.0000
vn 0.1044 0.9913 0.0805
vn -0.0000 -0.0872 0.9962
vn 0.8040 0.2343 -0.5465
vn 0.8653 -0.3425 -0.3659
vn 0.8504 0.2240 -0.4761
vn 0.8451 -0.3464 -0.4072
vn 0.9764 0.2158 0.0114
vn 0.9690 0.2347 0.0774
vn 0.1052 0.9778 0.1814
vn 0.9394 0.2917 0.1803
vn 0.2217 -0.2146 0.9512
vn 0.9314 -0.3004 0.2057
vn 0.5253 0.3350 0.7822
vn -0.0900 -0.9955 -0.0311
vn 0.7928 -0.6055 0.0696
vn 0.2974 -0.9417 -0.1572
vn 1.0000 0.0093 0.0003
vn 0.9939 -0.0417 -0.1019
vn 0.4442 -0.8949 0.0435
vn 1.0000 -0.0000 -0.0000
vn 0.9553 0.2911 -0.0507
vn 0.9407 -0.3100 -0.1376
vn 0.9529 0.2440 0.1799
vn 0.9316 -0.3523 0.0890
vn 1.0000 -0.0010 0.0004
vn 0.1116 0.9899 0.0878
vn 0.9999 0.0146 0.0019
vt -0.000000 0.350987
vt 0.000000 0.241808
vt 0.167480 0.203941
vt 0.168644 0.335829
vt 0.655886 0.344813
vt 0.962731 0.344813
vt 0.775894 0.461718
vt 0.961711 0.689559
vt 0.654866 0.689559
vt 1.000000 0.341113
vt 0.689699 0.340920
vt 0.689602 0.164466
vt 0.999903 0.164001
vt 0.689512 0.000000
vt 0.689511 0.344813
vt 0.522193 0.344813
vt 0.523833 0.000000
vt 0.344698 0.345021
vt 0.654866 0.344813
vt 0.614471 0.512815
vt 0.344698 0.512299
vt 0.308017 0.697465
vt 0.000000 0.695146
vt 0.000000 0.670578
vt 0.249827 0.580778
vt 0.245794 0.400473
vt 0.000000 0.460096
vt -0.000000 0.350987
vt 0.308017 0.353307
vt 0.851941 0.448675
vt 0.964108 0.430543
vt 0.231092 0.330216
vt 0.190265 0.268566
vt 0.215545 0.260940
vt 0.000000 0.777279
vt 0.028071 0.697465
vt 0.043389 0.728446
vt 0.063180 0.777279
vt 0.654866 0.604167
vt 0.471304 0.597808
vt 0.599513 0.575026
vt 0.002130 0.590929
vt 0.092225 0.574778
vt 0.689555 0.078423
vt 0.901211 0.089362
vt 0.689512 0.092523
vt 0.654866 0.689559
vt 0.688495 0.689974
vt 0.745037 0.689559
vt 0.693285 0.753737
vt 0.879022 0.125018
vt 0.754049 0.109867
vt 0.092565 0.000000
vt 0.099211 0.093401
vt 0.079292 0.006503
vt 0.537732 0.769572
vt 0.565412 0.689751
vt 0.614214 0.769572
vt 0.674251 0.879316
vt 0.344698 0.006160
vt 0.252855 0.052022
vt 0.226806 0.112302
vt 0.251146 0.185025
vt 0.166289 0.006391
vt 0.484261 0.734050
vt 0.524625 0.689751
vt 0.537732 0.793586
vt 0.441342 0.793586
vt 0.344698 0.793642
vt 0.358272 0.689750
vt 0.410057 0.751337
vt 0.441342 0.793642
vt 0.689592 0.146872
vt 0.689512 -0.000000
vt 0.999813 0.000194
vt 0.344698 0.344813
vt 0.344698 0.000000
vt 0.017705 0.112192
vt 0.000000 0.031190
vt 0.000000 0.006606
vt 0.127615 0.038669
vt 0.148500 0.006414
vt 0.654866 0.689543
vt 0.344698 0.689750
vt 0.268174 0.133436
vt 0.333762 0.265133
vt 0.344698 0.350541
vt 0.259330 0.350652
vt 0.245607 0.297130
s 0
usemtl Material.006
f 164/363/100 182/364/100 203/365/100 200/366/100
f 167/367/101 166/368/101 172/369/101 170/370/101 171/371/101
f 171/372/102 170/373/102 204/374/102 201/375/102
f 169/376/103 165/377/103 202/378/103 201/379/103
f 165/380/104 164/381/104 200/382/104 202/383/104
f 169/384/105 168/385/105 181/386/105 185/387/105 184/388/105 182/389/105 164/390/105 165/391/105
f 170/370/106 172/369/106 174/392/106
f 166/368/107 173/393/107 174/392/107
f 174/392/108 173/393/108 170/370/108
f 174/392/109 172/369/109 166/368/109
f 175/394/110 179/395/110 177/396/110
f 175/397/111 177/398/111 178/399/111 176/400/111
f 176/401/112 180/402/112 175/403/112
f 181/386/113 183/404/113 186/405/113
f 182/389/114 184/388/114 185/387/114 186/405/114
f 186/405/115 183/404/115 182/389/115
f 186/405/116 185/387/116 181/386/116
f 188/406/117 190/407/117 193/408/117
f 187/409/118 192/410/118 191/411/118 194/412/118
f 193/408/119 190/407/119 189/413/119 194/414/119
f 193/415/120 191/416/120 188/417/120
f 194/418/121 191/419/121 193/420/121
f 194/412/122 189/421/122 187/409/122
f 170/422/123 196/423/123 195/424/123 198/425/123 203/365/123 204/426/123
f 195/427/124 196/428/124 199/429/124
f 195/427/125 199/429/125 198/430/125
f 199/431/126 196/432/126 197/433/126
f 198/434/127 199/431/127 197/433/127
f 201/375/102 204/374/102 187/435/102 189/413/102 190/407/102 188/406/102 168/436/102 169/437/102
f 201/379/103 202/378/103 167/438/103 171/439/103
f 204/426/128 203/365/128 182/364/128 183/440/128 181/441/128 168/442/128 188/417/128 191/416/128 192/443/128 187/444/128
f 202/383/129 200/382/129 175/403/129 180/402/129 176/401/129 166/445/129 167/446/129
f 200/366/130 203/365/130 198/425/130 197/447/130 196/423/130 170/422/130 173/448/130 166/449/130 176/450/130 178/451/130 177/396/130 179/395/130 175/394/130
o Cube.006
v 0.787312 -5.111531 -10.322893
v 1.364198 -5.111531 -10.322893
v 0.787312 -6.855718 9.613245
v 1.364198 -6.855718 9.613245
v 0.787312 -7.398499 -10.522978
v 1.364198 -7.398499 -10.522978
v 0.787312 -9.142687 9.413160
v 1.364198 -9.142687 9.413160
v 1.137927 -7.631241 9.545395
v 0.787312 -7.367653 8.931112
v 0.996139 -7.524100 9.323343
v 0.891579 -6.428116 2.945243
v 0.787312 -6.423750 4.675834
v 0.787312 -6.798332 2.091322
v 0.787312 -6.709858 3.851086
v 0.787312 -6.619988 0.633619
v 1.128722 -6.390958 4.301017
v 0.787312 -7.235239 -10.508694
v 0.787312 -5.836571 -10.386326
v 0.795300 -6.787624 -9.444183
v 1.247660 -5.428070 -10.350586
v 1.255213 -6.626011 -10.455393
v 0.960918 -6.611973 -10.229136
v 0.787312 -8.149916 -1.934249
v 0.787312 -7.799718 -5.937019
v 1.139507 -8.037503 -3.219131
v 1.180795 -7.855012 -5.305010
v 0.793301 -7.323918 -4.739362
v 0.789750 -7.830482 -3.125431
v 0.787312 -7.909952 -5.173128
v 0.906744 -7.783216 -3.818341
v 0.787312 -7.842289 2.656291
v 0.787312 -8.374179 4.127830
v 0.787312 -7.910914 5.061167
v 0.787312 -7.482304 4.106286
v 0.928680 -7.883943 4.115988
v 0.863402 -6.072332 -0.640236
v 1.364198 -8.236559 -0.943917
v 1.364198 -5.957889 -0.648987
v 0.787312 -6.934051 -0.721724
v 0.787312 -8.239929 -0.905392
vn -0.9989 0.0471 0.0089
vn -0.0000 -0.0872 0.9962
vn -0.0000 -0.9962 -0.0872
vn 1.0000 -0.0000 -0.0000
vn -0.1044 0.9902 0.0929
vn -0.0000 0.0872 -0.9962
vn -0.8040 0.1359 0.5789
vn -0.8653 -0.4008 0.3008
vn -0.8504 0.1379 0.5078
vn -0.8451 -0.4119 0.3409
vn -0.9764 0.2145 0.0262
vn -0.9690 0.2446 -0.0355
vn -0.1052 0.9944 -0.0088
vn -0.9394 0.3186 -0.1269
vn -0.2217 -0.0462 -0.9740
vn -0.9314 -0.2602 -0.2547
vn -0.5253 0.4657 -0.7121
vn 0.0900 -0.9857 -0.1422
vn -0.7928 -0.5842 -0.1737
vn -0.2974 -0.9547 -0.0087
vn -1.0000 0.0092 0.0013
vn -0.9939 -0.0588 0.0931
vn -0.4442 -0.8737 -0.1982
vn -1.0000 -0.0000 -0.0000
vn -0.9553 0.2779 0.1005
vn -0.9407 -0.3291 0.0817
vn -0.9529 0.2715 -0.1348
vn -0.9316 -0.3315 -0.1488
vn -1.0000 -0.0009 -0.0006
vn -0.1116 0.9901 0.0854
vn -0.9999 0.0147 0.0007
vt -0.000000 0.350987
vt 0.000000 0.241808
vt 0.167480 0.203941
vt 0.168644 0.335829
vt 0.655886 0.344813
vt 0.962731 0.344813
vt 0.775894 0.461718
vt 0.961711 0.689559
vt 0.654866 0.689559
vt 1.000000 0.341113
vt 0.689699 0.340920
vt 0.689602 0.164466
vt 0.999903 0.164001
vt 0.689512 0.000000
vt 0.689511 0.344813
vt 0.522193 0.344813
vt 0.523833 0.000000
vt 0.344698 0.345021
vt 0.654866 0.344813
vt 0.614471 0.512815
vt 0.344698 0.512299
vt 0.308017 0.697465
vt 0.000000 0.695146
vt 0.000000 0.670578
vt 0.249827 0.580778
vt 0.245794 0.400473
vt 0.000000 0.460096
vt -0.000000 0.350987
vt 0.308017 0.353307
vt 0.851941 0.448675
vt 0.964108 0.430543
vt 0.231092 0.330216
vt 0.190265 0.268566
vt 0.215545 0.260940
vt 0.000000 0.777279
vt 0.028071 0.697465
vt 0.043389 0.728446
vt 0.063180 0.777279
vt 0.654866 0.604167
vt 0.471304 0.597808
vt 0.599513 0.575026
vt 0.002130 0.590929
vt 0.092225 0.574778
vt 0.689555 0.078423
vt 0.901211 0.089362
vt 0.689512 0.092523
vt 0.654866 0.689559
vt 0.688495 0.689974
vt 0.745037 0.689559
vt 0.693285 0.753737
vt 0.879022 0.125018
vt 0.754049 0.109867
vt 0.092565 0.000000
vt 0.099211 0.093401
vt 0.079292 0.006503
vt 0.537732 0.769572
vt 0.565412 0.689751
vt 0.614214 0.769572
vt 0.674251 0.879316
vt 0.344698 0.006160
vt 0.252855 0.052022
vt 0.226806 0.112302
vt 0.251146 0.185025
vt 0.166289 0.006391
vt 0.484261 0.734050
vt 0.524625 0.689751
vt 0.537732 0.793586
vt 0.441342 0.793586
vt 0.344698 0.793642
vt 0.358272 0.689750
vt 0.410057 0.751337
vt 0.441342 0.793642
vt 0.689592 0.146872
vt 0.689512 -0.000000
vt 0.999813 0.000194
vt 0.344698 0.344813
vt 0.344698 0.000000
vt 0.017705 0.112192
vt 0.000000 0.031190
vt 0.000000 0.006606
vt 0.127615 0.038669
vt 0.148500 0.006414
vt 0.654866 0.689543
vt 0.344698 0.689750
vt 0.268174 0.133436
vt 0.333762 0.265133
vt 0.344698 0.350541
vt 0.259330 0.350652
vt 0.245607 0.297130
s 0
usemtl Material.007
f 205/452/131 223/453/131 244/454/131 241/455/131
f 208/456/132 207/457/132 213/458/132 211/459/132 212/460/132
f 212/461/133 211/462/133 245/463/133 242/464/133
f 210/465/134 206/466/134 243/467/134 242/468/134
f 206/469/135 205/470/135 241/471/135 243/472/135
f 210/473/136 209/474/136 222/475/136 226/476/136 225/477/136 223/478/136 205/479/136 206/480/136
f 211/459/137 213/458/137 215/481/137
f 207/457/138 214/482/138 215/481/138
f 215/481/139 214/482/139 211/459/139
f 215/481/140 213/458/140 207/457/140
f 216/483/141 220/484/141 218/485/141
f 216/486/142 218/487/142 219/488/142 217/489/142
f 217/490/143 221/491/143 216/492/143
f 222/475/144 224/493/144 227/494/144
f 223/478/145 225/477/145 226/476/145 227/494/145
f 227/494/146 224/493/146 223/478/146
f 227/494/147 226/476/147 222/475/147
f 229/495/148 231/496/148 234/497/148
f 228/498/149 233/499/149 232/500/149 235/501/149
f 234/497/150 231/496/150 230/502/150 235/503/150
f 234/504/151 232/505/151 229/506/151
f 235/507/152 232/508/152 234/509/152
f 235/501/153 230/510/153 228/498/153
f 211/511/154 237/512/154 236/513/154 239/514/154 244/454/154 245/515/154
f 236/516/155 237/517/155 240/518/155
f 236/516/156 240/518/156 239/519/156
f 240/520/157 237/521/157 238/522/157
f 239/523/158 240/520/158 238/522/158
f 242/464/133 245/463/133 228/524/133 230/502/133 231/496/133 229/495/133 209/525/133 210/526/133
f 242/468/134 243/467/134 208/527/134 212/528/134
f 245/515/159 244/454/159 223/453/159 224/529/159 222/530/159 209/531/159 229/506/159 232/505/159 233/532/159 228/533/159
f 243/472/160 241/471/160 216/492/160 221/491/160 217/490/160 207/534/160 208/535/160
f 241/455/161 244/454/161 239/514/161 238/536/161 237/512/161 211/511/161 214/537/161 207/538/161 217/539/161 219/540/161 218/485/161 220/484/161 216/483/161
