# Blender 5.1.1
# www.blender.org
mtllib porta quebrada barricada.mtl
o Plane.003
v -8.752388 -5.674539 0.485108
v -14.083151 0.296669 0.485107
v -8.752388 -5.674538 8.302227
v -14.083151 0.296669 8.302225
v -7.981707 -5.181167 8.448453
v -7.981707 -5.181168 0.338882
v -13.505875 1.006680 0.338881
v -13.505875 1.006681 8.448452
v -8.521379 -5.961334 8.666061
v -8.521379 -5.961335 0.121274
v -14.342014 0.558599 0.121273
v -14.342014 0.558600 8.666059
v -8.800597 -5.973411 8.493074
v -8.800597 -5.973412 0.294261
v -14.385557 0.282532 0.294260
v -14.385557 0.282533 8.493073
v -8.927696 -5.831042 8.302227
v -8.927696 -5.831043 0.485108
v -14.258458 0.140164 0.485107
v -14.258458 0.140165 8.302225
v -1.131926 3.006167 1.808167
v -17.264359 -11.240519 1.955602
v -1.131926 3.006167 0.470167
v -17.264359 -11.240519 0.695603
v -0.447268 2.239253 1.808167
v -16.425238 -12.180452 1.955602
v -0.447267 2.239252 0.470167
v -16.425238 -12.180452 0.695603
v -1.131926 3.006168 8.240159
v -1.131926 3.006167 6.902160
v -0.447268 2.239253 8.240160
v -0.447268 2.239253 6.902160
v -13.416323 0.614902 8.012634
v -21.447460 -6.554852 8.012635
v -13.416323 0.614902 6.752635
v -21.447460 -6.554853 6.752635
v -12.577202 -0.325033 8.012634
v -20.608339 -7.494788 8.012635
v -12.577202 -0.325033 6.752635
v -20.608339 -7.494788 6.752635
v -13.416323 0.614901 1.955601
v -13.416323 0.614901 0.695601
v -12.577202 -0.325034 1.955601
v -12.577202 -0.325034 0.695601
v -0.762377 1.968068 9.044079
v 0.737391 2.609523 8.297661
v -1.020571 3.122475 9.517365
v 0.479197 3.763930 8.770947
v -3.068656 -0.539343 8.540694
v -1.812245 0.738654 8.618553
v -3.950665 0.305693 8.903040
v -2.694254 1.583691 8.980900
v -5.628027 -3.119769 8.564995
v -4.581478 -1.676730 8.364281
v -6.456703 -2.425061 9.238789
v -5.410154 -0.982022 9.038074
v -13.370706 -9.453535 0.695602
v -12.430772 -8.614414 0.695602
v -13.370706 -9.453535 1.955602
v -12.430772 -8.614414 1.955602
v -14.209827 -8.513600 0.695602
v -13.269894 -7.674479 0.695602
v -14.209827 -8.513599 1.955602
v -13.269894 -7.674479 1.955602
v -10.976496 -6.762685 1.817630
v -10.339677 -6.194168 1.817629
v -10.976496 -6.762684 6.790381
v -10.339677 -6.194167 6.790381
v -11.265728 -6.438704 1.817630
v -10.628908 -5.870188 1.817629
v -11.265728 -6.438704 6.790381
v -10.628908 -5.870187 6.790381
v -15.192890 -2.039728 1.817629
v -14.556070 -1.471211 1.817629
v -15.192890 -2.039727 6.790381
v -14.556070 -1.471210 6.790380
v -15.482122 -1.715747 1.817629
v -14.845303 -1.147230 1.817629
v -15.482122 -1.715747 6.790381
v -14.845303 -1.147230 6.790380
v -11.487239 -6.190580 7.686762
v -10.850420 -5.622063 7.686762
v -14.885160 -2.384428 7.686762
v -14.248341 -1.815911 7.686762
v -11.487239 -6.190580 7.252460
v -10.850420 -5.622063 7.252460
v -14.885160 -2.384428 7.252460
v -14.248341 -1.815911 7.252460
v -11.487239 -6.190580 1.355551
v -10.850420 -5.622064 1.355550
v -14.885160 -2.384428 1.355551
v -14.248342 -1.815911 1.355550
v -11.487239 -6.190580 0.921249
v -10.850420 -5.622064 0.921249
v -14.885160 -2.384429 0.921249
v -14.248342 -1.815912 0.921248
v -2.862551 3.939876 6.518757
v -2.596396 2.781937 6.058428
v -1.418072 4.605865 5.682336
v -1.168449 3.455263 5.195093
v -13.385406 -7.814981 6.788588
v -13.405361 -7.832603 6.788403
v -12.723573 -8.839794 6.787277
v -12.739486 -8.854155 8.065121
v -13.467997 -7.887918 8.066177
v -12.575012 -13.846748 8.012636
v -12.575012 -13.846748 6.752636
v -13.834421 -13.885374 8.012636
v -13.962405 -8.822182 8.066177
v -13.964517 -8.738645 6.788404
v -13.834421 -13.885374 6.752636
v -12.753947 -8.885195 8.065121
v -13.965190 -8.712030 6.788589
v -12.754719 -8.863773 6.787277
v -1.286074 3.327009 0.304737
v -0.980598 2.397738 0.621056
v -1.723286 3.603330 1.538729
v -1.417809 2.674059 1.855048
v -0.796599 2.281450 0.101736
v -1.233809 2.557772 1.335727
v -1.102076 3.210721 -0.214584
v -1.539287 3.487041 1.019408
v -2.650997 3.142712 4.837945
v -0.618233 1.857990 -0.899354
v 0.991177 2.529932 -0.479593
v -1.379632 4.940692 4.751278
v 0.612596 3.681590 -0.871612
v -0.996815 3.009649 -1.291373
v -3.024476 4.291147 4.431528
v -0.995556 3.785561 5.127789
v -4.845366 1.485604 3.973499
v -3.560500 2.726074 4.208138
v -3.878743 0.528983 4.077341
v -2.672227 1.872780 3.880298
v -3.063984 -0.531640 8.541502
v -3.945993 0.313397 8.903847
v -3.819484 0.462232 3.740163
v -3.171437 -0.898340 -0.318473
v -1.830215 0.279123 -0.499038
v -3.254206 2.412009 2.832182
v -2.654518 1.152964 -0.923593
v -3.995741 -0.024498 -0.743027
v -4.570925 1.183100 2.859284
v -2.435296 1.549490 3.290512
v -7.814456 -2.060072 4.783388
v -6.767907 -0.617033 4.582674
v -8.643132 -1.365363 5.457182
v -7.596583 0.077676 5.256468
v -6.270402 -3.453604 -0.107503
v -4.947124 -2.249081 -0.233883
v -7.706523 -1.459021 3.865719
v -7.114067 -2.562809 -0.451066
v -6.383245 -0.254498 3.739339
v -5.790789 -1.358286 -0.577446
v -6.862858 -2.349816 4.209280
v -5.539580 -1.145293 4.082900
v -18.399364 -5.522738 0.695602
v -18.531023 -5.640275 1.955602
v -19.297386 -4.635385 1.955601
v -19.053463 -4.417624 0.695602
v -20.002724 -8.025728 1.937347
v -20.037617 -8.005064 0.678000
v -21.053707 -7.331900 1.977851
v -19.465900 -4.926483 1.973325
v -19.320660 -4.632931 0.713464
v -21.088600 -7.311238 0.718504
v -18.468649 -5.701713 1.932974
v -18.406315 -5.533755 0.673350
vn -0.7460 -0.6660 -0.0000
vn 0.7460 0.6660 -0.0000
vn -0.4723 0.8814 -0.0000
vn 0.8224 -0.5689 -0.0000
vn 0.1713 0.1530 0.9733
vn 0.1713 0.1530 -0.9733
vn -0.6660 0.7460 -0.0000
vn -0.4659 -0.4159 0.7810
vn 0.6660 -0.7460 -0.0000
vn 0.0432 -0.9991 -0.0000
vn -0.4659 -0.4159 -0.7810
vn -0.0000 -0.0000 -1.0000
vn -0.0000 -0.0000 1.0000
vn -0.9878 0.1558 -0.0000
vn -0.0078 -0.0070 -0.9999
vn 0.6700 -0.7424 -0.0000
vn -0.6619 0.7496 -0.0000
vn 0.0051 0.0046 1.0000
vn -0.8129 -0.5809 -0.0408
vn 0.0775 0.9962 0.0408
vn 0.5098 -0.2262 0.8300
vn -0.2026 0.9061 0.3715
vn -0.8361 -0.3576 0.4161
vn 0.8361 0.3576 -0.4161
vn 0.1738 -0.2292 0.9577
vn -0.6923 0.6632 0.2844
vn 0.7004 0.7124 0.0434
vn 0.6504 -0.5453 -0.5288
vn 0.4864 -0.2358 0.8413
vn -0.5667 0.2013 -0.7990
vn 0.2026 -0.9061 -0.3715
vn -0.7608 -0.6462 -0.0599
vn 0.3623 0.9313 -0.0385
vn 0.1735 0.2775 0.9449
vn 0.0309 -0.1658 -0.9857
vn -0.0002 0.0069 -1.0000
vn 0.0052 0.0046 -1.0000
vn -0.0079 -0.0070 0.9999
vn 0.9994 0.0360 -0.0000
vn 0.0307 -0.9995 -0.0000
vn -0.9997 -0.0253 -0.0000
vn 0.0003 -0.0106 0.9999
vn 0.8972 0.3746 0.2340
vn -0.7095 -0.6334 0.3091
vn -0.2636 0.2316 0.9364
vn 0.2971 -0.9039 0.3077
vn 0.3268 -0.2065 -0.9223
vn -0.8972 -0.3746 -0.2340
vn -0.2971 0.9039 -0.3077
vn 0.4896 -0.7089 0.5076
vn 0.6923 -0.6632 -0.2844
vn -0.0547 0.0672 -0.9962
vn 0.1882 -0.2145 0.9584
vn -0.2513 0.4675 0.8475
vn 0.6470 -0.6859 0.3332
vn 0.1497 -0.3143 -0.9375
vn -0.6470 0.6859 -0.3332
vn 0.7477 0.6564 -0.1007
vn -0.5834 -0.8044 0.1119
vn 0.5834 0.8044 -0.1119
vn -0.6504 0.5453 0.5288
vn -0.6622 0.6992 -0.2697
vn 0.1318 -0.2456 -0.9604
vn 0.7377 0.6715 -0.0705
vn -0.7377 -0.6715 0.0705
vn 0.6622 -0.6992 0.2697
vn -0.4864 0.2358 -0.8413
vn -0.1318 0.2456 0.9604
vn -0.0277 0.0164 -0.9995
vn 0.8341 -0.5507 -0.0321
vn -0.5509 -0.8346 0.0016
vn -0.8341 0.5507 0.0321
vn 0.0277 -0.0164 0.9995
vn 0.6519 0.7345 0.1883
vn -0.8138 -0.5478 -0.1942
vt 0.271139 0.274318
vt 0.529656 0.274318
vt 0.529656 0.539032
vt 0.271139 0.539032
vt 0.271139 0.274318
vt 0.271139 0.000000
vt 0.539327 0.000000
vt 0.539327 0.274318
vt 0.875942 0.711540
vt 0.875942 0.994121
vt 0.845321 0.986925
vt 0.845321 0.718737
vt 0.830275 0.711541
vt 0.830275 0.994122
vt 0.799655 0.986926
vt 0.799655 0.718738
vt 0.992939 0.594593
vt 0.992939 0.883633
vt 0.962331 0.876272
vt 0.962331 0.601954
vt 0.955270 0.594593
vt 0.955270 0.883633
vt 0.924661 0.876272
vt 0.924661 0.601954
vt 0.837326 0.970058
vt 0.837326 0.711541
vt 0.845096 0.711541
vt 0.845096 0.970058
vt 1.000000 0.600445
vt 1.000000 0.877781
vt 0.744545 0.970258
vt 0.744545 0.711742
vt 0.752315 0.711742
vt 0.752315 0.970258
vt 0.837326 0.717262
vt 0.837326 0.988401
vt 0.264828 0.006311
vt 0.006311 0.006311
vt 0.000000 0.000000
vt 0.271139 0.000000
vt 0.006311 0.271025
vt 0.000000 0.277337
vt 0.264828 0.271025
vt 0.271139 0.277337
vt 0.962331 0.600445
vt 0.962331 0.877781
vt 0.529656 0.803745
vt 0.529656 0.539032
vt 0.537427 0.539032
vt 0.537427 0.803745
vt 0.529656 0.539032
vt 0.529656 0.274318
vt 0.537427 0.274318
vt 0.537427 0.539032
vt 0.882993 0.717261
vt 0.882993 0.988400
vt 0.799655 0.711541
vt 0.803490 0.000000
vt 0.837488 0.000000
vt 0.841324 0.711541
vt 0.630402 0.711747
vt 0.627822 -0.000000
vt 0.672070 0.000303
vt 0.672070 0.712032
vt 0.669491 0.876484
vt 0.669491 0.918153
vt 0.627822 0.918153
vt 0.627822 0.876484
vt 0.672070 0.000303
vt 0.716317 -0.000000
vt 0.713737 0.711747
vt 0.757986 0.711741
vt 0.761821 0.000000
vt 0.795820 0.000000
vt 0.799655 0.711741
vt 0.389408 0.924825
vt 0.355409 0.924825
vt 0.355409 0.880577
vt 0.389408 0.880577
vt 0.717234 0.541488
vt 0.757097 0.546850
vt 0.581590 0.547564
vt 0.882090 0.544097
vt 0.567554 0.876489
vt 0.567554 0.918158
vt 0.525885 0.918158
vt 0.525885 0.876489
vt 0.473106 0.895019
vt 0.473106 0.539032
vt 0.514775 0.539032
vt 0.514775 0.895019
vt 0.882993 0.711967
vt 0.882993 0.355988
vt 0.924661 0.355988
vt 0.924661 0.711967
vt 0.924661 0.876419
vt 0.924661 0.918088
vt 0.882993 0.918088
vt 0.882993 0.876419
vt 0.118629 0.930613
vt 0.118629 0.574633
vt 0.160298 0.574633
vt 0.160298 0.930613
vt 0.389769 0.895019
vt 0.389769 0.539032
vt 0.431437 0.539032
vt 0.431437 0.895019
vt 0.609223 0.889985
vt 0.609223 0.931654
vt 0.567554 0.931654
vt 0.567554 0.889985
vt 0.271139 0.895644
vt 0.271139 0.836328
vt 0.313274 0.836328
vt 0.313274 0.895644
vt 0.118629 0.602027
vt 0.059315 0.602027
vt 0.059315 0.478962
vt 0.118629 0.482548
vt 0.042135 0.926717
vt 0.000000 0.926717
vt 0.000000 0.807238
vt 0.042135 0.807755
vt 0.084270 0.926717
vt 0.042135 0.803096
vt 0.084270 0.803652
vt 0.567554 0.889985
vt 0.567554 0.830669
vt 0.609689 0.830669
vt 0.609689 0.889985
vt 0.389769 0.836328
vt 0.330454 0.836328
vt 0.330454 0.671523
vt 0.389769 0.666109
vt 0.966796 0.297297
vt 0.924661 0.297297
vt 0.924661 0.133683
vt 0.966796 0.132491
vt 0.177944 0.425985
vt 0.118629 0.425985
vt 0.118629 0.277337
vt 0.177944 0.277337
vt 0.567554 0.771353
vt 0.567554 0.712037
vt 0.609689 0.712037
vt 0.609689 0.771353
vt 0.924655 0.959757
vt 0.882993 0.959757
vt 0.924655 0.918088
vt 0.312803 0.937313
vt 0.271139 0.937313
vt 0.271139 0.895644
vt 0.312803 0.895644
vt 0.669485 0.959822
vt 0.627822 0.959822
vt 0.627822 0.918153
vt 0.669485 0.918153
vt 0.354938 0.937313
vt 0.313274 0.937313
vt 0.313274 0.895644
vt 0.354938 0.895644
vt 0.473106 0.895019
vt 0.473106 0.936688
vt 0.431437 0.936688
vt 0.431437 0.895019
vt 0.514775 0.895019
vt 0.514775 0.936688
vt 0.473106 0.936688
vt 0.473106 0.895019
vt 0.684276 0.876484
vt 0.656049 0.876484
vt 0.656049 0.712032
vt 0.684276 0.712032
vt 0.752315 0.739969
vt 0.752315 0.711742
vt 0.766678 0.711742
vt 0.766678 0.739969
vt 0.712503 0.876484
vt 0.684276 0.876484
vt 0.684276 0.712032
vt 0.712503 0.712032
vt 0.098633 0.794706
vt 0.098633 0.766479
vt 0.112995 0.766479
vt 0.112995 0.794706
vt 0.624052 0.876489
vt 0.609689 0.876489
vt 0.609689 0.712037
vt 0.624052 0.712037
vt 0.897355 0.876419
vt 0.882993 0.876419
vt 0.882993 0.711967
vt 0.897355 0.711967
vt 0.627822 0.712032
vt 0.752315 0.768197
vt 0.752315 0.739969
vt 0.766678 0.768197
vt 0.567554 0.876489
vt 0.539327 0.876489
vt 0.539327 0.712037
vt 0.752315 0.796425
vt 0.752315 0.768197
vt 0.766678 0.768197
vt 0.766678 0.796425
vt 0.911718 0.876419
vt 0.911718 0.711967
vt 0.098633 0.930930
vt 0.084270 0.930930
vt 0.084270 0.766479
vt 0.112498 0.766479
vt 0.084270 0.766479
vt 0.084270 0.602027
vt 0.112498 0.602027
vt 0.098633 0.822933
vt 0.098633 0.794706
vt 0.112995 0.794706
vt 0.112995 0.822933
vt 0.799655 0.876192
vt 0.771427 0.876192
vt 0.771427 0.711741
vt 0.799655 0.711741
vt 0.251123 0.798919
vt 0.251123 0.770692
vt 0.265486 0.770692
vt 0.265486 0.798919
vt 0.251123 0.441788
vt 0.265486 0.441788
vt 0.265486 0.606240
vt 0.251123 0.606240
vt 0.265486 0.770692
vt 0.251123 0.770692
vt 0.251123 0.606240
vt 0.265486 0.606240
vt 0.265486 0.441788
vt 0.237258 0.441788
vt 0.237258 0.277337
vt 0.265486 0.277337
vt 0.752315 0.824652
vt 0.752315 0.796425
vt 0.766678 0.796425
vt 0.766678 0.824652
vt 0.744544 0.876194
vt 0.716317 0.876194
vt 0.716317 0.711742
vt 0.744544 0.711742
vt 0.251123 0.827146
vt 0.251123 0.798919
vt 0.265486 0.798919
vt 0.265486 0.827146
vt 0.529138 0.867935
vt 0.514775 0.867935
vt 0.514775 0.703483
vt 0.529138 0.703483
vt 0.514775 0.539032
vt 0.529138 0.539032
vt 0.529138 0.703483
vt 0.514775 0.703483
vt 0.059315 0.396299
vt 0.000000 0.400958
vt 0.000000 0.277337
vt 0.059315 0.277337
vt 0.757986 0.711742
vt 0.717239 0.540608
vt 0.720152 0.000000
vt 0.754151 0.000000
vt 0.627822 0.540906
vt 0.585547 0.544256
vt 0.583575 -0.000000
vt 0.627822 0.000307
vt 0.539327 0.547149
vt 0.539327 0.000307
vt 0.583575 -0.000000
vt 0.842208 0.547404
vt 0.845159 0.000000
vt 0.879157 0.000000
vt 0.539327 0.712037
vt 0.580995 0.711748
vt 0.711160 0.876484
vt 0.711160 0.918153
vt 0.586154 0.711748
vt 0.627822 0.541786
vt 0.627822 0.712037
vt 0.841324 0.711540
vt 0.882993 0.711540
vt 0.355409 0.836328
vt 0.389408 0.836328
vt 0.059315 0.602027
vt 0.000000 0.602027
vt 0.313274 0.895644
vt 0.313274 0.836328
vt 0.355409 0.895644
vt 0.000000 0.602027
vt 0.042135 0.602027
vt 0.059315 0.277337
vt 0.118629 0.277337
vt 0.084270 0.602027
vt 0.330454 0.693153
vt 0.271139 0.702645
vt 0.271139 0.539032
vt 0.330454 0.539032
vt 0.483773 0.689045
vt 0.687877 0.913585
vt 0.330454 0.836328
vt 0.271139 0.836328
vt 0.757520 0.935508
vt 0.757520 0.876192
vt 0.799655 0.935508
vt 0.330454 0.539032
vt 0.389769 0.539032
vt 0.924661 0.000000
vt 0.966796 0.000000
vt 0.588622 0.801011
vt 0.237258 0.574633
vt 0.402406 0.702651
vt 0.966796 0.594593
vt 0.924661 0.594593
vt 0.924661 0.445945
vt 0.966796 0.445945
vt 0.177944 0.574633
vt 0.177944 0.425985
vt 0.237258 0.425985
vt 0.177944 0.277337
vt 0.237258 0.277337
vt 0.567554 0.830669
vt 0.609689 0.771353
vt 0.609689 0.830669
vt 0.924661 0.297297
vt 0.966796 0.297297
vt 0.177944 0.574633
vt 0.118629 0.574633
vt 0.201967 0.838536
vt 0.160298 0.832700
vt 0.160298 0.574633
vt 0.201967 0.574633
vt 0.473106 0.799715
vt 0.431437 0.802940
vt 0.473106 0.539032
vt 0.924661 0.258073
vt 0.882993 0.249871
vt 0.882993 -0.000000
vt 0.924661 -0.000000
vt 0.243636 0.824499
vt 0.201967 0.835311
vt 0.201967 0.574633
vt 0.243636 0.574633
vt 0.160298 0.930613
vt 0.201967 0.930613
vt 0.431437 0.895019
vt 0.431437 0.936688
vt 0.389769 0.936688
vt 0.201967 0.930613
vt 0.243636 0.930613
vt 0.473106 0.895019
s 0
usemtl Material.002
f 1/1/1 3/2/1 4/3/1 2/4/1
f 6/5/2 7/6/2 8/7/2 5/8/2
f 11/9/3 12/10/3 8/11/3 7/12/3
f 9/13/4 10/14/4 6/15/4 5/16/4
f 12/17/5 9/18/5 5/19/5 8/20/5
f 10/21/6 11/22/6 7/23/6 6/24/6
f 3/25/7 1/26/7 18/27/7 17/28/7
f 9/18/8 12/17/8 16/29/8 13/30/8
f 2/31/9 4/32/9 20/33/9 19/34/9
f 10/14/10 9/13/10 13/35/10 14/36/10
f 17/37/1 18/38/1 14/39/1 13/40/1
f 18/38/1 19/41/1 15/42/1 14/39/1
f 19/41/1 20/43/1 16/44/1 15/42/1
f 20/43/1 17/37/1 13/40/1 16/44/1
f 11/22/11 10/21/11 14/45/11 15/46/11
f 4/47/12 3/48/12 17/49/12 20/50/12
f 1/51/13 2/52/13 19/53/13 18/54/13
f 12/10/14 11/9/14 15/55/14 16/56/14
f 65/170/9 66/171/9 68/172/9 67/173/9
f 67/174/13 68/175/13 72/176/13 71/177/13
f 71/178/7 72/179/7 70/180/7 69/181/7
f 69/182/12 70/183/12 66/184/12 65/185/12
f 67/186/1 71/187/1 69/188/1 65/189/1
f 72/190/2 68/191/2 66/192/2 70/193/2
f 73/171/9 74/68/9 76/194/9 75/172/9
f 75/195/13 76/196/13 80/177/13 79/197/13
f 79/198/7 80/199/7 78/200/7 77/144/7
f 77/201/12 78/202/12 74/203/12 73/204/12
f 75/205/1 79/190/1 77/193/1 73/206/1
f 80/207/2 76/208/2 74/209/2 78/183/2
f 81/210/13 82/211/13 84/212/13 83/213/13
f 83/214/7 84/215/7 88/216/7 87/217/7
f 87/218/12 88/219/12 86/220/12 85/221/12
f 85/222/9 86/223/9 82/224/9 81/225/9
f 83/226/1 87/227/1 85/228/1 81/229/1
f 88/230/2 84/231/2 82/232/2 86/233/2
f 89/234/13 90/235/13 92/236/13 91/237/13
f 91/238/7 92/239/7 96/240/7 95/241/7
f 95/242/12 96/243/12 94/244/12 93/245/12
f 93/246/9 94/247/9 90/248/9 89/249/9
f 91/250/1 95/251/1 93/252/1 89/253/1
f 96/254/2 92/255/2 90/256/2 94/257/2
usemtl Material.006
f 24/57/15 23/58/15 27/59/15 28/60/15
f 28/61/16 27/62/16 25/63/16 26/64/16
f 26/65/1 22/66/1 24/67/1 28/68/1
f 22/64/17 21/69/17 23/70/17 24/71/17
f 26/72/18 25/73/18 21/74/18 22/75/18
f 29/76/2 31/77/2 32/78/2 30/79/2
f 102/80/19 103/81/19 104/82/19 105/83/19
f 110/80/20 109/83/20 112/82/20 114/81/20
f 33/84/2 37/85/2 39/86/2 35/87/2
f 36/88/12 35/89/12 39/90/12 40/91/12
f 40/92/9 39/93/9 37/94/9 38/95/9
f 38/96/1 34/97/1 36/98/1 40/99/1
f 34/100/7 33/101/7 35/102/7 36/103/7
f 38/104/13 37/105/13 33/106/13 34/107/13
f 41/108/2 43/109/2 44/110/2 42/111/2
f 45/112/21 46/113/21 48/114/21 47/115/21
f 47/116/22 48/117/22 99/118/22 97/119/22
f 45/120/23 47/121/23 97/122/23 98/123/23
f 48/124/24 46/120/24 100/125/24 99/126/24
f 49/127/25 50/128/25 52/129/25 51/130/25
f 51/131/26 52/132/26 132/133/26 131/134/26
f 52/135/27 50/136/27 134/137/27 132/138/27
f 145/139/28 146/140/28 54/141/28 53/142/28
f 53/143/29 54/144/29 56/145/29 55/146/29
f 57/147/9 58/148/9 60/98/9 59/149/9
f 59/150/13 60/151/13 64/152/13 63/153/13
f 63/154/7 64/155/7 62/156/7 61/157/7
f 61/158/12 62/159/12 58/160/12 57/161/12
f 59/162/1 63/163/1 61/164/1 57/165/1
f 64/166/2 60/167/2 58/168/2 62/169/2
f 97/119/30 99/118/30 100/125/30 98/258/30
f 98/258/31 100/259/31 46/260/31 45/261/31
f 23/70/32 21/69/32 117/69/32 115/70/32
f 25/63/33 27/62/33 116/62/33 118/63/33
f 27/59/34 23/58/34 115/58/34 116/59/34
f 21/74/35 25/73/35 118/73/35 117/74/35
f 111/244/36 110/80/36 114/81/36 107/262/36
f 103/81/37 102/80/37 101/263/37 30/264/37 32/265/37
f 101/266/17 105/267/17 29/268/17 30/269/17
f 104/82/16 103/270/16 32/271/16 31/272/16
f 105/83/38 104/273/38 31/274/38 29/275/38
f 107/276/39 114/270/39 112/82/39 106/277/39
f 106/278/40 108/279/40 111/66/40 107/65/40
f 108/280/41 109/267/41 113/266/41 110/281/41 111/282/41
f 106/283/42 112/273/42 109/83/42 108/284/42
f 117/74/43 118/73/43 120/73/43 122/74/43
f 122/79/43 120/78/43 119/285/43 121/286/43
f 115/70/44 117/69/44 122/69/44 121/70/44
f 129/119/45 123/258/45 130/125/45 126/118/45
f 124/287/46 125/288/46 130/259/46 123/258/46
f 128/289/47 127/290/47 125/285/47 124/291/47
f 123/123/48 129/122/48 128/292/48 124/293/48
f 129/119/49 126/118/49 127/294/49 128/295/49
f 126/126/43 130/125/43 125/293/43 127/296/43
f 116/59/48 115/58/48 121/58/48 119/59/48
f 118/63/50 116/62/50 119/62/50 120/63/50
f 133/297/51 134/298/51 50/299/51 49/300/51
f 131/301/52 132/138/52 134/298/52 133/302/52
f 51/130/53 49/127/53 135/127/53 136/130/53
f 143/301/54 137/302/54 144/298/54 140/138/54
f 138/303/55 139/304/55 144/298/55 137/297/55
f 142/305/56 141/306/56 139/218/56 138/307/56
f 143/134/57 140/133/57 141/308/57 142/309/57
f 140/138/58 144/137/58 139/310/58 141/311/58
f 145/312/59 53/143/59 55/313/59 147/314/59
f 56/315/60 54/316/60 146/317/60 148/318/60
f 55/313/61 56/319/61 148/320/61 147/321/61
f 151/321/62 153/320/62 154/322/62 152/323/62
f 152/324/63 154/143/63 150/325/63 149/326/63
f 153/318/64 156/317/64 150/327/64 154/328/64
f 149/326/65 155/312/65 151/314/65 152/324/65
f 149/329/66 150/330/66 156/140/66 155/139/66
f 147/321/67 148/320/67 146/317/67 145/139/67
f 151/321/68 155/139/68 156/317/68 153/320/68
f 158/331/9 157/332/9 44/333/9 43/334/9
f 159/335/13 158/336/13 43/106/13 41/337/13
f 157/338/12 160/339/12 42/340/12 44/341/12
f 160/342/7 159/343/7 41/344/7 42/345/7
f 166/93/69 165/339/69 168/338/69 162/94/69
f 162/346/70 168/332/70 167/331/70 161/347/70
f 161/348/71 163/349/71 166/350/71 162/104/71
f 163/351/72 164/343/72 165/342/72 166/352/72
f 161/107/73 167/336/73 164/335/73 163/353/73
f 168/338/74 165/339/74 164/343/74 167/336/74
f 157/338/75 158/336/75 159/343/75 160/339/75
o Cube.026
v 1.834492 23.079323 9.289517
v 1.834492 -13.873705 9.289517
v 1.834492 23.079323 9.902043
v 1.834492 -13.873705 9.902043
v -0.084305 23.079323 9.289517
v -0.084305 -13.873705 9.289517
v -0.084305 23.079323 9.902043
v -0.084305 -13.873705 9.902043
v 1.834492 23.843021 9.902043
v -0.084305 23.843021 9.902043
v 1.834492 23.843021 9.289517
v -0.084305 23.843021 9.289517
v -0.084305 23.079323 -7.082002
v 1.834492 23.079323 -7.082002
v -0.084305 23.843021 -7.082002
v 1.834492 23.843021 -7.082002
v 1.834492 -13.858777 9.289517
v -0.084305 -13.858777 9.289517
v 1.834492 -13.095078 9.289517
v -0.084305 -13.095078 9.289517
v -0.084305 -13.858777 -7.082002
v 1.834492 -13.858777 -7.082002
v -0.084305 -13.095078 -7.082002
v 1.834492 -13.095078 -7.082002
v 1.834492 23.079323 -7.694634
v 1.834492 -13.873705 -7.694634
v 1.834492 23.079323 -7.082108
v 1.834492 -13.873705 -7.082108
v -0.084305 23.079323 -7.694634
v -0.084305 -13.873705 -7.694634
v -0.084305 23.079323 -7.082108
v -0.084305 -13.873705 -7.082108
v 1.834492 23.843021 -7.082108
v -0.084305 23.843021 -7.082108
v 1.834492 23.843021 -7.694634
v -0.084305 23.843021 -7.694634
v 1.834492 23.079323 9.902043
v 1.834492 -13.873705 9.902043
v -0.084305 23.079323 9.902043
v -0.084305 -13.873705 9.902043
v 1.834492 23.079323 -7.694615
v -0.084305 23.079323 -7.694615
v 1.834492 23.843021 -7.694615
v -0.084305 23.843021 -7.694615
v 1.834492 23.079323 -7.694615
v 1.834492 -13.873705 -7.694615
v -0.084305 23.079323 -7.694615
v -0.084305 -13.873705 -7.694615
vn -1.0000 -0.0000 -0.0000
vn -0.0000 -0.0000 1.0000
vn -0.0000 -1.0000 -0.0000
vn 1.0000 -0.0000 -0.0000
vn -0.0000 -0.0000 -1.0000
vn -0.0000 1.0000 -0.0000
vt 0.015258 0.016558
vt 0.000000 0.016558
vt 0.000000 0.000000
vt 0.015258 0.000000
vt 0.846123 0.817767
vt 0.846123 0.016558
vt 0.861381 0.016558
vt 0.861381 0.817767
vt 0.000000 0.817767
vt 0.015258 0.817767
vt 0.061030 0.817767
vt 0.061030 0.833024
vt 0.045773 0.833024
vt 0.045773 0.817767
vt 0.830865 0.817767
vt 0.830865 0.016558
vt 0.907154 0.801208
vt 0.907154 0.000000
vt 0.922411 0.000000
vt 0.922411 0.801208
vt 0.984742 0.015258
vt 0.969485 0.015258
vt 0.969485 0.000000
vt 0.984742 0.000000
vt 0.830865 0.000000
vt 0.846123 0.000000
vt 0.969485 0.423062
vt 0.984742 0.423062
vt 0.984742 0.830865
vt 0.969485 0.830865
vt 0.861381 0.000000
vt 0.015258 0.834325
vt 0.000000 0.834325
vt 0.423062 0.000000
vt 0.423062 0.016558
vt 1.000000 0.000000
vt 1.000000 0.407804
vt 0.984742 0.407804
vt 0.030515 0.834325
vt 0.030515 0.817767
vt 0.969485 0.407804
vt 0.952926 0.407804
vt 0.952926 0.000000
vt 0.969485 0.000000
vt 1.000000 0.815608
vt 0.984742 0.815608
vt 0.969485 0.815608
vt 0.952926 0.815608
vt 0.876638 0.016558
vt 0.876638 0.000000
vt 0.876638 0.817767
vt 0.891896 0.016558
vt 0.891896 0.817767
vt 0.076288 0.817767
vt 0.076288 0.833024
vt 0.061030 0.833024
vt 0.061030 0.817767
vt 0.907154 0.016558
vt 0.907154 0.817767
vt 0.091546 0.817767
vt 0.091546 0.833024
vt 0.891896 0.000000
vt 0.937669 0.000000
vt 0.937669 0.801208
vt 0.045773 0.834325
vt 0.045773 0.817767
vt 0.952926 0.000000
vt 0.952926 0.801208
s 0
usemtl Material.014
f 173/354/76 175/355/76 178/356/76 180/357/76
f 172/358/77 171/359/77 175/360/77 176/361/77
f 176/362/76 175/355/76 173/354/76 174/363/76
f 174/364/78 170/365/78 172/366/78 176/367/78
f 170/368/79 169/369/79 171/359/79 172/358/79
f 174/370/80 173/371/80 169/372/80 170/373/80
f 179/374/81 180/375/81 178/376/81 177/377/81
f 171/359/79 169/369/79 179/378/79 177/379/79
f 169/380/78 173/381/78 181/382/78 182/383/78
f 175/360/77 171/359/77 177/379/77 178/384/77
f 182/385/80 181/386/80 183/362/80 184/363/80
f 173/354/76 180/357/76 183/387/76 181/388/76
f 180/375/81 179/374/81 184/381/81 183/380/81
f 179/378/79 169/369/79 182/388/79 184/387/79
f 185/377/78 186/389/78 189/390/78 190/391/78
f 190/392/80 189/385/80 191/363/80 192/393/80
f 186/394/76 188/395/76 191/396/76 189/397/76
f 188/391/81 187/390/81 192/398/81 191/399/81
f 187/395/79 185/394/79 190/400/79 192/401/79
f 197/402/76 199/360/76 202/384/76 204/403/76
f 196/404/77 195/402/77 199/405/77 200/406/77
f 200/361/76 199/360/76 197/402/76 198/404/76
f 198/407/78 194/408/78 196/409/78 200/410/78
f 194/406/79 193/405/79 195/411/79 196/412/79
f 203/413/81 204/414/81 202/408/81 201/407/81
f 195/411/79 193/405/79 203/415/79 201/371/79
f 199/405/77 195/402/77 201/403/77 202/415/77
f 206/373/77 205/372/77 207/416/77 208/417/77
f 210/418/77 209/392/77 211/393/77 212/419/77
f 214/417/77 213/416/77 215/420/77 216/421/77
o Cube.007
v 1.834492 23.079323 9.289517
v 1.834492 -13.873705 9.289517
v 1.834492 23.079323 9.902043
v 1.834492 -13.873705 9.902043
v -0.084305 23.079323 9.289517
v -0.084305 -13.873705 9.289517
v -0.084305 23.079323 9.902043
v -0.084305 -13.873705 9.902043
v 1.834492 23.843021 9.902043
v -0.084305 23.843021 9.902043
v 1.834492 23.843021 9.289517
v -0.084305 23.843021 9.289517
v -0.084305 23.079323 -7.082002
v 1.834492 23.079323 -7.082002
v -0.084305 23.843021 -7.082002
v 1.834492 23.843021 -7.082002
v 1.834492 -13.858777 9.289517
v -0.084305 -13.858777 9.289517
v 1.834492 -13.095078 9.289517
v -0.084305 -13.095078 9.289517
v -0.084305 -13.858777 -7.082002
v 1.834492 -13.858777 -7.082002
v -0.084305 -13.095078 -7.082002
v 1.834492 -13.095078 -7.082002
v 1.834492 23.079323 -7.694634
v 1.834492 -13.873705 -7.694634
v 1.834492 23.079323 -7.082108
v 1.834492 -13.873705 -7.082108
v -0.084305 23.079323 -7.694634
v -0.084305 -13.873705 -7.694634
v -0.084305 23.079323 -7.082108
v -0.084305 -13.873705 -7.082108
v 1.834492 23.843021 -7.082108
v -0.084305 23.843021 -7.082108
v 1.834492 23.843021 -7.694634
v -0.084305 23.843021 -7.694634
v 1.834492 23.079323 9.902043
v 1.834492 -13.873705 9.902043
v -0.084305 23.079323 9.902043
v -0.084305 -13.873705 9.902043
v 1.834492 23.079323 -7.694615
v -0.084305 23.079323 -7.694615
v 1.834492 23.843021 -7.694615
v -0.084305 23.843021 -7.694615
v 1.834492 23.079323 -7.694615
v 1.834492 -13.873705 -7.694615
v -0.084305 23.079323 -7.694615
v -0.084305 -13.873705 -7.694615
vn -1.0000 -0.0000 -0.0000
vn -0.0000 -0.0000 1.0000
vn -0.0000 -1.0000 -0.0000
vn 1.0000 -0.0000 -0.0000
vn -0.0000 -0.0000 -1.0000
vn -0.0000 1.0000 -0.0000
vt 0.015258 0.016558
vt 0.000000 0.016558
vt 0.000000 0.000000
vt 0.015258 0.000000
vt 0.846123 0.817767
vt 0.846123 0.016558
vt 0.861381 0.016558
vt 0.861381 0.817767
vt 0.000000 0.817767
vt 0.015258 0.817767
vt 0.061030 0.817767
vt 0.061030 0.833024
vt 0.045773 0.833024
vt 0.045773 0.817767
vt 0.830865 0.817767
vt 0.830865 0.016558
vt 0.907154 0.801208
vt 0.907154 0.000000
vt 0.922411 0.000000
vt 0.922411 0.801208
vt 0.984742 0.015258
vt 0.969485 0.015258
vt 0.969485 0.000000
vt 0.984742 0.000000
vt 0.830865 0.000000
vt 0.846123 0.000000
vt 0.969485 0.423062
vt 0.984742 0.423062
vt 0.984742 0.830865
vt 0.969485 0.830865
vt 0.861381 0.000000
vt 0.015258 0.834325
vt 0.000000 0.834325
vt 0.423062 0.000000
vt 0.423062 0.016558
vt 1.000000 0.000000
vt 1.000000 0.407804
vt 0.984742 0.407804
vt 0.030515 0.834325
vt 0.030515 0.817767
vt 0.969485 0.407804
vt 0.952926 0.407804
vt 0.952926 0.000000
vt 0.969485 0.000000
vt 1.000000 0.815608
vt 0.984742 0.815608
vt 0.969485 0.815608
vt 0.952926 0.815608
vt 0.876638 0.016558
vt 0.876638 0.000000
vt 0.876638 0.817767
vt 0.891896 0.016558
vt 0.891896 0.817767
vt 0.076288 0.817767
vt 0.076288 0.833024
vt 0.061030 0.833024
vt 0.061030 0.817767
vt 0.907154 0.016558
vt 0.907154 0.817767
vt 0.091546 0.817767
vt 0.091546 0.833024
vt 0.891896 0.000000
vt 0.937669 0.000000
vt 0.937669 0.801208
vt 0.045773 0.834325
vt 0.045773 0.817767
vt 0.952926 0.000000
vt 0.952926 0.801208
s 0
usemtl Material.008
f 221/422/82 223/423/82 226/424/82 228/425/82
f 220/426/83 219/427/83 223/428/83 224/429/83
f 224/430/82 223/423/82 221/422/82 222/431/82
f 222/432/84 218/433/84 220/434/84 224/435/84
f 218/436/85 217/437/85 219/427/85 220/426/85
f 222/438/86 221/439/86 217/440/86 218/441/86
f 227/442/87 228/443/87 226/444/87 225/445/87
f 219/427/85 217/437/85 227/446/85 225/447/85
f 217/448/84 221/449/84 229/450/84 230/451/84
f 223/428/83 219/427/83 225/447/83 226/452/83
f 230/453/86 229/454/86 231/430/86 232/431/86
f 221/422/82 228/425/82 231/455/82 229/456/82
f 228/443/87 227/442/87 232/449/87 231/448/87
f 227/446/85 217/437/85 230/456/85 232/455/85
f 233/445/84 234/457/84 237/458/84 238/459/84
f 238/460/86 237/453/86 239/431/86 240/461/86
f 234/462/82 236/463/82 239/464/82 237/465/82
f 236/459/87 235/458/87 240/466/87 239/467/87
f 235/463/85 233/462/85 238/468/85 240/469/85
f 245/470/82 247/428/82 250/452/82 252/471/82
f 244/472/83 243/470/83 247/473/83 248/474/83
f 248/429/82 247/428/82 245/470/82 246/472/82
f 246/475/84 242/476/84 244/477/84 248/478/84
f 242/474/85 241/473/85 243/479/85 244/480/85
f 251/481/87 252/482/87 250/476/87 249/475/87
f 243/479/85 241/473/85 251/483/85 249/439/85
f 247/473/83 243/470/83 249/471/83 250/483/83
f 254/441/83 253/440/83 255/484/83 256/485/83
f 258/486/83 257/460/83 259/461/83 260/487/83
f 262/485/83 261/484/83 263/488/83 264/489/83
o Cube.006
v 0.539745 -13.701522 9.400003
v 0.539745 23.140755 9.400003
v 0.539745 -13.701522 -7.196892
v 0.539745 23.140755 -7.196892
v 1.210436 -13.701522 9.400003
v 1.210436 23.140755 9.400003
v 1.210436 -13.701522 -7.196892
v 1.210436 23.140755 -7.196892
v 0.208733 3.076078 7.527059
v 0.208733 3.914996 7.527059
v 0.208733 3.076078 7.110228
v 0.208733 3.914996 7.110228
v 0.576607 2.779108 8.288589
v 0.576607 6.345669 8.288589
v 0.576607 2.779108 6.385504
v 0.576607 6.345669 6.385504
v 0.208733 2.779108 6.385504
v 0.208733 2.779108 8.288589
v 0.208733 6.345669 8.288589
v 0.208733 6.345669 6.385504
v 0.372196 3.076078 7.110228
v 0.372196 3.076078 7.527059
v 0.372196 3.914996 7.527059
v 0.372196 3.914996 7.110228
v -0.825478 4.752688 7.750105
v -0.825478 5.688232 7.750105
v -0.825478 4.752688 6.935781
v -0.825478 5.688232 6.935781
v -0.059714 4.752688 7.750105
v -0.059714 5.688232 7.750105
v -0.059714 4.752688 6.935781
v -0.059714 5.688232 6.935781
v -0.909382 4.650183 7.342943
v -0.909382 5.220460 7.839329
v -0.909382 5.790738 7.342943
v -0.909382 5.220460 6.846558
v -0.442596 4.650183 6.846558
v -0.442596 5.790738 6.846558
v 0.024189 5.220460 6.846558
v 0.024189 4.650183 7.342943
v 0.024189 5.790738 7.342943
v 0.024189 5.220460 7.839329
v -0.442596 4.650183 7.839329
v -0.442596 5.790738 7.839329
v -1.085460 5.220460 7.342943
v -0.442596 5.220460 6.659313
v -0.442596 5.220460 8.026573
v -0.442596 4.435065 7.342943
v -0.442596 6.005855 7.342943
v 0.208121 5.688232 6.935781
v 0.292024 5.220460 6.846558
v 0.208121 4.752688 6.935781
v 0.208121 4.752688 7.750105
v 0.292024 4.650183 7.342943
v 0.292024 5.790738 7.342943
v 0.208121 5.688232 7.750105
v 0.292024 5.220460 7.839329
v 0.468103 5.220460 7.342943
vn -1.0000 -0.0000 -0.0000
vn -0.0000 -0.0000 -1.0000
vn 1.0000 -0.0000 -0.0000
vn -0.0000 -0.0000 1.0000
vn -0.0000 -1.0000 -0.0000
vn -0.0000 1.0000 -0.0000
vn -0.9209 -0.2559 0.2940
vn -0.9209 0.2559 0.2940
vn -0.9209 0.2559 -0.2940
vn -0.9209 -0.2559 -0.2940
vn -0.3272 -0.2678 -0.9062
vn -0.3272 0.2678 -0.9062
vn 0.3272 0.2678 -0.9062
vn 0.3272 -0.2678 -0.9062
vn -0.0000 -0.1874 0.9823
vn -0.0000 0.1874 -0.9823
vn -0.0000 -0.9697 0.2441
vn -0.0000 0.9697 -0.2441
vn 0.3272 -0.2678 0.9062
vn 0.3272 0.2678 0.9062
vn -0.3272 0.2678 0.9062
vn -0.3272 -0.2678 0.9062
vn -0.3604 -0.8690 -0.3390
vn 0.3604 -0.8690 -0.3390
vn 0.3604 -0.8690 0.3390
vn -0.3604 -0.8690 0.3390
vn 0.3604 0.8690 -0.3390
vn -0.3604 0.8690 -0.3390
vn -0.3604 0.8690 0.3390
vn 0.3604 0.8690 0.3390
vn 0.9209 -0.2559 -0.2940
vn 0.9209 0.2559 -0.2940
vn 0.9209 0.2559 0.2940
vn 0.9209 -0.2559 0.2940
vn -0.0000 0.9697 0.2441
vn -0.0000 -0.9697 -0.2441
vn -0.0000 -0.1874 -0.9823
vn -0.0000 0.1874 0.9823
vt 0.628909 0.314935
vt 0.314935 0.314935
vt 0.314935 0.000000
vt 0.628909 0.000000
vt 0.628909 0.629869
vt 0.314935 0.629869
vt 0.314935 0.314935
vt 0.628909 0.314935
vt 0.942883 0.314935
vt 0.628909 0.314935
vt 0.628909 0.000000
vt 0.942883 0.000000
vt 0.942883 0.629869
vt 0.628909 0.629869
vt 0.628909 0.314935
vt 0.942883 0.314935
vt 0.314935 0.000000
vt 0.314935 0.314935
vt 0.000000 0.314935
vt 0.000000 0.000000
vt 0.314935 0.314935
vt 0.314935 0.629869
vt 0.000000 0.629869
vt 0.000000 0.314935
vt 0.193803 0.629869
vt 0.201712 0.629869
vt 0.201712 0.706626
vt 0.193803 0.706626
vt 0.102619 0.802611
vt 0.072224 0.802611
vt 0.072224 0.629869
vt 0.102619 0.629869
vt 0.163408 0.665981
vt 0.133013 0.665981
vt 0.133013 0.629869
vt 0.163408 0.629869
vt 0.133013 0.802611
vt 0.102619 0.802611
vt 0.102619 0.629869
vt 0.133013 0.629869
vt 0.036112 0.629869
vt 0.036112 0.802611
vt 0.000000 0.802611
vt 0.000000 0.629869
vt 0.036112 0.802611
vt 0.036112 0.629869
vt 0.191272 0.651531
vt 0.191272 0.643621
vt 0.193803 0.629869
vt 0.193803 0.665981
vt 0.184123 0.651531
vt 0.184123 0.643621
vt 0.163408 0.629869
vt 0.231070 0.637779
vt 0.223921 0.637779
vt 0.223921 0.629869
vt 0.231070 0.629869
vt 0.209622 0.706626
vt 0.201712 0.706626
vt 0.201712 0.629869
vt 0.209622 0.629869
vt 0.216771 0.629869
vt 0.223921 0.629869
vt 0.223921 0.706626
vt 0.216771 0.706626
vt 0.209622 0.706626
vt 0.209622 0.629869
vt 0.216771 0.629869
vt 0.944577 0.122079
vt 0.942883 0.082681
vt 0.952303 -0.000000
vt 0.952303 0.082681
vt 0.961722 0.646821
vt 0.963415 0.607423
vt 0.971141 0.646821
vt 0.971141 0.729502
vt 0.978867 0.607423
vt 0.980560 0.646821
vt 0.961722 0.082681
vt 0.960029 0.122079
vt 0.990640 0.039409
vt 0.994513 -0.000000
vt 0.995140 0.219186
vt 0.990280 0.219200
vt 0.998612 0.039387
vt 1.000000 0.219172
vt 0.999640 0.398963
vt 0.995767 0.438372
vt 0.991668 0.398986
vt 0.984794 0.125766
vt 0.980920 0.165175
vt 0.980560 0.039409
vt 0.984434 0.000000
vt 1.000000 0.524729
vt 0.996126 0.564138
vt 0.944577 0.481657
vt 0.952303 0.521055
vt 0.952303 0.646821
vt 0.944577 0.607423
vt 0.978867 0.247845
vt 0.971141 0.208447
vt 0.971141 0.082681
vt 0.978867 0.122079
vt 0.985420 0.344952
vt 0.980560 0.344966
vt 0.988893 0.165153
vt 0.990280 0.344938
vt 0.989921 0.524729
vt 0.986047 0.564138
vt 0.981948 0.524752
vt 0.961722 0.301868
vt 0.952303 0.301868
vt 0.960029 0.481657
vt 0.942883 0.301868
vt 0.980560 0.427634
vt 0.971141 0.427634
vt 0.961722 0.427634
vt 0.963415 0.247845
vt 0.960029 0.607423
vt 0.961722 0.646821
vt 0.952303 0.729502
vt 0.980560 0.082681
vt 0.971141 -0.000000
vt 0.963415 0.122079
vt 0.961722 0.082681
vt 0.942883 0.646821
vt 0.992027 0.524752
vt 0.988533 0.039387
s 0
usemtl Material.007
f 265/490/88 266/491/88 268/492/88 267/493/88
f 267/494/89 268/495/89 272/496/89 271/497/89
f 271/498/90 272/499/90 270/500/90 269/501/90
f 269/502/91 270/503/91 266/504/91 265/505/91
f 267/506/92 271/507/92 269/508/92 265/509/92
f 272/510/93 268/511/93 266/512/93 270/513/93
f 274/514/92 276/515/92 288/516/92 287/517/92
f 281/518/89 284/519/89 280/520/89 279/521/89
f 279/522/90 280/523/90 278/524/90 277/525/90
f 277/526/91 278/527/91 283/528/91 282/529/91
f 281/530/92 279/531/92 277/532/92 282/533/92
f 280/520/93 284/519/93 283/534/93 278/535/93
f 273/536/88 275/537/88 281/538/88 282/539/88
f 274/540/88 273/536/88 282/539/88 283/522/88
f 276/541/88 274/540/88 283/522/88 284/542/88
f 275/537/88 276/541/88 284/542/88 281/538/88
f 286/543/88 287/544/88 288/545/88 285/546/88
f 275/547/93 273/548/93 286/549/93 285/550/93
f 276/551/91 275/552/91 285/553/91 288/554/91
f 273/554/89 274/555/89 287/556/89 286/557/89
f 289/558/94 298/559/94 309/560/94 297/561/94
f 298/562/95 290/563/95 299/564/95 309/565/95
f 309/565/96 299/564/96 292/566/96 300/567/96
f 297/561/97 309/560/97 300/568/97 291/569/97
f 291/570/98 300/571/98 310/572/98 301/573/98
f 300/571/99 292/574/99 302/575/99 310/572/99
f 310/572/100 302/575/100 296/576/100 303/577/100
f 301/573/101 310/572/101 303/577/101 295/578/101
f 306/579/102 293/580/102 317/581/102 321/582/102
f 303/577/103 296/576/103 314/583/103 315/584/103
f 293/585/104 304/586/104 318/587/104 317/588/104
f 296/589/105 305/590/105 319/591/105 314/592/105
f 293/580/106 306/579/106 311/593/106 307/594/106
f 306/579/107 294/595/107 308/596/107 311/593/107
f 311/593/108 308/596/108 290/597/108 298/598/108
f 307/594/109 311/593/109 298/598/109 289/599/109
f 291/569/110 301/600/110 312/601/110 297/561/110
f 301/600/111 295/602/111 304/586/111 312/601/111
f 312/601/112 304/586/112 293/585/112 307/603/112
f 297/561/113 312/601/113 307/603/113 289/558/113
f 296/589/114 302/604/114 313/605/114 305/590/114
f 302/604/115 292/566/115 299/564/115 313/605/115
f 313/605/116 299/564/116 290/563/116 308/606/116
f 305/590/117 313/605/117 308/606/117 294/607/117
f 316/608/118 315/609/118 322/610/118 318/587/118
f 315/611/119 314/592/119 319/591/119 322/612/119
f 322/612/120 319/591/120 320/613/120 321/614/120
f 318/587/121 322/610/121 321/615/121 317/588/121
f 305/590/122 294/607/122 320/613/122 319/591/122
f 304/586/123 295/602/123 316/608/123 318/587/123
f 295/578/124 303/577/124 315/584/124 316/616/124
f 294/595/125 306/579/125 321/582/125 320/617/125
