# File generated by ImageToStl.com - Free Image and 3D model conversion tools

mtllib Saída.mtl

# Cube010_0
o obj1
v 3.53992272 395.85213791 -122.90814564
v 26.52853563 312.40446245 -115.2990691
v -910.34294633 49.64642499 -122.90829246
v -929.18004559 119.94743 -122.90829246
v 963.27874482 789.35064732 -122.90799029
v 963.27873641 789.35064507 -65.21933515
v 1022.69593036 567.60267896 -65.21933515
v 1022.69593877 567.60268121 -122.90799029
v 1002.54726196 642.79853933 -87.84649607
v -37.22415995 521.26667711 -122.90814669
v -40.95965426 520.26575433 -65.21949213
v 963.27873641 789.35064507 -65.21933515
v 963.27874482 789.35064732 -122.90799029
v 27.65401769 300.9819773 -65.2194907
v -40.95965426 520.26575433 -65.21949213
v -969.76014869 271.39438885 -65.21963733
v -910.34295474 49.64642274 -65.21963733
v 26.52853563 312.40446245 -115.2990691
v 27.65401769 300.9819773 -65.2194907
v -910.34295474 49.64642274 -65.21963733
v -910.34294633 49.64642499 -122.90829246
v -969.76014869 271.39438885 -65.21963733
v -969.76014028 271.3943911 -122.90829246
v -965.51852724 255.56447722 -122.90829246
v -918.5668852 80.33855302 -76.87349267
v -929.18004559 119.94743 -122.90829246
v -910.34294633 49.64642499 -122.90829246
v -949.69030834 196.49273824 -76.11815007
v -910.34295474 49.64642274 -65.21963733
v 982.5398814 628.39130726 -102.02531107
v 946.62930816 606.17336073 -122.90799987
v 373.45108993 409.70349378 -112.48138073
v 142.46876269 388.45826229 -122.90812567
v 282.92765535 431.33447338 -122.90810351
v 457.76686483 453.17943959 -122.90807715
v 543.95691471 439.32493444 -122.90806512
v 373.45108993 409.70349378 -112.48138073
v 282.92765535 431.33447338 -122.90810351
v 543.95691471 439.32493444 -122.90806512
v 507.61406895 429.58689736 -88.76708238
v 373.45108993 409.70349378 -112.48138073
v -852.91195791 229.9680514 -122.10944571
v -927.16457708 199.0391734 -105.54769135
v -525.09859641 390.54110373 -122.90822295
v -463.81801426 406.96118776 -83.55993436
v -451.78409466 414.66182007 -122.90821132
v -316.16292303 425.70632248 -110.96500501
v -136.98378974 494.53616239 -122.90816228
v -248.74538371 442.39335971 -122.66440567
v -398.89017385 364.48102254 -122.30928982
v -261.56794118 461.15393653 -87.68866357
v -316.16292303 425.70632248 -110.96500501
v -451.78409466 414.66182007 -122.90821132
v -398.89017385 364.48102254 -122.30928982
v -525.09859641 390.54110373 -122.90822295
v -316.16292303 425.70632248 -110.96500501
v -398.89017385 364.48102254 -122.30928982
v -451.78409466 414.66182007 -122.90821132
v -261.56794118 461.15393653 -87.68866357
v -37.22415995 521.26667711 -122.90814669
v 963.27874482 789.35064732 -122.90799029
v 456.12022953 621.88861434 -122.9080708
v 320.43810756 543.95473478 -122.90809364
v 469.48578814 533.68199162 -122.9080723
v 320.43810756 543.95473478 -122.90809364
v 456.12022953 621.88861434 -122.9080708
v 463.46685168 573.40416652 -108.77126062
v 469.48578814 533.68199162 -122.9080723
v 463.46685168 573.40416652 -108.77126062
v 456.12022953 621.88861434 -122.9080708
v 556.08042442 592.47317772 -122.90805737
v 469.48578814 533.68199162 -122.9080723
v -136.98378974 494.53616239 -122.90816228
v -969.76014028 271.3943911 -122.90829246
v -969.76014869 271.39438885 -65.21963733
v 1022.69593036 567.60267896 -65.21933515
v 963.27873641 789.35064507 -65.21933515
v -248.74538371 442.39335971 -122.66440567
v -136.98378974 494.53616239 -122.90816228
v -852.91195791 229.9680514 -122.10944571
v -965.51852724 255.56447722 -122.90829246
v -969.76014028 271.3943911 -122.90829246
v 1022.69593877 567.60268121 -122.90799029
v 1022.69593036 567.60267896 -65.21933515
v 556.08042442 592.47317772 -122.90805737
v 946.62930816 606.17336073 -122.90799987
v 1022.69593877 567.60268121 -122.90799029
v 543.95691471 439.32493444 -122.90806512
v 457.76686483 453.17943959 -122.90807715
vn 0.1667 -0.14628 0.9751
vn 0 -1 0
vn -1 0 0
vn 0 0 -1
vn 0.9981 -0.05426 0.02926
vn 0 1 0
vn 0.03766 -0.99825 0.04551
vn -0.12645 -0.98859 0.08189
vn 0.04209 -0.9976 0.05503
vn -0.11521 -0.99077 0.07143
vn 0.61034 -0.18349 0.7706
vn 0.39296 0.8064 0.44192
vn 0.76517 0.64342 0.02271
vn 0.21827 0.95782 0.18691
vn -0.01554 0.99985 0.00735
vn -0.13722 0.98239 0.12683
vn 0.06134 0.99787 0.02239
vn -0.89808 0.43926 -0.02269
vn -0.4813 0.8582 0.17844
vn -0.82382 -0.56228 0.07187
vn 0.03334 -0.0163 0.99931
vn -0.05611 -0.94947 0.30882
vn -0.64035 0.76285 0.08949
vn 0 0 1
vn 0.37186 -0.86086 0.34732
vn -0.30683 -0.918 0.25127
vn 0.18147 0.96553 0.18661
vn -0.30482 0.92396 0.23104
vn -0.00351 0.01458 0.99989
vn 0.99946 0.01025 0.03133
vn 0.05264 0.01934 0.99843
vt 0.16748 0.20394
vt 0.16864 0.33583
vt -0 0.35099
vt 0 0.24181
vt 0.96171 0.68956
vt 0.65487 0.68956
vt 0.65589 0.34481
vt 0.96273 0.34481
vt 0.77589 0.46172
vt 0.6896 0.16447
vt 0.9999 0.164
vt 1 0.34111
vt 0.6897 0.34092
vt 0.52219 0.34481
vt 0.52383 0
vt 0.68951 0
vt 0.68951 0.34481
vt 0.61447 0.51282
vt 0.3447 0.5123
vt 0.3447 0.34502
vt 0.65487 0.34481
vt 0.30802 0.69747
vt 0 0.69515
vt 0 0.67058
vt 0.24579 0.40047
vt 0 0.4601
vt -0 0.35099
vt 0.24983 0.58078
vt 0.30802 0.35331
vt 0.85194 0.44868
vt 0.96411 0.43054
vt 0.23109 0.33022
vt 0.19026 0.26857
vt 0.21554 0.26094
vt 0.04339 0.72845
vt 0.06318 0.77728
vt 0 0.77728
vt 0.02807 0.69747
vt 0.65487 0.60417
vt 0.4713 0.59781
vt 0.59951 0.57503
vt 0.00213 0.59093
vt 0.09222 0.57478
vt 0.68955 0.07842
vt 0.90121 0.08936
vt 0.68951 0.09252
vt 0.69329 0.75374
vt 0.65487 0.68956
vt 0.68849 0.68997
vt 0.74504 0.68956
vt 0.87902 0.12502
vt 0.75405 0.10987
vt 0.09256 0
vt 0.09921 0.0934
vt 0.07929 0.0065
vt 0.53773 0.76957
vt 0.56541 0.68975
vt 0.61421 0.76957
vt 0.67425 0.87932
vt 0.16629 0.00639
vt 0.3447 0.00616
vt 0.25285 0.05202
vt 0.22681 0.1123
vt 0.25115 0.18503
vt 0.48426 0.73405
vt 0.52462 0.68975
vt 0.53773 0.79359
vt 0.44134 0.79359
vt 0.3447 0.79364
vt 0.35827 0.68975
vt 0.41006 0.75134
vt 0.44134 0.79364
vt 0.68959 0.14687
vt 0.68951 -0
vt 0.99981 0.00019
vt 0.3447 0.34481
vt 0.3447 0
vt 0.12762 0.03867
vt 0.1485 0.00641
vt 0.0177 0.11219
vt 0 0.03119
vt 0 0.00661
vt 0.65487 0.68954
vt 0.3447 0.68975
vt 0.26817 0.13344
vt 0.33376 0.26513
vt 0.3447 0.35054
vt 0.25933 0.35065
vt 0.24561 0.29713
usemtl mat0
f 1/1/1 2/2/1 3/3/1
f 3/3/1 4/4/1 1/1/1
f 5/5/2 6/6/2 7/7/2
f 7/7/2 8/8/2 9/9/2
f 9/9/2 5/5/2 7/7/2
f 10/10/3 11/11/3 12/12/3
f 12/12/3 13/13/3 10/10/3
f 14/14/4 15/15/4 16/16/4
f 16/16/4 17/17/4 14/14/4
f 18/18/5 19/19/5 20/20/5
f 20/20/5 21/21/5 18/18/5
f 22/22/6 23/23/6 24/24/6
f 25/25/6 26/26/6 27/27/6
f 22/22/6 24/24/6 28/28/6
f 25/25/6 27/27/6 29/29/6
f 29/29/6 22/22/6 28/28/6
f 28/28/6 25/25/6 29/29/6
f 5/5/7 9/9/7 30/30/7
f 8/8/8 31/31/8 30/30/8
f 30/30/9 31/31/9 5/5/9
f 30/30/10 9/9/10 8/8/10
f 32/32/11 33/33/11 34/34/11
f 35/35/12 36/36/12 37/37/12
f 37/37/12 38/38/12 35/35/12
f 39/39/13 40/40/13 41/41/13
f 24/24/14 42/42/14 43/43/14
f 28/28/15 43/43/15 26/26/15
f 26/26/15 25/25/15 28/28/15
f 43/43/16 42/42/16 26/26/16
f 43/43/17 28/28/17 24/24/17
f 44/44/18 45/45/18 46/46/18
f 47/47/19 48/48/19 49/49/19
f 49/49/19 50/50/19 47/47/19
f 51/51/20 52/52/20 46/46/20
f 46/46/20 45/45/20 51/51/20
f 53/53/21 54/54/21 55/55/21
f 56/56/22 57/57/22 58/58/22
f 47/47/23 59/59/23 48/48/23
f 60/60/24 61/61/24 62/62/24
f 63/63/24 64/64/24 1/1/24
f 1/1/24 60/60/24 62/62/24
f 62/62/24 63/63/24 1/1/24
f 65/65/25 66/66/25 67/67/25
f 65/65/26 67/67/26 68/68/26
f 69/69/27 70/70/27 71/71/27
f 72/72/28 69/69/28 71/71/28
f 11/11/3 10/10/3 73/73/3
f 45/45/3 44/44/3 74/74/3
f 11/11/3 73/73/3 51/51/3
f 45/45/3 74/74/3 75/75/3
f 75/75/3 11/11/3 51/51/3
f 51/51/3 45/45/3 75/75/3
f 76/76/4 77/77/4 15/15/4
f 15/15/4 14/14/4 76/76/4
f 78/78/29 79/79/29 60/60/29
f 60/60/29 1/1/29 4/4/29
f 80/80/29 81/81/29 82/82/29
f 82/82/29 55/55/29 54/54/29
f 54/54/29 78/78/29 60/60/29
f 80/80/29 82/82/29 54/54/29
f 54/54/29 60/60/29 4/4/29
f 4/4/29 80/80/29 54/54/29
f 19/19/30 18/18/30 41/41/30
f 40/40/30 39/39/30 83/83/30
f 19/19/30 41/41/30 40/40/30
f 40/40/30 83/83/30 84/84/30
f 84/84/30 19/19/30 40/40/30
f 33/33/31 32/32/31 2/2/31
f 85/85/31 62/62/31 61/61/31
f 86/86/31 87/87/31 88/88/31
f 33/33/31 2/2/31 1/1/31
f 64/64/31 85/85/31 61/61/31
f 61/61/31 86/86/31 88/88/31
f 34/34/31 33/33/31 1/1/31
f 64/64/31 61/61/31 88/88/31
f 34/34/31 1/1/31 64/64/31
f 64/64/31 88/88/31 89/89/31
f 89/89/31 34/34/31 64/64/31
# Vertices: 89, normals: 31, texture coordinates: 89, faces: 78

# Cube008_1
o obj2
v 56.10068759 1333.87704471 -122.90814564
v 63.03926042 1420.15477112 -115.2990691
v 1033.27894635 1346.63745137 -122.90829246
v 1026.93565561 1274.13345443 -122.90829246
v -980.34316305 1292.35961961 -122.90799029
v -980.34315437 1292.35961885 -65.21933515
v -960.33473741 1521.05640426 -65.21933515
v -960.33474609 1521.05640502 -122.90799029
v -967.11969644 1443.50416522 -87.84649607
v 51.51207052 1202.08379996 -122.90814669
v 55.3646224 1201.74674466 -65.21949213
v -980.34315437 1292.35961885 -65.21933515
v -980.34316305 1292.35961961 -122.90799029
v 65.8883753 1431.27333234 -65.2194907
v 55.3646224 1201.74674466 -65.21949213
v 1013.27053807 1117.94066521 -65.21963733
v 1033.27895503 1346.63745062 -65.21963733
v 63.03926042 1420.15477112 -115.2990691
v 65.8883753 1431.27333234 -65.2194907
v 1033.27895503 1346.63745062 -65.21963733
v 1033.27894635 1346.63745137 -122.90829246
v 1013.27053807 1117.94066521 -65.21963733
v 1013.27052939 1117.94066597 -122.90829246
v 1014.69886952 1134.26663495 -122.90829246
v 1030.50958884 1314.98353506 -76.87349267
v 1026.93565561 1274.13345443 -122.90829246
v 1033.27894635 1346.63745137 -122.90829246
v 1020.0289455 1195.18947675 -76.11815007
v 1033.27895503 1346.63745062 -65.21963733
v -943.39134509 1450.1996025 -102.02531107
v -902.04745997 1458.79549462 -122.90799987
v -296.2395051 1447.37816149 -112.48138073
v -71.92084504 1388.34149893 -122.90812567
v -218.57354736 1396.09083931 -122.90810351
v -390.34006247 1435.36184915 -122.90807715
v -466.59368334 1477.85957112 -122.90806512
v -296.2395051 1447.37816149 -112.48138073
v -218.57354736 1396.09083931 -122.90810351
v -466.59368334 1477.85957112 -122.90806512
v -429.11197746 1474.58034007 -88.76708238
v -296.2395051 1447.37816149 -112.48138073
v 917.63781893 1196.83313774 -122.10944571
v 997.99075235 1200.50086833 -105.54769135
v 554.67481816 1158.06267376 -122.90822295
v 491.47391278 1163.59204779 -83.55993436
v 477.5319562 1160.47166634 -122.90821132
v 346.31231491 1196.47842546 -110.96500501
v 154.39782488 1193.08244444 -122.90816228
v 277.25325352 1203.85590956 -122.66440567
v 444.99078773 1225.71698007 -122.30928982
v 282.88601624 1181.84116135 -87.68866357
v 346.31231491 1196.47842546 -110.96500501
v 477.5319562 1160.47166634 -122.90821132
v 444.99078773 1225.71698007 -122.30928982
v 554.67481816 1158.06267376 -122.90822295
v 346.31231491 1196.47842546 -110.96500501
v 444.99078773 1225.71698007 -122.30928982
v 477.5319562 1160.47166634 -122.90821132
v 282.88601624 1181.84116135 -87.68866357
v 51.51207052 1202.08379996 -122.90814669
v -980.34316305 1292.35961961 -122.90799029
v -446.49469594 1276.26392199 -122.9080708
v -292.34025454 1303.09176196 -122.90809364
v -428.88575458 1363.72231539 -122.9080723
v -292.34025454 1303.09176196 -122.90809364
v -446.49469594 1276.26392199 -122.9080708
v -436.81559575 1324.33708745 -108.77126062
v -428.88575458 1363.72231539 -122.9080723
v -436.81559575 1324.33708745 -108.77126062
v -446.49469594 1276.26392199 -122.9080708
v -530.36586412 1338.09380364 -122.90805737
v -428.88575458 1363.72231539 -122.9080723
v 154.39782488 1193.08244444 -122.90816228
v 1013.27052939 1117.94066597 -122.90829246
v 1013.27053807 1117.94066521 -65.21963733
v -960.33473741 1521.05640426 -65.21933515
v -980.34315437 1292.35961885 -65.21933515
v 277.25325352 1203.85590956 -122.66440567
v 154.39782488 1193.08244444 -122.90816228
v 917.63781893 1196.83313774 -122.10944571
v 1014.69886952 1134.26663495 -122.90829246
v 1013.27052939 1117.94066597 -122.90829246
v -960.33474609 1521.05640502 -122.90799029
v -960.33473741 1521.05640426 -65.21933515
v -530.36586412 1338.09380364 -122.90805737
v -902.04745997 1458.79549462 -122.90799987
v -960.33474609 1521.05640502 -122.90799029
v -466.59368334 1477.85957112 -122.90806512
v -390.34006247 1435.36184915 -122.90807715
vn 0.1667 -0.14628 0.9751
vn 0 -1 0
vn -1 0 0
vn 0 0 -1
vn 0.9981 -0.05426 0.02926
vn 0 1 0
vn 0.03766 -0.99825 0.04551
vn -0.12645 -0.98859 0.08189
vn 0.04209 -0.9976 0.05503
vn -0.11521 -0.99077 0.07143
vn 0.61034 -0.18349 0.7706
vn 0.39296 0.8064 0.44192
vn 0.76517 0.64342 0.02271
vn 0.21827 0.95782 0.18691
vn -0.01554 0.99985 0.00735
vn -0.13722 0.98239 0.12683
vn 0.06134 0.99787 0.02239
vn -0.89808 0.43926 -0.02269
vn -0.4813 0.8582 0.17844
vn -0.82382 -0.56228 0.07187
vn 0.03334 -0.0163 0.99931
vn -0.05611 -0.94947 0.30882
vn -0.64035 0.76285 0.08949
vn 0 0 1
vn 0.37186 -0.86086 0.34732
vn -0.30683 -0.918 0.25127
vn 0.18147 0.96553 0.18661
vn -0.30482 0.92396 0.23104
vn -0.00351 0.01458 0.99989
vn 0.99946 0.01025 0.03133
vn 0.05264 0.01934 0.99843
vt 0.16748 0.20394
vt 0.16864 0.33583
vt -0 0.35099
vt 0 0.24181
vt 0.96171 0.68956
vt 0.65487 0.68956
vt 0.65589 0.34481
vt 0.96273 0.34481
vt 0.77589 0.46172
vt 0.6896 0.16447
vt 0.9999 0.164
vt 1 0.34111
vt 0.6897 0.34092
vt 0.52219 0.34481
vt 0.52383 0
vt 0.68951 0
vt 0.68951 0.34481
vt 0.61447 0.51282
vt 0.3447 0.5123
vt 0.3447 0.34502
vt 0.65487 0.34481
vt 0.30802 0.69747
vt 0 0.69515
vt 0 0.67058
vt 0.24579 0.40047
vt 0 0.4601
vt -0 0.35099
vt 0.24983 0.58078
vt 0.30802 0.35331
vt 0.85194 0.44868
vt 0.96411 0.43054
vt 0.23109 0.33022
vt 0.19026 0.26857
vt 0.21554 0.26094
vt 0.04339 0.72845
vt 0.06318 0.77728
vt 0 0.77728
vt 0.02807 0.69747
vt 0.65487 0.60417
vt 0.4713 0.59781
vt 0.59951 0.57503
vt 0.00213 0.59093
vt 0.09222 0.57478
vt 0.68955 0.07842
vt 0.90121 0.08936
vt 0.68951 0.09252
vt 0.69329 0.75374
vt 0.65487 0.68956
vt 0.68849 0.68997
vt 0.74504 0.68956
vt 0.87902 0.12502
vt 0.75405 0.10987
vt 0.09256 0
vt 0.09921 0.0934
vt 0.07929 0.0065
vt 0.53773 0.76957
vt 0.56541 0.68975
vt 0.61421 0.76957
vt 0.67425 0.87932
vt 0.16629 0.00639
vt 0.3447 0.00616
vt 0.25285 0.05202
vt 0.22681 0.1123
vt 0.25115 0.18503
vt 0.48426 0.73405
vt 0.52462 0.68975
vt 0.53773 0.79359
vt 0.44134 0.79359
vt 0.3447 0.79364
vt 0.35827 0.68975
vt 0.41006 0.75134
vt 0.44134 0.79364
vt 0.68959 0.14687
vt 0.68951 -0
vt 0.99981 0.00019
vt 0.3447 0.34481
vt 0.3447 0
vt 0.12762 0.03867
vt 0.1485 0.00641
vt 0.0177 0.11219
vt 0 0.03119
vt 0 0.00661
vt 0.65487 0.68954
vt 0.3447 0.68975
vt 0.26817 0.13344
vt 0.33376 0.26513
vt 0.3447 0.35054
vt 0.25933 0.35065
vt 0.24561 0.29713
usemtl mat0
f 90/90/32 91/91/32 92/92/32
f 92/92/32 93/93/32 90/90/32
f 94/94/33 95/95/33 96/96/33
f 96/96/33 97/97/33 98/98/33
f 98/98/33 94/94/33 96/96/33
f 99/99/34 100/100/34 101/101/34
f 101/101/34 102/102/34 99/99/34
f 103/103/35 104/104/35 105/105/35
f 105/105/35 106/106/35 103/103/35
f 107/107/36 108/108/36 109/109/36
f 109/109/36 110/110/36 107/107/36
f 111/111/37 112/112/37 113/113/37
f 114/114/37 115/115/37 116/116/37
f 111/111/37 113/113/37 117/117/37
f 114/114/37 116/116/37 118/118/37
f 118/118/37 111/111/37 117/117/37
f 117/117/37 114/114/37 118/118/37
f 94/94/38 98/98/38 119/119/38
f 97/97/39 120/120/39 119/119/39
f 119/119/40 120/120/40 94/94/40
f 119/119/41 98/98/41 97/97/41
f 121/121/42 122/122/42 123/123/42
f 124/124/43 125/125/43 126/126/43
f 126/126/43 127/127/43 124/124/43
f 128/128/44 129/129/44 130/130/44
f 113/113/45 131/131/45 132/132/45
f 117/117/46 132/132/46 115/115/46
f 115/115/46 114/114/46 117/117/46
f 132/132/47 131/131/47 115/115/47
f 132/132/48 117/117/48 113/113/48
f 133/133/49 134/134/49 135/135/49
f 136/136/50 137/137/50 138/138/50
f 138/138/50 139/139/50 136/136/50
f 140/140/51 141/141/51 135/135/51
f 135/135/51 134/134/51 140/140/51
f 142/142/52 143/143/52 144/144/52
f 145/145/53 146/146/53 147/147/53
f 136/136/54 148/148/54 137/137/54
f 149/149/55 150/150/55 151/151/55
f 152/152/55 153/153/55 90/90/55
f 90/90/55 149/149/55 151/151/55
f 151/151/55 152/152/55 90/90/55
f 154/154/56 155/155/56 156/156/56
f 154/154/57 156/156/57 157/157/57
f 158/158/58 159/159/58 160/160/58
f 161/161/59 158/158/59 160/160/59
f 100/100/34 99/99/34 162/162/34
f 134/134/34 133/133/34 163/163/34
f 100/100/34 162/162/34 140/140/34
f 134/134/34 163/163/34 164/164/34
f 164/164/34 100/100/34 140/140/34
f 140/140/34 134/134/34 164/164/34
f 165/165/35 166/166/35 104/104/35
f 104/104/35 103/103/35 165/165/35
f 167/167/60 168/168/60 149/149/60
f 149/149/60 90/90/60 93/93/60
f 169/169/60 170/170/60 171/171/60
f 171/171/60 144/144/60 143/143/60
f 143/143/60 167/167/60 149/149/60
f 169/169/60 171/171/60 143/143/60
f 143/143/60 149/149/60 93/93/60
f 93/93/60 169/169/60 143/143/60
f 108/108/61 107/107/61 130/130/61
f 129/129/61 128/128/61 172/172/61
f 108/108/61 130/130/61 129/129/61
f 129/129/61 172/172/61 173/173/61
f 173/173/61 108/108/61 129/129/61
f 122/122/62 121/121/62 91/91/62
f 174/174/62 151/151/62 150/150/62
f 175/175/62 176/176/62 177/177/62
f 122/122/62 91/91/62 90/90/62
f 153/153/62 174/174/62 150/150/62
f 150/150/62 175/175/62 177/177/62
f 123/123/62 122/122/62 90/90/62
f 153/153/62 150/150/62 177/177/62
f 123/123/62 90/90/62 153/153/62
f 153/153/62 177/177/62 178/178/62
f 178/178/62 123/123/62 153/153/62
# Vertices: 89, normals: 31, texture coordinates: 89, faces: 78

# Cube014_2
o obj3
v 56.10068759 -1466.12295529 -122.90814564
v 63.03926042 -1379.84522888 -115.2990691
v 1033.27894635 -1453.36254863 -122.90829246
v 1026.93565561 -1525.86654557 -122.90829246
v -980.34316305 -1507.64038039 -122.90799029
v -980.34315437 -1507.64038115 -65.21933515
v -960.33473741 -1278.94359574 -65.21933515
v -960.33474609 -1278.94359498 -122.90799029
v -967.11969644 -1356.49583478 -87.84649607
v 51.51207052 -1597.91620004 -122.90814669
v 55.3646224 -1598.25325534 -65.21949213
v -980.34315437 -1507.64038115 -65.21933515
v -980.34316305 -1507.64038039 -122.90799029
v 65.8883753 -1368.72666766 -65.2194907
v 55.3646224 -1598.25325534 -65.21949213
v 1013.27053807 -1682.05933479 -65.21963733
v 1033.27895503 -1453.36254938 -65.21963733
v 63.03926042 -1379.84522888 -115.2990691
v 65.8883753 -1368.72666766 -65.2194907
v 1033.27895503 -1453.36254938 -65.21963733
v 1033.27894635 -1453.36254863 -122.90829246
v 1013.27053807 -1682.05933479 -65.21963733
v 1013.27052939 -1682.05933403 -122.90829246
v 1014.69886952 -1665.73336505 -122.90829246
v 1030.50958884 -1485.01646494 -76.87349267
v 1026.93565561 -1525.86654557 -122.90829246
v 1033.27894635 -1453.36254863 -122.90829246
v 1020.0289455 -1604.81052325 -76.11815007
v 1033.27895503 -1453.36254938 -65.21963733
v -943.39134509 -1349.8003975 -102.02531107
v -902.04745997 -1341.20450538 -122.90799987
v -296.2395051 -1352.62183851 -112.48138073
v -71.92084504 -1411.65850107 -122.90812567
v -218.57354736 -1403.90916069 -122.90810351
v -390.34006247 -1364.63815085 -122.90807715
v -466.59368334 -1322.14042888 -122.90806512
v -296.2395051 -1352.62183851 -112.48138073
v -218.57354736 -1403.90916069 -122.90810351
v -466.59368334 -1322.14042888 -122.90806512
v -429.11197746 -1325.41965993 -88.76708238
v -296.2395051 -1352.62183851 -112.48138073
v 917.63781893 -1603.16686226 -122.10944571
v 997.99075235 -1599.49913167 -105.54769135
v 554.67481816 -1641.93732624 -122.90822295
v 491.47391278 -1636.40795221 -83.55993436
v 477.5319562 -1639.52833366 -122.90821132
v 346.31231491 -1603.52157454 -110.96500501
v 154.39782488 -1606.91755556 -122.90816228
v 277.25325352 -1596.14409044 -122.66440567
v 444.99078773 -1574.28301993 -122.30928982
v 282.88601624 -1618.15883865 -87.68866357
v 346.31231491 -1603.52157454 -110.96500501
v 477.5319562 -1639.52833366 -122.90821132
v 444.99078773 -1574.28301993 -122.30928982
v 554.67481816 -1641.93732624 -122.90822295
v 346.31231491 -1603.52157454 -110.96500501
v 444.99078773 -1574.28301993 -122.30928982
v 477.5319562 -1639.52833366 -122.90821132
v 282.88601624 -1618.15883865 -87.68866357
v 51.51207052 -1597.91620004 -122.90814669
v -980.34316305 -1507.64038039 -122.90799029
v -446.49469594 -1523.73607801 -122.9080708
v -292.34025454 -1496.90823804 -122.90809364
v -428.88575458 -1436.27768461 -122.9080723
v -292.34025454 -1496.90823804 -122.90809364
v -446.49469594 -1523.73607801 -122.9080708
v -436.81559575 -1475.66291255 -108.77126062
v -428.88575458 -1436.27768461 -122.9080723
v -436.81559575 -1475.66291255 -108.77126062
v -446.49469594 -1523.73607801 -122.9080708
v -530.36586412 -1461.90619636 -122.90805737
v -428.88575458 -1436.27768461 -122.9080723
v 154.39782488 -1606.91755556 -122.90816228
v 1013.27052939 -1682.05933403 -122.90829246
v 1013.27053807 -1682.05933479 -65.21963733
v -960.33473741 -1278.94359574 -65.21933515
v -980.34315437 -1507.64038115 -65.21933515
v 277.25325352 -1596.14409044 -122.66440567
v 154.39782488 -1606.91755556 -122.90816228
v 917.63781893 -1603.16686226 -122.10944571
v 1014.69886952 -1665.73336505 -122.90829246
v 1013.27052939 -1682.05933403 -122.90829246
v -960.33474609 -1278.94359498 -122.90799029
v -960.33473741 -1278.94359574 -65.21933515
v -530.36586412 -1461.90619636 -122.90805737
v -902.04745997 -1341.20450538 -122.90799987
v -960.33474609 -1278.94359498 -122.90799029
v -466.59368334 -1322.14042888 -122.90806512
v -390.34006247 -1364.63815085 -122.90807715
vn 0.1667 -0.14628 0.9751
vn 0 -1 0
vn -1 0 0
vn 0 0 -1
vn 0.9981 -0.05426 0.02926
vn 0 1 0
vn 0.03766 -0.99825 0.04551
vn -0.12645 -0.98859 0.08189
vn 0.04209 -0.9976 0.05503
vn -0.11521 -0.99077 0.07143
vn 0.61034 -0.18349 0.7706
vn 0.39296 0.8064 0.44192
vn 0.76517 0.64342 0.02271
vn 0.21827 0.95782 0.18691
vn -0.01554 0.99985 0.00735
vn -0.13722 0.98239 0.12683
vn 0.06134 0.99787 0.02239
vn -0.89808 0.43926 -0.02269
vn -0.4813 0.8582 0.17844
vn -0.82382 -0.56228 0.07187
vn 0.03334 -0.0163 0.99931
vn -0.05611 -0.94947 0.30882
vn -0.64035 0.76285 0.08949
vn 0 0 1
vn 0.37186 -0.86086 0.34732
vn -0.30683 -0.918 0.25127
vn 0.18147 0.96553 0.18661
vn -0.30482 0.92396 0.23104
vn -0.00351 0.01458 0.99989
vn 0.99946 0.01025 0.03133
vn 0.05264 0.01934 0.99843
vt 0.16748 0.20394
vt 0.16864 0.33583
vt -0 0.35099
vt 0 0.24181
vt 0.96171 0.68956
vt 0.65487 0.68956
vt 0.65589 0.34481
vt 0.96273 0.34481
vt 0.77589 0.46172
vt 0.6896 0.16447
vt 0.9999 0.164
vt 1 0.34111
vt 0.6897 0.34092
vt 0.52219 0.34481
vt 0.52383 0
vt 0.68951 0
vt 0.68951 0.34481
vt 0.61447 0.51282
vt 0.3447 0.5123
vt 0.3447 0.34502
vt 0.65487 0.34481
vt 0.30802 0.69747
vt 0 0.69515
vt 0 0.67058
vt 0.24579 0.40047
vt 0 0.4601
vt -0 0.35099
vt 0.24983 0.58078
vt 0.30802 0.35331
vt 0.85194 0.44868
vt 0.96411 0.43054
vt 0.23109 0.33022
vt 0.19026 0.26857
vt 0.21554 0.26094
vt 0.04339 0.72845
vt 0.06318 0.77728
vt 0 0.77728
vt 0.02807 0.69747
vt 0.65487 0.60417
vt 0.4713 0.59781
vt 0.59951 0.57503
vt 0.00213 0.59093
vt 0.09222 0.57478
vt 0.68955 0.07842
vt 0.90121 0.08936
vt 0.68951 0.09252
vt 0.69329 0.75374
vt 0.65487 0.68956
vt 0.68849 0.68997
vt 0.74504 0.68956
vt 0.87902 0.12502
vt 0.75405 0.10987
vt 0.09256 0
vt 0.09921 0.0934
vt 0.07929 0.0065
vt 0.53773 0.76957
vt 0.56541 0.68975
vt 0.61421 0.76957
vt 0.67425 0.87932
vt 0.16629 0.00639
vt 0.3447 0.00616
vt 0.25285 0.05202
vt 0.22681 0.1123
vt 0.25115 0.18503
vt 0.48426 0.73405
vt 0.52462 0.68975
vt 0.53773 0.79359
vt 0.44134 0.79359
vt 0.3447 0.79364
vt 0.35827 0.68975
vt 0.41006 0.75134
vt 0.44134 0.79364
vt 0.68959 0.14687
vt 0.68951 -0
vt 0.99981 0.00019
vt 0.3447 0.34481
vt 0.3447 0
vt 0.12762 0.03867
vt 0.1485 0.00641
vt 0.0177 0.11219
vt 0 0.03119
vt 0 0.00661
vt 0.65487 0.68954
vt 0.3447 0.68975
vt 0.26817 0.13344
vt 0.33376 0.26513
vt 0.3447 0.35054
vt 0.25933 0.35065
vt 0.24561 0.29713
usemtl mat0
f 179/179/63 180/180/63 181/181/63
f 181/181/63 182/182/63 179/179/63
f 183/183/64 184/184/64 185/185/64
f 185/185/64 186/186/64 187/187/64
f 187/187/64 183/183/64 185/185/64
f 188/188/65 189/189/65 190/190/65
f 190/190/65 191/191/65 188/188/65
f 192/192/66 193/193/66 194/194/66
f 194/194/66 195/195/66 192/192/66
f 196/196/67 197/197/67 198/198/67
f 198/198/67 199/199/67 196/196/67
f 200/200/68 201/201/68 202/202/68
f 203/203/68 204/204/68 205/205/68
f 200/200/68 202/202/68 206/206/68
f 203/203/68 205/205/68 207/207/68
f 207/207/68 200/200/68 206/206/68
f 206/206/68 203/203/68 207/207/68
f 183/183/69 187/187/69 208/208/69
f 186/186/70 209/209/70 208/208/70
f 208/208/71 209/209/71 183/183/71
f 208/208/72 187/187/72 186/186/72
f 210/210/73 211/211/73 212/212/73
f 213/213/74 214/214/74 215/215/74
f 215/215/74 216/216/74 213/213/74
f 217/217/75 218/218/75 219/219/75
f 202/202/76 220/220/76 221/221/76
f 206/206/77 221/221/77 204/204/77
f 204/204/77 203/203/77 206/206/77
f 221/221/78 220/220/78 204/204/78
f 221/221/79 206/206/79 202/202/79
f 222/222/80 223/223/80 224/224/80
f 225/225/81 226/226/81 227/227/81
f 227/227/81 228/228/81 225/225/81
f 229/229/82 230/230/82 224/224/82
f 224/224/82 223/223/82 229/229/82
f 231/231/83 232/232/83 233/233/83
f 234/234/84 235/235/84 236/236/84
f 225/225/85 237/237/85 226/226/85
f 238/238/86 239/239/86 240/240/86
f 241/241/86 242/242/86 179/179/86
f 179/179/86 238/238/86 240/240/86
f 240/240/86 241/241/86 179/179/86
f 243/243/87 244/244/87 245/245/87
f 243/243/88 245/245/88 246/246/88
f 247/247/89 248/248/89 249/249/89
f 250/250/90 247/247/90 249/249/90
f 189/189/65 188/188/65 251/251/65
f 223/223/65 222/222/65 252/252/65
f 189/189/65 251/251/65 229/229/65
f 223/223/65 252/252/65 253/253/65
f 253/253/65 189/189/65 229/229/65
f 229/229/65 223/223/65 253/253/65
f 254/254/66 255/255/66 193/193/66
f 193/193/66 192/192/66 254/254/66
f 256/256/91 257/257/91 238/238/91
f 238/238/91 179/179/91 182/182/91
f 258/258/91 259/259/91 260/260/91
f 260/260/91 233/233/91 232/232/91
f 232/232/91 256/256/91 238/238/91
f 258/258/91 260/260/91 232/232/91
f 232/232/91 238/238/91 182/182/91
f 182/182/91 258/258/91 232/232/91
f 197/197/92 196/196/92 219/219/92
f 218/218/92 217/217/92 261/261/92
f 197/197/92 219/219/92 218/218/92
f 218/218/92 261/261/92 262/262/92
f 262/262/92 197/197/92 218/218/92
f 211/211/93 210/210/93 180/180/93
f 263/263/93 240/240/93 239/239/93
f 264/264/93 265/265/93 266/266/93
f 211/211/93 180/180/93 179/179/93
f 242/242/93 263/263/93 239/239/93
f 239/239/93 264/264/93 266/266/93
f 212/212/93 211/211/93 179/179/93
f 242/242/93 239/239/93 266/266/93
f 212/212/93 179/179/93 242/242/93
f 242/242/93 266/266/93 267/267/93
f 267/267/93 212/212/93 242/242/93
# Vertices: 89, normals: 31, texture coordinates: 89, faces: 78

# Cube009_3
o obj4
v 54.73475821 936.40499877 -122.90814564
v 54.12732982 1022.95915462 -115.2990691
v 1027.08247697 1034.28353473 -122.90829246
v 1027.0824628 961.50257833 -122.90829246
v -974.1466937 804.71353559 -122.90799029
v -974.14668499 804.71353559 -65.21933515
v -974.14664029 1034.28392438 -65.21933515
v -974.146649 1034.28392438 -122.90799029
v -974.14665887 956.4354417 -87.84649607
v 61.65013847 804.71333391 -122.90814669
v 65.51740677 804.71333316 -65.21949213
v -974.14668499 804.71353559 -65.21933515
v -974.1466937 804.71353559 -122.90799029
v 55.9965568 1034.2837238 -65.2194907
v 65.51740677 804.71333316 -65.21949213
v 1027.08244099 804.71314593 -65.21963733
v 1027.08248569 1034.28353473 -65.21963733
v 54.12732982 1022.95915462 -115.2990691
v 55.9965568 1034.2837238 -65.2194907
v 1027.08248569 1034.28353473 -65.21963733
v 1027.08247697 1034.28353473 -122.90829246
v 1027.08244099 804.71314593 -65.21963733
v 1027.08243228 804.71314593 -122.90829246
v 1027.08243547 821.10147881 -122.90829246
v 1027.08247774 1002.5087036 -76.87349267
v 1027.0824628 961.50257833 -122.90829246
v 1027.08247697 1034.28353473 -122.90829246
v 1027.08245444 882.2570416 -76.11815007
v 1027.08248569 1034.28353473 -65.21963733
v -951.0921453 965.17346309 -102.02531107
v -910.65476483 977.34000236 -122.90799987
v -306.15696839 1018.76575011 -112.48138073
v -77.54651112 979.50439271 -122.90812567
v -224.31656418 974.44262154 -122.90810351
v -398.8521601 998.59375977 -122.90807715
v -478.51953769 1034.28382788 -122.90806512
v -306.15696839 1018.76575011 -112.48138073
v -224.31656418 974.44262154 -122.90810351
v -478.51953769 1034.28382788 -122.90806512
v -440.8946549 1034.28382055 -88.76708238
v -306.15696839 1018.76575011 -112.48138073
v 924.93769616 874.97047458 -122.10944571
v 1004.66520368 885.62746725 -105.54769135
v 566.73492471 804.71323557 -122.90822295
v 503.29259729 804.71324792 -83.55993436
v 489.67565231 800.38961883 -122.90821132
v 355.8171378 824.82282002 -110.96500501
v 164.9289076 804.7133138 -122.90816228
v 286.37787267 826.15333807 -122.66440567
v 451.57180779 862.55050953 -122.30928982
v 293.90791285 804.71328869 -87.68866357
v 355.8171378 824.82282002 -110.96500501
v 489.67565231 800.38961883 -122.90821132
v 451.57180779 862.55050953 -122.30928982
v 566.73492471 804.71323557 -122.90822295
v 355.8171378 824.82282002 -110.96500501
v 451.57180779 862.55050953 -122.30928982
v 489.67565231 800.38961883 -122.90821132
v 293.90791285 804.71328869 -87.68866357
v 61.65013847 804.71333391 -122.90814669
v -974.1466937 804.71353559 -122.90799029
v -440.92681565 835.20703934 -122.9080708
v -289.69716883 875.36823616 -122.90809364
v -431.00738071 923.86735324 -122.9080723
v -289.69716883 875.36823616 -122.90809364
v -440.92681565 835.20703934 -122.9080708
v -435.47439861 883.94086421 -108.77126062
v -431.00738071 923.86735324 -122.9080723
v -435.47439861 883.94086421 -108.77126062
v -440.92681565 835.20703934 -122.9080708
v -529.86766245 889.49179083 -122.90805737
v -431.00738071 923.86735324 -122.9080723
v 164.9289076 804.7133138 -122.90816228
v 1027.08243228 804.71314593 -122.90829246
v 1027.08244099 804.71314593 -65.21963733
v -974.14664029 1034.28392438 -65.21933515
v -974.14668499 804.71353559 -65.21933515
v 286.37787267 826.15333807 -122.66440567
v 164.9289076 804.7133138 -122.90816228
v 924.93769616 874.97047458 -122.10944571
v 1027.08243547 821.10147881 -122.90829246
v 1027.08243228 804.71314593 -122.90829246
v -974.146649 1034.28392438 -122.90799029
v -974.14664029 1034.28392438 -65.21933515
v -529.86766245 889.49179083 -122.90805737
v -910.65476483 977.34000236 -122.90799987
v -974.146649 1034.28392438 -122.90799029
v -478.51953769 1034.28382788 -122.90806512
v -398.8521601 998.59375977 -122.90807715
vn 0.1667 -0.14628 0.9751
vn 0 -1 0
vn -1 0 0
vn 0 0 -1
vn 0.9981 -0.05426 0.02926
vn 0 1 0
vn 0.03766 -0.99825 0.04551
vn -0.12645 -0.98859 0.08189
vn 0.04209 -0.9976 0.05503
vn -0.11521 -0.99077 0.07143
vn 0.61034 -0.18349 0.7706
vn 0.39296 0.8064 0.44192
vn 0.76517 0.64342 0.02271
vn 0.21827 0.95782 0.18691
vn -0.01554 0.99985 0.00735
vn -0.13722 0.98239 0.12683
vn 0.06134 0.99787 0.02239
vn -0.89808 0.43926 -0.02269
vn -0.4813 0.8582 0.17844
vn -0.82382 -0.56228 0.07187
vn 0.03334 -0.0163 0.99931
vn -0.05611 -0.94947 0.30882
vn -0.64035 0.76285 0.08949
vn 0 0 1
vn 0.37186 -0.86086 0.34732
vn -0.30683 -0.918 0.25127
vn 0.18147 0.96553 0.18661
vn -0.30482 0.92396 0.23104
vn -0.00351 0.01458 0.99989
vn 0.99946 0.01025 0.03133
vn 0.05264 0.01934 0.99843
vt 0.16748 0.20394
vt 0.16864 0.33583
vt -0 0.35099
vt 0 0.24181
vt 0.96171 0.68956
vt 0.65487 0.68956
vt 0.65589 0.34481
vt 0.96273 0.34481
vt 0.77589 0.46172
vt 0.6896 0.16447
vt 0.9999 0.164
vt 1 0.34111
vt 0.6897 0.34092
vt 0.52219 0.34481
vt 0.52383 0
vt 0.68951 0
vt 0.68951 0.34481
vt 0.61447 0.51282
vt 0.3447 0.5123
vt 0.3447 0.34502
vt 0.65487 0.34481
vt 0.30802 0.69747
vt 0 0.69515
vt 0 0.67058
vt 0.24579 0.40047
vt 0 0.4601
vt -0 0.35099
vt 0.24983 0.58078
vt 0.30802 0.35331
vt 0.85194 0.44868
vt 0.96411 0.43054
vt 0.23109 0.33022
vt 0.19026 0.26857
vt 0.21554 0.26094
vt 0.04339 0.72845
vt 0.06318 0.77728
vt 0 0.77728
vt 0.02807 0.69747
vt 0.65487 0.60417
vt 0.4713 0.59781
vt 0.59951 0.57503
vt 0.00213 0.59093
vt 0.09222 0.57478
vt 0.68955 0.07842
vt 0.90121 0.08936
vt 0.68951 0.09252
vt 0.69329 0.75374
vt 0.65487 0.68956
vt 0.68849 0.68997
vt 0.74504 0.68956
vt 0.87902 0.12502
vt 0.75405 0.10987
vt 0.09256 0
vt 0.09921 0.0934
vt 0.07929 0.0065
vt 0.53773 0.76957
vt 0.56541 0.68975
vt 0.61421 0.76957
vt 0.67425 0.87932
vt 0.16629 0.00639
vt 0.3447 0.00616
vt 0.25285 0.05202
vt 0.22681 0.1123
vt 0.25115 0.18503
vt 0.48426 0.73405
vt 0.52462 0.68975
vt 0.53773 0.79359
vt 0.44134 0.79359
vt 0.3447 0.79364
vt 0.35827 0.68975
vt 0.41006 0.75134
vt 0.44134 0.79364
vt 0.68959 0.14687
vt 0.68951 -0
vt 0.99981 0.00019
vt 0.3447 0.34481
vt 0.3447 0
vt 0.12762 0.03867
vt 0.1485 0.00641
vt 0.0177 0.11219
vt 0 0.03119
vt 0 0.00661
vt 0.65487 0.68954
vt 0.3447 0.68975
vt 0.26817 0.13344
vt 0.33376 0.26513
vt 0.3447 0.35054
vt 0.25933 0.35065
vt 0.24561 0.29713
usemtl mat0
f 268/268/94 269/269/94 270/270/94
f 270/270/94 271/271/94 268/268/94
f 272/272/95 273/273/95 274/274/95
f 274/274/95 275/275/95 276/276/95
f 276/276/95 272/272/95 274/274/95
f 277/277/96 278/278/96 279/279/96
f 279/279/96 280/280/96 277/277/96
f 281/281/97 282/282/97 283/283/97
f 283/283/97 284/284/97 281/281/97
f 285/285/98 286/286/98 287/287/98
f 287/287/98 288/288/98 285/285/98
f 289/289/99 290/290/99 291/291/99
f 292/292/99 293/293/99 294/294/99
f 289/289/99 291/291/99 295/295/99
f 292/292/99 294/294/99 296/296/99
f 296/296/99 289/289/99 295/295/99
f 295/295/99 292/292/99 296/296/99
f 272/272/100 276/276/100 297/297/100
f 275/275/101 298/298/101 297/297/101
f 297/297/102 298/298/102 272/272/102
f 297/297/103 276/276/103 275/275/103
f 299/299/104 300/300/104 301/301/104
f 302/302/105 303/303/105 304/304/105
f 304/304/105 305/305/105 302/302/105
f 306/306/106 307/307/106 308/308/106
f 291/291/107 309/309/107 310/310/107
f 295/295/108 310/310/108 293/293/108
f 293/293/108 292/292/108 295/295/108
f 310/310/109 309/309/109 293/293/109
f 310/310/110 295/295/110 291/291/110
f 311/311/111 312/312/111 313/313/111
f 314/314/112 315/315/112 316/316/112
f 316/316/112 317/317/112 314/314/112
f 318/318/113 319/319/113 313/313/113
f 313/313/113 312/312/113 318/318/113
f 320/320/114 321/321/114 322/322/114
f 323/323/115 324/324/115 325/325/115
f 314/314/116 326/326/116 315/315/116
f 327/327/117 328/328/117 329/329/117
f 330/330/117 331/331/117 268/268/117
f 268/268/117 327/327/117 329/329/117
f 329/329/117 330/330/117 268/268/117
f 332/332/118 333/333/118 334/334/118
f 332/332/119 334/334/119 335/335/119
f 336/336/120 337/337/120 338/338/120
f 339/339/121 336/336/121 338/338/121
f 278/278/96 277/277/96 340/340/96
f 312/312/96 311/311/96 341/341/96
f 278/278/96 340/340/96 318/318/96
f 312/312/96 341/341/96 342/342/96
f 342/342/96 278/278/96 318/318/96
f 318/318/96 312/312/96 342/342/96
f 343/343/97 344/344/97 282/282/97
f 282/282/97 281/281/97 343/343/97
f 345/345/122 346/346/122 327/327/122
f 327/327/122 268/268/122 271/271/122
f 347/347/122 348/348/122 349/349/122
f 349/349/122 322/322/122 321/321/122
f 321/321/122 345/345/122 327/327/122
f 347/347/122 349/349/122 321/321/122
f 321/321/122 327/327/122 271/271/122
f 271/271/122 347/347/122 321/321/122
f 286/286/123 285/285/123 308/308/123
f 307/307/123 306/306/123 350/350/123
f 286/286/123 308/308/123 307/307/123
f 307/307/123 350/350/123 351/351/123
f 351/351/123 286/286/123 307/307/123
f 300/300/124 299/299/124 269/269/124
f 352/352/124 329/329/124 328/328/124
f 353/353/124 354/354/124 355/355/124
f 300/300/124 269/269/124 268/268/124
f 331/331/124 352/352/124 328/328/124
f 328/328/124 353/353/124 355/355/124
f 301/301/124 300/300/124 268/268/124
f 331/331/124 328/328/124 355/355/124
f 301/301/124 268/268/124 331/331/124
f 331/331/124 355/355/124 356/356/124
f 356/356/124 301/301/124 331/331/124
# Vertices: 89, normals: 31, texture coordinates: 89, faces: 78

# Cube012_4
o obj5
v 1.56625057 -502.05957197 -122.90814564
v 17.19443104 -587.19328939 -115.2990691
v -939.01280401 -767.29761496 -122.90829246
v -951.65107799 -695.6223686 -122.90829246
v 991.94860265 -193.70531338 -122.90799029
v 991.94859408 -193.70531489 -65.21933515
v 1031.81305332 -419.78800174 -65.21933515
v 1031.8130619 -419.78800023 -122.90799029
v 1018.29481646 -343.12221588 -87.84649607
v -28.11210013 -373.56945458 -122.90814669
v -31.92061576 -374.24099833 -65.21949213
v 991.94859408 -193.70531489 -65.21933515
v 991.94860265 -193.70531338 -122.90799029
v 17.32009393 -598.67040001 -65.2194907
v -31.92061576 -374.24099833 -65.21949213
v -978.87727184 -541.21492962 -65.21963733
v -939.01281259 -767.29761648 -65.21963733
v 17.19443104 -587.19328939 -115.2990691
v 17.32009393 -598.67040001 -65.2194907
v -939.01281259 -767.29761648 -65.21963733
v -939.01280401 -767.29761496 -122.90829246
v -978.87727184 -541.21492962 -65.21963733
v -978.87726326 -541.21492811 -122.90829246
v -976.03146057 -557.35428454 -122.90829246
v -944.53044955 -736.00551777 -76.87349267
v -951.65107799 -695.6223686 -122.90829246
v -939.01280401 -767.29761496 -122.90829246
v -965.41192094 -617.58075497 -76.11815007
v -939.01281259 -767.29761648 -65.21963733
v 997.107897 -355.730863 -102.02531107
v 959.39755306 -374.73444579 -122.90799987
v 371.27699482 -520.50084328 -112.48138073
v 139.32199522 -521.5337705 -122.90812567
v 282.98330175 -491.06253196 -122.90810351
v 459.06109941 -484.53895179 -122.90807715
v 543.71566308 -505.8527013 -122.90806512
v 371.27699482 -520.50084328 -112.48138073
v 282.98330175 -491.06253196 -122.90810351
v 543.71566308 -505.8527013 -122.90806512
v 506.66238856 -512.38619032 -88.76708238
v 371.27699482 -520.50084328 -112.48138073
v -866.08427909 -592.66762617 -122.10944571
v -942.74997177 -617.00725893 -105.54769135
v -525.52349009 -461.27646283 -122.90822295
v -463.04499713 -450.25982387 -83.55993436
v -450.38571599 -443.6373217 -122.90821132
v -314.31804046 -444.45502457 -110.96500501
v -129.82182789 -391.50361554 -122.90816228
v -245.7026772 -433.7073199 -122.66440567
v -402.06662577 -498.23717636 -122.30928982
v -256.84134625 -413.90057341 -87.68866357
v -314.31804046 -444.45502457 -110.96500501
v -450.38571599 -443.6373217 -122.90821132
v -402.06662577 -498.23717636 -122.30928982
v -525.52349009 -461.27646283 -122.90822295
v -314.31804046 -444.45502457 -110.96500501
v -402.06662577 -498.23717636 -122.30928982
v -450.38571599 -443.6373217 -122.90821132
v -256.84134625 -413.90057341 -87.68866357
v -28.11210013 -373.56945458 -122.90814669
v 991.94860265 -193.70531338 -122.90799029
v 472.12471996 -316.32826513 -122.9080708
v 330.16652619 -382.14008795 -122.90809364
v 477.75169538 -405.36411488 -122.9080723
v 330.16652619 -382.14008795 -122.90809364
v 472.12471996 -316.32826513 -122.9080708
v 475.21768272 -365.26851237 -108.77126062
v 477.75169538 -405.36411488 -122.9080723
v 475.21768272 -365.26851237 -108.77126062
v 472.12471996 -316.32826513 -122.9080708
v 569.14080207 -354.34387942 -122.90805737
v 477.75169538 -405.36411488 -122.9080723
v -129.82182789 -391.50361554 -122.90816228
v -978.87726326 -541.21492811 -122.90829246
v -978.87727184 -541.21492962 -65.21963733
v 1031.81305332 -419.78800174 -65.21933515
v 991.94859408 -193.70531489 -65.21933515
v -245.7026772 -433.7073199 -122.66440567
v -129.82182789 -391.50361554 -122.90816228
v -866.08427909 -592.66762617 -122.10944571
v -976.03146057 -557.35428454 -122.90829246
v -978.87726326 -541.21492811 -122.90829246
v 1031.8130619 -419.78800023 -122.90799029
v 1031.81305332 -419.78800174 -65.21933515
v 569.14080207 -354.34387942 -122.90805737
v 959.39755306 -374.73444579 -122.90799987
v 1031.8130619 -419.78800023 -122.90799029
v 543.71566308 -505.8527013 -122.90806512
v 459.06109941 -484.53895179 -122.90807715
vn 0.1667 -0.14628 0.9751
vn 0 -1 0
vn -1 0 0
vn 0 0 -1
vn 0.9981 -0.05426 0.02926
vn 0 1 0
vn 0.03766 -0.99825 0.04551
vn -0.12645 -0.98859 0.08189
vn 0.04209 -0.9976 0.05503
vn -0.11521 -0.99077 0.07143
vn 0.61034 -0.18349 0.7706
vn 0.39296 0.8064 0.44192
vn 0.76517 0.64342 0.02271
vn 0.21827 0.95782 0.18691
vn -0.01554 0.99985 0.00735
vn -0.13722 0.98239 0.12683
vn 0.06134 0.99787 0.02239
vn -0.89808 0.43926 -0.02269
vn -0.4813 0.8582 0.17844
vn -0.82382 -0.56228 0.07187
vn 0.03334 -0.0163 0.99931
vn -0.05611 -0.94947 0.30882
vn -0.64035 0.76285 0.08949
vn 0 0 1
vn 0.37186 -0.86086 0.34732
vn -0.30683 -0.918 0.25127
vn 0.18147 0.96553 0.18661
vn -0.30482 0.92396 0.23104
vn -0.00351 0.01458 0.99989
vn 0.99946 0.01025 0.03133
vn 0.05264 0.01934 0.99843
vt 0.16748 0.20394
vt 0.16864 0.33583
vt -0 0.35099
vt 0 0.24181
vt 0.96171 0.68956
vt 0.65487 0.68956
vt 0.65589 0.34481
vt 0.96273 0.34481
vt 0.77589 0.46172
vt 0.6896 0.16447
vt 0.9999 0.164
vt 1 0.34111
vt 0.6897 0.34092
vt 0.52219 0.34481
vt 0.52383 0
vt 0.68951 0
vt 0.68951 0.34481
vt 0.61447 0.51282
vt 0.3447 0.5123
vt 0.3447 0.34502
vt 0.65487 0.34481
vt 0.30802 0.69747
vt 0 0.69515
vt 0 0.67058
vt 0.24579 0.40047
vt 0 0.4601
vt -0 0.35099
vt 0.24983 0.58078
vt 0.30802 0.35331
vt 0.85194 0.44868
vt 0.96411 0.43054
vt 0.23109 0.33022
vt 0.19026 0.26857
vt 0.21554 0.26094
vt 0.04339 0.72845
vt 0.06318 0.77728
vt 0 0.77728
vt 0.02807 0.69747
vt 0.65487 0.60417
vt 0.4713 0.59781
vt 0.59951 0.57503
vt 0.00213 0.59093
vt 0.09222 0.57478
vt 0.68955 0.07842
vt 0.90121 0.08936
vt 0.68951 0.09252
vt 0.69329 0.75374
vt 0.65487 0.68956
vt 0.68849 0.68997
vt 0.74504 0.68956
vt 0.87902 0.12502
vt 0.75405 0.10987
vt 0.09256 0
vt 0.09921 0.0934
vt 0.07929 0.0065
vt 0.53773 0.76957
vt 0.56541 0.68975
vt 0.61421 0.76957
vt 0.67425 0.87932
vt 0.16629 0.00639
vt 0.3447 0.00616
vt 0.25285 0.05202
vt 0.22681 0.1123
vt 0.25115 0.18503
vt 0.48426 0.73405
vt 0.52462 0.68975
vt 0.53773 0.79359
vt 0.44134 0.79359
vt 0.3447 0.79364
vt 0.35827 0.68975
vt 0.41006 0.75134
vt 0.44134 0.79364
vt 0.68959 0.14687
vt 0.68951 -0
vt 0.99981 0.00019
vt 0.3447 0.34481
vt 0.3447 0
vt 0.12762 0.03867
vt 0.1485 0.00641
vt 0.0177 0.11219
vt 0 0.03119
vt 0 0.00661
vt 0.65487 0.68954
vt 0.3447 0.68975
vt 0.26817 0.13344
vt 0.33376 0.26513
vt 0.3447 0.35054
vt 0.25933 0.35065
vt 0.24561 0.29713
usemtl mat0
f 357/357/125 358/358/125 359/359/125
f 359/359/125 360/360/125 357/357/125
f 361/361/126 362/362/126 363/363/126
f 363/363/126 364/364/126 365/365/126
f 365/365/126 361/361/126 363/363/126
f 366/366/127 367/367/127 368/368/127
f 368/368/127 369/369/127 366/366/127
f 370/370/128 371/371/128 372/372/128
f 372/372/128 373/373/128 370/370/128
f 374/374/129 375/375/129 376/376/129
f 376/376/129 377/377/129 374/374/129
f 378/378/130 379/379/130 380/380/130
f 381/381/130 382/382/130 383/383/130
f 378/378/130 380/380/130 384/384/130
f 381/381/130 383/383/130 385/385/130
f 385/385/130 378/378/130 384/384/130
f 384/384/130 381/381/130 385/385/130
f 361/361/131 365/365/131 386/386/131
f 364/364/132 387/387/132 386/386/132
f 386/386/133 387/387/133 361/361/133
f 386/386/134 365/365/134 364/364/134
f 388/388/135 389/389/135 390/390/135
f 391/391/136 392/392/136 393/393/136
f 393/393/136 394/394/136 391/391/136
f 395/395/137 396/396/137 397/397/137
f 380/380/138 398/398/138 399/399/138
f 384/384/139 399/399/139 382/382/139
f 382/382/139 381/381/139 384/384/139
f 399/399/140 398/398/140 382/382/140
f 399/399/141 384/384/141 380/380/141
f 400/400/142 401/401/142 402/402/142
f 403/403/143 404/404/143 405/405/143
f 405/405/143 406/406/143 403/403/143
f 407/407/144 408/408/144 402/402/144
f 402/402/144 401/401/144 407/407/144
f 409/409/145 410/410/145 411/411/145
f 412/412/146 413/413/146 414/414/146
f 403/403/147 415/415/147 404/404/147
f 416/416/148 417/417/148 418/418/148
f 419/419/148 420/420/148 357/357/148
f 357/357/148 416/416/148 418/418/148
f 418/418/148 419/419/148 357/357/148
f 421/421/149 422/422/149 423/423/149
f 421/421/150 423/423/150 424/424/150
f 425/425/151 426/426/151 427/427/151
f 428/428/152 425/425/152 427/427/152
f 367/367/127 366/366/127 429/429/127
f 401/401/127 400/400/127 430/430/127
f 367/367/127 429/429/127 407/407/127
f 401/401/127 430/430/127 431/431/127
f 431/431/127 367/367/127 407/407/127
f 407/407/127 401/401/127 431/431/127
f 432/432/128 433/433/128 371/371/128
f 371/371/128 370/370/128 432/432/128
f 434/434/153 435/435/153 416/416/153
f 416/416/153 357/357/153 360/360/153
f 436/436/153 437/437/153 438/438/153
f 438/438/153 411/411/153 410/410/153
f 410/410/153 434/434/153 416/416/153
f 436/436/153 438/438/153 410/410/153
f 410/410/153 416/416/153 360/360/153
f 360/360/153 436/436/153 410/410/153
f 375/375/154 374/374/154 397/397/154
f 396/396/154 395/395/154 439/439/154
f 375/375/154 397/397/154 396/396/154
f 396/396/154 439/439/154 440/440/154
f 440/440/154 375/375/154 396/396/154
f 389/389/155 388/388/155 358/358/155
f 441/441/155 418/418/155 417/417/155
f 442/442/155 443/443/155 444/444/155
f 389/389/155 358/358/155 357/357/155
f 420/420/155 441/441/155 417/417/155
f 417/417/155 442/442/155 444/444/155
f 390/390/155 389/389/155 357/357/155
f 420/420/155 417/417/155 444/444/155
f 390/390/155 357/357/155 420/420/155
f 420/420/155 444/444/155 445/445/155
f 445/445/155 390/390/155 420/420/155
# Vertices: 89, normals: 31, texture coordinates: 89, faces: 78

# Cube004_5
o obj6
v -833.16018417 1964.06026574 -57.09936292
v -771.90758254 1964.06025576 -57.09936755
v -771.90759499 1887.69046292 -57.09936755
v -833.16019661 1887.6904729 -57.09936292
v -833.16019661 1887.6904729 -57.09936292
v -833.16079865 -1807.61243703 -57.09936292
v -833.16078416 -1807.61243703 134.78033678
v -833.16018212 1887.6904729 134.78033678
v -771.90819703 -1807.61244701 -57.09936755
v -833.16079865 -1807.61243703 -57.09936292
v -833.16078416 -1807.61243703 134.78033678
v -833.16079865 -1807.61243703 -57.09936292
v -771.90819703 -1807.61244701 -57.09936755
v -771.90818254 -1807.61244701 134.78033216
v -771.90818254 -1807.61244701 134.78033216
v -771.9075805 1887.69046292 134.78033216
v -771.9075805 1887.69046292 134.78033216
v -771.90818254 -1807.61244701 134.78033216
v -771.90819703 -1807.61244701 -57.09936755
v -771.90759499 1887.69046292 -57.09936755
v -833.16018417 1964.06026574 -57.09936292
v -833.16016968 1964.06026574 134.78033678
v -771.90756806 1964.06025576 134.78033216
v -771.90758254 1964.06025576 -57.09936755
v -771.90756806 1964.06025576 134.78033216
v -833.16016968 1964.06026574 134.78033678
v 865.24426968 1887.6901962 -57.09949115
v 865.24428416 1887.6901962 134.78020856
v -771.9075805 1887.69046292 134.78033216
v -771.90759499 1887.69046292 -57.09936755
v -833.16018417 1964.06026574 -57.09936292
v 865.24428212 1964.05998903 -57.09949115
v 865.24429661 1964.05998903 134.78020856
v 865.24428416 1887.6901962 134.78020856
v 865.24426968 1887.6901962 -57.09949115
v 865.24428212 1964.05998903 -57.09949115
v 865.24426968 1887.6901962 -57.09949115
v 865.24429661 1964.05998903 134.78020856
v 865.24428212 1964.05998903 -57.09949115
v 865.24428416 1887.6901962 134.78020856
v 865.24429661 1964.05998903 134.78020856
v 865.24366788 -1806.11990403 -57.09949115
v 865.24368237 -1806.11990403 134.78020856
v -771.9081823 -1806.1196373 134.78033216
v -771.90819678 -1806.1196373 -57.09936755
v 865.24368032 -1729.75011119 -57.09949115
v 865.24369481 -1729.75011119 134.78020856
v 865.24368237 -1806.11990403 134.78020856
v 865.24366788 -1806.11990403 -57.09949115
v 865.24368032 -1729.75011119 -57.09949115
v 865.24366788 -1806.11990403 -57.09949115
v -771.90819678 -1806.1196373 -57.09936755
v -771.90818434 -1729.74984447 -57.09936755
v 865.24369481 -1729.75011119 134.78020856
v 865.24368032 -1729.75011119 -57.09949115
v -771.90818434 -1729.74984447 -57.09936755
v -771.90816986 -1729.74984447 134.78033216
v 865.24368237 -1806.11990403 134.78020856
v 865.24369481 -1729.75011119 134.78020856
v -771.90816986 -1729.74984447 134.78033216
v -771.9081823 -1806.1196373 134.78033216
v 865.25503049 1964.05998903 -57.09949115
v 926.50763211 1964.05997905 -57.09949577
v 926.50761967 1887.69018622 -57.09949577
v 865.25501804 1887.6901962 -57.09949115
v 865.25501804 1887.6901962 -57.09949115
v 865.254416 -1807.61271373 -57.09949115
v 865.25443049 -1807.61271373 134.78020856
v 865.25503253 1887.6901962 134.78020856
v 926.50701763 -1807.61272371 -57.09949577
v 865.254416 -1807.61271373 -57.09949115
v 865.25443049 -1807.61271373 134.78020856
v 865.254416 -1807.61271373 -57.09949115
v 926.50701763 -1807.61272371 -57.09949577
v 926.50703211 -1807.61272371 134.78020393
v 865.25503253 1887.6901962 134.78020856
v 865.25443049 -1807.61271373 134.78020856
v 926.50703211 -1807.61272371 134.78020393
v 926.50763415 1887.69018622 134.78020393
v 865.25503049 1964.05998903 -57.09949115
v 865.25504497 1964.05998903 134.78020856
v 926.5076466 1964.05997905 134.78020393
v 926.50763211 1964.05997905 -57.09949577
v 926.5076466 1964.05997905 134.78020393
v 865.25504497 1964.05998903 134.78020856
v 865.25504497 1964.05998903 134.78020856
v 865.25503049 1964.05998903 -57.09949115
v -833.16019661 1887.6904729 -57.09936292
v -833.16079865 -1807.61243703 -57.09936292
v -833.16078416 -1807.61243703 134.78033678
v -833.16018212 1887.6904729 134.78033678
v 926.50566049 1964.05997905 134.78020393
v 926.505646 1964.05997905 -57.09949577
v 926.50563356 1887.69018622 -57.09949577
v 926.50564804 1887.69018622 134.78020393
v 926.50563356 1887.69018622 -57.09949577
v 926.50503152 -1807.61272371 -57.09949577
v 926.505046 -1807.61272371 134.78020393
v 926.50564804 1887.69018622 134.78020393
vn -1 0 0
vn 0 -1 0
vn 0 0 -1
vn 1 0 0
vn 0 1 0
vn 0 0 1
vt 0 0
vt 0.01526 0
vt 0.01526 0.01656
vt 0 0.01656
vt 0.86138 0.01656
vt 0.86138 0.81777
vt 0.84612 0.81777
vt 0.84612 0.01656
vt 0.01526 0.81777
vt 0 0.81777
vt 0.04577 0.83302
vt 0.04577 0.81777
vt 0.06103 0.81777
vt 0.06103 0.83302
vt 0.83087 0.81777
vt 0.83087 0.01656
vt 0.92241 0
vt 0.92241 0.80121
vt 0.90715 0.80121
vt 0.90715 0
vt 0.96948 0
vt 0.98474 0
vt 0.98474 0.01526
vt 0.96948 0.01526
vt 0.83087 0
vt 0.84612 0
vt 0.98474 0.83087
vt 0.96948 0.83087
vt 0.96948 0.42306
vt 0.98474 0.42306
vt 0.86138 0
vt 0.01526 0.83433
vt 0 0.83433
vt 0.42306 0
vt 0.42306 0.01656
vt 1 0.4078
vt 0.98474 0.4078
vt 1 0
vt 0.03052 0.81777
vt 0.03052 0.83433
vt 0.95293 0
vt 0.96948 0
vt 0.96948 0.4078
vt 0.95293 0.4078
vt 1 0.81561
vt 0.98474 0.81561
vt 0.96948 0.81561
vt 0.95293 0.81561
vt 0.87664 0
vt 0.87664 0.01656
vt 0.8919 0.01656
vt 0.8919 0.81777
vt 0.87664 0.81777
vt 0.06103 0.83302
vt 0.06103 0.81777
vt 0.07629 0.81777
vt 0.07629 0.83302
vt 0.90715 0.01656
vt 0.90715 0.81777
vt 0.09155 0.81777
vt 0.09155 0.83302
vt 0.8919 0
vt 0.93767 0
vt 0.93767 0.80121
vt 0.04577 0.81777
vt 0.04577 0.83433
vt 0.95293 0
vt 0.95293 0.80121
usemtl mat1
f 446/446/156 447/447/156 448/448/156
f 448/448/156 449/449/156 446/446/156
f 450/450/157 451/451/157 452/452/157
f 452/452/157 453/453/157 450/450/157
f 448/448/156 454/454/156 455/455/156
f 455/455/156 449/449/156 448/448/156
f 456/456/158 457/457/158 458/458/158
f 458/458/158 459/459/158 456/456/158
f 453/453/159 452/452/159 460/460/159
f 460/460/159 461/461/159 453/453/159
f 462/462/160 463/463/160 464/464/160
f 464/464/160 465/465/160 462/462/160
f 466/466/161 467/467/161 468/468/161
f 468/468/161 469/469/161 466/466/161
f 470/470/159 471/471/159 453/453/159
f 453/453/159 461/461/159 470/470/159
f 472/472/158 473/473/158 474/474/158
f 474/474/158 475/475/158 472/472/158
f 471/471/157 476/476/157 450/450/157
f 450/450/157 453/453/157 471/471/157
f 477/455/160 478/454/160 479/477/160
f 479/477/160 480/478/160 477/455/160
f 481/479/156 482/480/156 448/448/156
f 448/448/156 447/447/156 481/479/156
f 483/475/161 484/474/161 469/469/161
f 469/469/161 468/468/161 483/475/161
f 485/480/159 486/479/159 470/470/159
f 470/470/159 461/461/159 485/480/159
f 487/481/158 488/482/158 489/467/158
f 489/467/158 490/483/158 487/481/158
f 491/454/160 492/484/160 493/485/160
f 493/485/160 494/477/160 491/454/160
f 495/486/156 496/487/156 497/488/156
f 497/488/156 498/489/156 495/486/156
f 499/490/161 500/491/161 501/482/161
f 501/482/161 502/481/161 499/490/161
f 503/492/159 504/493/159 505/489/159
f 505/489/159 506/488/159 503/492/159
f 507/476/156 508/494/156 509/495/156
f 509/495/156 510/450/156 507/476/156
f 511/496/157 512/497/157 513/498/157
f 513/498/157 514/495/157 511/496/157
f 509/495/156 515/498/156 516/451/156
f 516/451/156 510/450/156 509/495/156
f 517/499/158 518/500/158 519/501/158
f 519/501/158 520/502/158 517/499/158
f 521/503/159 522/504/159 523/497/159
f 523/497/159 524/496/159 521/503/159
f 525/502/161 526/501/161 527/505/161
f 527/505/161 528/506/161 525/502/161
f 529/507/159 530/465/159 521/503/159
f 521/503/159 524/496/159 529/507/159
f 531/494/157 532/507/157 511/496/157
f 511/496/157 514/495/157 531/494/157
f 533/508/157 534/509/157 535/463/157
f 535/463/157 536/462/157 533/508/157
f 537/484/157 538/510/157 539/511/157
f 539/511/157 540/485/157 537/484/157
f 541/512/157 542/513/157 543/509/157
f 543/509/157 544/508/157 541/512/157
# Vertices: 99, normals: 6, texture coordinates: 68, faces: 60

# Cube005_6
o obj7
v -1.79895456 1702.59192835 -122.90814564
v -1.19146151 1616.03777296 -115.2990691
v -974.14660021 1604.71266601 -122.90829246
v -974.14664041 1677.49362241 -122.90829246
v 1027.08239897 1834.28416016 -122.90799029
v 1027.08239026 1834.28416016 -65.21933515
v 1027.08251706 1604.71377136 -65.21933515
v 1027.08252577 1604.71377136 -122.90799029
v 1027.08247747 1682.56225404 -87.84649607
v -8.71443321 1834.28358805 -122.90814669
v -12.58170151 1834.28358591 -65.21949213
v 1027.08239026 1834.28416016 -65.21933515
v 1027.08239897 1834.28416016 -122.90799029
v -3.06068004 1604.71320238 -65.2194907
v -12.58170151 1834.28358591 -65.21949213
v -974.14673572 1834.28305481 -65.21963733
v -974.14660892 1604.71266601 -65.21963733
v -1.19146151 1616.03777296 -115.2990691
v -3.06068004 1604.71320238 -65.2194907
v -974.14660892 1604.71266601 -65.21963733
v -974.14660021 1604.71266601 -122.90829246
v -974.14673572 1834.28305481 -65.21963733
v -974.14672701 1834.28305481 -122.90829246
v -974.14671796 1817.89472193 -122.90829246
v -974.14662471 1636.48749714 -76.87349267
v -974.14664041 1677.49362241 -122.90829246
v -974.14660021 1604.71266601 -122.90829246
v -974.14669124 1756.73915914 -76.11815007
v -974.14660892 1604.71266601 -65.21963733
v 1004.02797044 1673.82421543 -102.02531107
v 963.59059906 1661.65764595 -122.90799987
v 359.09283356 1620.23144661 -112.48138073
v 130.48234696 1659.49263323 -122.90812567
v 277.25239625 1664.55451405 -122.90810351
v 451.7880102 1640.4035062 -122.90807715
v 531.45541445 1604.71349761 -122.90806512
v 359.09283356 1620.23144661 -112.48138073
v 277.25239625 1664.55451405 -122.90810351
v 531.45541445 1604.71349761 -122.90806512
v 493.83053167 1604.71347683 -88.76708238
v 359.09283356 1620.23144661 -112.48138073
v -872.00193841 1764.02580247 -122.10944571
v -951.72943797 1753.36875023 -105.54769135
v -513.79921944 1834.28330907 -122.90822295
v -450.35689202 1834.28334412 -83.55993436
v -436.73995027 1838.60698338 -122.90821132
v -302.88141751 1814.17388219 -110.96500501
v -111.99320233 1834.28353101 -122.90816228
v -233.44215139 1812.843416 -122.66440567
v -398.63605932 1776.44612114 -122.30928982
v -240.97220758 1834.28345977 -87.68866357
v -302.88141751 1814.17388219 -110.96500501
v -436.73995027 1838.60698338 -122.90821132
v -398.63605932 1776.44612114 -122.30928982
v -513.79921944 1834.28330907 -122.90822295
v -302.88141751 1814.17388219 -110.96500501
v -398.63605932 1776.44612114 -122.30928982
v -436.73995027 1838.60698338 -122.90821132
v -240.97220758 1834.28345977 -87.68866357
v -8.71443321 1834.28358805 -122.90814669
v 1027.08239897 1834.28416016 -122.90799029
v 493.86254369 1803.79025806 -122.9080708
v 342.63292688 1763.62894827 -122.90809364
v 483.94317499 1715.12993676 -122.9080723
v 342.63292688 1763.62894827 -122.90809364
v 493.86254369 1803.79025806 -122.9080708
v 488.41016306 1755.05642912 -108.77126062
v 483.94317499 1715.12993676 -122.9080723
v 488.41016306 1755.05642912 -108.77126062
v 493.86254369 1803.79025806 -122.9080708
v 582.80343105 1749.50557302 -122.90805737
v 483.94317499 1715.12993676 -122.9080723
v -111.99320233 1834.28353101 -122.90816228
v -974.14672701 1834.28305481 -122.90829246
v -974.14673572 1834.28305481 -65.21963733
v 1027.08251706 1604.71377136 -65.21933515
v 1027.08239026 1834.28416016 -65.21933515
v -233.44215139 1812.843416 -122.66440567
v -111.99320233 1834.28353101 -122.90816228
v -872.00193841 1764.02580247 -122.10944571
v -974.14671796 1817.89472193 -122.90829246
v -974.14672701 1834.28305481 -122.90829246
v 1027.08252577 1604.71377136 -122.90799029
v 1027.08251706 1604.71377136 -65.21933515
v 582.80343105 1749.50557302 -122.90805737
v 963.59059906 1661.65764595 -122.90799987
v 1027.08252577 1604.71377136 -122.90799029
v 531.45541445 1604.71349761 -122.90806512
v 451.7880102 1640.4035062 -122.90807715
vn 0.1667 -0.14628 0.9751
vn 0 -1 0
vn -1 0 0
vn 0 0 -1
vn 0.9981 -0.05426 0.02926
vn 0 1 0
vn 0.03766 -0.99825 0.04551
vn -0.12645 -0.98859 0.08189
vn 0.04209 -0.9976 0.05503
vn -0.11521 -0.99077 0.07143
vn 0.61034 -0.18349 0.7706
vn 0.39296 0.8064 0.44192
vn 0.76517 0.64342 0.02271
vn 0.21827 0.95782 0.18691
vn -0.01554 0.99985 0.00735
vn -0.13722 0.98239 0.12683
vn 0.06134 0.99787 0.02239
vn -0.89808 0.43926 -0.02269
vn -0.4813 0.8582 0.17844
vn -0.82382 -0.56228 0.07187
vn 0.03334 -0.0163 0.99931
vn -0.05611 -0.94947 0.30882
vn -0.64035 0.76285 0.08949
vn 0 0 1
vn 0.37186 -0.86086 0.34732
vn -0.30683 -0.918 0.25127
vn 0.18147 0.96553 0.18661
vn -0.30482 0.92396 0.23104
vn -0.00351 0.01458 0.99989
vn 0.99946 0.01025 0.03133
vn 0.05264 0.01934 0.99843
vt 0.16748 0.20394
vt 0.16864 0.33583
vt -0 0.35099
vt 0 0.24181
vt 0.96171 0.68956
vt 0.65487 0.68956
vt 0.65589 0.34481
vt 0.96273 0.34481
vt 0.77589 0.46172
vt 0.6896 0.16447
vt 0.9999 0.164
vt 1 0.34111
vt 0.6897 0.34092
vt 0.52219 0.34481
vt 0.52383 0
vt 0.68951 0
vt 0.68951 0.34481
vt 0.61447 0.51282
vt 0.3447 0.5123
vt 0.3447 0.34502
vt 0.65487 0.34481
vt 0.30802 0.69747
vt 0 0.69515
vt 0 0.67058
vt 0.24579 0.40047
vt 0 0.4601
vt -0 0.35099
vt 0.24983 0.58078
vt 0.30802 0.35331
vt 0.85194 0.44868
vt 0.96411 0.43054
vt 0.23109 0.33022
vt 0.19026 0.26857
vt 0.21554 0.26094
vt 0.04339 0.72845
vt 0.06318 0.77728
vt 0 0.77728
vt 0.02807 0.69747
vt 0.65487 0.60417
vt 0.4713 0.59781
vt 0.59951 0.57503
vt 0.00213 0.59093
vt 0.09222 0.57478
vt 0.68955 0.07842
vt 0.90121 0.08936
vt 0.68951 0.09252
vt 0.69329 0.75374
vt 0.65487 0.68956
vt 0.68849 0.68997
vt 0.74504 0.68956
vt 0.87902 0.12502
vt 0.75405 0.10987
vt 0.09256 0
vt 0.09921 0.0934
vt 0.07929 0.0065
vt 0.53773 0.76957
vt 0.56541 0.68975
vt 0.61421 0.76957
vt 0.67425 0.87932
vt 0.16629 0.00639
vt 0.3447 0.00616
vt 0.25285 0.05202
vt 0.22681 0.1123
vt 0.25115 0.18503
vt 0.48426 0.73405
vt 0.52462 0.68975
vt 0.53773 0.79359
vt 0.44134 0.79359
vt 0.3447 0.79364
vt 0.35827 0.68975
vt 0.41006 0.75134
vt 0.44134 0.79364
vt 0.68959 0.14687
vt 0.68951 -0
vt 0.99981 0.00019
vt 0.3447 0.34481
vt 0.3447 0
vt 0.12762 0.03867
vt 0.1485 0.00641
vt 0.0177 0.11219
vt 0 0.03119
vt 0 0.00661
vt 0.65487 0.68954
vt 0.3447 0.68975
vt 0.26817 0.13344
vt 0.33376 0.26513
vt 0.3447 0.35054
vt 0.25933 0.35065
vt 0.24561 0.29713
usemtl mat0
f 545/514/162 546/515/162 547/516/162
f 547/516/162 548/517/162 545/514/162
f 549/518/163 550/519/163 551/520/163
f 551/520/163 552/521/163 553/522/163
f 553/522/163 549/518/163 551/520/163
f 554/523/164 555/524/164 556/525/164
f 556/525/164 557/526/164 554/523/164
f 558/527/165 559/528/165 560/529/165
f 560/529/165 561/530/165 558/527/165
f 562/531/166 563/532/166 564/533/166
f 564/533/166 565/534/166 562/531/166
f 566/535/167 567/536/167 568/537/167
f 569/538/167 570/539/167 571/540/167
f 566/535/167 568/537/167 572/541/167
f 569/538/167 571/540/167 573/542/167
f 573/542/167 566/535/167 572/541/167
f 572/541/167 569/538/167 573/542/167
f 549/518/168 553/522/168 574/543/168
f 552/521/169 575/544/169 574/543/169
f 574/543/170 575/544/170 549/518/170
f 574/543/171 553/522/171 552/521/171
f 576/545/172 577/546/172 578/547/172
f 579/548/173 580/549/173 581/550/173
f 581/550/173 582/551/173 579/548/173
f 583/552/174 584/553/174 585/554/174
f 568/537/175 586/555/175 587/556/175
f 572/541/176 587/556/176 570/539/176
f 570/539/176 569/538/176 572/541/176
f 587/556/177 586/555/177 570/539/177
f 587/556/178 572/541/178 568/537/178
f 588/557/179 589/558/179 590/559/179
f 591/560/180 592/561/180 593/562/180
f 593/562/180 594/563/180 591/560/180
f 595/564/181 596/565/181 590/559/181
f 590/559/181 589/558/181 595/564/181
f 597/566/182 598/567/182 599/568/182
f 600/569/183 601/570/183 602/571/183
f 591/560/184 603/572/184 592/561/184
f 604/573/185 605/574/185 606/575/185
f 607/576/185 608/577/185 545/514/185
f 545/514/185 604/573/185 606/575/185
f 606/575/185 607/576/185 545/514/185
f 609/578/186 610/579/186 611/580/186
f 609/578/187 611/580/187 612/581/187
f 613/582/188 614/583/188 615/584/188
f 616/585/189 613/582/189 615/584/189
f 555/524/164 554/523/164 617/586/164
f 589/558/164 588/557/164 618/587/164
f 555/524/164 617/586/164 595/564/164
f 589/558/164 618/587/164 619/588/164
f 619/588/164 555/524/164 595/564/164
f 595/564/164 589/558/164 619/588/164
f 620/589/165 621/590/165 559/528/165
f 559/528/165 558/527/165 620/589/165
f 622/591/190 623/592/190 604/573/190
f 604/573/190 545/514/190 548/517/190
f 624/593/190 625/594/190 626/595/190
f 626/595/190 599/568/190 598/567/190
f 598/567/190 622/591/190 604/573/190
f 624/593/190 626/595/190 598/567/190
f 598/567/190 604/573/190 548/517/190
f 548/517/190 624/593/190 598/567/190
f 563/532/191 562/531/191 585/554/191
f 584/553/191 583/552/191 627/596/191
f 563/532/191 585/554/191 584/553/191
f 584/553/191 627/596/191 628/597/191
f 628/597/191 563/532/191 584/553/191
f 577/546/192 576/545/192 546/515/192
f 629/598/192 606/575/192 605/574/192
f 630/599/192 631/600/192 632/601/192
f 577/546/192 546/515/192 545/514/192
f 608/577/192 629/598/192 605/574/192
f 605/574/192 630/599/192 632/601/192
f 578/547/192 577/546/192 545/514/192
f 608/577/192 605/574/192 632/601/192
f 578/547/192 545/514/192 608/577/192
f 608/577/192 632/601/192 633/602/192
f 633/602/192 578/547/192 608/577/192
# Vertices: 89, normals: 31, texture coordinates: 89, faces: 78

# Cube013_7
o obj8
v 53.1536964 -961.19571131 -122.90814203
v 45.00487624 -875.02386857 -115.29905797
v 1013.27057918 -778.94382852 -122.90820688
v 1019.61385264 -851.44782698 -122.90821325
v -960.33479241 -1182.05909703 -122.90807587
v -960.33478763 -1182.05910168 -65.21942073
v -980.34315007 -953.3623115 -65.21940066
v -980.34315484 -953.36230686 -122.9080558
v -973.5582148 -1030.91455064 -87.84656838
v 71.52046268 -1091.7835234 -122.90815407
v 75.37301074 -1091.44647442 -65.21949922
v -960.33478763 -1182.05910168 -65.21942073
v -960.33479241 -1182.05909703 -122.90807587
v 45.87998405 -863.57948425 -65.21947843
v 75.37301074 -1091.44647442 -65.21949922
v 1033.27894639 -1007.64062335 -65.21957182
v 1013.27058396 -778.94383317 -65.21955175
v 45.00487624 -875.02386857 -115.29905797
v 45.87998405 -863.57948425 -65.21947843
v 1013.27058396 -778.94383317 -65.21955175
v 1013.27057918 -778.94382852 -122.90820688
v 1033.27894639 -1007.64062335 -65.21957182
v 1033.27894161 -1007.6406187 -122.90822695
v 1031.85060538 -991.31464937 -122.90822552
v 1016.03993988 -810.5977486 -76.87340987
v 1019.61385264 -851.44782698 -122.90821325
v 1013.27057918 -778.94382852 -122.90820688
v 1026.52055484 -930.39180946 -76.11807778
v 1013.27058396 -778.94383317 -65.21955175
v -951.35300119 -1020.20044321 -102.02538088
v -912.12988399 -1004.55584519 -122.90806557
v -313.54292573 -910.60220747 -112.48139716
v -82.38055836 -929.78941611 -122.90812828
v -228.15093336 -947.62379706 -122.90811764
v -404.12726947 -938.77636487 -122.90810235
v -486.6020818 -910.16559067 -122.90809321
v -313.54292573 -910.60220747 -112.48139716
v -228.15093336 -947.62379706 -122.90811764
v -486.6020818 -910.16559067 -122.90809321
v -449.12037745 -906.88637176 -88.76710763
v -313.54292573 -910.60220747 -112.48139716
v 925.3995658 -946.55315934 -122.10938177
v 1003.89485972 -928.9880018 -105.54762046
v 574.68322081 -1047.76251716 -122.9081922
v 511.48231146 -1053.29187981 -83.55990839
v 498.29401637 -1058.78584885 -122.90818676
v 362.8153859 -1046.11218174 -110.96498842
v 174.40621918 -1082.7821924 -122.90816186
v 293.5244015 -1050.83876532 -122.66439421
v 454.9174847 -1000.18247774 -122.30926271
v 302.89441085 -1071.54094324 -87.68865341
v 362.8153859 -1046.11218174 -110.96498842
v 498.29401637 -1058.78584885 -122.90818676
v 454.9174847 -1000.18247774 -122.30926271
v 574.68322081 -1047.76251716 -122.9081922
v 362.8153859 -1046.11218174 -110.96498842
v 454.9174847 -1000.18247774 -122.30926271
v 498.29401637 -1058.78584885 -122.90818676
v 302.89441085 -1071.54094324 -87.68865341
v 71.52046268 -1091.7835234 -122.90815407
v -960.33479241 -1182.05909703 -122.90807587
v -431.80170344 -1105.20839001 -122.90811346
v -284.64782608 -1052.01947029 -122.90812136
v -429.64728246 -1016.02092529 -122.90810645
v -284.64782608 -1052.01947029 -122.90812136
v -431.80170344 -1105.20839001 -122.90811346
v -430.61747475 -1056.18480702 -108.77129861
v -429.64728246 -1016.02092529 -122.90810645
v -430.61747475 -1056.18480702 -108.77129861
v -431.80170344 -1105.20839001 -122.90811346
v -525.13533177 -1058.88192954 -122.908102
v -429.64728246 -1016.02092529 -122.90810645
v 174.40621918 -1082.7821924 -122.90816186
v 1033.27894161 -1007.6406187 -122.90822695
v 1033.27894639 -1007.64062335 -65.21957182
v -980.34315007 -953.3623115 -65.21940066
v -960.33478763 -1182.05910168 -65.21942073
v 293.5244015 -1050.83876532 -122.66439421
v 174.40621918 -1082.7821924 -122.90816186
v 925.3995658 -946.55315934 -122.10938177
v 1031.85060538 -991.31464937 -122.90822552
v 1033.27894161 -1007.6406187 -122.90822695
v -980.34315484 -953.36230686 -122.9080558
v -980.34315007 -953.3623115 -65.21940066
v -525.13533177 -1058.88192954 -122.908102
v -912.12988399 -1004.55584519 -122.90806557
v -980.34315484 -953.36230686 -122.9080558
v -486.6020818 -910.16559067 -122.90809321
v -404.12726947 -938.77636487 -122.90810235
vn 0.1667 -0.14628 0.9751
vn 0 -1 0
vn -1 0 0
vn 0 0 -1
vn 0.9981 -0.05426 0.02926
vn 0 1 0
vn 0.03766 -0.99825 0.04551
vn -0.12645 -0.98859 0.08189
vn 0.04209 -0.9976 0.05503
vn -0.11521 -0.99077 0.07143
vn 0.61034 -0.18349 0.7706
vn 0.39296 0.8064 0.44192
vn 0.76517 0.64342 0.02271
vn 0.21827 0.95782 0.18691
vn -0.01554 0.99985 0.00735
vn -0.13722 0.98239 0.12683
vn 0.06134 0.99787 0.02239
vn -0.89808 0.43926 -0.02269
vn -0.4813 0.8582 0.17844
vn -0.82382 -0.56228 0.07187
vn 0.03334 -0.0163 0.99931
vn -0.05611 -0.94947 0.30882
vn -0.64035 0.76285 0.08949
vn 0 0 1
vn 0.37186 -0.86086 0.34732
vn -0.30683 -0.918 0.25127
vn 0.18147 0.96553 0.18661
vn -0.30482 0.92396 0.23104
vn -0.00351 0.01458 0.99989
vn 0.99946 0.01025 0.03133
vn 0.05264 0.01934 0.99843
vt 0.16748 0.20394
vt 0.16864 0.33583
vt -0 0.35099
vt 0 0.24181
vt 0.96171 0.68956
vt 0.65487 0.68956
vt 0.65589 0.34481
vt 0.96273 0.34481
vt 0.77589 0.46172
vt 0.6896 0.16447
vt 0.9999 0.164
vt 1 0.34111
vt 0.6897 0.34092
vt 0.52219 0.34481
vt 0.52383 0
vt 0.68951 0
vt 0.68951 0.34481
vt 0.61447 0.51282
vt 0.3447 0.5123
vt 0.3447 0.34502
vt 0.65487 0.34481
vt 0.30802 0.69747
vt 0 0.69515
vt 0 0.67058
vt 0.24579 0.40047
vt 0 0.4601
vt -0 0.35099
vt 0.24983 0.58078
vt 0.30802 0.35331
vt 0.85194 0.44868
vt 0.96411 0.43054
vt 0.23109 0.33022
vt 0.19026 0.26857
vt 0.21554 0.26094
vt 0.04339 0.72845
vt 0.06318 0.77728
vt 0 0.77728
vt 0.02807 0.69747
vt 0.65487 0.60417
vt 0.4713 0.59781
vt 0.59951 0.57503
vt 0.00213 0.59093
vt 0.09222 0.57478
vt 0.68955 0.07842
vt 0.90121 0.08936
vt 0.68951 0.09252
vt 0.69329 0.75374
vt 0.65487 0.68956
vt 0.68849 0.68997
vt 0.74504 0.68956
vt 0.87902 0.12502
vt 0.75405 0.10987
vt 0.09256 0
vt 0.09921 0.0934
vt 0.07929 0.0065
vt 0.53773 0.76957
vt 0.56541 0.68975
vt 0.61421 0.76957
vt 0.67425 0.87932
vt 0.16629 0.00639
vt 0.3447 0.00616
vt 0.25285 0.05202
vt 0.22681 0.1123
vt 0.25115 0.18503
vt 0.48426 0.73405
vt 0.52462 0.68975
vt 0.53773 0.79359
vt 0.44134 0.79359
vt 0.3447 0.79364
vt 0.35827 0.68975
vt 0.41006 0.75134
vt 0.44134 0.79364
vt 0.68959 0.14687
vt 0.68951 -0
vt 0.99981 0.00019
vt 0.3447 0.34481
vt 0.3447 0
vt 0.12762 0.03867
vt 0.1485 0.00641
vt 0.0177 0.11219
vt 0 0.03119
vt 0 0.00661
vt 0.65487 0.68954
vt 0.3447 0.68975
vt 0.26817 0.13344
vt 0.33376 0.26513
vt 0.3447 0.35054
vt 0.25933 0.35065
vt 0.24561 0.29713
usemtl mat0
f 634/603/193 635/604/193 636/605/193
f 636/605/193 637/606/193 634/603/193
f 638/607/194 639/608/194 640/609/194
f 640/609/194 641/610/194 642/611/194
f 642/611/194 638/607/194 640/609/194
f 643/612/195 644/613/195 645/614/195
f 645/614/195 646/615/195 643/612/195
f 647/616/196 648/617/196 649/618/196
f 649/618/196 650/619/196 647/616/196
f 651/620/197 652/621/197 653/622/197
f 653/622/197 654/623/197 651/620/197
f 655/624/198 656/625/198 657/626/198
f 658/627/198 659/628/198 660/629/198
f 655/624/198 657/626/198 661/630/198
f 658/627/198 660/629/198 662/631/198
f 662/631/198 655/624/198 661/630/198
f 661/630/198 658/627/198 662/631/198
f 638/607/199 642/611/199 663/632/199
f 641/610/200 664/633/200 663/632/200
f 663/632/201 664/633/201 638/607/201
f 663/632/202 642/611/202 641/610/202
f 665/634/203 666/635/203 667/636/203
f 668/637/204 669/638/204 670/639/204
f 670/639/204 671/640/204 668/637/204
f 672/641/205 673/642/205 674/643/205
f 657/626/206 675/644/206 676/645/206
f 661/630/207 676/645/207 659/628/207
f 659/628/207 658/627/207 661/630/207
f 676/645/208 675/644/208 659/628/208
f 676/645/209 661/630/209 657/626/209
f 677/646/210 678/647/210 679/648/210
f 680/649/211 681/650/211 682/651/211
f 682/651/211 683/652/211 680/649/211
f 684/653/212 685/654/212 679/648/212
f 679/648/212 678/647/212 684/653/212
f 686/655/213 687/656/213 688/657/213
f 689/658/214 690/659/214 691/660/214
f 680/649/215 692/661/215 681/650/215
f 693/662/216 694/663/216 695/664/216
f 696/665/216 697/666/216 634/603/216
f 634/603/216 693/662/216 695/664/216
f 695/664/216 696/665/216 634/603/216
f 698/667/217 699/668/217 700/669/217
f 698/667/218 700/669/218 701/670/218
f 702/671/219 703/672/219 704/673/219
f 705/674/220 702/671/220 704/673/220
f 644/613/195 643/612/195 706/675/195
f 678/647/195 677/646/195 707/676/195
f 644/613/195 706/675/195 684/653/195
f 678/647/195 707/676/195 708/677/195
f 708/677/195 644/613/195 684/653/195
f 684/653/195 678/647/195 708/677/195
f 709/678/196 710/679/196 648/617/196
f 648/617/196 647/616/196 709/678/196
f 711/680/221 712/681/221 693/662/221
f 693/662/221 634/603/221 637/606/221
f 713/682/221 714/683/221 715/684/221
f 715/684/221 688/657/221 687/656/221
f 687/656/221 711/680/221 693/662/221
f 713/682/221 715/684/221 687/656/221
f 687/656/221 693/662/221 637/606/221
f 637/606/221 713/682/221 687/656/221
f 652/621/222 651/620/222 674/643/222
f 673/642/222 672/641/222 716/685/222
f 652/621/222 674/643/222 673/642/222
f 673/642/222 716/685/222 717/686/222
f 717/686/222 652/621/222 673/642/222
f 666/635/223 665/634/223 635/604/223
f 718/687/223 695/664/223 694/663/223
f 719/688/223 720/689/223 721/690/223
f 666/635/223 635/604/223 634/603/223
f 697/666/223 718/687/223 694/663/223
f 694/663/223 719/688/223 721/690/223
f 667/636/223 666/635/223 634/603/223
f 697/666/223 694/663/223 721/690/223
f 667/636/223 634/603/223 697/666/223
f 697/666/223 721/690/223 722/691/223
f 722/691/223 667/636/223 697/666/223
# Vertices: 89, normals: 31, texture coordinates: 89, faces: 78

# Cube011_8
o obj9
v 51.36953484 41.0566428 -122.90814499
v 35.74132224 126.19036085 -115.29907606
v 991.94849343 306.29502857 -122.90822695
v 1004.58679388 234.61978197 -122.90822059
v -939.01270545 -267.29797861 -122.9080558
v -939.01270204 -267.29797288 -65.21940066
v -978.87724478 -41.21528526 -65.21942073
v -978.8772482 -41.21529098 -122.90807587
v -965.35897758 -117.88107303 -87.84657484
v 81.04793301 -87.4334726 -122.908134
v 84.85644323 -86.76192328 -65.21947915
v -939.01270204 -267.29797288 -65.21940066
v -939.01270545 -267.29797861 -122.9080558
v 35.61565063 137.66747582 -65.2194985
v 84.85644323 -86.76192328 -65.21947915
v 1031.81303959 80.21234667 -65.21955175
v 991.94849685 306.2950343 -65.21957182
v 35.74132224 126.19036085 -115.29907606
v 35.61565063 137.66747582 -65.2194985
v 991.94849685 306.2950343 -65.21957182
v 991.94849343 306.29502857 -122.90822695
v 1031.81303959 80.21234667 -65.21955175
v 1031.81303618 80.21234095 -122.90820688
v 1028.96722754 96.35169744 -122.90820832
v 997.46614641 275.00293463 -76.87342438
v 1004.58679388 234.61978197 -122.90822059
v 991.94849343 306.29502857 -122.90822695
v 1018.34766147 156.57817149 -76.11807127
v 991.94849685 306.2950343 -65.21957182
v -944.17206146 -105.2724188 -102.02538886
v -906.46172259 -86.26882326 -122.90807568
v -318.34121789 59.49778803 -112.48141452
v -86.38621727 60.53079488 -122.90813877
v -230.04751285 30.05950463 -122.90812724
v -406.12530845 23.53586307 -122.90811618
v -490.77988016 44.84958465 -122.90811328
v -318.34121789 59.49778803 -112.48141452
v -230.04751285 30.05950463 -122.90812724
v -490.77988016 44.84958465 -122.90811328
v -453.72661103 51.38308941 -88.7671277
v -318.34121789 59.49778803 -112.48141452
v 919.02003273 131.66500333 -122.10937398
v 995.6857151 156.00466541 -105.54761454
v 578.4592916 0.27371354 -122.90817213
v 515.98079906 -10.74294489 -83.55988832
v 503.32152386 -17.36545475 -122.90816593
v 367.25384668 -16.54779806 -110.96497187
v 182.75765435 -69.49927527 -122.90814179
v 298.6384883 -27.29552804 -122.66437789
v 455.00241334 37.23438674 -122.30925275
v 309.77716155 -47.1022694 -87.68863334
v 367.25384668 -16.54779806 -110.96497187
v 503.32152386 -17.36545475 -122.90816593
v 455.00241334 37.23438674 -122.30925275
v 578.4592916 0.27371354 -122.90817213
v 367.25384668 -16.54779806 -110.96497187
v 455.00241334 37.23438674 -122.30925275
v 503.32152386 -17.36545475 -122.90816593
v 309.77716155 -47.1022694 -87.68863334
v 81.04793301 -87.4334726 -122.908134
v -939.01270545 -267.29797861 -122.9080558
v -419.18886697 -144.67483895 -122.90809872
v -277.2306972 -78.86296273 -122.90811365
v -424.81587525 -55.63898542 -122.90810722
v -277.2306972 -78.86296273 -122.90811365
v -419.18886697 -144.67483895 -122.90809872
v -422.28184905 -95.7345886 -108.77129239
v -424.81587525 -55.63898542 -122.90810722
v -422.28184905 -95.7345886 -108.77129239
v -419.18886697 -144.67483895 -122.90809872
v -516.20496329 -106.6592558 -122.90809675
v -424.81587525 -55.63898542 -122.90810722
v 182.75765435 -69.49927527 -122.90814179
v 1031.81303618 80.21234095 -122.90820688
v 1031.81303959 80.21234667 -65.21955175
v -978.87724478 -41.21528526 -65.21942073
v -939.01270204 -267.29797288 -65.21940066
v 298.6384883 -27.29552804 -122.66437789
v 182.75765435 -69.49927527 -122.90814179
v 919.02003273 131.66500333 -122.10937398
v 1028.96722754 96.35169744 -122.90820832
v 1031.81303618 80.21234095 -122.90820688
v -978.8772482 -41.21529098 -122.90807587
v -978.87724478 -41.21528526 -65.21942073
v -516.20496329 -106.6592558 -122.90809675
v -906.46172259 -86.26882326 -122.90807568
v -978.8772482 -41.21529098 -122.90807587
v -490.77988016 44.84958465 -122.90811328
v -406.12530845 23.53586307 -122.90811618
vn 0.1667 -0.14628 0.9751
vn 0 -1 0
vn -1 0 0
vn 0 0 -1
vn 0.9981 -0.05426 0.02926
vn 0 1 0
vn 0.03766 -0.99825 0.04551
vn -0.12645 -0.98859 0.08189
vn 0.04209 -0.9976 0.05503
vn -0.11521 -0.99077 0.07143
vn 0.61034 -0.18349 0.7706
vn 0.39296 0.8064 0.44192
vn 0.76517 0.64342 0.02271
vn 0.21827 0.95782 0.18691
vn -0.01554 0.99985 0.00735
vn -0.13722 0.98239 0.12683
vn 0.06134 0.99787 0.02239
vn -0.89808 0.43926 -0.02269
vn -0.4813 0.8582 0.17844
vn -0.82382 -0.56228 0.07187
vn 0.03334 -0.0163 0.99931
vn -0.05611 -0.94947 0.30882
vn -0.64035 0.76285 0.08949
vn 0 0 1
vn 0.37186 -0.86086 0.34732
vn -0.30683 -0.918 0.25127
vn 0.18147 0.96553 0.18661
vn -0.30482 0.92396 0.23104
vn -0.00351 0.01458 0.99989
vn 0.99946 0.01025 0.03133
vn 0.05264 0.01934 0.99843
vt 0.16748 0.20394
vt 0.16864 0.33583
vt -0 0.35099
vt 0 0.24181
vt 0.96171 0.68956
vt 0.65487 0.68956
vt 0.65589 0.34481
vt 0.96273 0.34481
vt 0.77589 0.46172
vt 0.6896 0.16447
vt 0.9999 0.164
vt 1 0.34111
vt 0.6897 0.34092
vt 0.52219 0.34481
vt 0.52383 0
vt 0.68951 0
vt 0.68951 0.34481
vt 0.61447 0.51282
vt 0.3447 0.5123
vt 0.3447 0.34502
vt 0.65487 0.34481
vt 0.30802 0.69747
vt 0 0.69515
vt 0 0.67058
vt 0.24579 0.40047
vt 0 0.4601
vt -0 0.35099
vt 0.24983 0.58078
vt 0.30802 0.35331
vt 0.85194 0.44868
vt 0.96411 0.43054
vt 0.23109 0.33022
vt 0.19026 0.26857
vt 0.21554 0.26094
vt 0.04339 0.72845
vt 0.06318 0.77728
vt 0 0.77728
vt 0.02807 0.69747
vt 0.65487 0.60417
vt 0.4713 0.59781
vt 0.59951 0.57503
vt 0.00213 0.59093
vt 0.09222 0.57478
vt 0.68955 0.07842
vt 0.90121 0.08936
vt 0.68951 0.09252
vt 0.69329 0.75374
vt 0.65487 0.68956
vt 0.68849 0.68997
vt 0.74504 0.68956
vt 0.87902 0.12502
vt 0.75405 0.10987
vt 0.09256 0
vt 0.09921 0.0934
vt 0.07929 0.0065
vt 0.53773 0.76957
vt 0.56541 0.68975
vt 0.61421 0.76957
vt 0.67425 0.87932
vt 0.16629 0.00639
vt 0.3447 0.00616
vt 0.25285 0.05202
vt 0.22681 0.1123
vt 0.25115 0.18503
vt 0.48426 0.73405
vt 0.52462 0.68975
vt 0.53773 0.79359
vt 0.44134 0.79359
vt 0.3447 0.79364
vt 0.35827 0.68975
vt 0.41006 0.75134
vt 0.44134 0.79364
vt 0.68959 0.14687
vt 0.68951 -0
vt 0.99981 0.00019
vt 0.3447 0.34481
vt 0.3447 0
vt 0.12762 0.03867
vt 0.1485 0.00641
vt 0.0177 0.11219
vt 0 0.03119
vt 0 0.00661
vt 0.65487 0.68954
vt 0.3447 0.68975
vt 0.26817 0.13344
vt 0.33376 0.26513
vt 0.3447 0.35054
vt 0.25933 0.35065
vt 0.24561 0.29713
usemtl mat0
f 723/692/224 724/693/224 725/694/224
f 725/694/224 726/695/224 723/692/224
f 727/696/225 728/697/225 729/698/225
f 729/698/225 730/699/225 731/700/225
f 731/700/225 727/696/225 729/698/225
f 732/701/226 733/702/226 734/703/226
f 734/703/226 735/704/226 732/701/226
f 736/705/227 737/706/227 738/707/227
f 738/707/227 739/708/227 736/705/227
f 740/709/228 741/710/228 742/711/228
f 742/711/228 743/712/228 740/709/228
f 744/713/229 745/714/229 746/715/229
f 747/716/229 748/717/229 749/718/229
f 744/713/229 746/715/229 750/719/229
f 747/716/229 749/718/229 751/720/229
f 751/720/229 744/713/229 750/719/229
f 750/719/229 747/716/229 751/720/229
f 727/696/230 731/700/230 752/721/230
f 730/699/231 753/722/231 752/721/231
f 752/721/232 753/722/232 727/696/232
f 752/721/233 731/700/233 730/699/233
f 754/723/234 755/724/234 756/725/234
f 757/726/235 758/727/235 759/728/235
f 759/728/235 760/729/235 757/726/235
f 761/730/236 762/731/236 763/732/236
f 746/715/237 764/733/237 765/734/237
f 750/719/238 765/734/238 748/717/238
f 748/717/238 747/716/238 750/719/238
f 765/734/239 764/733/239 748/717/239
f 765/734/240 750/719/240 746/715/240
f 766/735/241 767/736/241 768/737/241
f 769/738/242 770/739/242 771/740/242
f 771/740/242 772/741/242 769/738/242
f 773/742/243 774/743/243 768/737/243
f 768/737/243 767/736/243 773/742/243
f 775/744/244 776/745/244 777/746/244
f 778/747/245 779/748/245 780/749/245
f 769/738/246 781/750/246 770/739/246
f 782/751/247 783/752/247 784/753/247
f 785/754/247 786/755/247 723/692/247
f 723/692/247 782/751/247 784/753/247
f 784/753/247 785/754/247 723/692/247
f 787/756/248 788/757/248 789/758/248
f 787/756/249 789/758/249 790/759/249
f 791/760/250 792/761/250 793/762/250
f 794/763/251 791/760/251 793/762/251
f 733/702/226 732/701/226 795/764/226
f 767/736/226 766/735/226 796/765/226
f 733/702/226 795/764/226 773/742/226
f 767/736/226 796/765/226 797/766/226
f 797/766/226 733/702/226 773/742/226
f 773/742/226 767/736/226 797/766/226
f 798/767/227 799/768/227 737/706/227
f 737/706/227 736/705/227 798/767/227
f 800/769/252 801/770/252 782/751/252
f 782/751/252 723/692/252 726/695/252
f 802/771/252 803/772/252 804/773/252
f 804/773/252 777/746/252 776/745/252
f 776/745/252 800/769/252 782/751/252
f 802/771/252 804/773/252 776/745/252
f 776/745/252 782/751/252 726/695/252
f 726/695/252 802/771/252 776/745/252
f 741/710/253 740/709/253 763/732/253
f 762/731/253 761/730/253 805/774/253
f 741/710/253 763/732/253 762/731/253
f 762/731/253 805/774/253 806/775/253
f 806/775/253 741/710/253 762/731/253
f 755/724/254 754/723/254 724/693/254
f 807/776/254 784/753/254 783/752/254
f 808/777/254 809/778/254 810/779/254
f 755/724/254 724/693/254 723/692/254
f 786/755/254 807/776/254 783/752/254
f 783/752/254 808/777/254 810/779/254
f 756/725/254 755/724/254 723/692/254
f 786/755/254 783/752/254 810/779/254
f 756/725/254 723/692/254 786/755/254
f 786/755/254 810/779/254 811/780/254
f 811/780/254 756/725/254 786/755/254
# Vertices: 89, normals: 31, texture coordinates: 89, faces: 78

