# Blender 5.1.1
# www.blender.org
mtllib Joaquimm pronto.mtl
o Cube.018
v 3.881542 9.841838 -1.458898
v 4.064725 11.953937 -1.661359
v 4.409954 9.841838 -1.221831
v 4.593137 11.953937 -1.424292
v 2.292453 9.637938 -0.589638
v 2.279806 11.217229 -0.575661
v 2.715355 9.637938 -0.399907
v 2.702708 11.217229 -0.385930
v 2.497194 7.931565 -0.516845
v 1.595393 15.726543 -0.526367
v 1.187830 14.973906 3.605378
v 2.519423 6.237894 0.905818
v 3.144531 10.829940 -1.304603
v 2.087904 15.731326 1.002545
v -0.286354 14.878078 4.255203
v -0.286354 5.893905 -0.585918
v -0.286354 15.872071 -1.028930
v 3.270939 10.438216 0.020158
v -0.286355 9.474951 -2.396411
v -0.286354 16.000666 1.002545
v 2.542920 13.876985 -2.545088
v 4.259500 13.448996 0.337544
v -0.286355 13.356114 -3.548072
v -0.286354 13.790652 3.980437
v 3.175458 14.648417 2.241864
v 1.252714 14.512741 3.194451
v -0.286354 8.267090 -1.231694
v 2.609950 9.182972 -0.935013
v 1.836101 15.569867 2.227636
v -0.286354 15.810897 3.565920
v 2.476237 15.054171 -1.236394
v 3.687645 14.021913 1.667546
v 3.515951 8.544374 1.088546
v 2.473291 8.573707 -0.841625
v 2.838854 12.325891 -1.942475
v 3.627401 12.055947 0.178851
v 3.176904 12.496098 0.734010
v 2.875332 13.010073 1.413636
v 2.179375 14.253128 2.305946
v 2.999905 10.066922 0.905271
v 2.990210 9.000270 1.749097
v 2.401763 7.890294 -0.420422
v -0.286354 6.139349 -0.133718
v 2.253769 7.219928 3.418812
v 2.616966 10.355310 4.001293
v -0.286353 5.029403 4.641146
v -0.286353 9.606706 4.936405
v -0.286354 5.028270 1.748797
v 2.171166 12.431717 3.710052
v -0.286353 12.033699 4.795304
v 1.252714 14.512741 3.194451
v -0.286354 11.297853 4.461051
v 2.266249 11.544516 3.855673
v -0.286353 4.064038 4.553023
v 2.368969 5.935440 2.089769
v 2.415504 8.752243 3.710052
v 1.719413 14.571453 2.721138
v 2.870798 8.299613 1.535205
v 2.851964 -12.475439 2.452252
v 2.827141 -8.751705 2.486134
v 1.468482 -12.475439 1.653499
v 1.411118 -8.743367 2.028923
v 1.411118 -8.743367 0.515960
v 2.824756 -8.723138 -0.946928
v 3.969390 -8.714181 -0.106120
v 4.235445 -12.475439 1.653499
v 4.060293 -8.689497 1.722001
v 2.930314 -17.144812 2.452252
v 1.546832 -17.144812 1.653499
v 1.546831 -17.144812 0.055992
v 2.930313 -17.144812 -0.742761
v 4.313795 -17.144812 0.055992
v 4.313795 -17.144812 1.653499
v 2.930314 -17.144812 1.946152
v 1.985128 -17.144812 1.400449
v 1.985127 -17.144812 0.012869
v 2.930313 -17.144812 -0.532834
v 3.875499 -17.144812 0.012869
v 3.875499 -17.144812 1.400448
v 2.930314 -19.647633 1.946152
v 1.985128 -19.647633 1.400449
v 1.985127 -19.647633 -0.131772
v 2.930313 -19.647633 -0.677476
v 3.875499 -19.647633 -0.131773
v 3.875499 -19.647633 1.400448
v 2.930314 -19.151932 4.738609
v 2.269264 -19.151932 4.356952
v 3.591364 -19.151932 4.356952
v 2.930314 -19.559944 4.738609
v 2.269264 -19.559944 4.356952
v 3.591364 -19.559944 4.356952
v 3.875499 -18.356422 2.725412
v 2.930314 -18.356422 3.271116
v 1.985128 -18.356422 2.725412
v 3.875499 -19.647633 0.970902
v 3.875499 -18.812208 1.400448
v 1.985128 -18.812208 1.400449
v 1.985128 -19.647633 0.970902
v -0.286354 -6.743231 4.013749
v -0.286354 0.232812 4.483844
v -0.286355 -6.774570 -2.376661
v -0.286355 1.210610 -2.602306
v 4.114680 -6.862540 -0.583452
v 3.761897 -0.082235 -0.452193
v 3.796326 -6.968657 2.032502
v 3.601395 -0.082235 2.412495
v -0.286354 3.299045 1.759721
v -0.286354 3.867405 0.120271
v 1.701954 3.701428 0.619709
v 1.964757 3.422938 1.668908
v -0.286354 -3.787983 3.747363
v -0.286354 -3.161191 -1.812547
v 3.363498 -3.537266 0.098451
v 3.363498 -3.698917 1.983163
v -0.286354 1.887806 3.254517
v 2.860710 1.979931 2.497514
v -0.286354 3.310900 -1.242541
v 5.369355 -6.723379 0.724525
v 3.666329 -3.794640 1.040807
v 1.060597 3.051226 -0.534403
v -0.286354 -5.736838 2.995358
v -0.286354 -5.747285 -1.746873
v 3.655412 -5.789498 -0.250311
v 3.626577 -5.799110 1.436102
v 4.168698 -5.730219 0.749594
v -0.286354 -8.716591 2.846725
v -0.286354 -8.736920 -1.299917
v 1.423823 -8.715002 -1.600636
v 1.684529 -5.768392 -0.998592
v 1.670112 -5.767975 2.215730
v 2.669971 -5.778945 -0.624451
v 2.914609 1.189050 4.092314
v 0.242613 3.014091 4.138084
v -0.286354 2.956482 -1.471997
v -0.286354 4.923714 -1.344599
v 2.407549 2.791553 0.173735
v 2.053402 4.746812 0.589196
v 3.021212 1.979933 2.500515
v 2.330903 4.071521 2.960301
v -0.286354 1.060309 3.869180
v -0.286354 2.172287 2.838819
v -0.286354 5.113716 2.692975
v -0.286354 3.347197 -0.573910
v -0.286354 6.514114 0.104810
v 1.257939 3.738492 0.508178
v 0.969913 6.178365 0.740762
v 0.839201 3.360990 1.588909
v 0.980184 5.473238 2.034148
v 1.820629 1.023831 -1.346029
v 1.367429 1.520121 2.966232
v -0.021870 2.037202 4.003633
v 2.033818 1.956900 2.611903
v 2.713619 0.232812 3.183883
v 13.271420 1.285567 1.977596
v 4.347649 1.454786 2.534338
v 13.271420 0.081185 1.878837
v 13.271420 0.081185 -0.169350
v 13.271420 1.285567 -1.193443
v 4.347648 1.454786 -1.536702
v 13.271420 2.489950 -0.169350
v 4.347649 2.991807 -0.452193
v 13.271420 2.489950 1.878837
v 4.347649 2.991807 2.412495
v 13.087100 1.285567 2.497443
v 12.773703 -1.204081 1.357585
v 12.773703 -1.204081 -0.285114
v 13.087100 1.285567 -1.424971
v 13.087100 2.626094 -0.285114
v 13.087100 2.626094 1.994601
v 14.732431 1.285567 2.413209
v 14.732431 -0.054959 1.994601
v 14.732431 -0.054959 -0.285114
v 14.732431 1.285567 -1.424972
v 14.732431 2.704444 -0.285114
v 14.732431 2.704444 1.994601
v 14.262336 1.622442 1.622471
v 14.262336 1.151484 1.572464
v 14.262336 1.043863 0.137023
v 14.262336 1.285568 -0.580698
v 14.262336 2.129641 0.137023
v 14.262336 2.129641 1.572464
v 16.591530 -0.178512 2.136277
v 16.420752 -0.042228 2.327358
v 15.844093 0.682246 1.428089
v 15.602927 1.682583 2.045460
v 16.212667 -0.497405 2.180962
v 16.076426 -0.274497 2.403102
v 19.175838 1.430660 1.603817
v 18.763784 1.094279 1.221350
v 18.763784 1.094279 0.488135
v 19.175838 1.430660 0.105669
v 18.763784 1.767041 0.488135
v 18.763784 1.767041 1.221350
v 17.324190 1.990711 1.498747
v 17.324190 1.990711 0.210739
v 17.324190 1.385319 -0.433264
v 17.324190 0.977931 0.210739
v 17.368496 0.984675 1.427356
v 17.212067 1.367650 2.037565
v 8.523330 1.348247 2.326662
v 8.523330 -0.061394 2.053370
v 8.065041 -0.061394 -0.343882
v 6.903555 2.763595 0.098407
v 6.903555 2.763595 1.611082
v 7.952373 1.349733 -1.550790
v 4.265672 2.965002 1.742278
v 8.065041 2.757887 -0.343882
v 4.265672 2.965002 -0.032788
v 8.523330 2.757887 2.053370
v 3.975802 3.199048 1.948159
v 3.975802 3.199048 -0.238669
v 7.225596 2.950919 -0.077041
v 7.225596 2.950919 1.786530
v 0.707800 3.784416 0.369990
v 1.204877 3.946065 0.494849
v 8.807534 1.342396 -1.509927
v 9.563858 -0.035629 2.021830
v 9.030764 2.739551 -0.331938
v 10.175834 1.338039 2.269814
v 8.916623 -0.049584 -0.329425
v 9.467361 2.714913 2.025377
v 7.229995 2.804666 2.125187
v 7.220218 -0.064971 2.115012
v 7.313507 2.760535 1.848160
v 6.686003 1.369617 2.368317
v 1.472548 -13.168587 1.653499
v 2.845517 -11.215903 2.461053
v 4.197845 -11.812429 1.668204
v 4.239904 -13.192024 1.653499
v 1.460264 -11.940774 1.707283
v 2.867474 -13.850637 2.452252
v 1.562700 -12.813910 0.951837
v 1.545673 -12.064530 0.919714
v 4.151407 -12.820648 0.886305
v 4.126465 -12.094532 0.892940
v 4.151407 -12.820648 0.055992
v 2.849041 -12.090657 -0.762942
v 4.125735 -12.069935 0.041790
v 1.545673 -12.064530 0.107318
v 2.857494 -12.814051 -0.741892
v 1.562701 -12.813910 0.055992
v -4.454251 9.841838 -1.458897
v -4.637434 11.953937 -1.661357
v -4.982663 9.841838 -1.221830
v -5.165846 11.953937 -1.424291
v -2.865161 9.637938 -0.589637
v -2.852515 11.217229 -0.575660
v -3.288063 9.637938 -0.399907
v -3.275417 11.217229 -0.385929
v -3.069902 7.931565 -0.516844
v -2.168102 15.726543 -0.526367
v -1.760537 14.973906 3.605378
v -3.092131 6.237894 0.905819
v -3.717240 10.829940 -1.304602
v -2.660612 15.731326 1.002546
v -3.843648 10.438216 0.020159
v -3.115629 13.876985 -2.545087
v -4.832208 13.448996 0.337546
v -3.748166 14.648417 2.241865
v -1.825421 14.512741 3.194451
v -3.182659 9.182972 -0.935012
v -2.408809 15.569867 2.227637
v -3.048945 15.054171 -1.236393
v -4.260353 14.021913 1.667547
v -4.088659 8.544374 1.088547
v -3.046000 8.573707 -0.841624
v -3.411563 12.325891 -1.942474
v -4.200109 12.055947 0.178852
v -3.749612 12.496098 0.734011
v -3.448040 13.010073 1.413637
v -2.752083 14.253128 2.305947
v -3.572613 10.066922 0.905272
v -3.562918 9.000270 1.749098
v -2.974472 7.890294 -0.420421
v -2.826476 7.219928 3.418813
v -3.189673 10.355310 4.001294
v -2.743874 12.431717 3.710053
v -1.825421 14.512741 3.194451
v -2.838957 11.544516 3.855674
v -2.941676 5.935440 2.089770
v -2.988211 8.752243 3.710053
v -2.292120 14.571453 2.721138
v -3.443506 8.299613 1.535206
v -3.424672 -12.475439 2.452253
v -3.399849 -8.751705 2.486135
v -2.041190 -12.475439 1.653499
v -1.983826 -8.743367 2.028924
v -1.983826 -8.743367 0.515961
v -3.397465 -8.723138 -0.946927
v -4.542098 -8.714181 -0.106119
v -4.808154 -12.475439 1.653500
v -4.633001 -8.689497 1.722002
v -3.503021 -17.144812 2.452253
v -2.119539 -17.144812 1.653500
v -2.119540 -17.144812 0.055993
v -3.503022 -17.144812 -0.742760
v -4.886503 -17.144812 0.055993
v -4.886503 -17.144812 1.653500
v -3.503021 -17.144812 1.946153
v -2.557836 -17.144812 1.400449
v -2.557836 -17.144812 0.012870
v -3.503022 -17.144812 -0.532833
v -4.448207 -17.144812 0.012870
v -4.448207 -17.144812 1.400450
v -3.503021 -19.647633 1.946153
v -2.557836 -19.647633 1.400449
v -2.557836 -19.647633 -0.131772
v -3.503022 -19.647633 -0.677475
v -4.448207 -19.647633 -0.131771
v -4.448207 -19.647633 1.400450
v -3.503021 -19.151932 4.738610
v -2.841972 -19.151932 4.356953
v -4.164071 -19.151932 4.356953
v -3.503021 -19.559944 4.738610
v -2.841972 -19.559944 4.356953
v -4.164071 -19.559944 4.356953
v -4.448206 -18.356422 2.725413
v -3.503021 -18.356422 3.271116
v -2.557836 -18.356422 2.725413
v -4.448207 -19.647633 0.970903
v -4.448207 -18.812208 1.400450
v -2.557836 -18.812208 1.400449
v -2.557836 -19.647633 0.970903
v -4.687388 -6.862540 -0.583451
v -4.334605 -0.082235 -0.452191
v -4.369034 -6.968657 2.032503
v -4.174103 -0.082235 2.412496
v -2.274662 3.701428 0.619709
v -2.537464 3.422938 1.668909
v -3.936206 -3.537266 0.098452
v -3.936206 -3.698917 1.983164
v -3.433417 1.979931 2.497515
v -5.942063 -6.723379 0.724526
v -4.239038 -3.794640 1.040808
v -1.633306 3.051226 -0.534402
v -4.228121 -5.789498 -0.250310
v -4.199286 -5.799110 1.436103
v -4.741406 -5.730219 0.749595
v -1.996532 -8.715002 -1.600635
v -2.257237 -5.768392 -0.998592
v -2.242820 -5.767975 2.215730
v -3.242679 -5.778945 -0.624450
v -3.487317 1.189050 4.092315
v -0.815320 3.014091 4.138084
v -2.980257 2.791553 0.173736
v -2.626110 4.746812 0.589196
v -3.593920 1.979933 2.500516
v -2.903611 4.071521 2.960302
v -1.830648 3.738492 0.508178
v -1.542621 6.178365 0.740763
v -1.411909 3.360990 1.588909
v -1.552892 5.473238 2.034149
v -2.393337 1.023831 -1.346029
v -1.940136 1.520121 2.966232
v -0.550837 2.037202 4.003633
v -2.606526 1.956900 2.611904
v -3.286326 0.232812 3.183884
v -13.844129 1.285567 1.977600
v -4.920356 1.454786 2.534339
v -13.844129 0.081185 1.878841
v -13.844129 0.081185 -0.169346
v -13.844129 1.285567 -1.193439
v -4.920357 1.454786 -1.536701
v -13.844129 2.489950 -0.169346
v -4.920357 2.991807 -0.452191
v -13.844129 2.489950 1.878841
v -4.920357 2.991807 2.412497
v -13.659808 1.285567 2.497447
v -13.346411 -1.204081 1.357589
v -13.346411 -1.204081 -0.285110
v -13.659808 1.285567 -1.424968
v -13.659808 2.626094 -0.285110
v -13.659808 2.626094 1.994605
v -15.305140 1.285567 2.413213
v -15.305140 -0.054959 1.994605
v -15.305140 -0.054959 -0.285110
v -15.305140 1.285567 -1.424967
v -15.305140 2.704444 -0.285110
v -15.305140 2.704444 1.994605
v -14.835044 1.622442 1.622476
v -14.835044 1.151484 1.572468
v -14.835044 1.043863 0.137027
v -14.835044 1.285568 -0.580693
v -14.835044 2.129641 0.137027
v -14.835044 2.129641 1.572468
v -17.164238 -0.178512 2.136282
v -16.993460 -0.042228 2.327363
v -16.416801 0.682246 1.428094
v -16.175636 1.682583 2.045465
v -16.785376 -0.497405 2.180967
v -16.649134 -0.274497 2.403107
v -19.748547 1.430660 1.603823
v -19.336493 1.094279 1.221356
v -19.336493 1.094279 0.488141
v -19.748547 1.430660 0.105674
v -19.336493 1.767041 0.488141
v -19.336493 1.767041 1.221356
v -17.896898 1.990711 1.498752
v -17.896898 1.990711 0.210745
v -17.896898 1.385319 -0.433259
v -17.896898 0.977931 0.210745
v -17.941204 0.984675 1.427362
v -17.784775 1.367650 2.037570
v -9.096038 1.348247 2.326664
v -9.096038 -0.061394 2.053373
v -8.637749 -0.061394 -0.343879
v -7.476263 2.763595 0.098409
v -7.476263 2.763595 1.611084
v -8.525081 1.349733 -1.550788
v -4.838380 2.965002 1.742279
v -8.637749 2.757887 -0.343879
v -4.838380 2.965002 -0.032787
v -9.096038 2.757887 2.053373
v -4.548511 3.199048 1.948160
v -4.548511 3.199048 -0.238668
v -7.798305 2.950919 -0.077039
v -7.798305 2.950919 1.786532
v -1.280508 3.784416 0.369990
v -1.777585 3.946065 0.494850
v -9.380242 1.342396 -1.509924
v -10.136566 -0.035629 2.021833
v -9.603472 2.739551 -0.331935
v -10.748542 1.338039 2.269818
v -9.489331 -0.049584 -0.329422
v -10.040070 2.714913 2.025380
v -7.802703 2.804666 2.125190
v -7.792926 -0.064971 2.115014
v -7.886215 2.760535 1.848162
v -7.258711 1.369617 2.368319
v -2.045256 -13.168587 1.653499
v -3.418224 -11.215903 2.461054
v -4.770554 -11.812429 1.668205
v -4.812613 -13.192024 1.653500
v -2.032972 -11.940774 1.707283
v -3.440182 -13.850637 2.452253
v -2.135408 -12.813910 0.951838
v -2.118382 -12.064530 0.919715
v -4.724115 -12.820648 0.886306
v -4.699173 -12.094532 0.892941
v -4.724115 -12.820648 0.055993
v -3.421750 -12.090657 -0.762941
v -4.698443 -12.069935 0.041792
v -2.118382 -12.064530 0.107318
v -3.430202 -12.814051 -0.741891
v -2.135409 -12.813910 0.055993
vn 0.4063 -0.1220 -0.9056
vn 0.4554 0.0244 0.8900
vn -0.4093 -0.0114 0.9123
vn -0.4968 -0.0214 -0.8676
vn 0.0572 -0.9902 -0.1276
vn -0.1611 0.9193 0.3590
vn 0.8529 -0.3019 -0.4260
vn 0.7544 0.6163 -0.2262
vn 0.1446 0.7298 -0.6682
vn 0.1964 -0.2807 -0.9395
vn 0.3729 0.6862 0.6245
vn 0.1029 0.9934 -0.0514
vn 0.3752 -0.2735 -0.8857
vn 0.9622 -0.0567 -0.2664
vn 0.6655 -0.4422 0.6013
vn 0.4781 -0.3388 0.8103
vn 0.3517 -0.4934 -0.7955
vn 0.1417 0.9848 0.1007
vn 0.6991 0.7091 -0.0920
vn 0.9011 -0.2250 -0.3707
vn 0.8717 -0.1689 -0.4600
vn 0.7075 -0.1475 0.6911
vn 0.2532 -0.5041 0.8257
vn 0.6185 -0.3240 0.7159
vn 0.5378 -0.7552 0.3746
vn 0.8203 0.3469 0.4547
vn 0.9656 -0.1699 0.1968
vn 0.4221 -0.1219 0.8983
vn 0.3043 0.3762 0.8751
vn 0.7084 -0.3499 0.6130
vn 0.2610 -0.7267 -0.6354
vn 0.2250 0.2314 0.9465
vn 0.9755 0.0652 0.2099
vn 0.3288 -0.0900 0.9401
vn 0.9366 0.1433 0.3196
vn 0.3422 -0.8992 -0.2727
vn 0.9817 -0.0391 0.1862
vn 0.5455 -0.5377 0.6428
vn 0.6044 0.5628 0.5638
vn 0.7028 0.0961 0.7049
vn -0.4405 -0.5808 -0.6846
vn 0.9535 -0.2293 0.1958
vn 0.8682 0.3030 0.3930
vn 0.8305 0.2101 0.5159
vn -0.4819 -0.0345 0.8755
vn -0.5402 0.0080 -0.8415
vn 0.5291 -0.0080 -0.8485
vn 0.5030 0.0010 0.8643
vn -0.9915 -0.0058 -0.1303
vn 0.9987 0.0346 -0.0387
vn -0.4993 -0.0047 0.8664
vn 0.5006 0.0048 0.8656
vn -0.0000 -1.0000 -0.0000
vn 1.0000 -0.0000 -0.0000
vn -0.4994 0.0500 -0.8649
vn -0.3630 0.6876 0.6288
vn -0.9968 -0.0488 0.0626
vn 0.4994 0.0500 -0.8649
vn -1.0000 -0.0000 -0.0000
vn -0.5000 -0.0000 0.8660
vn 0.5000 -0.0000 0.8660
vn 0.9968 -0.0488 0.0626
vn 0.3630 0.6876 0.6288
vn -0.0181 -0.9993 0.0314
vn 0.0181 -0.9993 0.0314
vn -0.2653 0.8476 0.4595
vn 0.2653 0.8476 0.4595
vn 0.4375 -0.1481 -0.8869
vn 0.4412 -0.1777 0.8796
vn 0.0954 0.6307 0.7702
vn 0.4358 0.0758 0.8969
vn 0.7404 0.2279 0.6323
vn 0.4189 0.2042 -0.8848
vn 0.4805 0.4760 -0.7366
vn 0.7687 0.3834 -0.5119
vn 0.9584 0.2683 -0.0969
vn -0.6176 -0.5869 0.5236
vn -0.5443 -0.5190 -0.6590
vn -0.3482 -0.5760 -0.7396
vn -0.3333 -0.4522 0.8273
vn 0.4254 0.1988 0.8829
vn 0.1207 0.0206 -0.9925
vn 0.2198 0.0625 0.9735
vn 0.3928 0.1357 -0.9096
vn 0.4944 0.0658 -0.8667
vn -0.0046 -1.0000 -0.0016
vn 0.5791 0.1628 -0.7988
vn 0.5712 0.3977 0.7181
vn 0.5168 -0.2525 0.8180
vn 0.5135 0.1633 -0.8424
vn 0.9850 0.0062 0.1723
vn 0.6471 -0.0631 0.7598
vn -0.0000 -0.0000 -1.0000
vn -0.0000 -0.4573 0.8893
vn -0.0279 0.9427 0.3325
vn 0.2923 0.4950 0.8182
vn 0.9991 0.0393 -0.0183
vn 0.4092 -0.3522 0.8418
vn 0.0314 -0.1763 0.9838
vn 0.0027 -1.0000 -0.0005
vn -0.0143 -0.6703 0.7419
vn 0.0394 0.1712 0.9845
vn -0.8382 0.3268 0.4366
vn -0.8698 -0.1135 -0.4802
vn -0.6914 -0.4680 0.5504
vn -0.9325 0.3611 -0.0000
vn -0.5941 -0.8044 -0.0000
vn -0.5714 0.3041 -0.7622
vn -0.0476 0.9989 -0.0000
vn 0.1640 -0.5144 -0.8417
vn -0.0225 -0.3752 0.9267
vn 0.0167 0.3167 0.9484
vn -0.0152 0.6368 -0.7708
vn 0.5060 -0.8625 -0.0000
vn 0.8193 -0.3638 0.4432
vn 0.9259 0.3776 -0.0109
vn 0.7741 -0.6331 -0.0000
vn 0.8698 0.3756 0.3199
vn 0.8566 0.1292 -0.4996
vn 0.7956 -0.1432 -0.5886
vn -0.2208 0.1234 0.9675
vn 0.0205 -0.9025 -0.4302
vn 0.4746 -0.4586 0.7513
vn 0.8704 0.4529 -0.1933
vn -0.1220 -0.5608 -0.8189
vn -0.0006 -0.6638 0.7479
vn -0.6185 -0.3892 0.6826
vn 0.0146 0.6498 0.7599
vn 0.1949 0.7604 -0.6195
vn -0.0435 -0.9936 -0.1043
vn 0.1535 0.9881 -0.0000
vn 0.1726 -0.8292 -0.5316
vn 0.0453 0.9990 -0.0000
vn 0.0307 0.6844 -0.7285
vn 0.0794 -0.9968 0.0016
vn 0.1760 0.7099 0.6820
vn 0.1478 -0.8185 0.5551
vn 0.6324 0.7747 -0.0000
vn 0.0688 0.1500 0.9863
vn 0.0589 0.9983 -0.0003
vn 0.0647 0.6415 -0.7644
vn 0.0029 -0.6140 -0.7893
vn 0.0307 -0.9995 -0.0013
vn 0.0645 -0.1481 0.9869
vn 0.0264 -0.6470 -0.7621
vn -0.1120 0.9896 -0.0906
vn 0.0635 0.9912 0.1159
vn 0.0056 1.0000 0.0004
vn 0.0761 0.9971 -0.0000
vn 0.5028 -0.8644 -0.0000
vn -0.0143 -0.6703 -0.7419
vn -0.6282 -0.7780 -0.0000
vn 0.3022 0.8480 -0.4354
vn -0.0228 0.0055 0.9997
vn 0.2243 0.9730 0.0542
vn 0.0388 -0.5859 -0.8094
vn -0.0067 0.6005 -0.7996
vn -0.2107 0.3851 0.8985
vn 0.4778 0.2861 0.8306
vn 0.9980 -0.0543 0.0329
vn 0.0048 -1.0000 0.0002
vn 0.0466 -0.6454 -0.7624
vn 0.0754 -0.1302 0.9886
vn 0.0385 0.6127 -0.7894
vn 0.0333 -0.1911 0.9810
vn 0.0915 0.1049 0.9903
vn 0.0360 0.1914 0.9809
vn 0.0455 0.9990 0.0020
vn 0.0312 0.6452 -0.7634
vn 0.0247 -0.9997 -0.0009
vn 0.0139 -0.9999 -0.0027
vn 0.0051 0.9998 -0.0172
vn 0.0190 0.9998 -0.0036
vn -0.9996 -0.0009 -0.0283
vn 0.4998 0.0094 0.8661
vn 0.9937 0.0062 -0.1116
vn 0.9919 0.0588 -0.1127
vn -0.5002 -0.0094 0.8659
vn 0.5162 0.0023 0.8564
vn -0.3829 -0.0610 0.9218
vn 0.5122 0.0140 -0.8588
vn -0.9942 -0.0045 -0.1071
vn -0.9992 -0.0317 -0.0262
vn -0.5121 -0.0033 -0.8589
vn 0.9980 0.0383 -0.0498
vn -0.9991 -0.0242 -0.0357
vn 0.5621 -0.0257 -0.8267
vn -0.6514 0.0100 -0.7586
vn 0.9992 0.0333 -0.0238
vn -0.4063 -0.1220 -0.9056
vn -0.4554 0.0244 0.8900
vn 0.4093 -0.0114 0.9123
vn 0.4968 -0.0214 -0.8676
vn -0.0572 -0.9902 -0.1276
vn 0.1611 0.9193 0.3590
vn -0.8529 -0.3019 -0.4260
vn -0.7544 0.6163 -0.2262
vn -0.1446 0.7298 -0.6682
vn -0.1964 -0.2807 -0.9395
vn -0.3729 0.6862 0.6245
vn -0.1029 0.9934 -0.0514
vn -0.3752 -0.2735 -0.8857
vn -0.9622 -0.0567 -0.2664
vn -0.6655 -0.4422 0.6013
vn -0.4781 -0.3388 0.8103
vn -0.3517 -0.4934 -0.7955
vn -0.1417 0.9848 0.1007
vn -0.6991 0.7091 -0.0920
vn -0.9011 -0.2250 -0.3707
vn -0.8717 -0.1689 -0.4600
vn -0.7075 -0.1475 0.6911
vn -0.2532 -0.5041 0.8257
vn -0.6185 -0.3240 0.7159
vn -0.5378 -0.7552 0.3746
vn -0.8203 0.3469 0.4547
vn -0.9656 -0.1699 0.1968
vn -0.4221 -0.1219 0.8983
vn -0.3043 0.3762 0.8751
vn -0.7084 -0.3499 0.6130
vn -0.2610 -0.7267 -0.6354
vn -0.2250 0.2314 0.9465
vn -0.9755 0.0652 0.2099
vn -0.3288 -0.0900 0.9401
vn -0.9366 0.1433 0.3196
vn -0.3422 -0.8992 -0.2727
vn -0.9817 -0.0391 0.1862
vn -0.5455 -0.5377 0.6428
vn -0.6044 0.5628 0.5638
vn -0.7028 0.0961 0.7049
vn 0.4405 -0.5808 -0.6846
vn -0.9535 -0.2293 0.1958
vn -0.8682 0.3030 0.3930
vn -0.8305 0.2101 0.5159
vn 0.4819 -0.0345 0.8755
vn 0.5402 0.0080 -0.8415
vn -0.5291 -0.0080 -0.8485
vn -0.5030 0.0010 0.8643
vn 0.9915 -0.0058 -0.1303
vn -0.9987 0.0346 -0.0387
vn 0.4993 -0.0047 0.8664
vn -0.5006 0.0048 0.8656
vn -0.4375 -0.1481 -0.8869
vn -0.4412 -0.1777 0.8796
vn -0.0954 0.6307 0.7702
vn -0.4358 0.0758 0.8969
vn -0.7404 0.2279 0.6323
vn -0.4189 0.2042 -0.8848
vn -0.4805 0.4760 -0.7366
vn -0.7687 0.3834 -0.5119
vn -0.9584 0.2683 -0.0969
vn 0.6176 -0.5869 0.5236
vn 0.5443 -0.5190 -0.6590
vn 0.3482 -0.5760 -0.7396
vn 0.3333 -0.4522 0.8273
vn -0.4254 0.1988 0.8829
vn -0.1207 0.0206 -0.9925
vn -0.2198 0.0625 0.9735
vn -0.3928 0.1357 -0.9096
vn -0.4944 0.0658 -0.8667
vn 0.0046 -1.0000 -0.0016
vn -0.5791 0.1628 -0.7988
vn -0.5712 0.3977 0.7181
vn -0.5168 -0.2525 0.8180
vn -0.5135 0.1633 -0.8424
vn -0.9850 0.0062 0.1723
vn -0.6471 -0.0631 0.7598
vn 0.0279 0.9427 0.3325
vn -0.2923 0.4950 0.8182
vn -0.9991 0.0393 -0.0183
vn -0.4092 -0.3522 0.8418
vn -0.0314 -0.1763 0.9838
vn -0.0027 -1.0000 -0.0005
vn 0.0143 -0.6703 0.7419
vn -0.0394 0.1712 0.9845
vn 0.8382 0.3268 0.4365
vn 0.8698 -0.1135 -0.4802
vn 0.6914 -0.4680 0.5504
vn 0.9325 0.3611 -0.0000
vn 0.5941 -0.8044 -0.0000
vn 0.5714 0.3041 -0.7622
vn 0.0476 0.9989 -0.0000
vn -0.1640 -0.5144 -0.8417
vn 0.0225 -0.3752 0.9267
vn -0.0167 0.3167 0.9484
vn 0.0152 0.6368 -0.7708
vn -0.5060 -0.8625 -0.0000
vn -0.8193 -0.3638 0.4432
vn -0.9259 0.3776 -0.0109
vn -0.7741 -0.6331 -0.0000
vn -0.8698 0.3756 0.3199
vn -0.8566 0.1292 -0.4996
vn -0.7956 -0.1432 -0.5886
vn 0.2208 0.1234 0.9675
vn -0.0205 -0.9025 -0.4302
vn -0.4746 -0.4586 0.7513
vn -0.8704 0.4529 -0.1933
vn 0.1220 -0.5608 -0.8189
vn 0.0006 -0.6638 0.7479
vn -0.6185 0.3892 -0.6826
vn -0.0146 0.6498 0.7599
vn -0.1949 0.7604 -0.6195
vn 0.0435 -0.9936 -0.1043
vn -0.1535 0.9881 -0.0000
vn -0.1726 -0.8292 -0.5316
vn -0.0453 0.9990 -0.0000
vn -0.0307 0.6844 -0.7285
vn -0.0794 -0.9968 0.0016
vn -0.1760 0.7099 0.6820
vn -0.1478 -0.8185 0.5551
vn -0.6324 0.7747 -0.0000
vn -0.0688 0.1500 0.9863
vn -0.0589 0.9983 -0.0003
vn -0.0647 0.6415 -0.7644
vn -0.0029 -0.6140 -0.7893
vn -0.0307 -0.9995 -0.0013
vn -0.0645 -0.1481 0.9869
vn -0.0264 -0.6470 -0.7621
vn -0.0635 0.9912 0.1159
vn -0.0056 1.0000 0.0004
vn -0.0761 0.9971 -0.0000
vn -0.5028 -0.8644 -0.0000
vn 0.0143 -0.6703 -0.7419
vn 0.6282 -0.7780 -0.0000
vn -0.3022 0.8480 -0.4354
vn 0.0228 0.0055 0.9997
vn -0.2243 0.9730 0.0542
vn -0.0389 -0.5859 -0.8094
vn 0.0067 0.6005 -0.7996
vn 0.2107 0.3851 0.8985
vn -0.4778 0.2861 0.8306
vn -0.9980 -0.0543 0.0329
vn -0.0048 -1.0000 0.0002
vn -0.0466 -0.6454 -0.7624
vn -0.0754 -0.1302 0.9886
vn -0.0385 0.6127 -0.7894
vn -0.0333 -0.1911 0.9810
vn -0.0915 0.1049 0.9903
vn -0.0360 0.1914 0.9809
vn -0.0455 0.9990 0.0020
vn -0.0312 0.6452 -0.7634
vn -0.0247 -0.9997 -0.0009
vn -0.0139 -0.9999 -0.0027
vn -0.0051 0.9998 -0.0172
vn -0.0190 0.9998 -0.0036
vn 0.9996 -0.0009 -0.0283
vn -0.4998 0.0094 0.8661
vn -0.9937 0.0062 -0.1116
vn -0.9919 0.0588 -0.1127
vn 0.5002 -0.0094 0.8659
vn -0.5162 0.0023 0.8564
vn 0.3829 -0.0610 0.9218
vn -0.5122 0.0140 -0.8588
vn 0.9942 -0.0045 -0.1071
vn 0.9992 -0.0317 -0.0262
vn 0.5121 -0.0033 -0.8589
vn -0.9980 0.0383 -0.0498
vn 0.9991 -0.0242 -0.0357
vn -0.5621 -0.0257 -0.8267
vn 0.6514 0.0100 -0.7586
vn -0.9992 0.0333 -0.0238
vn 0.1120 0.9896 -0.0906
vn 0.6324 -0.7747 -0.0000
vn -0.6324 -0.7747 -0.0000
vt 0.698276 0.943911
vt 0.736794 0.948031
vt 0.750817 0.960937
vt 0.685214 0.960937
vt 0.701271 0.870142
vt 0.744375 0.864489
vt 0.729746 0.908654
vt 0.697505 0.908630
vt 0.721371 0.917093
vt 0.706555 0.914193
vt 0.071169 0.588860
vt 0.071366 0.577979
vt 0.100729 0.591257
vt 0.079626 0.621644
vt 0.078360 0.497372
vt 0.096641 0.481839
vt 0.138054 0.502693
vt 0.121274 0.515190
vt 0.035757 0.487664
vt 0.081802 0.437001
vt 0.102101 0.464345
vt 0.025294 0.613918
vt 0.028812 0.577273
vt 0.074826 0.568971
vt 0.174569 0.437001
vt 0.167186 0.460024
vt 0.145067 0.468045
vt 0.159191 0.437001
vt 0.121124 0.437001
vt 0.126185 0.469932
vt 0.027065 0.552079
vt 0.080979 0.521782
vt 0.084866 0.545282
vt 0.114622 0.535186
vt 0.100702 0.558610
vt 0.172200 0.467074
vt 0.163187 0.476298
vt 0.191838 0.437001
vt 0.145649 0.490552
vt 0.129835 0.532884
vt 0.110924 0.570111
vt 0.160368 0.489233
vt 0.147492 0.521151
vt 0.106200 0.601821
vt 0.070264 0.590931
vt 0.030923 0.619244
vt 0.588984 0.707963
vt 0.581599 0.724315
vt 0.570227 0.732446
vt 0.562626 0.708740
vt 0.574797 0.635954
vt 0.574672 0.659265
vt 0.574688 0.667187
vt 0.552870 0.669775
vt 0.551383 0.653104
vt 0.561659 0.636219
vt 0.395396 0.652869
vt 0.396614 0.724091
vt 0.398124 0.798591
vt 0.265149 0.759631
vt 0.265149 0.556042
vt 0.380540 0.894229
vt 0.342512 0.995525
vt 0.265148 0.955979
vt 0.265149 0.871931
vt 0.521820 0.629064
vt 0.521820 0.618718
vt 0.479307 0.936556
vt 0.517609 0.919678
vt 0.517609 0.948518
vt 0.477689 0.964953
vt 0.383039 0.850747
vt 0.265148 0.837214
vt 0.586167 0.676073
vt 0.595144 0.700539
vt 0.558989 0.699802
vt 0.554637 0.687208
vt 0.480346 0.920027
vt 0.517609 0.880595
vt 0.114767 0.591009
vt 0.894616 0.477828
vt 0.920656 0.477490
vt 0.906056 0.510210
vt 0.894831 0.510779
vt 0.886859 0.543687
vt 0.902338 0.543133
vt 0.901164 0.575378
vt 0.886158 0.574925
vt 0.899734 0.606360
vt 0.884974 0.606140
vt 0.894302 0.445026
vt 0.907896 0.445555
vt 0.887436 0.525273
vt 0.880336 0.510660
vt 0.887555 0.429212
vt 0.887755 0.412171
vt 0.903018 0.411979
vt 0.902374 0.429473
vt 0.866175 0.477606
vt 0.879600 0.444954
vt 0.761589 0.409755
vt 0.776680 0.401043
vt 0.776680 0.406563
vt 0.766370 0.412515
vt 0.776680 0.435893
vt 0.761589 0.427180
vt 0.766370 0.427651
vt 0.776680 0.433603
vt 0.791770 0.409755
vt 0.791770 0.427180
vt 0.786989 0.427651
vt 0.786989 0.412515
vt 0.782894 0.108989
vt 0.811862 0.108989
vt 0.811862 0.143798
vt 0.802894 0.161238
vt 0.779875 0.161238
vt 0.840720 0.049964
vt 0.839391 0.027548
vt 0.890772 0.023012
vt 0.892100 0.045428
vt 0.832546 0.099248
vt 0.841586 0.078499
vt 0.867955 0.104131
vt 0.859017 0.124614
vt 0.875876 0.077459
vt 0.892200 0.076958
vt 0.891422 0.134208
vt 0.883870 0.133240
vt 0.760120 0.108332
vt 0.757100 0.160581
vt 0.892788 0.068104
vt 0.879358 0.143713
vt 0.885497 0.148658
vt 0.869002 0.148817
vt 0.871214 0.157512
vt 0.812011 0.160612
vt 0.838685 0.134587
vt 0.989091 0.054543
vt 0.981027 0.049888
vt 0.981027 0.026054
vt 0.986668 0.029308
vt 0.972963 0.054543
vt 0.975386 0.029308
vt 0.989091 0.069686
vt 0.989091 0.079093
vt 0.981027 0.083749
vt 0.972963 0.079093
vt 0.972963 0.069686
vt 0.521455 0.100964
vt 0.522585 0.175820
vt 0.480086 0.176678
vt 0.442654 0.154401
vt 0.443744 0.090993
vt 0.350154 0.099511
vt 0.356748 0.186110
vt 0.329337 0.194683
vt 0.255383 0.195417
vt 0.251584 0.100722
vt 0.258829 0.239595
vt 0.317746 0.241189
vt 0.338219 0.239705
vt 0.320177 0.282858
vt 0.263034 0.286739
vt 0.356748 0.021237
vt 0.250663 0.030990
vt 0.421462 0.021647
vt 0.425393 0.084084
vt 0.407217 0.086102
vt 0.389672 0.032565
vt 0.521529 0.039855
vt 0.449706 0.027436
vt 0.496620 0.218403
vt 0.523921 0.213881
vt 0.361847 0.526409
vt 0.360339 0.542745
vt 0.345668 0.542603
vt 0.348667 0.526629
vt 0.374988 0.110357
vt 0.365842 0.112567
vt 0.368358 0.105858
vt 0.372755 0.105211
vt 0.360305 0.103601
vt 0.366500 0.102640
vt 0.360305 0.081865
vt 0.366653 0.084609
vt 0.366152 0.093743
vt 0.389760 0.094561
vt 0.375759 0.102204
vt 0.378957 0.098919
vt 0.384616 0.092363
vt 0.946797 0.970002
vt 0.943037 0.944136
vt 0.980054 0.951975
vt 0.981481 0.968254
vt 0.946519 0.789958
vt 0.947710 0.765077
vt 0.982620 0.771397
vt 0.982148 0.791711
vt 0.940932 0.918051
vt 0.975429 0.917171
vt 0.948112 0.752740
vt 0.983073 0.753127
vt 0.948444 0.740388
vt 0.982815 0.736360
vt 0.861138 0.639629
vt 0.828027 0.627171
vt 0.902476 0.621047
vt 0.902476 0.720596
vt 0.861601 0.728577
vt 0.827178 0.714013
vt 0.860625 0.676847
vt 0.349803 0.506399
vt 0.362536 0.506399
vt 0.371123 0.453050
vt 0.362556 0.498144
vt 0.379368 0.473455
vt 0.384580 0.450513
vt 0.390576 0.476264
vt 0.396949 0.465382
vt 0.397150 0.477140
vt 0.732258 0.843012
vt 0.696230 0.832536
vt 0.703051 0.817319
vt 0.731736 0.820527
vt 0.711269 0.802804
vt 0.736075 0.806526
vt 0.716793 0.787133
vt 0.750731 0.787133
vt 0.989091 0.061671
vt 0.972963 0.061671
vt 0.488160 0.248673
vt 0.496898 0.243718
vt 0.506085 0.240786
vt 0.524772 0.237494
vt 0.526863 0.266140
vt 0.486834 0.268608
vt 0.983073 0.989274
vt 0.948798 0.993947
vt 0.947049 0.980651
vt 0.403720 0.456022
vt 0.403720 0.478024
vt 0.552097 0.328444
vt 0.572329 0.328599
vt 0.565980 0.344080
vt 0.551934 0.343948
vt 0.555286 0.369642
vt 0.456298 0.508293
vt 0.456298 0.543673
vt 0.450688 0.541028
vt 0.450688 0.512133
vt 0.552186 0.312819
vt 0.568404 0.312359
vt 0.066248 0.052478
vt 0.059472 0.061298
vt 0.057146 0.061283
vt 0.064768 0.042013
vt 0.080627 0.069877
vt 0.081713 0.061218
vt 0.086313 0.061130
vt 0.081855 0.071505
vt 0.066458 0.069787
vt 0.065304 0.071505
vt 0.080294 0.052785
vt 0.078500 0.041949
vt 0.357926 0.306615
vt 0.427969 0.306615
vt 0.397023 0.340621
vt 0.377810 0.337552
vt 0.359716 0.406484
vt 0.336795 0.349631
vt 0.367136 0.351085
vt 0.373712 0.367961
vt 0.441967 0.355681
vt 0.397917 0.414820
vt 0.398406 0.370624
vt 0.403420 0.354989
vt 0.031471 0.124389
vt 0.014497 0.111714
vt 0.022297 0.106346
vt 0.031305 0.113817
vt 0.046701 0.085612
vt 0.047003 0.111244
vt 0.034057 0.106225
vt 0.032751 0.090689
vt 0.014497 0.085616
vt 0.022356 0.090874
vt 0.031358 0.080011
vt 0.027751 0.090235
vt 0.533109 0.789893
vt 0.495727 0.779176
vt 0.493385 0.784739
vt 0.517403 0.803253
vt 0.553480 0.764085
vt 0.526866 0.731305
vt 0.517198 0.736810
vt 0.544543 0.770813
vt 0.490290 0.778106
vt 0.489258 0.785624
vt 0.498076 0.802282
vt 0.513878 0.765576
vt 0.493859 0.766909
vt 0.494145 0.774187
vt 0.530184 0.783821
vt 0.491380 0.825647
vt 0.501953 0.824347
vt 0.512457 0.829887
vt 0.537790 0.794384
vt 0.527772 0.841315
vt 0.512893 0.855827
vt 0.511933 0.865707
vt 0.537442 0.850263
vt 0.500737 0.742805
vt 0.505457 0.849407
vt 0.513078 0.709665
vt 0.507568 0.717417
vt 0.555452 0.806918
vt 0.567815 0.817801
vt 0.497481 0.720522
vt 0.497532 0.851830
vt 0.489258 0.851884
vt 0.499227 0.316610
vt 0.541502 0.313173
vt 0.534049 0.328664
vt 0.499806 0.330113
vt 0.496067 0.293446
vt 0.543867 0.285123
vt 0.498519 0.382804
vt 0.546080 0.388237
vt 0.541273 0.407164
vt 0.496067 0.399668
vt 0.555002 0.389154
vt 0.600159 0.373692
vt 0.592562 0.393036
vt 0.500219 0.343447
vt 0.540747 0.343683
vt 0.546293 0.368978
vt 0.499539 0.365750
vt 0.517459 0.458804
vt 0.521725 0.461935
vt 0.520689 0.464746
vt 0.491799 0.463384
vt 0.496310 0.439166
vt 0.503057 0.442771
vt 0.508108 0.446062
vt 0.586651 0.294596
vt 0.567224 0.290554
vt 0.555352 0.283645
vt 0.593548 0.291436
vt 0.569539 0.304492
vt 0.566022 0.308849
vt 0.432661 0.541028
vt 0.432661 0.512133
vt 0.427701 0.543673
vt 0.427701 0.508293
vt 0.524722 0.236976
vt 0.459419 0.339572
vt 0.447333 0.312086
vt 0.446279 0.287138
vt 0.473913 0.302114
vt 0.437654 0.238685
vt 0.435231 0.187699
vt 0.486429 0.242465
vt 0.439106 0.220467
vt 0.393415 0.145946
vt 0.603462 0.343962
vt 0.595536 0.328257
vt 0.590958 0.413114
vt 0.551556 0.408463
vt 0.595430 0.313719
vt 0.797605 0.542150
vt 0.798280 0.509253
vt 0.798401 0.476315
vt 0.798460 0.443425
vt 0.972021 0.446831
vt 0.971453 0.476486
vt 0.972347 0.506784
vt 0.797067 0.608051
vt 0.797178 0.575091
vt 0.902858 0.526399
vt 0.971012 0.537567
vt 0.971816 0.409268
vt 0.970331 0.579122
vt 0.967933 0.608051
vt 0.799188 0.410598
vt 0.617282 0.890398
vt 0.603114 0.874280
vt 0.668572 0.869908
vt 0.655439 0.883720
vt 0.625186 0.963803
vt 0.618864 0.925652
vt 0.651031 0.923479
vt 0.668572 0.966572
vt 0.627523 0.919498
vt 0.642113 0.915617
vt 0.071169 0.285143
vt 0.079626 0.252359
vt 0.100729 0.282746
vt 0.071366 0.296023
vt 0.078360 0.376631
vt 0.121274 0.358812
vt 0.138054 0.371310
vt 0.096641 0.392164
vt 0.035757 0.386339
vt 0.102101 0.409658
vt 0.025294 0.260085
vt 0.074826 0.305032
vt 0.028812 0.296730
vt 0.145067 0.405958
vt 0.167186 0.413979
vt 0.126185 0.404071
vt 0.027065 0.321924
vt 0.084866 0.328721
vt 0.080979 0.352221
vt 0.100702 0.315393
vt 0.114622 0.338817
vt 0.172200 0.406929
vt 0.163187 0.397705
vt 0.145649 0.383451
vt 0.110924 0.303892
vt 0.129835 0.341119
vt 0.147492 0.352852
vt 0.160368 0.384770
vt 0.106200 0.272182
vt 0.030923 0.254759
vt 0.070264 0.283072
vt 0.454656 0.707963
vt 0.481014 0.708740
vt 0.473413 0.732446
vt 0.462041 0.724315
vt 0.468843 0.635954
vt 0.481981 0.636219
vt 0.492257 0.653104
vt 0.490769 0.669775
vt 0.468952 0.667187
vt 0.468967 0.659265
vt 0.134901 0.652869
vt 0.132173 0.798591
vt 0.133683 0.724091
vt 0.149757 0.894229
vt 0.187785 0.995526
vt 0.555912 0.936556
vt 0.557529 0.964953
vt 0.147258 0.850747
vt 0.457473 0.676073
vt 0.489003 0.687208
vt 0.484651 0.699802
vt 0.448495 0.700539
vt 0.554872 0.920027
vt 0.114767 0.282994
vt 0.900279 0.316201
vt 0.900494 0.283250
vt 0.911719 0.283819
vt 0.926319 0.316539
vt 0.892522 0.250342
vt 0.891821 0.219104
vt 0.906827 0.218650
vt 0.908001 0.250895
vt 0.890637 0.187889
vt 0.905397 0.187669
vt 0.899965 0.349003
vt 0.913558 0.348474
vt 0.885999 0.283368
vt 0.893099 0.268756
vt 0.908037 0.364556
vt 0.908681 0.382050
vt 0.893418 0.381858
vt 0.893218 0.364817
vt 0.871838 0.316422
vt 0.885262 0.349075
vt 0.790740 0.361298
vt 0.785959 0.364058
vt 0.775649 0.358106
vt 0.775649 0.352585
vt 0.775649 0.387435
vt 0.775649 0.385146
vt 0.785959 0.379193
vt 0.790740 0.378723
vt 0.760559 0.361298
vt 0.765340 0.364058
vt 0.765340 0.379193
vt 0.760559 0.378723
vt 0.705715 0.139009
vt 0.653710 0.144885
vt 0.652449 0.121900
vt 0.669372 0.111991
vt 0.704129 0.110085
vt 0.761485 0.078037
vt 0.763200 0.026485
vt 0.785655 0.026583
vt 0.783940 0.078135
vt 0.712722 0.088897
vt 0.685945 0.063856
vt 0.705908 0.053809
vt 0.732945 0.078735
vt 0.675971 0.039513
vt 0.674590 0.032025
vt 0.731712 0.028112
vt 0.732105 0.044440
vt 0.707620 0.161713
vt 0.655615 0.167590
vt 0.740520 0.027040
vt 0.665761 0.044592
vt 0.660487 0.038733
vt 0.661231 0.055212
vt 0.652428 0.053479
vt 0.652576 0.112763
vt 0.677100 0.084704
vt 0.934833 0.056259
vt 0.937256 0.031024
vt 0.942897 0.027769
vt 0.942897 0.051604
vt 0.948538 0.031024
vt 0.950961 0.056259
vt 0.934833 0.071401
vt 0.950961 0.071401
vt 0.950961 0.080809
vt 0.942897 0.085465
vt 0.934833 0.080809
vt 0.598591 0.089524
vt 0.601152 0.151119
vt 0.565028 0.174821
vt 0.153143 0.106907
vt 0.180968 0.203218
vt 0.152462 0.197848
vt 0.206217 0.289850
vt 0.179761 0.250639
vt 0.200322 0.248567
vt 0.146864 0.026974
vt 0.098369 0.027550
vt 0.129682 0.103533
vt 0.594690 0.026673
vt 0.551449 0.216493
vt 0.625270 0.021647
vt 0.617142 0.083523
vt 0.361847 0.486388
vt 0.348667 0.486169
vt 0.345668 0.470195
vt 0.360339 0.470053
vt 0.390924 0.073172
vt 0.385682 0.075071
vt 0.383245 0.071332
vt 0.386482 0.065030
vt 0.379684 0.072070
vt 0.376221 0.066908
vt 0.372983 0.078001
vt 0.385487 0.083785
vt 0.385618 0.079299
vt 0.943796 0.865911
vt 0.978474 0.865819
vt 0.978213 0.882092
vt 0.941741 0.891963
vt 0.980267 0.811696
vt 0.944898 0.815262
vt 0.979175 0.829268
vt 0.944533 0.828134
vt 0.978720 0.845272
vt 0.944302 0.841116
vt 0.943814 0.639629
vt 0.944326 0.676847
vt 0.977774 0.714013
vt 0.943351 0.728577
vt 0.976925 0.627171
vt 0.338977 0.443226
vt 0.359309 0.453050
vt 0.392651 0.496879
vt 0.386018 0.496875
vt 0.387778 0.485248
vt 0.732258 0.731253
vt 0.731736 0.753738
vt 0.703051 0.756947
vt 0.696230 0.741730
vt 0.736075 0.767739
vt 0.711269 0.771461
vt 0.950961 0.063387
vt 0.934833 0.063387
vt 0.562507 0.244011
vt 0.567243 0.263247
vt 0.543824 0.238912
vt 0.553171 0.240831
vt 0.943252 0.855031
vt 0.379388 0.496879
vt 0.382308 0.475072
vt 0.534860 0.480326
vt 0.534888 0.495625
vt 0.521004 0.495584
vt 0.515285 0.480097
vt 0.531282 0.521154
vt 0.458225 0.490722
vt 0.452582 0.487092
vt 0.452582 0.458046
vt 0.458225 0.454360
vt 0.534792 0.464806
vt 0.065897 0.105670
vt 0.064417 0.116135
vt 0.056795 0.096864
vt 0.059121 0.096850
vt 0.080276 0.088271
vt 0.081504 0.086643
vt 0.085962 0.097018
vt 0.081362 0.096929
vt 0.064953 0.086643
vt 0.066107 0.088361
vt 0.079943 0.105362
vt 0.078149 0.116199
vt 0.230969 0.409865
vt 0.250854 0.378928
vt 0.270067 0.375859
vt 0.301013 0.409865
vt 0.232760 0.309995
vt 0.246756 0.348519
vt 0.240180 0.365394
vt 0.209839 0.366848
vt 0.315010 0.360798
vt 0.276464 0.361491
vt 0.271450 0.345855
vt 0.270961 0.301659
vt 0.030028 0.079963
vt 0.030195 0.069392
vt 0.039203 0.061921
vt 0.047003 0.067289
vt 0.014799 0.041187
vt 0.028749 0.046264
vt 0.027442 0.061800
vt 0.014497 0.066819
vt 0.039144 0.046449
vt 0.047003 0.041190
vt 0.030141 0.035586
vt 0.033749 0.045809
vt 0.632084 0.770260
vt 0.647835 0.783583
vt 0.671797 0.764997
vt 0.669439 0.759441
vt 0.611646 0.744502
vt 0.620600 0.751207
vt 0.647860 0.717134
vt 0.638178 0.711653
vt 0.674874 0.758355
vt 0.675927 0.765870
vt 0.667157 0.782551
vt 0.651252 0.745892
vt 0.634993 0.764180
vt 0.671008 0.754448
vt 0.671274 0.747169
vt 0.663364 0.804631
vt 0.673920 0.805886
vt 0.627409 0.774760
vt 0.652902 0.810223
vt 0.637416 0.821663
vt 0.627805 0.830662
vt 0.653775 0.846104
vt 0.652670 0.836251
vt 0.664336 0.723089
vt 0.659697 0.829556
vt 0.657443 0.697718
vt 0.651915 0.689978
vt 0.609756 0.787323
vt 0.597410 0.798235
vt 0.667538 0.700798
vt 0.667628 0.831958
vt 0.675927 0.831986
vt 0.587085 0.468808
vt 0.586519 0.482138
vt 0.552667 0.480613
vt 0.545337 0.465259
vt 0.590178 0.446060
vt 0.543264 0.437890
vt 0.587768 0.534534
vt 0.590178 0.551362
vt 0.545066 0.558744
vt 0.540340 0.539799
vt 0.531415 0.540665
vt 0.493663 0.544317
vt 0.486128 0.524813
vt 0.586111 0.495347
vt 0.586783 0.517532
vt 0.540255 0.520568
vt 0.545972 0.495455
vt 0.532137 0.436391
vt 0.520318 0.441584
vt 0.434274 0.458046
vt 0.434274 0.487092
vt 0.429270 0.454360
vt 0.429270 0.490722
vt 0.147534 0.278836
vt 0.142359 0.242312
vt 0.609873 0.277333
vt 0.611104 0.226950
vt 0.610628 0.182728
vt 0.609197 0.215223
vt 0.563464 0.239533
vt 0.083243 0.187693
vt 0.106120 0.107232
vt 0.483026 0.494729
vt 0.491278 0.478864
vt 0.534768 0.560011
vt 0.495170 0.564484
vt 0.803943 0.284776
vt 0.803268 0.251878
vt 0.804123 0.350604
vt 0.804064 0.317714
vt 0.977116 0.317543
vt 0.977683 0.347198
vt 0.978010 0.287245
vt 0.802841 0.218938
vt 0.802730 0.185978
vt 0.908521 0.267629
vt 0.976675 0.256461
vt 0.977479 0.384761
vt 0.973596 0.185978
vt 0.975994 0.214907
vt 0.804850 0.383431
vt 0.579544 0.298473
vt 0.499341 0.866259
vt 0.666211 0.846406
s 0
usemtl Material.012
f 1/1/1 2/2/1 4/3/1 3/4/1
f 3/5/2 4/6/2 8/7/2 7/8/2
f 7/8/3 8/7/3 6/9/3 5/10/3
f 5/10/4 6/9/4 2/2/4 1/1/4
f 3/4/5 7/8/5 5/10/5 1/1/5
f 8/7/6 4/3/6 2/2/6 6/9/6
f 9/11/7 34/12/7 33/13/7 12/14/7
f 21/15/8 31/16/8 32/17/8 22/18/8
f 23/19/9 17/20/9 10/21/9 31/16/9 21/15/9
f 16/22/10 27/23/10 28/24/10 34/12/10 9/11/10
f 15/25/11 11/26/11 29/27/11 30/28/11
f 20/29/12 14/30/12 10/21/12 17/20/12
f 19/31/13 23/19/13 21/15/13 35/32/13 13/33/13
f 13/33/14 35/32/14 36/34/14 18/35/14
f 26/36/15 57/37/15 11/26/15
f 24/38/16 26/36/16 11/26/16 15/25/16
f 28/24/17 27/23/17 19/31/17 13/33/17
f 30/28/18 29/27/18 14/30/18 20/29/18
f 32/17/19 31/16/19 10/21/19 14/30/19 25/39/19
f 33/13/20 34/12/20 28/24/20 13/33/20 18/35/20
f 36/34/21 35/32/21 21/15/21 22/18/21
f 36/34/22 22/18/22 37/40/22 40/41/22
f 25/39/23 57/37/23 39/42/23 38/43/23
f 33/13/24 58/44/24 12/14/24
f 16/22/25 9/11/25 42/45/25 43/46/25
f 38/47/26 39/48/26 51/49/26 49/50/26
f 12/51/27 58/52/27 41/53/27 56/54/27 44/55/27 55/56/27
f 44/57/28 56/58/28 45/59/28 47/60/28 46/61/28
f 49/62/29 51/63/29 24/64/29 50/65/29
f 44/55/30 46/66/30 54/67/30 55/56/30
f 12/68/31 48/69/31 43/70/31 42/71/31
f 45/59/32 53/72/32 52/73/32 47/60/32
f 40/74/33 37/75/33 53/76/33 45/77/33
f 52/73/34 53/72/34 49/62/34 50/65/34
f 53/76/35 37/75/35 38/47/35 49/50/35
f 55/78/36 54/79/36 48/69/36 12/68/36
f 56/54/37 41/53/37 40/74/37 45/77/37
f 32/17/38 25/39/38 38/43/38 37/40/38 22/18/38
f 11/26/39 57/37/39 25/39/39 14/30/39 29/27/39
f 39/42/40 57/37/40 26/36/40
f 9/11/41 12/14/41 42/45/41
f 36/34/42 40/41/42 18/35/42
f 18/35/43 40/41/43 41/80/43
f 58/44/44 33/13/44 18/35/44 41/80/44
f 59/81/45 227/82/45 230/83/45 61/84/45
f 241/85/46 239/86/46 237/87/46 240/88/46
f 240/88/47 237/87/47 238/89/47 236/90/47
f 66/91/48 228/92/48 227/82/48 59/81/48
f 61/84/49 232/93/49 226/94/49
f 66/91/50 234/95/50 236/96/50 238/97/50 235/98/50
f 59/81/51 61/84/51 226/94/51 231/99/51
f 66/91/52 59/81/52 231/99/52 229/100/52
f 73/101/53 68/102/53 74/103/53 79/104/53
f 71/105/53 72/106/53 78/107/53 77/108/53
f 69/109/53 70/110/53 76/111/53 75/112/53
f 72/106/53 73/101/53 79/104/53 78/107/53
f 70/110/53 71/105/53 77/108/53 76/111/53
f 68/102/53 69/109/53 75/112/53 74/103/53
f 78/113/54 79/114/54 96/115/54 95/116/54 84/117/54
f 76/118/55 77/119/55 83/120/55 82/121/55
f 74/122/56 75/123/56 94/124/56 93/125/56
f 75/123/57 97/126/57 81/127/57 90/128/57 87/129/57 94/124/57
f 77/130/58 78/113/58 84/117/58 83/131/58
f 75/123/59 76/118/59 82/121/59 98/132/59 97/126/59
f 86/133/60 87/129/60 90/128/60 89/134/60
f 88/135/61 86/133/61 89/134/61 91/136/61
f 85/137/62 96/115/62 79/114/62 92/138/62 88/135/62 91/136/62
f 79/114/63 74/122/63 93/125/63 92/138/63
f 81/139/64 80/140/64 89/141/64 90/142/64
f 80/140/65 85/143/65 91/144/65 89/141/65
f 93/125/66 94/124/66 87/129/66 86/133/66
f 92/138/67 93/125/67 86/133/67 88/135/67
f 98/145/53 82/146/53 83/147/53 84/148/53 95/149/53
f 80/140/53 81/139/53 85/143/53
f 112/150/68 102/151/68 149/152/68 104/153/68 113/154/68
f 114/155/69 106/156/69 153/157/69 100/158/69 111/159/69
f 115/160/70 152/161/70 116/162/70 110/163/70 107/164/70
f 105/165/71 114/155/71 111/159/71 99/166/71
f 118/167/72 119/168/72 114/169/72 105/170/72
f 101/171/73 112/150/73 113/154/73 103/172/73
f 120/173/74 149/152/74 102/151/74 117/174/74
f 103/172/75 113/154/75 119/168/75 118/167/75
f 137/175/76 139/176/76 138/177/76 136/178/76
f 103/179/77 118/180/77 125/181/77 123/182/77
f 118/180/78 105/183/78 124/184/78 125/181/78
f 105/183/79 99/185/79 121/186/79 130/187/79 124/184/79
f 101/188/80 103/179/80 123/182/80 131/189/80 129/190/80 122/191/80
f 124/192/81 130/193/81 60/194/81 67/195/81
f 122/196/82 129/197/82 128/198/82 127/199/82
f 60/194/83 130/193/83 121/200/83 126/201/83
f 128/198/84 129/197/84 131/202/84 64/203/84
f 64/203/85 131/202/85 123/204/85 65/205/85
f 62/206/86 60/207/86 126/208/86 127/209/86 128/210/86 64/211/86 63/212/86
f 134/213/87 135/214/87 137/175/87 136/178/87
f 138/215/88 139/216/88 133/217/88 132/218/88
f 140/219/89 150/220/89 151/221/89
f 143/222/90 144/223/90 146/224/90 145/225/90
f 145/225/91 146/224/91 148/226/91 147/227/91
f 147/227/92 148/226/92 142/228/92 141/229/92
f 85/143/93 81/139/93 97/230/93 96/231/93
f 95/149/94 96/231/94 97/230/94 98/145/94
f 109/232/95 215/233/95 214/234/95 108/235/95 107/236/95 110/237/95
f 153/157/96 152/161/96 115/160/96 100/158/96
f 124/192/97 67/195/97 65/238/97 123/239/97 125/240/97
f 151/221/98 150/220/98 138/241/98 133/242/98
f 200/243/99 225/244/99 223/245/99 201/246/99
f 201/246/100 223/245/100 202/247/100
f 206/248/101 204/249/101 213/250/101 210/251/101
f 209/252/102 222/253/102 225/244/102 200/243/102
f 157/254/103 158/255/103 167/256/103 166/257/103
f 162/258/104 154/259/104 164/260/104 169/261/104
f 158/255/105 160/262/105 168/263/105 167/256/105
f 156/264/106 157/254/106 166/257/106 165/265/106
f 160/262/107 162/258/107 169/261/107 168/263/107
f 154/259/108 156/264/108 165/265/108 164/260/108
f 168/266/109 169/267/109 175/268/109 174/269/109
f 166/270/110 167/271/110 173/272/110 172/273/110
f 164/274/111 165/275/111 171/276/111 170/277/111
f 169/267/112 164/274/112 170/277/112 175/268/112
f 167/271/113 168/266/113 174/269/113 173/272/113
f 165/275/114 166/270/114 172/273/114 171/276/114
f 173/278/115 174/279/115 180/280/115 179/281/115
f 171/282/116 172/283/116 178/284/116 177/285/116
f 174/279/117 175/286/117 181/287/117 180/280/117
f 172/283/118 173/278/118 179/281/118 178/284/118
f 170/288/119 171/282/119 177/285/119 176/289/119
f 175/286/120 170/288/120 176/289/120 181/287/120
f 176/290/121 187/291/121 183/292/121 185/293/121
f 179/294/122 196/295/122 197/296/122 178/297/122
f 186/298/123 182/299/123 183/292/123 187/291/123
f 185/293/124 183/292/124 182/299/124 184/300/124
f 184/301/125 182/302/125 186/303/125 177/304/125
f 184/300/126 198/305/126 199/306/126 185/293/126
f 177/304/127 186/303/127 187/291/127 176/290/127
f 176/290/128 185/293/128 199/306/128 194/307/128 181/308/128
f 195/309/129 192/310/129 191/311/129 196/312/129
f 178/297/130 197/296/130 198/313/130 184/301/130 177/304/130
f 194/307/131 193/314/131 192/310/131 195/309/131
f 196/295/132 191/315/132 190/316/132 197/296/132
f 181/308/133 194/307/133 195/309/133 180/317/133
f 180/317/134 195/309/134 196/312/134 179/318/134
f 197/296/135 190/316/135 189/319/135 198/313/135
f 199/306/136 188/320/136 193/314/136 194/307/136
f 198/305/137 189/321/137 188/320/137 199/306/137
f 188/320/138 191/311/138 192/310/138 193/314/138
f 162/322/139 221/323/139 219/324/139 154/325/139
f 160/326/140 218/327/140 221/323/140 162/322/140
f 158/328/141 216/329/141 218/330/141 160/331/141
f 205/332/142 202/247/142 104/333/142 159/334/142
f 156/335/143 217/336/143 220/337/143 157/338/143
f 154/325/144 219/324/144 217/336/144 156/335/144
f 202/247/145 205/332/145 216/329/145 220/337/145
f 408/339/146 428/340/146 426/341/146 367/342/146 365/343/146 412/344/146 410/345/146
f 208/346/147 203/347/147 207/348/147 161/349/147
f 203/347/148 204/350/148 224/351/148 207/348/148
f 212/352/149 211/353/149 210/251/149 213/250/149
f 204/249/150 203/354/150 212/352/150 213/250/150
f 203/354/151 208/355/151 211/353/151 212/352/151
f 208/355/152 206/248/152 210/251/152 211/353/152
f 214/234/153 120/173/153 117/174/153 108/356/153
f 106/357/154 155/358/154 163/359/154 116/360/154
f 163/359/155 161/361/155 109/232/155 110/237/155
f 159/362/156 104/153/156 149/152/156
f 215/233/157 109/363/157 161/364/157 159/362/157 149/152/157 120/173/157 214/234/157
f 163/359/158 110/237/158 116/360/158
f 152/161/159 153/157/159 106/156/159 116/162/159
f 104/153/160 106/365/160 114/169/160 119/168/160 113/154/160
f 202/247/161 223/245/161 106/366/161 104/333/161
f 220/337/162 216/329/162 158/328/162 157/338/162
f 223/245/163 225/244/163 155/367/163 106/366/163
f 205/332/164 159/334/164 161/368/164 207/369/164
f 217/336/165 219/324/165 200/243/165 201/246/165
f 225/244/166 222/253/166 163/370/166 155/367/166
f 219/324/167 221/323/167 209/252/167 200/243/167
f 221/323/168 218/327/168 209/252/168
f 218/330/169 216/329/169 205/332/169 207/369/169
f 220/337/170 217/336/170 201/246/170
f 201/246/171 202/247/171 220/337/171
f 224/351/172 222/253/172 209/252/172 207/348/172
f 209/252/173 218/327/173 207/348/173
f 226/94/174 232/93/174 241/85/174 70/371/174 69/372/174
f 229/100/175 231/99/175 68/373/175 73/374/175
f 229/100/176 234/95/176 66/91/176
f 228/92/177 66/91/177 235/98/177
f 231/99/178 226/94/178 69/372/178 68/373/178
f 227/82/179 228/92/179 67/375/179 60/376/179
f 230/83/180 227/82/180 60/376/180 62/377/180
f 240/88/181 236/90/181 72/378/181 71/379/181
f 233/380/182 61/84/182 230/83/182
f 239/86/183 233/380/183 230/83/183 62/377/183 63/381/183
f 241/85/184 240/88/184 71/379/184 70/371/184
f 235/98/185 238/97/185 65/382/185 67/375/185 228/92/185
f 232/93/186 61/84/186 233/380/186 239/86/186 241/85/186
f 238/89/187 237/87/187 64/383/187 65/384/187
f 237/87/188 239/86/188 63/381/188 64/383/188
f 236/96/189 234/95/189 229/100/189 73/374/189 72/385/189
f 242/386/190 244/387/190 245/388/190 243/389/190
f 244/390/191 248/391/191 249/392/191 245/393/191
f 248/391/192 246/394/192 247/395/192 249/392/192
f 246/394/193 242/386/193 243/389/193 247/395/193
f 244/387/194 242/386/194 246/394/194 248/391/194
f 249/392/195 247/395/195 243/389/195 245/388/195
f 250/396/196 253/397/196 265/398/196 266/399/196
f 257/400/197 258/401/197 264/402/197 263/403/197
f 23/404/198 257/400/198 263/403/198 251/405/198 17/20/198
f 16/406/199 250/396/199 266/399/199 261/407/199 27/408/199
f 15/25/200 30/28/200 262/409/200 252/410/200
f 20/29/201 17/20/201 251/405/201 255/411/201
f 19/412/202 254/413/202 267/414/202 257/400/202 23/404/202
f 254/413/203 256/415/203 268/416/203 267/414/203
f 260/417/204 252/410/204 282/418/204
f 24/38/205 15/25/205 252/410/205 260/417/205
f 261/407/206 254/413/206 19/412/206 27/408/206
f 30/28/207 20/29/207 255/411/207 262/409/207
f 264/402/208 259/419/208 255/411/208 251/405/208 263/403/208
f 265/398/209 256/415/209 254/413/209 261/407/209 266/399/209
f 268/416/210 258/401/210 257/400/210 267/414/210
f 268/416/211 272/420/211 269/421/211 258/401/211
f 259/419/212 270/422/212 271/423/212 282/418/212
f 265/398/213 253/397/213 283/424/213
f 16/406/214 43/425/214 274/426/214 250/396/214
f 270/427/215 277/428/215 278/429/215 271/430/215
f 253/431/216 280/432/216 275/433/216 281/434/216 273/435/216 283/436/216
f 275/437/217 46/61/217 47/60/217 276/438/217 281/439/217
f 277/440/218 50/65/218 24/64/218 278/441/218
f 275/433/219 280/432/219 54/67/219 46/66/219
f 253/442/220 274/443/220 43/70/220 48/69/220
f 276/438/221 47/60/221 52/73/221 279/444/221
f 272/445/222 276/446/222 279/447/222 269/448/222
f 52/73/223 50/65/223 277/440/223 279/444/223
f 279/447/224 277/428/224 270/427/224 269/448/224
f 280/449/225 253/442/225 48/69/225 54/79/225
f 281/434/226 276/446/226 272/445/226 273/435/226
f 264/402/227 258/401/227 269/421/227 270/422/227 259/419/227
f 252/410/228 262/409/228 255/411/228 259/419/228 282/418/228
f 271/423/229 260/417/229 282/418/229
f 250/396/230 274/426/230 253/397/230
f 268/416/231 256/415/231 272/420/231
f 256/415/232 273/450/232 272/420/232
f 283/424/233 273/450/233 256/415/233 265/398/233
f 284/451/234 286/452/234 434/453/234 431/454/234
f 445/455/235 444/456/235 441/457/235 443/458/235
f 444/456/236 440/459/236 442/460/236 441/457/236
f 291/461/237 284/451/237 431/454/237 432/462/237
f 286/452/238 430/463/238 436/464/238
f 291/461/239 439/465/239 442/466/239 440/467/239 438/468/239
f 284/451/240 435/469/240 430/463/240 286/452/240
f 291/461/241 433/470/241 435/469/241 284/451/241
f 298/471/53 304/472/53 299/473/53 293/474/53
f 296/475/53 302/476/53 303/477/53 297/478/53
f 294/479/53 300/480/53 301/481/53 295/482/53
f 297/478/53 303/477/53 304/472/53 298/471/53
f 295/482/53 301/481/53 302/476/53 296/475/53
f 293/474/53 299/473/53 300/480/53 294/479/53
f 303/483/59 309/484/59 320/485/59 321/486/59 304/487/59
f 301/488/58 307/489/58 308/490/58 302/491/58
f 299/492/63 318/493/63 319/494/63 300/495/63
f 300/495/62 319/494/62 312/496/62 315/497/62 306/498/62 322/499/62
f 302/500/55 308/501/55 309/484/55 303/483/55
f 300/495/54 322/499/54 323/502/54 307/489/54 301/488/54
f 311/503/61 314/504/61 315/497/61 312/496/61
f 313/505/60 316/506/60 314/504/60 311/503/60
f 310/507/57 316/506/57 313/505/57 317/508/57 304/487/57 321/486/57
f 304/487/56 317/508/56 318/493/56 299/492/56
f 306/509/65 315/510/65 314/511/65 305/512/65
f 305/512/64 314/511/64 316/513/64 310/514/64
f 318/493/67 311/503/67 312/496/67 319/494/67
f 317/508/66 313/505/66 311/503/66 318/493/66
f 323/515/53 320/516/53 309/517/53 308/518/53 307/519/53
f 305/512/53 310/514/53 306/509/53
f 112/150/242 330/520/242 325/521/242 353/522/242 102/151/242
f 331/523/243 111/159/243 100/158/243 357/524/243 327/525/243
f 115/160/244 107/164/244 329/526/244 332/527/244 356/528/244
f 326/529/245 99/166/245 111/159/245 331/523/245
f 333/530/246 326/529/246 331/523/246 334/531/246
f 101/171/247 324/532/247 330/520/247 112/150/247
f 335/533/248 117/174/248 102/151/248 353/522/248
f 324/532/249 333/534/249 334/535/249 330/520/249
f 346/536/250 345/537/250 347/538/250 348/539/250
f 324/540/251 336/541/251 338/542/251 333/543/251
f 333/543/252 338/542/252 337/544/252 326/545/252
f 326/545/253 337/544/253 341/546/253 121/186/253 99/185/253
f 101/188/254 122/191/254 340/547/254 342/548/254 336/541/254 324/540/254
f 337/549/255 292/550/255 285/551/255 341/552/255
f 122/196/256 127/199/256 339/553/256 340/554/256
f 285/551/257 126/201/257 121/200/257 341/552/257
f 339/553/258 289/555/258 342/556/258 340/554/258
f 289/555/259 290/557/259 336/558/259 342/556/259
f 287/559/260 288/560/260 289/561/260 339/562/260 127/209/260 126/208/260 285/563/260
f 134/213/261 345/537/261 346/536/261 135/214/261
f 347/538/262 343/564/262 344/565/262 348/539/262
f 140/566/263 355/567/263 354/568/263
f 143/569/264 349/570/264 350/571/264 144/572/264
f 349/570/265 351/573/265 352/574/265 350/571/265
f 351/573/266 141/229/266 142/228/266 352/574/266
f 310/514/93 321/575/93 322/576/93 306/509/93
f 320/516/94 323/515/94 322/576/94 321/575/94
f 328/577/267 329/578/267 107/236/267 108/235/267 418/579/267 419/580/267
f 357/524/268 100/158/268 115/160/268 356/528/268
f 337/549/269 338/581/269 336/558/269 290/557/269 292/550/269
f 355/567/270 344/582/270 347/583/270 354/568/270
f 404/584/271 405/585/271 427/586/271 429/587/271
f 405/585/272 406/588/272 427/586/272
f 410/589/273 414/590/273 417/591/273 408/592/273
f 413/593/274 404/584/274 429/587/274 426/341/274
f 361/594/275 370/595/275 371/596/275 362/597/275
f 366/598/276 373/599/276 368/600/276 358/601/276
f 362/597/277 371/596/277 372/602/277 364/603/277
f 360/604/278 369/605/278 370/595/278 361/594/278
f 364/603/279 372/602/279 373/599/279 366/598/279
f 358/601/280 368/600/280 369/605/280 360/604/280
f 372/606/281 378/607/281 379/608/281 373/609/281
f 370/610/282 376/611/282 377/612/282 371/613/282
f 368/614/283 374/615/283 375/616/283 369/617/283
f 373/609/284 379/608/284 374/615/284 368/614/284
f 371/613/285 377/612/285 378/607/285 372/606/285
f 369/617/286 375/616/286 376/611/286 370/610/286
f 377/618/287 383/619/287 384/620/287 378/621/287
f 375/622/288 381/623/288 382/624/288 376/625/288
f 378/621/289 384/620/289 385/626/289 379/627/289
f 376/625/290 382/624/290 383/619/290 377/618/290
f 374/628/291 380/629/291 381/623/291 375/622/291
f 379/627/292 385/626/292 380/629/292 374/628/292
f 380/630/293 389/631/293 387/632/293 391/633/293
f 383/634/294 382/635/294 401/636/294 400/637/294
f 390/638/295 391/633/295 387/632/295 386/639/295
f 389/631/296 388/640/296 386/639/296 387/632/296
f 388/641/297 381/642/297 390/643/297 386/644/297
f 388/640/298 389/631/298 403/645/298 402/646/298
f 381/642/299 390/643/299 391/633/299 380/630/299
f 380/630/300 385/647/300 398/648/300 403/645/300 389/631/300
f 399/649/301 400/650/301 395/651/301 396/652/301
f 382/635/302 381/642/302 388/641/302 402/653/302 401/636/302
f 398/648/303 399/649/303 396/652/303 397/654/303
f 400/637/304 401/636/304 394/655/304 395/656/304
f 385/647/305 384/657/305 399/649/305 398/648/305
f 384/657/306 383/658/306 400/650/306 399/649/306
f 401/636/307 402/653/307 393/659/307 394/655/307
f 403/645/308 398/648/308 397/654/308 392/660/308
f 402/646/309 403/645/309 392/660/309 393/661/309
f 392/660/310 397/654/310 396/652/310 395/651/310
f 366/662/311 358/663/311 423/664/311 425/665/311
f 364/666/312 366/662/312 425/665/312 422/667/312
f 362/668/313 364/669/313 422/670/313 420/671/313
f 409/672/314 363/673/314 325/674/314 406/588/314
f 360/675/315 361/676/315 424/677/315 421/678/315
f 358/663/316 360/675/316 421/678/316 423/664/316
f 406/588/317 424/677/317 420/671/317 409/672/317
f 412/344/318 365/343/318 411/679/318 407/680/318
f 407/680/319 411/679/319 428/340/319 408/339/319
f 416/681/320 417/591/320 414/590/320 415/682/320
f 408/592/321 417/591/321 416/681/321 407/683/321
f 407/683/322 416/681/322 415/682/322 412/684/322
f 412/684/323 415/682/323 414/590/323 410/589/323
f 418/579/324 108/356/324 117/174/324 335/533/324
f 327/525/325 332/527/325 367/685/325 359/686/325
f 367/687/326 329/578/326 328/577/326 365/688/326
f 363/689/327 353/522/327 325/521/327
f 419/580/328 418/579/328 335/533/328 353/522/328 363/689/328 365/690/328 328/691/328
f 367/685/329 332/527/329 329/526/329
f 356/528/330 332/527/330 327/525/330 357/524/330
f 325/692/331 330/693/331 334/531/331 331/523/331 327/525/331
f 406/588/332 325/674/332 327/694/332 427/586/332
f 424/677/333 361/676/333 362/668/333 420/671/333
f 427/586/334 327/694/334 359/695/334 429/587/334
f 409/672/335 411/696/335 365/697/335 363/673/335
f 421/678/336 405/585/336 404/584/336 423/664/336
f 429/587/337 359/695/337 367/342/337 426/341/337
f 423/664/338 404/584/338 413/593/338 425/665/338
f 425/665/339 413/593/339 422/667/339
f 422/670/340 411/696/340 409/672/340 420/671/340
f 424/677/341 405/585/341 421/678/341
f 405/585/342 424/677/342 406/588/342
f 428/340/343 411/679/343 413/593/343 426/341/343
f 413/593/344 411/679/344 422/667/344
f 430/463/345 294/698/345 295/699/345 445/455/345 436/464/345
f 433/470/346 298/700/346 293/701/346 435/469/346
f 433/470/347 291/461/347 438/468/347
f 432/462/348 439/465/348 291/461/348
f 435/469/349 293/701/349 294/698/349 430/463/349
f 431/454/350 285/702/350 292/703/350 432/462/350
f 434/453/351 287/704/351 285/702/351 431/454/351
f 444/456/352 296/705/352 297/706/352 440/459/352
f 437/707/353 434/453/353 286/452/353
f 443/458/354 288/708/354 287/704/354 434/453/354 437/707/354
f 445/455/355 295/699/355 296/705/355 444/456/355
f 439/465/356 432/462/356 292/703/356 290/709/356 442/466/356
f 436/464/357 445/455/357 443/458/357 437/707/357 286/452/357
f 442/460/358 290/710/358 289/711/358 441/457/358
f 441/457/359 289/711/359 288/708/359 443/458/359
f 440/467/360 297/712/360 298/700/360 433/470/360 438/468/360
f 204/350/361 206/713/361 208/346/361 161/349/361 163/370/361 222/253/361 224/351/361
f 191/311/362 188/320/362 189/321/362 190/714/362
f 395/651/363 394/715/363 393/661/363 392/660/363
